<svg xmlns="http://www.w3.org/2000/svg" xmlns:xlink="http://www.w3.org/1999/xlink" width="378" zoomAndPan="magnify" viewBox="0 0 282.96 461.03998" height="605" preserveAspectRatio="xMidYMid meet" version="1.0"><defs><g/><clipPath id="37e84e30a3"><path d="M 0.273438 0 L 282.644531 0 L 282.644531 452.808594 L 0.273438 452.808594 Z M 0.273438 0 " clip-rule="nonzero"/></clipPath><clipPath id="49ac2785fd"><path d="M 14.417969 14.144531 L 269.003906 14.144531 L 269.003906 438.789062 L 14.417969 438.789062 Z M 14.417969 14.144531 " clip-rule="nonzero"/></clipPath><clipPath id="83b51f5c46"><path d="M 18.910156 14.144531 L 264.515625 14.144531 C 266.996094 14.144531 269.003906 16.15625 269.003906 18.632812 L 269.003906 433.964844 C 269.003906 436.445312 266.996094 438.457031 264.515625 438.457031 L 18.910156 438.457031 C 16.429688 438.457031 14.417969 436.445312 14.417969 433.964844 L 14.417969 18.632812 C 14.417969 16.15625 16.429688 14.144531 18.910156 14.144531 Z M 18.910156 14.144531 " clip-rule="nonzero"/></clipPath><clipPath id="a4fd2962c1"><path d="M 0.417969 0.144531 L 255.003906 0.144531 L 255.003906 424.527344 L 0.417969 424.527344 Z M 0.417969 0.144531 " clip-rule="nonzero"/></clipPath><clipPath id="17928fd41e"><path d="M 4.910156 0.144531 L 250.515625 0.144531 C 252.996094 0.144531 255.003906 2.15625 255.003906 4.632812 L 255.003906 419.964844 C 255.003906 422.445312 252.996094 424.457031 250.515625 424.457031 L 4.910156 424.457031 C 2.429688 424.457031 0.417969 422.445312 0.417969 419.964844 L 0.417969 4.632812 C 0.417969 2.15625 2.429688 0.144531 4.910156 0.144531 Z M 4.910156 0.144531 " clip-rule="nonzero"/></clipPath><clipPath id="134c6bd278"><rect x="0" width="256" y="0" height="425"/></clipPath><clipPath id="f45f02cfca"><path d="M 14.417969 14.144531 L 268.886719 14.144531 L 268.886719 438.453125 L 14.417969 438.453125 Z M 14.417969 14.144531 " clip-rule="nonzero"/></clipPath><clipPath id="52ce6dcb54"><path d="M 18.910156 14.144531 L 264.511719 14.144531 C 266.992188 14.144531 269.003906 16.152344 269.003906 18.632812 L 269.003906 433.960938 C 269.003906 436.441406 266.992188 438.453125 264.511719 438.453125 L 18.910156 438.453125 C 16.429688 438.453125 14.417969 436.441406 14.417969 433.960938 L 14.417969 18.632812 C 14.417969 16.152344 16.429688 14.144531 18.910156 14.144531 Z M 18.910156 14.144531 " clip-rule="nonzero"/></clipPath><clipPath id="16d58d4505"><path d="M 28.5625 28.289062 L 254.589844 28.289062 L 254.589844 424.214844 L 28.5625 424.214844 Z M 28.5625 28.289062 " clip-rule="nonzero"/></clipPath><clipPath id="c9e9fde824"><path d="M 33.054688 28.289062 L 250.367188 28.289062 C 252.847656 28.289062 254.859375 30.296875 254.859375 32.777344 L 254.859375 419.816406 C 254.859375 422.296875 252.847656 424.308594 250.367188 424.308594 L 33.054688 424.308594 C 30.574219 424.308594 28.5625 422.296875 28.5625 419.816406 L 28.5625 32.777344 C 28.5625 30.296875 30.574219 28.289062 33.054688 28.289062 Z M 33.054688 28.289062 " clip-rule="nonzero"/></clipPath><clipPath id="76ee2b034c"><path d="M 31.117188 30.824219 L 252.554688 30.824219 L 252.554688 421.511719 L 31.117188 421.511719 Z M 31.117188 30.824219 " clip-rule="nonzero"/></clipPath><clipPath id="3677a6599d"><path d="M 35.609375 30.824219 L 247.8125 30.824219 C 250.292969 30.824219 252.304688 32.835938 252.304688 35.316406 L 252.304688 417.242188 C 252.304688 419.722656 250.292969 421.734375 247.8125 421.734375 L 35.609375 421.734375 C 33.128906 421.734375 31.117188 419.722656 31.117188 417.242188 L 31.117188 35.316406 C 31.117188 32.835938 33.128906 30.824219 35.609375 30.824219 Z M 35.609375 30.824219 " clip-rule="nonzero"/></clipPath><clipPath id="329ae27532"><path d="M 33.871094 33.578125 L 249.417969 33.578125 L 249.417969 419 L 33.871094 419 Z M 33.871094 33.578125 " clip-rule="nonzero"/></clipPath><clipPath id="0e995215d2"><path d="M 38.359375 33.578125 L 245.058594 33.578125 C 247.539062 33.578125 249.546875 35.589844 249.546875 38.070312 L 249.546875 414.488281 C 249.546875 416.96875 247.539062 418.976562 245.058594 418.976562 L 38.359375 418.976562 C 35.878906 418.976562 33.871094 416.96875 33.871094 414.488281 L 33.871094 38.070312 C 33.871094 35.589844 35.878906 33.578125 38.359375 33.578125 Z M 38.359375 33.578125 " clip-rule="nonzero"/></clipPath><clipPath id="688487e7b2"><path d="M 28.519531 28.289062 L 85.3125 28.289062 L 85.3125 84.863281 L 28.519531 84.863281 Z M 28.519531 28.289062 " clip-rule="nonzero"/></clipPath><clipPath id="eb0a44e99e"><path d="M 31.511719 28.289062 L 82.144531 28.289062 C 83.796875 28.289062 85.136719 29.628906 85.136719 31.28125 L 85.136719 81.867188 C 85.136719 83.523438 83.796875 84.863281 82.144531 84.863281 L 31.511719 84.863281 C 29.859375 84.863281 28.519531 83.523438 28.519531 81.867188 L 28.519531 31.28125 C 28.519531 29.628906 29.859375 28.289062 31.511719 28.289062 Z M 31.511719 28.289062 " clip-rule="nonzero"/></clipPath><clipPath id="c73f5ad11d"><path d="M 0.519531 0.289062 L 57.296875 0.289062 L 57.296875 56.863281 L 0.519531 56.863281 Z M 0.519531 0.289062 " clip-rule="nonzero"/></clipPath><clipPath id="2f64ffd46e"><path d="M 3.511719 0.289062 L 54.144531 0.289062 C 55.796875 0.289062 57.136719 1.628906 57.136719 3.28125 L 57.136719 53.867188 C 57.136719 55.523438 55.796875 56.863281 54.144531 56.863281 L 3.511719 56.863281 C 1.859375 56.863281 0.519531 55.523438 0.519531 53.867188 L 0.519531 3.28125 C 0.519531 1.628906 1.859375 0.289062 3.511719 0.289062 Z M 3.511719 0.289062 " clip-rule="nonzero"/></clipPath><clipPath id="9b5163c1e6"><rect x="0" width="58" y="0" height="57"/></clipPath><clipPath id="e9e21dba62"><path d="M 28.519531 28.289062 L 85.398438 28.289062 L 85.398438 85 L 28.519531 85 Z M 28.519531 28.289062 " clip-rule="nonzero"/></clipPath><clipPath id="c301ebd828"><path d="M 31.511719 28.289062 L 82.136719 28.289062 C 83.789062 28.289062 85.128906 29.628906 85.128906 31.28125 L 85.128906 81.859375 C 85.128906 83.511719 83.789062 84.851562 82.136719 84.851562 L 31.511719 84.851562 C 29.859375 84.851562 28.519531 83.511719 28.519531 81.859375 L 28.519531 31.28125 C 28.519531 29.628906 29.859375 28.289062 31.511719 28.289062 Z M 31.511719 28.289062 " clip-rule="nonzero"/></clipPath><clipPath id="7d29fbbbd2"><path d="M 41.289062 84.863281 L 242.132812 84.863281 L 242.132812 285.703125 L 41.289062 285.703125 Z M 41.289062 84.863281 " clip-rule="nonzero"/></clipPath><clipPath id="4c543f8e81"><path d="M 141.710938 84.863281 C 86.25 84.863281 41.289062 129.824219 41.289062 185.285156 C 41.289062 240.746094 86.25 285.703125 141.710938 285.703125 C 197.171875 285.703125 242.132812 240.746094 242.132812 185.285156 C 242.132812 129.824219 197.171875 84.863281 141.710938 84.863281 Z M 141.710938 84.863281 " clip-rule="nonzero"/></clipPath><clipPath id="261291e446"><path d="M 0.289062 0.863281 L 201.132812 0.863281 L 201.132812 201.703125 L 0.289062 201.703125 Z M 0.289062 0.863281 " clip-rule="nonzero"/></clipPath><clipPath id="9c7a445d48"><path d="M 100.710938 0.863281 C 45.25 0.863281 0.289062 45.824219 0.289062 101.285156 C 0.289062 156.746094 45.25 201.703125 100.710938 201.703125 C 156.171875 201.703125 201.132812 156.746094 201.132812 101.285156 C 201.132812 45.824219 156.171875 0.863281 100.710938 0.863281 Z M 100.710938 0.863281 " clip-rule="nonzero"/></clipPath><clipPath id="e7551cb55a"><rect x="0" width="202" y="0" height="202"/></clipPath><clipPath id="12a8ba82fb"><path d="M 41.289062 84.863281 L 241.875 84.863281 L 241.875 285.445312 L 41.289062 285.445312 Z M 41.289062 84.863281 " clip-rule="nonzero"/></clipPath><clipPath id="f8f0395db8"><path d="M 141.710938 84.863281 C 86.25 84.863281 41.289062 129.820312 41.289062 185.28125 C 41.289062 240.742188 86.25 285.703125 141.710938 285.703125 C 197.171875 285.703125 242.128906 240.742188 242.128906 185.28125 C 242.128906 129.820312 197.171875 84.863281 141.710938 84.863281 Z M 141.710938 84.863281 " clip-rule="nonzero"/></clipPath></defs><g clip-path="url(#37e84e30a3)"><path fill="#ffffff" d="M 0.273438 0 L 283.183594 0 L 283.183594 452.808594 L 0.273438 452.808594 Z M 0.273438 0 " fill-opacity="1" fill-rule="nonzero"/><path fill="#ffffff" d="M 0.273438 0 L 283.183594 0 L 283.183594 452.808594 L 0.273438 452.808594 Z M 0.273438 0 " fill-opacity="1" fill-rule="nonzero"/></g><g clip-path="url(#49ac2785fd)"><g clip-path="url(#83b51f5c46)"><g transform="matrix(1, 0, 0, 1, 14, 14)"><g clip-path="url(#134c6bd278)"><g clip-path="url(#a4fd2962c1)"><g clip-path="url(#17928fd41e)"><path fill="#ffd9c2" d="M 0.417969 0.144531 L 255.003906 0.144531 L 255.003906 424.789062 L 0.417969 424.789062 Z M 0.417969 0.144531 " fill-opacity="1" fill-rule="nonzero"/></g></g></g></g></g></g><g clip-path="url(#f45f02cfca)"><g clip-path="url(#52ce6dcb54)"><path stroke-linecap="butt" transform="matrix(0.748442, 0, 0, 0.748442, 14.417809, 14.143776)" fill="none" stroke-linejoin="miter" d="M 6.002269 0.00100844 L 334.152898 0.00100844 C 337.467076 0.00100844 340.154953 2.683666 340.154953 5.997845 L 340.154953 560.921778 C 340.154953 564.235957 337.467076 566.923833 334.152898 566.923833 L 6.002269 566.923833 C 2.688091 566.923833 0.000213988 564.235957 0.000213988 560.921778 L 0.000213988 5.997845 C 0.000213988 2.683666 2.688091 0.00100844 6.002269 0.00100844 Z M 6.002269 0.00100844 " stroke="#000000" stroke-width="4" stroke-opacity="1" stroke-miterlimit="4"/></g></g><g clip-path="url(#16d58d4505)"><g clip-path="url(#c9e9fde824)"><path stroke-linecap="butt" transform="matrix(0.748442, 0, 0, 0.748442, 28.561585, 28.287553)" fill="none" stroke-linejoin="miter" d="M 6.003278 0.0020172 L 296.356616 0.0020172 C 299.670794 0.0020172 302.358671 2.684675 302.358671 5.998853 L 302.358671 523.125496 C 302.358671 526.439675 299.670794 529.127552 296.356616 529.127552 L 6.003278 529.127552 C 2.6891 529.127552 0.00122275 526.439675 0.00122275 523.125496 L 0.00122275 5.998853 C 0.00122275 2.684675 2.6891 0.0020172 6.003278 0.0020172 Z M 6.003278 0.0020172 " stroke="#000000" stroke-width="4" stroke-opacity="1" stroke-miterlimit="4"/></g></g><g clip-path="url(#76ee2b034c)"><g clip-path="url(#3677a6599d)"><path stroke-linecap="butt" transform="matrix(0.748441, 0, 0, 0.748441, 31.116206, 30.825349)" fill="none" stroke-linejoin="miter" d="M 6.003367 -0.00150983 L 289.530037 -0.00150983 C 292.844216 -0.00150983 295.532093 2.686367 295.532093 6.000546 L 295.532093 516.295317 C 295.532093 519.609495 292.844216 522.297373 289.530037 522.297373 L 6.003367 522.297373 C 2.689188 522.297373 0.0013113 519.609495 0.0013113 516.295317 L 0.0013113 6.000546 C 0.0013113 2.686367 2.689188 -0.00150983 6.003367 -0.00150983 Z M 6.003367 -0.00150983 " stroke="#000000" stroke-width="4" stroke-opacity="1" stroke-miterlimit="4"/></g></g><g clip-path="url(#329ae27532)"><g clip-path="url(#0e995215d2)"><path stroke-linecap="butt" transform="matrix(0.748442, 0, 0, 0.748442, 33.868742, 33.577885)" fill="none" stroke-linejoin="miter" d="M 5.999978 0.000321004 L 282.172808 0.000321004 C 285.486986 0.000321004 288.169644 2.688198 288.169644 6.002376 L 288.169644 508.938073 C 288.169644 512.252251 285.486986 514.934909 282.172808 514.934909 L 5.999978 514.934909 C 2.6858 514.934909 0.00314181 512.252251 0.00314181 508.938073 L 0.00314181 6.002376 C 0.00314181 2.688198 2.6858 0.000321004 5.999978 0.000321004 Z M 5.999978 0.000321004 " stroke="#000000" stroke-width="4" stroke-opacity="1" stroke-miterlimit="4"/></g></g><g clip-path="url(#688487e7b2)"><g clip-path="url(#eb0a44e99e)"><g transform="matrix(1, 0, 0, 1, 28, 28)"><g clip-path="url(#9b5163c1e6)"><g clip-path="url(#c73f5ad11d)"><g clip-path="url(#2f64ffd46e)"><path fill="#ffffff" d="M 0.519531 0.289062 L 57.09375 0.289062 L 57.09375 56.863281 L 0.519531 56.863281 Z M 0.519531 0.289062 " fill-opacity="1" fill-rule="nonzero"/></g></g></g></g></g></g><g clip-path="url(#e9e21dba62)"><g clip-path="url(#c301ebd828)"><path stroke-linecap="butt" transform="matrix(0.748442, 0, 0, 0.748442, 28.518171, 28.287553)" fill="none" stroke-linejoin="miter" d="M 3.999708 0.0020172 L 71.640261 0.0020172 C 73.847974 0.0020172 75.638152 1.792195 75.638152 3.999908 L 75.638152 71.577831 C 75.638152 73.785543 73.847974 75.575722 71.640261 75.575722 L 3.999708 75.575722 C 1.791995 75.575722 0.00181722 73.785543 0.00181722 71.577831 L 0.00181722 3.999908 C 0.00181722 1.792195 1.791995 0.0020172 3.999708 0.0020172 Z M 3.999708 0.0020172 " stroke="#000000" stroke-width="4" stroke-opacity="1" stroke-miterlimit="4"/></g></g><g fill="#000000" fill-opacity="1"><g transform="translate(41.253371, 65.709627)"><g><path d="M 13.796875 -13.46875 C 13.796875 -12.820312 13.710938 -12.195312 13.546875 -11.59375 C 13.390625 -10.988281 13.132812 -10.382812 12.78125 -9.78125 C 12.425781 -9.1875 11.96875 -8.59375 11.40625 -8 C 10.851562 -7.40625 10.195312 -6.785156 9.4375 -6.140625 L 6.75 -3.921875 C 6.332031 -3.617188 5.957031 -3.382812 5.625 -3.21875 C 5.4375 -3.113281 5.253906 -3.023438 5.078125 -2.953125 L 5.078125 -2.859375 C 5.328125 -2.867188 5.585938 -2.882812 5.859375 -2.90625 C 6.097656 -2.90625 6.359375 -2.910156 6.640625 -2.921875 C 6.929688 -2.929688 7.222656 -2.9375 7.515625 -2.9375 L 14.03125 -2.9375 L 14.03125 0 L 1.5 0 L 1.5 -3.421875 L 7.46875 -8.28125 C 8.5625 -9.175781 9.34375 -10.015625 9.8125 -10.796875 C 10.289062 -11.585938 10.53125 -12.425781 10.53125 -13.3125 C 10.53125 -14.15625 10.28125 -14.828125 9.78125 -15.328125 C 9.28125 -15.828125 8.597656 -16.078125 7.734375 -16.078125 C 6.796875 -16.078125 6.050781 -15.832031 5.5 -15.34375 C 4.945312 -14.863281 4.671875 -14.226562 4.671875 -13.4375 L 1.375 -13.4375 C 1.394531 -14.269531 1.554688 -15.019531 1.859375 -15.6875 C 2.171875 -16.363281 2.601562 -16.9375 3.15625 -17.40625 C 3.71875 -17.882812 4.390625 -18.257812 5.171875 -18.53125 C 5.960938 -18.800781 6.832031 -18.9375 7.78125 -18.9375 C 8.675781 -18.9375 9.492188 -18.804688 10.234375 -18.546875 C 10.984375 -18.285156 11.617188 -17.910156 12.140625 -17.421875 C 12.671875 -16.941406 13.078125 -16.367188 13.359375 -15.703125 C 13.648438 -15.035156 13.796875 -14.289062 13.796875 -13.46875 Z M 13.796875 -13.46875 "/></g></g></g><g fill="#000000" fill-opacity="1"><g transform="translate(56.816297, 65.709627)"><g><path d="M 1.421875 0 L 1.421875 -18.671875 L 5.265625 -18.671875 L 7.3125 -12.734375 C 7.382812 -12.546875 7.445312 -12.335938 7.5 -12.109375 C 7.550781 -11.890625 7.59375 -11.679688 7.625 -11.484375 C 7.675781 -11.265625 7.71875 -11.050781 7.75 -10.84375 L 7.9375 -10.84375 C 7.96875 -11.050781 8.007812 -11.265625 8.0625 -11.484375 C 8.113281 -11.679688 8.164062 -11.890625 8.21875 -12.109375 C 8.269531 -12.335938 8.332031 -12.546875 8.40625 -12.734375 L 10.265625 -18.671875 L 14.15625 -18.671875 L 14.15625 0 L 11.25 0 L 11.25 -12.109375 C 11.25 -12.503906 11.265625 -12.914062 11.296875 -13.34375 C 11.335938 -13.78125 11.375 -14.179688 11.40625 -14.546875 C 11.445312 -14.984375 11.492188 -15.410156 11.546875 -15.828125 L 11.3125 -15.828125 C 11.21875 -15.421875 11.125 -15.03125 11.03125 -14.65625 C 10.9375 -14.320312 10.847656 -13.976562 10.765625 -13.625 C 10.679688 -13.269531 10.59375 -12.945312 10.5 -12.65625 L 9.15625 -8.21875 L 6.453125 -8.21875 L 5.03125 -12.65625 C 4.945312 -12.945312 4.859375 -13.269531 4.765625 -13.625 C 4.679688 -13.976562 4.597656 -14.320312 4.515625 -14.65625 C 4.429688 -15.03125 4.351562 -15.421875 4.28125 -15.828125 L 4.015625 -15.828125 C 4.066406 -15.410156 4.117188 -14.984375 4.171875 -14.546875 C 4.210938 -14.179688 4.242188 -13.78125 4.265625 -13.34375 C 4.296875 -12.914062 4.3125 -12.503906 4.3125 -12.109375 L 4.3125 0 Z M 1.421875 0 "/></g></g></g><g fill="#000000" fill-opacity="1"><g transform="translate(55.53783, 361.204413)"><g><path d="M 0.796875 0 L 4.3125 -12.921875 L 6.578125 -12.921875 L 9.984375 0 L 8.265625 0 L 7.359375 -3.640625 L 3.390625 -3.640625 L 2.484375 0 Z M 3.734375 -4.984375 L 7.03125 -4.984375 L 5.78125 -10.109375 C 5.71875 -10.359375 5.660156 -10.585938 5.609375 -10.796875 C 5.566406 -11.003906 5.535156 -11.191406 5.515625 -11.359375 C 5.484375 -11.546875 5.457031 -11.707031 5.4375 -11.84375 L 5.375 -11.84375 C 5.34375 -11.707031 5.3125 -11.546875 5.28125 -11.359375 C 5.257812 -11.191406 5.222656 -11.003906 5.171875 -10.796875 C 5.117188 -10.585938 5.066406 -10.359375 5.015625 -10.109375 Z M 3.734375 -4.984375 "/></g></g></g><g fill="#000000" fill-opacity="1"><g transform="translate(66.308394, 361.204413)"><g><path d="M 5.59375 -13.109375 L 5.59375 -2.875 C 5.59375 -2.425781 5.710938 -2.078125 5.953125 -1.828125 C 6.191406 -1.585938 6.523438 -1.46875 6.953125 -1.46875 L 9.875 -1.46875 L 9.875 0 L 6.953125 0 C 6.023438 0 5.296875 -0.253906 4.765625 -0.765625 C 4.242188 -1.273438 3.984375 -1.976562 3.984375 -2.875 L 3.984375 -11.640625 L 0.71875 -11.640625 L 0.71875 -13.109375 Z M 5.59375 -13.109375 "/></g></g></g><g fill="#000000" fill-opacity="1"><g transform="translate(77.078957, 361.204413)"><g><path d="M 5.59375 -13.109375 L 5.59375 -2.875 C 5.59375 -2.425781 5.710938 -2.078125 5.953125 -1.828125 C 6.191406 -1.585938 6.523438 -1.46875 6.953125 -1.46875 L 9.875 -1.46875 L 9.875 0 L 6.953125 0 C 6.023438 0 5.296875 -0.253906 4.765625 -0.765625 C 4.242188 -1.273438 3.984375 -1.976562 3.984375 -2.875 L 3.984375 -11.640625 L 0.71875 -11.640625 L 0.71875 -13.109375 Z M 5.59375 -13.109375 "/></g></g></g><g fill="#000000" fill-opacity="1"><g transform="translate(87.849521, 361.204413)"><g/></g></g><g fill="#000000" fill-opacity="1"><g transform="translate(98.620085, 361.204413)"><g><path d="M 3.109375 -9.875 L 3.109375 -8.171875 L 3.25 -8.171875 C 3.40625 -8.765625 3.722656 -9.222656 4.203125 -9.546875 C 4.679688 -9.878906 5.285156 -10.046875 6.015625 -10.046875 C 6.515625 -10.046875 6.96875 -9.957031 7.375 -9.78125 C 7.78125 -9.601562 8.125 -9.347656 8.40625 -9.015625 C 8.695312 -8.691406 8.921875 -8.289062 9.078125 -7.8125 C 9.242188 -7.332031 9.328125 -6.789062 9.328125 -6.1875 L 9.328125 -3.6875 C 9.328125 -3.082031 9.242188 -2.539062 9.078125 -2.0625 C 8.921875 -1.582031 8.695312 -1.175781 8.40625 -0.84375 C 8.125 -0.519531 7.78125 -0.269531 7.375 -0.09375 C 6.96875 0.0820312 6.515625 0.171875 6.015625 0.171875 C 5.285156 0.171875 4.679688 0.0078125 4.203125 -0.3125 C 3.722656 -0.644531 3.40625 -1.109375 3.25 -1.703125 L 3.109375 -1.703125 C 3.117188 -1.503906 3.132812 -1.300781 3.15625 -1.09375 C 3.164062 -0.914062 3.175781 -0.726562 3.1875 -0.53125 C 3.195312 -0.34375 3.203125 -0.164062 3.203125 0 L 3.203125 2.96875 L 1.578125 2.96875 L 1.578125 -9.875 Z M 3.203125 -3.6875 C 3.203125 -2.925781 3.398438 -2.320312 3.796875 -1.875 C 4.203125 -1.4375 4.738281 -1.21875 5.40625 -1.21875 C 6.125 -1.21875 6.6875 -1.4375 7.09375 -1.875 C 7.507812 -2.320312 7.71875 -2.925781 7.71875 -3.6875 L 7.71875 -6.1875 C 7.71875 -6.96875 7.515625 -7.570312 7.109375 -8 C 6.703125 -8.4375 6.132812 -8.65625 5.40625 -8.65625 C 4.738281 -8.65625 4.203125 -8.429688 3.796875 -7.984375 C 3.398438 -7.546875 3.203125 -6.945312 3.203125 -6.1875 Z M 3.203125 -3.6875 "/></g></g></g><g fill="#000000" fill-opacity="1"><g transform="translate(109.390648, 361.204413)"><g><path d="M 5.59375 -13.109375 L 5.59375 -2.875 C 5.59375 -2.425781 5.710938 -2.078125 5.953125 -1.828125 C 6.191406 -1.585938 6.523438 -1.46875 6.953125 -1.46875 L 9.875 -1.46875 L 9.875 0 L 6.953125 0 C 6.023438 0 5.296875 -0.253906 4.765625 -0.765625 C 4.242188 -1.273438 3.984375 -1.976562 3.984375 -2.875 L 3.984375 -11.640625 L 0.71875 -11.640625 L 0.71875 -13.109375 Z M 5.59375 -13.109375 "/></g></g></g><g fill="#000000" fill-opacity="1"><g transform="translate(120.161212, 361.204413)"><g><path d="M 1.125 -2.875 C 1.125 -3.34375 1.203125 -3.765625 1.359375 -4.140625 C 1.523438 -4.515625 1.757812 -4.832031 2.0625 -5.09375 C 2.375 -5.363281 2.742188 -5.566406 3.171875 -5.703125 C 3.609375 -5.847656 4.09375 -5.921875 4.625 -5.921875 L 7.578125 -5.921875 L 7.578125 -6.734375 C 7.578125 -7.335938 7.375 -7.8125 6.96875 -8.15625 C 6.570312 -8.5 6 -8.671875 5.25 -8.671875 C 4.695312 -8.671875 4.222656 -8.566406 3.828125 -8.359375 C 3.441406 -8.160156 3.179688 -7.878906 3.046875 -7.515625 L 1.4375 -7.515625 C 1.601562 -8.296875 2.03125 -8.910156 2.71875 -9.359375 C 3.40625 -9.816406 4.257812 -10.046875 5.28125 -10.046875 C 6.5 -10.046875 7.453125 -9.757812 8.140625 -9.1875 C 8.835938 -8.625 9.1875 -7.835938 9.1875 -6.828125 L 9.1875 0 L 7.71875 0 L 7.71875 -1.890625 L 7.578125 -1.890625 C 7.421875 -1.253906 7.054688 -0.75 6.484375 -0.375 C 5.910156 -0.0078125 5.207031 0.171875 4.375 0.171875 C 3.382812 0.171875 2.59375 -0.0976562 2 -0.640625 C 1.414062 -1.191406 1.125 -1.9375 1.125 -2.875 Z M 4.734375 -1.15625 C 5.140625 -1.15625 5.515625 -1.207031 5.859375 -1.3125 C 6.210938 -1.414062 6.515625 -1.566406 6.765625 -1.765625 C 7.015625 -1.960938 7.210938 -2.191406 7.359375 -2.453125 C 7.503906 -2.722656 7.578125 -3.015625 7.578125 -3.328125 L 7.578125 -4.671875 L 4.671875 -4.671875 C 4.066406 -4.671875 3.59375 -4.515625 3.25 -4.203125 C 2.914062 -3.890625 2.75 -3.457031 2.75 -2.90625 C 2.75 -2.351562 2.921875 -1.921875 3.265625 -1.609375 C 3.609375 -1.304688 4.097656 -1.15625 4.734375 -1.15625 Z M 4.734375 -1.15625 "/></g></g></g><g fill="#000000" fill-opacity="1"><g transform="translate(130.931776, 361.204413)"><g><path d="M 2.6875 -9.875 L 4.953125 -4.203125 C 5.054688 -3.921875 5.140625 -3.660156 5.203125 -3.421875 C 5.273438 -3.179688 5.332031 -2.972656 5.375 -2.796875 C 5.414062 -2.566406 5.441406 -2.363281 5.453125 -2.1875 L 5.578125 -2.1875 C 5.585938 -2.363281 5.617188 -2.5625 5.671875 -2.78125 C 5.710938 -2.96875 5.757812 -3.179688 5.8125 -3.421875 C 5.875 -3.660156 5.953125 -3.921875 6.046875 -4.203125 L 8.125 -9.875 L 9.875 -9.875 L 5.078125 2.96875 L 3.359375 2.96875 L 4.71875 -0.71875 L 0.890625 -9.875 Z M 2.6875 -9.875 "/></g></g></g><g fill="#000000" fill-opacity="1"><g transform="translate(141.70234, 361.204413)"><g><path d="M 5.390625 0.171875 C 4.148438 0.171875 3.179688 -0.160156 2.484375 -0.828125 C 1.785156 -1.492188 1.4375 -2.414062 1.4375 -3.59375 L 1.4375 -6.28125 C 1.4375 -7.457031 1.785156 -8.378906 2.484375 -9.046875 C 3.179688 -9.710938 4.148438 -10.046875 5.390625 -10.046875 C 6.617188 -10.046875 7.582031 -9.710938 8.28125 -9.046875 C 8.976562 -8.378906 9.328125 -7.457031 9.328125 -6.28125 L 9.328125 -4.46875 L 3.046875 -4.46875 L 3.046875 -3.6875 C 3.046875 -2.925781 3.253906 -2.328125 3.671875 -1.890625 C 4.085938 -1.460938 4.660156 -1.25 5.390625 -1.25 C 5.921875 -1.25 6.382812 -1.332031 6.78125 -1.5 C 7.175781 -1.675781 7.472656 -1.925781 7.671875 -2.25 L 9.28125 -2.25 C 9.082031 -1.488281 8.628906 -0.894531 7.921875 -0.46875 C 7.222656 -0.0390625 6.378906 0.171875 5.390625 0.171875 Z M 7.71875 -5.8125 L 7.71875 -6.28125 C 7.71875 -7.019531 7.515625 -7.59375 7.109375 -8 C 6.703125 -8.414062 6.128906 -8.625 5.390625 -8.625 C 4.640625 -8.625 4.0625 -8.414062 3.65625 -8 C 3.25 -7.59375 3.046875 -7.019531 3.046875 -6.28125 L 3.046875 -5.8125 Z M 7.71875 -5.8125 "/></g></g></g><g fill="#000000" fill-opacity="1"><g transform="translate(152.472903, 361.204413)"><g><path d="M 2.015625 -9.875 L 3.53125 -9.875 L 3.53125 -8.171875 L 3.6875 -8.171875 C 3.832031 -8.753906 4.148438 -9.210938 4.640625 -9.546875 C 5.140625 -9.878906 5.75 -10.046875 6.46875 -10.046875 C 7.507812 -10.046875 8.320312 -9.71875 8.90625 -9.0625 C 9.5 -8.414062 9.796875 -7.523438 9.796875 -6.390625 L 9.796875 -5.828125 L 8.1875 -5.828125 L 8.1875 -6.1875 C 8.1875 -6.96875 7.988281 -7.570312 7.59375 -8 C 7.207031 -8.425781 6.65625 -8.640625 5.9375 -8.640625 C 5.238281 -8.640625 4.675781 -8.421875 4.25 -7.984375 C 3.832031 -7.546875 3.625 -6.945312 3.625 -6.1875 L 3.625 0 L 2.015625 0 Z M 2.015625 -9.875 "/></g></g></g><g fill="#000000" fill-opacity="1"><g transform="translate(163.243467, 361.204413)"><g><path d="M 5.109375 0.171875 C 4.078125 0.171875 3.222656 -0.0625 2.546875 -0.53125 C 1.867188 -1 1.476562 -1.628906 1.375 -2.421875 L 3.09375 -2.421875 C 3.164062 -2.078125 3.382812 -1.796875 3.75 -1.578125 C 4.125 -1.359375 4.578125 -1.25 5.109375 -1.25 L 5.625 -1.25 C 6.269531 -1.25 6.769531 -1.382812 7.125 -1.65625 C 7.488281 -1.925781 7.671875 -2.289062 7.671875 -2.75 C 7.671875 -3.519531 7.117188 -3.992188 6.015625 -4.171875 L 4.53125 -4.375 C 3.550781 -4.519531 2.820312 -4.828125 2.34375 -5.296875 C 1.875 -5.765625 1.640625 -6.414062 1.640625 -7.25 C 1.640625 -8.132812 1.953125 -8.820312 2.578125 -9.3125 C 3.203125 -9.800781 4.078125 -10.046875 5.203125 -10.046875 L 5.703125 -10.046875 C 6.179688 -10.046875 6.625 -9.984375 7.03125 -9.859375 C 7.4375 -9.742188 7.796875 -9.578125 8.109375 -9.359375 C 8.421875 -9.140625 8.675781 -8.875 8.875 -8.5625 C 9.070312 -8.257812 9.203125 -7.925781 9.265625 -7.5625 L 7.5625 -7.5625 C 7.488281 -7.875 7.28125 -8.128906 6.9375 -8.328125 C 6.601562 -8.523438 6.191406 -8.625 5.703125 -8.625 L 5.203125 -8.625 C 4.597656 -8.625 4.125 -8.503906 3.78125 -8.265625 C 3.4375 -8.023438 3.265625 -7.664062 3.265625 -7.1875 C 3.265625 -6.800781 3.378906 -6.507812 3.609375 -6.3125 C 3.847656 -6.113281 4.226562 -5.976562 4.75 -5.90625 L 6.25 -5.6875 C 7.3125 -5.53125 8.082031 -5.21875 8.5625 -4.75 C 9.050781 -4.289062 9.296875 -3.628906 9.296875 -2.765625 C 9.296875 -1.835938 8.972656 -1.113281 8.328125 -0.59375 C 7.691406 -0.0820312 6.789062 0.171875 5.625 0.171875 Z M 5.109375 0.171875 "/></g></g></g><g fill="#000000" fill-opacity="1"><g transform="translate(174.014031, 361.204413)"><g/></g></g><g fill="#000000" fill-opacity="1"><g transform="translate(184.784594, 361.204413)"><g><path d="M 1.3125 -6.28125 C 1.3125 -6.851562 1.390625 -7.375 1.546875 -7.84375 C 1.703125 -8.3125 1.925781 -8.707031 2.21875 -9.03125 C 2.507812 -9.351562 2.863281 -9.601562 3.28125 -9.78125 C 3.695312 -9.957031 4.164062 -10.046875 4.6875 -10.046875 C 5.40625 -10.046875 6.015625 -9.875 6.515625 -9.53125 C 7.015625 -9.195312 7.359375 -8.710938 7.546875 -8.078125 L 7.671875 -8.078125 L 7.671875 -9.875 L 9.1875 -9.875 L 9.1875 -0.71875 C 9.1875 0.4375 8.84375 1.335938 8.15625 1.984375 C 7.476562 2.640625 6.523438 2.96875 5.296875 2.96875 L 2.875 2.96875 L 2.875 1.484375 L 5.296875 1.484375 C 6.015625 1.484375 6.570312 1.289062 6.96875 0.90625 C 7.375 0.53125 7.578125 -0.0078125 7.578125 -0.71875 L 7.578125 -1.078125 L 7.640625 -2.875 L 7.546875 -2.875 C 7.359375 -2.238281 7.015625 -1.75 6.515625 -1.40625 C 6.015625 -1.0625 5.40625 -0.890625 4.6875 -0.890625 C 4.164062 -0.890625 3.695312 -0.976562 3.28125 -1.15625 C 2.875 -1.34375 2.523438 -1.597656 2.234375 -1.921875 C 1.941406 -2.242188 1.710938 -2.640625 1.546875 -3.109375 C 1.390625 -3.578125 1.3125 -4.097656 1.3125 -4.671875 Z M 2.96875 -4.671875 C 2.96875 -3.929688 3.171875 -3.347656 3.578125 -2.921875 C 3.992188 -2.503906 4.5625 -2.296875 5.28125 -2.296875 C 6 -2.296875 6.5625 -2.503906 6.96875 -2.921875 C 7.375 -3.347656 7.578125 -3.929688 7.578125 -4.671875 L 7.578125 -6.28125 C 7.578125 -7.019531 7.375 -7.597656 6.96875 -8.015625 C 6.5625 -8.441406 6 -8.65625 5.28125 -8.65625 C 4.5625 -8.65625 3.992188 -8.441406 3.578125 -8.015625 C 3.171875 -7.597656 2.96875 -7.019531 2.96875 -6.28125 Z M 2.96875 -4.671875 "/></g></g></g><g fill="#000000" fill-opacity="1"><g transform="translate(195.555158, 361.204413)"><g><path d="M 1.703125 0 L 1.703125 -1.46875 L 5.296875 -1.46875 L 5.296875 -8.40625 L 2.15625 -8.40625 L 2.15625 -9.875 L 6.90625 -9.875 L 6.90625 -1.46875 L 9.875 -1.46875 L 9.875 0 Z M 5.65625 -13.734375 L 6.015625 -13.734375 C 6.359375 -13.734375 6.640625 -13.628906 6.859375 -13.421875 C 7.078125 -13.222656 7.1875 -12.960938 7.1875 -12.640625 C 7.1875 -12.316406 7.078125 -12.054688 6.859375 -11.859375 C 6.640625 -11.671875 6.359375 -11.578125 6.015625 -11.578125 L 5.65625 -11.578125 C 5.3125 -11.578125 5.03125 -11.671875 4.8125 -11.859375 C 4.59375 -12.046875 4.484375 -12.304688 4.484375 -12.640625 C 4.484375 -12.960938 4.59375 -13.222656 4.8125 -13.421875 C 5.03125 -13.628906 5.3125 -13.734375 5.65625 -13.734375 Z M 5.65625 -13.734375 "/></g></g></g><g fill="#000000" fill-opacity="1"><g transform="translate(206.325722, 361.204413)"><g><path d="M 0.890625 -9.875 L 2.609375 -9.875 L 5.015625 -2.890625 C 5.109375 -2.617188 5.175781 -2.375 5.21875 -2.15625 C 5.269531 -1.945312 5.304688 -1.773438 5.328125 -1.640625 C 5.359375 -1.453125 5.375 -1.296875 5.375 -1.171875 L 5.53125 -1.171875 C 5.519531 -1.296875 5.523438 -1.453125 5.546875 -1.640625 C 5.566406 -1.773438 5.59375 -1.945312 5.625 -2.15625 C 5.664062 -2.375 5.734375 -2.617188 5.828125 -2.890625 L 8.109375 -9.875 L 9.875 -9.875 L 6.34375 0 L 4.5 0 Z M 0.890625 -9.875 "/></g></g></g><g fill="#000000" fill-opacity="1"><g transform="translate(217.096286, 361.204413)"><g><path d="M 5.390625 0.171875 C 4.148438 0.171875 3.179688 -0.160156 2.484375 -0.828125 C 1.785156 -1.492188 1.4375 -2.414062 1.4375 -3.59375 L 1.4375 -6.28125 C 1.4375 -7.457031 1.785156 -8.378906 2.484375 -9.046875 C 3.179688 -9.710938 4.148438 -10.046875 5.390625 -10.046875 C 6.617188 -10.046875 7.582031 -9.710938 8.28125 -9.046875 C 8.976562 -8.378906 9.328125 -7.457031 9.328125 -6.28125 L 9.328125 -4.46875 L 3.046875 -4.46875 L 3.046875 -3.6875 C 3.046875 -2.925781 3.253906 -2.328125 3.671875 -1.890625 C 4.085938 -1.460938 4.660156 -1.25 5.390625 -1.25 C 5.921875 -1.25 6.382812 -1.332031 6.78125 -1.5 C 7.175781 -1.675781 7.472656 -1.925781 7.671875 -2.25 L 9.28125 -2.25 C 9.082031 -1.488281 8.628906 -0.894531 7.921875 -0.46875 C 7.222656 -0.0390625 6.378906 0.171875 5.390625 0.171875 Z M 7.71875 -5.8125 L 7.71875 -6.28125 C 7.71875 -7.019531 7.515625 -7.59375 7.109375 -8 C 6.703125 -8.414062 6.128906 -8.625 5.390625 -8.625 C 4.640625 -8.625 4.0625 -8.414062 3.65625 -8 C 3.25 -7.59375 3.046875 -7.019531 3.046875 -6.28125 L 3.046875 -5.8125 Z M 7.71875 -5.8125 "/></g></g></g><g fill="#000000" fill-opacity="1"><g transform="translate(60.917253, 385.902983)"><g><path d="M 2.6875 -9.875 L 4.953125 -4.203125 C 5.054688 -3.921875 5.140625 -3.660156 5.203125 -3.421875 C 5.273438 -3.179688 5.332031 -2.972656 5.375 -2.796875 C 5.414062 -2.566406 5.441406 -2.363281 5.453125 -2.1875 L 5.578125 -2.1875 C 5.585938 -2.363281 5.617188 -2.5625 5.671875 -2.78125 C 5.710938 -2.96875 5.757812 -3.179688 5.8125 -3.421875 C 5.875 -3.660156 5.953125 -3.921875 6.046875 -4.203125 L 8.125 -9.875 L 9.875 -9.875 L 5.078125 2.96875 L 3.359375 2.96875 L 4.71875 -0.71875 L 0.890625 -9.875 Z M 2.6875 -9.875 "/></g></g></g><g fill="#000000" fill-opacity="1"><g transform="translate(71.687817, 385.902983)"><g><path d="M 3.046875 -3.6875 C 3.046875 -2.925781 3.253906 -2.328125 3.671875 -1.890625 C 4.085938 -1.460938 4.660156 -1.25 5.390625 -1.25 C 6.109375 -1.25 6.675781 -1.460938 7.09375 -1.890625 C 7.507812 -2.328125 7.71875 -2.925781 7.71875 -3.6875 L 7.71875 -6.1875 C 7.71875 -6.945312 7.507812 -7.539062 7.09375 -7.96875 C 6.675781 -8.40625 6.109375 -8.625 5.390625 -8.625 C 4.671875 -8.625 4.097656 -8.40625 3.671875 -7.96875 C 3.253906 -7.539062 3.046875 -6.945312 3.046875 -6.1875 Z M 1.4375 -6.1875 C 1.4375 -6.789062 1.53125 -7.328125 1.71875 -7.796875 C 1.90625 -8.273438 2.164062 -8.679688 2.5 -9.015625 C 2.84375 -9.347656 3.253906 -9.601562 3.734375 -9.78125 C 4.222656 -9.957031 4.773438 -10.046875 5.390625 -10.046875 C 6.609375 -10.046875 7.566406 -9.703125 8.265625 -9.015625 C 8.972656 -8.335938 9.328125 -7.40625 9.328125 -6.21875 L 9.328125 -3.6875 C 9.328125 -3.082031 9.238281 -2.539062 9.0625 -2.0625 C 8.882812 -1.582031 8.625 -1.175781 8.28125 -0.84375 C 7.945312 -0.519531 7.53125 -0.269531 7.03125 -0.09375 C 6.539062 0.0820312 5.992188 0.171875 5.390625 0.171875 C 4.773438 0.171875 4.222656 0.0820312 3.734375 -0.09375 C 3.253906 -0.269531 2.84375 -0.523438 2.5 -0.859375 C 2.164062 -1.191406 1.90625 -1.597656 1.71875 -2.078125 C 1.53125 -2.554688 1.4375 -3.09375 1.4375 -3.6875 Z M 1.4375 -6.1875 "/></g></g></g><g fill="#000000" fill-opacity="1"><g transform="translate(82.458381, 385.902983)"><g><path d="M 1.609375 -9.875 L 3.234375 -9.875 L 3.234375 -3.484375 C 3.234375 -1.984375 3.945312 -1.234375 5.375 -1.234375 C 6.820312 -1.234375 7.546875 -1.984375 7.546875 -3.484375 L 7.546875 -9.875 L 9.15625 -9.875 L 9.15625 -3.484375 C 9.15625 -2.304688 8.828125 -1.398438 8.171875 -0.765625 C 7.523438 -0.140625 6.59375 0.171875 5.375 0.171875 C 4.175781 0.171875 3.25 -0.144531 2.59375 -0.78125 C 1.9375 -1.414062 1.609375 -2.316406 1.609375 -3.484375 Z M 1.609375 -9.875 "/></g></g></g><g fill="#000000" fill-opacity="1"><g transform="translate(93.228944, 385.902983)"><g/></g></g><g fill="#000000" fill-opacity="1"><g transform="translate(103.999508, 385.902983)"><g><path d="M 9.203125 -9.515625 C 9.203125 -8.546875 8.9375 -7.609375 8.40625 -6.703125 C 7.875 -5.796875 7.03125 -4.84375 5.875 -3.84375 L 3.703125 -1.953125 C 3.640625 -1.910156 3.570312 -1.863281 3.5 -1.8125 C 3.425781 -1.757812 3.351562 -1.710938 3.28125 -1.671875 C 3.1875 -1.609375 3.097656 -1.554688 3.015625 -1.515625 L 3.015625 -1.4375 C 3.203125 -1.445312 3.390625 -1.453125 3.578125 -1.453125 C 3.742188 -1.460938 3.910156 -1.46875 4.078125 -1.46875 C 4.253906 -1.46875 4.414062 -1.46875 4.5625 -1.46875 L 9.328125 -1.46875 L 9.328125 0 L 1.25 0 L 1.25 -1.796875 L 4.671875 -4.71875 C 5.179688 -5.164062 5.617188 -5.585938 5.984375 -5.984375 C 6.347656 -6.378906 6.644531 -6.765625 6.875 -7.140625 C 7.101562 -7.523438 7.269531 -7.910156 7.375 -8.296875 C 7.488281 -8.679688 7.546875 -9.082031 7.546875 -9.5 C 7.546875 -10.164062 7.34375 -10.691406 6.9375 -11.078125 C 6.539062 -11.472656 6 -11.671875 5.3125 -11.671875 C 4.5625 -11.671875 3.960938 -11.472656 3.515625 -11.078125 C 3.066406 -10.679688 2.84375 -10.160156 2.84375 -9.515625 L 1.171875 -9.515625 C 1.191406 -10.054688 1.300781 -10.546875 1.5 -10.984375 C 1.707031 -11.429688 1.992188 -11.804688 2.359375 -12.109375 C 2.722656 -12.421875 3.15625 -12.664062 3.65625 -12.84375 C 4.15625 -13.019531 4.707031 -13.109375 5.3125 -13.109375 C 5.914062 -13.109375 6.453125 -13.023438 6.921875 -12.859375 C 7.398438 -12.691406 7.804688 -12.453125 8.140625 -12.140625 C 8.484375 -11.828125 8.742188 -11.445312 8.921875 -11 C 9.109375 -10.5625 9.203125 -10.066406 9.203125 -9.515625 Z M 9.203125 -9.515625 "/></g></g></g><g fill="#000000" fill-opacity="1"><g transform="translate(114.770072, 385.902983)"><g><path d="M 1.34375 0 L 1.34375 -12.921875 L 3.359375 -12.921875 L 4.9375 -8.546875 C 5 -8.410156 5.050781 -8.253906 5.09375 -8.078125 C 5.144531 -7.910156 5.1875 -7.753906 5.21875 -7.609375 C 5.269531 -7.429688 5.320312 -7.257812 5.375 -7.09375 L 5.46875 -7.09375 C 5.519531 -7.257812 5.570312 -7.429688 5.625 -7.609375 C 5.664062 -7.753906 5.710938 -7.910156 5.765625 -8.078125 C 5.828125 -8.253906 5.878906 -8.410156 5.921875 -8.546875 L 7.421875 -12.921875 L 9.421875 -12.921875 L 9.421875 0 L 7.9375 0 L 7.9375 -9.0625 C 7.9375 -9.257812 7.9375 -9.476562 7.9375 -9.71875 C 7.945312 -9.957031 7.960938 -10.1875 7.984375 -10.40625 C 7.992188 -10.675781 8.007812 -10.941406 8.03125 -11.203125 L 7.921875 -11.203125 C 7.847656 -10.953125 7.773438 -10.707031 7.703125 -10.46875 C 7.640625 -10.25 7.566406 -10.015625 7.484375 -9.765625 C 7.410156 -9.515625 7.335938 -9.28125 7.265625 -9.0625 L 6.15625 -5.75 L 4.65625 -5.75 L 3.53125 -9.0625 C 3.457031 -9.289062 3.378906 -9.53125 3.296875 -9.78125 C 3.210938 -10.03125 3.144531 -10.265625 3.09375 -10.484375 C 3.019531 -10.734375 2.945312 -10.976562 2.875 -11.21875 L 2.78125 -11.21875 C 2.789062 -10.957031 2.800781 -10.695312 2.8125 -10.4375 C 2.8125 -10.21875 2.816406 -9.984375 2.828125 -9.734375 C 2.835938 -9.492188 2.84375 -9.269531 2.84375 -9.0625 L 2.84375 0 Z M 1.34375 0 "/></g></g></g><g fill="#000000" fill-opacity="1"><g transform="translate(125.540635, 385.902983)"><g/></g></g><g fill="#000000" fill-opacity="1"><g transform="translate(136.311199, 385.902983)"><g><path d="M 1.078125 -7.421875 L 1.078125 -8.890625 L 3.953125 -8.890625 L 3.953125 -10.59375 C 3.953125 -11.382812 4.195312 -12 4.6875 -12.4375 C 5.175781 -12.882812 5.851562 -13.109375 6.71875 -13.109375 L 9.609375 -13.109375 L 9.609375 -11.640625 L 6.71875 -11.640625 C 5.945312 -11.640625 5.5625 -11.289062 5.5625 -10.59375 L 5.5625 -8.890625 L 9.609375 -8.890625 L 9.609375 -7.421875 L 5.5625 -7.421875 L 5.5625 0 L 3.953125 0 L 3.953125 -7.421875 Z M 1.078125 -7.421875 "/></g></g></g><g fill="#000000" fill-opacity="1"><g transform="translate(147.081763, 385.902983)"><g><path d="M 3.046875 -3.6875 C 3.046875 -2.925781 3.253906 -2.328125 3.671875 -1.890625 C 4.085938 -1.460938 4.660156 -1.25 5.390625 -1.25 C 6.109375 -1.25 6.675781 -1.460938 7.09375 -1.890625 C 7.507812 -2.328125 7.71875 -2.925781 7.71875 -3.6875 L 7.71875 -6.1875 C 7.71875 -6.945312 7.507812 -7.539062 7.09375 -7.96875 C 6.675781 -8.40625 6.109375 -8.625 5.390625 -8.625 C 4.671875 -8.625 4.097656 -8.40625 3.671875 -7.96875 C 3.253906 -7.539062 3.046875 -6.945312 3.046875 -6.1875 Z M 1.4375 -6.1875 C 1.4375 -6.789062 1.53125 -7.328125 1.71875 -7.796875 C 1.90625 -8.273438 2.164062 -8.679688 2.5 -9.015625 C 2.84375 -9.347656 3.253906 -9.601562 3.734375 -9.78125 C 4.222656 -9.957031 4.773438 -10.046875 5.390625 -10.046875 C 6.609375 -10.046875 7.566406 -9.703125 8.265625 -9.015625 C 8.972656 -8.335938 9.328125 -7.40625 9.328125 -6.21875 L 9.328125 -3.6875 C 9.328125 -3.082031 9.238281 -2.539062 9.0625 -2.0625 C 8.882812 -1.582031 8.625 -1.175781 8.28125 -0.84375 C 7.945312 -0.519531 7.53125 -0.269531 7.03125 -0.09375 C 6.539062 0.0820312 5.992188 0.171875 5.390625 0.171875 C 4.773438 0.171875 4.222656 0.0820312 3.734375 -0.09375 C 3.253906 -0.269531 2.84375 -0.523438 2.5 -0.859375 C 2.164062 -1.191406 1.90625 -1.597656 1.71875 -2.078125 C 1.53125 -2.554688 1.4375 -3.09375 1.4375 -3.6875 Z M 1.4375 -6.1875 "/></g></g></g><g fill="#000000" fill-opacity="1"><g transform="translate(157.852327, 385.902983)"><g><path d="M 2.015625 -9.875 L 3.53125 -9.875 L 3.53125 -8.171875 L 3.6875 -8.171875 C 3.832031 -8.753906 4.148438 -9.210938 4.640625 -9.546875 C 5.140625 -9.878906 5.75 -10.046875 6.46875 -10.046875 C 7.507812 -10.046875 8.320312 -9.71875 8.90625 -9.0625 C 9.5 -8.414062 9.796875 -7.523438 9.796875 -6.390625 L 9.796875 -5.828125 L 8.1875 -5.828125 L 8.1875 -6.1875 C 8.1875 -6.96875 7.988281 -7.570312 7.59375 -8 C 7.207031 -8.425781 6.65625 -8.640625 5.9375 -8.640625 C 5.238281 -8.640625 4.675781 -8.421875 4.25 -7.984375 C 3.832031 -7.546875 3.625 -6.945312 3.625 -6.1875 L 3.625 0 L 2.015625 0 Z M 2.015625 -9.875 "/></g></g></g><g fill="#000000" fill-opacity="1"><g transform="translate(168.62289, 385.902983)"><g/></g></g><g fill="#000000" fill-opacity="1"><g transform="translate(179.393454, 385.902983)"><g><path d="M 2.6875 -9.875 L 4.953125 -4.203125 C 5.054688 -3.921875 5.140625 -3.660156 5.203125 -3.421875 C 5.273438 -3.179688 5.332031 -2.972656 5.375 -2.796875 C 5.414062 -2.566406 5.441406 -2.363281 5.453125 -2.1875 L 5.578125 -2.1875 C 5.585938 -2.363281 5.617188 -2.5625 5.671875 -2.78125 C 5.710938 -2.96875 5.757812 -3.179688 5.8125 -3.421875 C 5.875 -3.660156 5.953125 -3.921875 6.046875 -4.203125 L 8.125 -9.875 L 9.875 -9.875 L 5.078125 2.96875 L 3.359375 2.96875 L 4.71875 -0.71875 L 0.890625 -9.875 Z M 2.6875 -9.875 "/></g></g></g><g fill="#000000" fill-opacity="1"><g transform="translate(190.164018, 385.902983)"><g><path d="M 3.046875 -3.6875 C 3.046875 -2.925781 3.253906 -2.328125 3.671875 -1.890625 C 4.085938 -1.460938 4.660156 -1.25 5.390625 -1.25 C 6.109375 -1.25 6.675781 -1.460938 7.09375 -1.890625 C 7.507812 -2.328125 7.71875 -2.925781 7.71875 -3.6875 L 7.71875 -6.1875 C 7.71875 -6.945312 7.507812 -7.539062 7.09375 -7.96875 C 6.675781 -8.40625 6.109375 -8.625 5.390625 -8.625 C 4.671875 -8.625 4.097656 -8.40625 3.671875 -7.96875 C 3.253906 -7.539062 3.046875 -6.945312 3.046875 -6.1875 Z M 1.4375 -6.1875 C 1.4375 -6.789062 1.53125 -7.328125 1.71875 -7.796875 C 1.90625 -8.273438 2.164062 -8.679688 2.5 -9.015625 C 2.84375 -9.347656 3.253906 -9.601562 3.734375 -9.78125 C 4.222656 -9.957031 4.773438 -10.046875 5.390625 -10.046875 C 6.609375 -10.046875 7.566406 -9.703125 8.265625 -9.015625 C 8.972656 -8.335938 9.328125 -7.40625 9.328125 -6.21875 L 9.328125 -3.6875 C 9.328125 -3.082031 9.238281 -2.539062 9.0625 -2.0625 C 8.882812 -1.582031 8.625 -1.175781 8.28125 -0.84375 C 7.945312 -0.519531 7.53125 -0.269531 7.03125 -0.09375 C 6.539062 0.0820312 5.992188 0.171875 5.390625 0.171875 C 4.773438 0.171875 4.222656 0.0820312 3.734375 -0.09375 C 3.253906 -0.269531 2.84375 -0.523438 2.5 -0.859375 C 2.164062 -1.191406 1.90625 -1.597656 1.71875 -2.078125 C 1.53125 -2.554688 1.4375 -3.09375 1.4375 -3.6875 Z M 1.4375 -6.1875 "/></g></g></g><g fill="#000000" fill-opacity="1"><g transform="translate(200.934581, 385.902983)"><g><path d="M 1.609375 -9.875 L 3.234375 -9.875 L 3.234375 -3.484375 C 3.234375 -1.984375 3.945312 -1.234375 5.375 -1.234375 C 6.820312 -1.234375 7.546875 -1.984375 7.546875 -3.484375 L 7.546875 -9.875 L 9.15625 -9.875 L 9.15625 -3.484375 C 9.15625 -2.304688 8.828125 -1.398438 8.171875 -0.765625 C 7.523438 -0.140625 6.59375 0.171875 5.375 0.171875 C 4.175781 0.171875 3.25 -0.144531 2.59375 -0.78125 C 1.9375 -1.414062 1.609375 -2.316406 1.609375 -3.484375 Z M 1.609375 -9.875 "/></g></g></g><g fill="#000000" fill-opacity="1"><g transform="translate(211.705145, 385.902983)"><g><path d="M 2.015625 -9.875 L 3.53125 -9.875 L 3.53125 -8.171875 L 3.6875 -8.171875 C 3.832031 -8.753906 4.148438 -9.210938 4.640625 -9.546875 C 5.140625 -9.878906 5.75 -10.046875 6.46875 -10.046875 C 7.507812 -10.046875 8.320312 -9.71875 8.90625 -9.0625 C 9.5 -8.414062 9.796875 -7.523438 9.796875 -6.390625 L 9.796875 -5.828125 L 8.1875 -5.828125 L 8.1875 -6.1875 C 8.1875 -6.96875 7.988281 -7.570312 7.59375 -8 C 7.207031 -8.425781 6.65625 -8.640625 5.9375 -8.640625 C 5.238281 -8.640625 4.675781 -8.421875 4.25 -7.984375 C 3.832031 -7.546875 3.625 -6.945312 3.625 -6.1875 L 3.625 0 L 2.015625 0 Z M 2.015625 -9.875 "/></g></g></g><g fill="#000000" fill-opacity="1"><g transform="translate(109.390534, 410.601552)"><g><path d="M 3.109375 -9.875 L 3.109375 -8.171875 L 3.25 -8.171875 C 3.40625 -8.765625 3.722656 -9.222656 4.203125 -9.546875 C 4.679688 -9.878906 5.285156 -10.046875 6.015625 -10.046875 C 6.515625 -10.046875 6.96875 -9.957031 7.375 -9.78125 C 7.78125 -9.601562 8.125 -9.347656 8.40625 -9.015625 C 8.695312 -8.691406 8.921875 -8.289062 9.078125 -7.8125 C 9.242188 -7.332031 9.328125 -6.789062 9.328125 -6.1875 L 9.328125 -3.6875 C 9.328125 -3.082031 9.242188 -2.539062 9.078125 -2.0625 C 8.921875 -1.582031 8.695312 -1.175781 8.40625 -0.84375 C 8.125 -0.519531 7.78125 -0.269531 7.375 -0.09375 C 6.96875 0.0820312 6.515625 0.171875 6.015625 0.171875 C 5.285156 0.171875 4.679688 0.0078125 4.203125 -0.3125 C 3.722656 -0.644531 3.40625 -1.109375 3.25 -1.703125 L 3.109375 -1.703125 C 3.117188 -1.503906 3.132812 -1.300781 3.15625 -1.09375 C 3.164062 -0.914062 3.175781 -0.726562 3.1875 -0.53125 C 3.195312 -0.34375 3.203125 -0.164062 3.203125 0 L 3.203125 2.96875 L 1.578125 2.96875 L 1.578125 -9.875 Z M 3.203125 -3.6875 C 3.203125 -2.925781 3.398438 -2.320312 3.796875 -1.875 C 4.203125 -1.4375 4.738281 -1.21875 5.40625 -1.21875 C 6.125 -1.21875 6.6875 -1.4375 7.09375 -1.875 C 7.507812 -2.320312 7.71875 -2.925781 7.71875 -3.6875 L 7.71875 -6.1875 C 7.71875 -6.96875 7.515625 -7.570312 7.109375 -8 C 6.703125 -8.4375 6.132812 -8.65625 5.40625 -8.65625 C 4.738281 -8.65625 4.203125 -8.429688 3.796875 -7.984375 C 3.398438 -7.546875 3.203125 -6.945312 3.203125 -6.1875 Z M 3.203125 -3.6875 "/></g></g></g><g fill="#000000" fill-opacity="1"><g transform="translate(120.161098, 410.601552)"><g><path d="M 1.125 -2.875 C 1.125 -3.34375 1.203125 -3.765625 1.359375 -4.140625 C 1.523438 -4.515625 1.757812 -4.832031 2.0625 -5.09375 C 2.375 -5.363281 2.742188 -5.566406 3.171875 -5.703125 C 3.609375 -5.847656 4.09375 -5.921875 4.625 -5.921875 L 7.578125 -5.921875 L 7.578125 -6.734375 C 7.578125 -7.335938 7.375 -7.8125 6.96875 -8.15625 C 6.570312 -8.5 6 -8.671875 5.25 -8.671875 C 4.695312 -8.671875 4.222656 -8.566406 3.828125 -8.359375 C 3.441406 -8.160156 3.179688 -7.878906 3.046875 -7.515625 L 1.4375 -7.515625 C 1.601562 -8.296875 2.03125 -8.910156 2.71875 -9.359375 C 3.40625 -9.816406 4.257812 -10.046875 5.28125 -10.046875 C 6.5 -10.046875 7.453125 -9.757812 8.140625 -9.1875 C 8.835938 -8.625 9.1875 -7.835938 9.1875 -6.828125 L 9.1875 0 L 7.71875 0 L 7.71875 -1.890625 L 7.578125 -1.890625 C 7.421875 -1.253906 7.054688 -0.75 6.484375 -0.375 C 5.910156 -0.0078125 5.207031 0.171875 4.375 0.171875 C 3.382812 0.171875 2.59375 -0.0976562 2 -0.640625 C 1.414062 -1.191406 1.125 -1.9375 1.125 -2.875 Z M 4.734375 -1.15625 C 5.140625 -1.15625 5.515625 -1.207031 5.859375 -1.3125 C 6.210938 -1.414062 6.515625 -1.566406 6.765625 -1.765625 C 7.015625 -1.960938 7.210938 -2.191406 7.359375 -2.453125 C 7.503906 -2.722656 7.578125 -3.015625 7.578125 -3.328125 L 7.578125 -4.671875 L 4.671875 -4.671875 C 4.066406 -4.671875 3.59375 -4.515625 3.25 -4.203125 C 2.914062 -3.890625 2.75 -3.457031 2.75 -2.90625 C 2.75 -2.351562 2.921875 -1.921875 3.265625 -1.609375 C 3.609375 -1.304688 4.097656 -1.15625 4.734375 -1.15625 Z M 4.734375 -1.15625 "/></g></g></g><g fill="#000000" fill-opacity="1"><g transform="translate(130.931662, 410.601552)"><g><path d="M 2.015625 -9.875 L 3.53125 -9.875 L 3.53125 -8.171875 L 3.6875 -8.171875 C 3.832031 -8.753906 4.148438 -9.210938 4.640625 -9.546875 C 5.140625 -9.878906 5.75 -10.046875 6.46875 -10.046875 C 7.507812 -10.046875 8.320312 -9.71875 8.90625 -9.0625 C 9.5 -8.414062 9.796875 -7.523438 9.796875 -6.390625 L 9.796875 -5.828125 L 8.1875 -5.828125 L 8.1875 -6.1875 C 8.1875 -6.96875 7.988281 -7.570312 7.59375 -8 C 7.207031 -8.425781 6.65625 -8.640625 5.9375 -8.640625 C 5.238281 -8.640625 4.675781 -8.421875 4.25 -7.984375 C 3.832031 -7.546875 3.625 -6.945312 3.625 -6.1875 L 3.625 0 L 2.015625 0 Z M 2.015625 -9.875 "/></g></g></g><g fill="#000000" fill-opacity="1"><g transform="translate(141.702225, 410.601552)"><g><path d="M 1.078125 -9.875 L 3.953125 -9.875 L 3.953125 -12.921875 L 5.5625 -12.921875 L 5.5625 -9.875 L 9.421875 -9.875 L 9.421875 -8.40625 L 5.5625 -8.40625 L 5.5625 -2.546875 C 5.5625 -2.210938 5.664062 -1.945312 5.875 -1.75 C 6.082031 -1.5625 6.367188 -1.46875 6.734375 -1.46875 L 9.25 -1.46875 L 9.25 0 L 6.734375 0 C 5.878906 0 5.203125 -0.234375 4.703125 -0.703125 C 4.203125 -1.171875 3.953125 -1.785156 3.953125 -2.546875 L 3.953125 -8.40625 L 1.078125 -8.40625 Z M 1.078125 -9.875 "/></g></g></g><g fill="#000000" fill-opacity="1"><g transform="translate(152.472789, 410.601552)"><g><path d="M 2.6875 -9.875 L 4.953125 -4.203125 C 5.054688 -3.921875 5.140625 -3.660156 5.203125 -3.421875 C 5.273438 -3.179688 5.332031 -2.972656 5.375 -2.796875 C 5.414062 -2.566406 5.441406 -2.363281 5.453125 -2.1875 L 5.578125 -2.1875 C 5.585938 -2.363281 5.617188 -2.5625 5.671875 -2.78125 C 5.710938 -2.96875 5.757812 -3.179688 5.8125 -3.421875 C 5.875 -3.660156 5.953125 -3.921875 6.046875 -4.203125 L 8.125 -9.875 L 9.875 -9.875 L 5.078125 2.96875 L 3.359375 2.96875 L 4.71875 -0.71875 L 0.890625 -9.875 Z M 2.6875 -9.875 "/></g></g></g><g fill="#000000" fill-opacity="1"><g transform="translate(163.243353, 410.601552)"><g><path d="M 3.84375 -1.421875 C 3.84375 -1.890625 3.984375 -2.265625 4.265625 -2.546875 C 4.546875 -2.828125 4.921875 -2.96875 5.390625 -2.96875 C 5.859375 -2.96875 6.234375 -2.828125 6.515625 -2.546875 C 6.796875 -2.265625 6.9375 -1.890625 6.9375 -1.421875 C 6.9375 -0.941406 6.796875 -0.554688 6.515625 -0.265625 C 6.234375 0.0234375 5.859375 0.171875 5.390625 0.171875 C 4.921875 0.171875 4.546875 0.0234375 4.265625 -0.265625 C 3.984375 -0.554688 3.84375 -0.941406 3.84375 -1.421875 Z M 3.84375 -1.421875 "/></g></g></g><g clip-path="url(#7d29fbbbd2)"><g clip-path="url(#4c543f8e81)"><g transform="matrix(1, 0, 0, 1, 41, 84)"><g clip-path="url(#e7551cb55a)"><g clip-path="url(#261291e446)"><g clip-path="url(#9c7a445d48)"><path fill="#ffffff" d="M 0.289062 0.863281 L 201.132812 0.863281 L 201.132812 201.703125 L 0.289062 201.703125 Z M 0.289062 0.863281 " fill-opacity="1" fill-rule="nonzero"/></g></g></g></g></g></g><g clip-path="url(#12a8ba82fb)"><g clip-path="url(#f8f0395db8)"><path stroke-linecap="butt" transform="matrix(0.748441, 0, 0, 0.748441, 41.290983, 84.86266)" fill="none" stroke-linejoin="miter" d="M 134.172084 0.000829534 C 60.070183 0.000829534 -0.00256561 60.068359 -0.00256561 134.17026 C -0.00256561 208.27216 60.070183 268.344909 134.172084 268.344909 C 208.273985 268.344909 268.341514 208.27216 268.341514 134.17026 C 268.341514 60.068359 208.273985 0.000829534 134.172084 0.000829534 Z M 134.172084 0.000829534 " stroke="#000000" stroke-width="10" stroke-opacity="1" stroke-miterlimit="4"/></g></g><g fill="#000000" fill-opacity="1"><g transform="translate(101.283246, 176.172523)"><g><path d="M 8.484375 -19.390625 C 9.546875 -19.390625 10.5 -19.25 11.34375 -18.96875 C 12.1875 -18.695312 12.90625 -18.296875 13.5 -17.765625 C 14.09375 -17.234375 14.550781 -16.59375 14.875 -15.84375 C 15.195312 -15.101562 15.359375 -14.265625 15.359375 -13.328125 C 15.359375 -12.410156 15.195312 -11.578125 14.875 -10.828125 C 14.550781 -10.078125 14.09375 -9.441406 13.5 -8.921875 C 12.90625 -8.398438 12.1875 -7.992188 11.34375 -7.703125 C 10.5 -7.410156 9.546875 -7.265625 8.484375 -7.265625 L 5.734375 -7.265625 L 5.734375 0 L 1.703125 0 L 1.703125 -19.390625 Z M 5.734375 -16.03125 L 5.734375 -10.640625 L 8.484375 -10.640625 C 9.378906 -10.640625 10.070312 -10.882812 10.5625 -11.375 C 11.0625 -11.875 11.3125 -12.523438 11.3125 -13.328125 C 11.3125 -14.140625 11.0625 -14.789062 10.5625 -15.28125 C 10.070312 -15.78125 9.378906 -16.03125 8.484375 -16.03125 Z M 5.734375 -16.03125 "/></g></g></g><g fill="#000000" fill-opacity="1"><g transform="translate(117.449587, 176.172523)"><g><path d="M 0.265625 0 L 5.4375 -19.390625 L 10.828125 -19.390625 L 15.890625 0 L 11.796875 0 L 10.78125 -4.4375 L 5.359375 -4.4375 L 4.34375 0 Z M 6.09375 -7.59375 L 10.015625 -7.59375 L 8.546875 -13.984375 C 8.484375 -14.253906 8.425781 -14.546875 8.375 -14.859375 C 8.320312 -15.171875 8.28125 -15.472656 8.25 -15.765625 C 8.207031 -16.066406 8.171875 -16.378906 8.140625 -16.703125 L 7.96875 -16.703125 C 7.9375 -16.378906 7.894531 -16.066406 7.84375 -15.765625 C 7.800781 -15.472656 7.757812 -15.171875 7.71875 -14.859375 C 7.675781 -14.546875 7.617188 -14.253906 7.546875 -13.984375 Z M 6.09375 -7.59375 "/></g></g></g><g fill="#000000" fill-opacity="1"><g transform="translate(133.615928, 176.172523)"><g><path d="M 1.75 -19.390625 L 8.21875 -19.390625 C 9.28125 -19.390625 10.234375 -19.25 11.078125 -18.96875 C 11.921875 -18.695312 12.632812 -18.304688 13.21875 -17.796875 C 13.8125 -17.285156 14.269531 -16.664062 14.59375 -15.9375 C 14.914062 -15.207031 15.078125 -14.382812 15.078125 -13.46875 C 15.078125 -12.207031 14.769531 -11.128906 14.15625 -10.234375 C 13.550781 -9.335938 12.710938 -8.65625 11.640625 -8.1875 L 15.359375 0 L 11.046875 0 L 7.765625 -7.546875 L 5.765625 -7.546875 L 5.765625 0 L 1.75 0 Z M 5.765625 -10.640625 L 8.21875 -10.640625 C 9.09375 -10.640625 9.78125 -10.875 10.28125 -11.34375 C 10.789062 -11.820312 11.046875 -12.46875 11.046875 -13.28125 C 11.046875 -14.125 10.789062 -14.789062 10.28125 -15.28125 C 9.769531 -15.78125 9.082031 -16.03125 8.21875 -16.03125 L 5.765625 -16.03125 Z M 5.765625 -10.640625 "/></g></g></g><g fill="#000000" fill-opacity="1"><g transform="translate(149.782269, 176.172523)"><g><path d="M 0.9375 -19.390625 L 15.21875 -19.390625 L 15.21875 -15.625 L 10.09375 -15.625 L 10.09375 0 L 6.0625 0 L 6.0625 -15.625 L 0.9375 -15.625 Z M 0.9375 -19.390625 "/></g></g></g><g fill="#000000" fill-opacity="1"><g transform="translate(165.948609, 176.172523)"><g><path d="M 0.40625 -19.390625 L 4.640625 -19.390625 L 7.515625 -12.53125 C 7.660156 -12.21875 7.765625 -11.914062 7.828125 -11.625 C 7.890625 -11.34375 7.9375 -11.085938 7.96875 -10.859375 C 8.007812 -10.585938 8.035156 -10.332031 8.046875 -10.09375 L 8.25 -10.09375 C 8.257812 -10.332031 8.285156 -10.585938 8.328125 -10.859375 C 8.359375 -11.085938 8.410156 -11.34375 8.484375 -11.625 C 8.554688 -11.914062 8.65625 -12.21875 8.78125 -12.53125 L 11.5625 -19.390625 L 15.765625 -19.390625 L 10.09375 -6.734375 L 10.09375 0 L 6.0625 0 L 6.0625 -6.734375 Z M 0.40625 -19.390625 "/></g></g></g><g fill="#000000" fill-opacity="1"><g transform="translate(109.37577, 213.594597)"><g><path d="M 1.703125 0 L 1.703125 -19.390625 L 8.1875 -19.390625 C 9.195312 -19.390625 10.101562 -19.269531 10.90625 -19.03125 C 11.71875 -18.800781 12.40625 -18.472656 12.96875 -18.046875 C 13.53125 -17.617188 13.960938 -17.097656 14.265625 -16.484375 C 14.578125 -15.867188 14.734375 -15.1875 14.734375 -14.4375 C 14.734375 -13.238281 14.394531 -12.269531 13.71875 -11.53125 C 13.050781 -10.789062 12.125 -10.367188 10.9375 -10.265625 L 10.9375 -9.96875 C 12.226562 -9.875 13.238281 -9.441406 13.96875 -8.671875 C 14.707031 -7.898438 15.078125 -6.882812 15.078125 -5.625 C 15.078125 -4.769531 14.921875 -3.992188 14.609375 -3.296875 C 14.296875 -2.609375 13.847656 -2.015625 13.265625 -1.515625 C 12.679688 -1.023438 11.972656 -0.648438 11.140625 -0.390625 C 10.304688 -0.128906 9.375 0 8.34375 0 Z M 5.609375 -8.4375 L 5.609375 -3.234375 L 8.1875 -3.234375 C 9.082031 -3.234375 9.773438 -3.457031 10.265625 -3.90625 C 10.765625 -4.351562 11.015625 -4.988281 11.015625 -5.8125 C 11.015625 -6.644531 10.765625 -7.289062 10.265625 -7.75 C 9.773438 -8.207031 9.082031 -8.4375 8.1875 -8.4375 Z M 5.609375 -16.15625 L 5.609375 -11.65625 L 8.140625 -11.65625 C 8.910156 -11.65625 9.523438 -11.863281 9.984375 -12.28125 C 10.441406 -12.695312 10.671875 -13.242188 10.671875 -13.921875 C 10.671875 -14.609375 10.445312 -15.148438 10 -15.546875 C 9.550781 -15.953125 8.929688 -16.15625 8.140625 -16.15625 Z M 5.609375 -16.15625 "/></g></g></g><g fill="#000000" fill-opacity="1"><g transform="translate(125.542111, 213.594597)"><g><path d="M 2.015625 0 L 2.015625 -3.5 L 6.0625 -3.5 L 6.0625 -15.890625 L 2.015625 -15.890625 L 2.015625 -19.390625 L 14.140625 -19.390625 L 14.140625 -15.890625 L 10.09375 -15.890625 L 10.09375 -3.5 L 14.140625 -3.5 L 14.140625 0 Z M 2.015625 0 "/></g></g></g><g fill="#000000" fill-opacity="1"><g transform="translate(141.708451, 213.594597)"><g><path d="M 6.59375 -19.390625 L 6.59375 -3.765625 L 14.546875 -3.765625 L 14.546875 0 L 2.5625 0 L 2.5625 -19.390625 Z M 6.59375 -19.390625 "/></g></g></g><g fill="#000000" fill-opacity="1"><g transform="translate(157.874792, 213.594597)"><g><path d="M 6.59375 -19.390625 L 6.59375 -3.765625 L 14.546875 -3.765625 L 14.546875 0 L 2.5625 0 L 2.5625 -19.390625 Z M 6.59375 -19.390625 "/></g></g></g></svg>