<svg xmlns="http://www.w3.org/2000/svg" xmlns:xlink="http://www.w3.org/1999/xlink" width="378" zoomAndPan="magnify" viewBox="0 0 282.96 461.03998" height="605" preserveAspectRatio="xMidYMid meet" version="1.0"><defs><g/><clipPath id="ce3b917c72"><path d="M 0.273438 0 L 282.644531 0 L 282.644531 452.808594 L 0.273438 452.808594 Z M 0.273438 0 " clip-rule="nonzero"/></clipPath><clipPath id="80b6b35898"><path d="M 14.417969 14.144531 L 269.003906 14.144531 L 269.003906 438.457031 L 14.417969 438.457031 Z M 14.417969 14.144531 " clip-rule="nonzero"/></clipPath><clipPath id="820d28ae40"><path d="M 0.417969 0.144531 L 255.003906 0.144531 L 255.003906 424.457031 L 0.417969 424.457031 Z M 0.417969 0.144531 " clip-rule="nonzero"/></clipPath><clipPath id="359fd78908"><rect x="0" width="256" y="0" height="425"/></clipPath><clipPath id="b8aa832d37"><path d="M 14.417969 14.144531 L 268.886719 14.144531 L 268.886719 438.453125 L 14.417969 438.453125 Z M 14.417969 14.144531 " clip-rule="nonzero"/></clipPath><clipPath id="57f75fc2d4"><path d="M 28.5625 28.289062 L 254.589844 28.289062 L 254.589844 424.214844 L 28.5625 424.214844 Z M 28.5625 28.289062 " clip-rule="nonzero"/></clipPath><clipPath id="2a3b352c7e"><path d="M 31.117188 30.824219 L 252.304688 30.824219 L 252.304688 421.511719 L 31.117188 421.511719 Z M 31.117188 30.824219 " clip-rule="nonzero"/></clipPath><clipPath id="82f62e9400"><path d="M 33.675781 33.398438 L 249.222656 33.398438 L 249.222656 418.800781 L 33.675781 418.800781 Z M 33.675781 33.398438 " clip-rule="nonzero"/></clipPath><clipPath id="04c8d09d7d"><path d="M 42.707031 42.429688 L 240.714844 42.429688 L 240.714844 409.917969 L 42.707031 409.917969 Z M 42.707031 42.429688 " clip-rule="nonzero"/></clipPath><clipPath id="228bfb75b7"><path d="M 41.289062 125.878906 L 242.128906 125.878906 L 242.128906 326.722656 L 41.289062 326.722656 Z M 41.289062 125.878906 " clip-rule="nonzero"/></clipPath><clipPath id="587d84475f"><path d="M 242.128906 226.300781 C 242.128906 170.839844 197.171875 125.878906 141.710938 125.878906 C 86.25 125.878906 41.289062 170.839844 41.289062 226.300781 C 41.289062 281.761719 86.25 326.722656 141.710938 326.722656 C 197.171875 326.722656 242.128906 281.761719 242.128906 226.300781 Z M 242.128906 226.300781 " clip-rule="nonzero"/></clipPath><clipPath id="22c05358d1"><path d="M 0.289062 0.878906 L 201.128906 0.878906 L 201.128906 201.722656 L 0.289062 201.722656 Z M 0.289062 0.878906 " clip-rule="nonzero"/></clipPath><clipPath id="379bf4be2d"><path d="M 201.128906 101.300781 C 201.128906 45.839844 156.171875 0.878906 100.710938 0.878906 C 45.25 0.878906 0.289062 45.839844 0.289062 101.300781 C 0.289062 156.761719 45.25 201.722656 100.710938 201.722656 C 156.171875 201.722656 201.128906 156.761719 201.128906 101.300781 Z M 201.128906 101.300781 " clip-rule="nonzero"/></clipPath><clipPath id="39e0f9fda6"><rect x="0" width="202" y="0" height="202"/></clipPath><clipPath id="283a179c48"><path d="M 41.546875 125.878906 L 242.128906 125.878906 L 242.128906 326.460938 L 41.546875 326.460938 Z M 41.546875 125.878906 " clip-rule="nonzero"/></clipPath><clipPath id="cd9922a2aa"><path d="M 242.128906 226.300781 C 242.128906 170.839844 197.171875 125.878906 141.710938 125.878906 C 86.25 125.878906 41.289062 170.839844 41.289062 226.300781 C 41.289062 281.757812 86.25 326.71875 141.710938 326.71875 C 197.171875 326.71875 242.128906 281.757812 242.128906 226.300781 Z M 242.128906 226.300781 " clip-rule="nonzero"/></clipPath><clipPath id="b847e19261"><path d="M 43.921875 128.511719 L 239.265625 128.511719 L 239.265625 323.855469 L 43.921875 323.855469 Z M 43.921875 128.511719 " clip-rule="nonzero"/></clipPath><clipPath id="29940e4118"><path d="M 141.511719 128.511719 C 87.617188 128.511719 43.921875 172.203125 43.921875 226.101562 C 43.921875 280 87.617188 323.691406 141.511719 323.691406 C 195.410156 323.691406 239.101562 280 239.101562 226.101562 C 239.101562 172.203125 195.410156 128.511719 141.511719 128.511719 Z M 141.511719 128.511719 " clip-rule="nonzero"/></clipPath><clipPath id="1838d93489"><path d="M 16.796875 16.527344 L 62.140625 16.527344 L 62.140625 61.871094 L 16.796875 61.871094 Z M 16.796875 16.527344 " clip-rule="nonzero"/></clipPath><clipPath id="39df2de917"><path d="M 62.140625 39.199219 C 62.140625 26.679688 51.988281 16.527344 39.46875 16.527344 C 26.945312 16.527344 16.796875 26.679688 16.796875 39.199219 C 16.796875 51.722656 26.945312 61.871094 39.46875 61.871094 C 51.988281 61.871094 62.140625 51.722656 62.140625 39.199219 Z M 62.140625 39.199219 " clip-rule="nonzero"/></clipPath><clipPath id="8ddf867f07"><path d="M 0.796875 0.527344 L 46.140625 0.527344 L 46.140625 45.871094 L 0.796875 45.871094 Z M 0.796875 0.527344 " clip-rule="nonzero"/></clipPath><clipPath id="49c2835849"><path d="M 46.140625 23.199219 C 46.140625 10.679688 35.988281 0.527344 23.46875 0.527344 C 10.945312 0.527344 0.796875 10.679688 0.796875 23.199219 C 0.796875 35.722656 10.945312 45.871094 23.46875 45.871094 C 35.988281 45.871094 46.140625 35.722656 46.140625 23.199219 Z M 46.140625 23.199219 " clip-rule="nonzero"/></clipPath><clipPath id="0085655557"><rect x="0" width="47" y="0" height="46"/></clipPath><clipPath id="0f072112ee"><path d="M 16.800781 16.527344 L 62.140625 16.527344 L 62.140625 61.867188 L 16.800781 61.867188 Z M 16.800781 16.527344 " clip-rule="nonzero"/></clipPath><clipPath id="88e6c35107"><path d="M 62.140625 39.195312 C 62.140625 26.675781 51.992188 16.527344 39.472656 16.527344 C 26.949219 16.527344 16.800781 26.675781 16.800781 39.195312 C 16.800781 51.71875 26.949219 61.867188 39.472656 61.867188 C 51.992188 61.867188 62.140625 51.71875 62.140625 39.195312 Z M 62.140625 39.195312 " clip-rule="nonzero"/></clipPath><clipPath id="ccf077a9e1"><path d="M 19.738281 19.253906 L 59.40625 19.253906 L 59.40625 58.921875 L 19.738281 58.921875 Z M 19.738281 19.253906 " clip-rule="nonzero"/></clipPath><clipPath id="6e0ee8c8c0"><path d="M 59.40625 39.195312 C 59.40625 28.183594 50.480469 19.253906 39.46875 19.253906 C 28.457031 19.253906 19.53125 28.183594 19.53125 39.195312 C 19.53125 50.207031 28.457031 59.132812 39.46875 59.132812 C 50.480469 59.132812 59.40625 50.207031 59.40625 39.195312 Z M 59.40625 39.195312 " clip-rule="nonzero"/></clipPath><clipPath id="de0cb0470a"><path d="M 220.089844 389.550781 L 266.222656 389.550781 L 266.222656 435.679688 L 220.089844 435.679688 Z M 220.089844 389.550781 " clip-rule="nonzero"/></clipPath><clipPath id="bb343d48c2"><path d="M 266.222656 412.613281 C 266.222656 399.875 255.894531 389.550781 243.15625 389.550781 C 230.417969 389.550781 220.089844 399.875 220.089844 412.613281 C 220.089844 425.355469 230.417969 435.679688 243.15625 435.679688 C 255.894531 435.679688 266.222656 425.355469 266.222656 412.613281 Z M 266.222656 412.613281 " clip-rule="nonzero"/></clipPath><clipPath id="6b026b4b97"><path d="M 0.0898438 0.550781 L 46.222656 0.550781 L 46.222656 46.679688 L 0.0898438 46.679688 Z M 0.0898438 0.550781 " clip-rule="nonzero"/></clipPath><clipPath id="63602c5ba5"><path d="M 46.222656 23.613281 C 46.222656 10.875 35.894531 0.550781 23.15625 0.550781 C 10.417969 0.550781 0.0898438 10.875 0.0898438 23.613281 C 0.0898438 36.355469 10.417969 46.679688 23.15625 46.679688 C 35.894531 46.679688 46.222656 36.355469 46.222656 23.613281 Z M 46.222656 23.613281 " clip-rule="nonzero"/></clipPath><clipPath id="8f76d76c7b"><rect x="0" width="47" y="0" height="47"/></clipPath><clipPath id="27ba2ae785"><path d="M 220.097656 389.550781 L 266.222656 389.550781 L 266.222656 435.671875 L 220.097656 435.671875 Z M 220.097656 389.550781 " clip-rule="nonzero"/></clipPath><clipPath id="e84432ca52"><path d="M 266.222656 412.609375 C 266.222656 399.875 255.894531 389.550781 243.160156 389.550781 C 230.421875 389.550781 220.097656 399.875 220.097656 412.609375 C 220.097656 425.347656 230.421875 435.671875 243.160156 435.671875 C 255.894531 435.671875 266.222656 425.347656 266.222656 412.609375 Z M 266.222656 412.609375 " clip-rule="nonzero"/></clipPath><clipPath id="8fc2e81d92"><path d="M 223.085938 392.277344 L 263.5 392.277344 L 263.5 432.695312 L 223.085938 432.695312 Z M 223.085938 392.277344 " clip-rule="nonzero"/></clipPath><clipPath id="b544a8e409"><path d="M 263.5 412.613281 C 263.5 401.382812 254.394531 392.277344 243.164062 392.277344 C 231.933594 392.277344 222.828125 401.382812 222.828125 412.613281 C 222.828125 423.847656 231.933594 432.949219 243.164062 432.949219 C 254.394531 432.949219 263.5 423.847656 263.5 412.613281 Z M 263.5 412.613281 " clip-rule="nonzero"/></clipPath></defs><g clip-path="url(#ce3b917c72)"><path fill="#ffffff" d="M 0.273438 0 L 283.183594 0 L 283.183594 452.808594 L 0.273438 452.808594 Z M 0.273438 0 " fill-opacity="1" fill-rule="nonzero"/><path fill="#ffffff" d="M 0.273438 0 L 283.183594 0 L 283.183594 452.808594 L 0.273438 452.808594 Z M 0.273438 0 " fill-opacity="1" fill-rule="nonzero"/></g><g clip-path="url(#80b6b35898)"><g transform="matrix(1, 0, 0, 1, 14, 14)"><g clip-path="url(#359fd78908)"><g clip-path="url(#820d28ae40)"><path fill="#d9f4cd" d="M 0.417969 0.144531 L 255.003906 0.144531 L 255.003906 424.789062 L 0.417969 424.789062 Z M 0.417969 0.144531 " fill-opacity="1" fill-rule="nonzero"/></g></g></g></g><g clip-path="url(#b8aa832d37)"><path stroke-linecap="butt" transform="matrix(0.748442, 0, 0, 0.748442, 14.417809, 14.14379)" fill="none" stroke-linejoin="miter" d="M 0.000213988 0.000990199 L 340.154953 0.000990199 L 340.154953 566.923815 L 0.000213988 566.923815 Z M 0.000213988 0.000990199 " stroke="#000000" stroke-width="4" stroke-opacity="1" stroke-miterlimit="4"/></g><g clip-path="url(#57f75fc2d4)"><path stroke-linecap="butt" transform="matrix(0.748442, 0, 0, 0.748442, 28.561585, 28.287551)" fill="none" stroke-linejoin="miter" d="M 0.00122275 0.00201976 L 302.358671 0.00201976 L 302.358671 529.127554 L 0.00122275 529.127554 Z M 0.00122275 0.00201976 " stroke="#000000" stroke-width="4" stroke-opacity="1" stroke-miterlimit="4"/></g><g clip-path="url(#2a3b352c7e)"><path stroke-linecap="butt" transform="matrix(0.748441, 0, 0, 0.748441, 31.116206, 30.825323)" fill="none" stroke-linejoin="miter" d="M 0.0013113 -0.00147559 L 295.532093 -0.00147559 L 295.532093 522.297407 L 0.0013113 522.297407 Z M 0.0013113 -0.00147559 " stroke="#000000" stroke-width="4" stroke-opacity="1" stroke-miterlimit="4"/></g><g clip-path="url(#82f62e9400)"><path stroke-linecap="butt" transform="matrix(0.748442, 0, 0, 0.748442, 33.673435, 33.399377)" fill="none" stroke-linejoin="miter" d="M 0.00313519 -0.0012553 L 288.169637 -0.0012553 L 288.169637 514.938552 L 0.00313519 514.938552 Z M 0.00313519 -0.0012553 " stroke="#000000" stroke-width="4" stroke-opacity="1" stroke-miterlimit="4"/></g><g clip-path="url(#04c8d09d7d)"><path stroke-linecap="butt" transform="matrix(0.748441, 0, 0, 0.748441, 42.705362, 42.431371)" fill="none" stroke-linejoin="miter" d="M 0.00222991 -0.00224922 L 264.562421 -0.00224922 L 264.562421 491.326057 L 0.00222991 491.326057 Z M 0.00222991 -0.00224922 " stroke="#000000" stroke-width="4" stroke-opacity="1" stroke-miterlimit="4"/></g><g clip-path="url(#228bfb75b7)"><g clip-path="url(#587d84475f)"><g transform="matrix(1, 0, 0, 1, 41, 125)"><g clip-path="url(#39e0f9fda6)"><g clip-path="url(#22c05358d1)"><g clip-path="url(#379bf4be2d)"><path fill="#d9f4cd" d="M 201.128906 0.878906 L 201.128906 201.722656 L 0.289062 201.722656 L 0.289062 0.878906 Z M 201.128906 0.878906 " fill-opacity="1" fill-rule="nonzero"/></g></g></g></g></g></g><g clip-path="url(#283a179c48)"><g clip-path="url(#cd9922a2aa)"><path stroke-linecap="butt" transform="matrix(0, 0.748441, -0.748441, 0, 242.130592, 125.879616)" fill="none" stroke-linejoin="miter" d="M 134.173701 0.00225281 C 60.0718 0.00225281 -0.000948023 60.069782 -0.000948023 134.171683 C -0.000948023 208.273584 60.0718 268.346332 134.173701 268.346332 C 208.270383 268.346332 268.343131 208.273584 268.343131 134.171683 C 268.343131 60.069782 208.270383 0.00225281 134.173701 0.00225281 Z M 134.173701 0.00225281 " stroke="#000000" stroke-width="4" stroke-opacity="1" stroke-miterlimit="4"/></g></g><g fill="#000000" fill-opacity="1"><g transform="translate(111.153331, 176.001807)"><g><path d="M 10.890625 5.875 L 10.890625 22.046875 L 42.5 22.046875 C 44.90625 22.046875 46.640625 22.128906 47.703125 22.296875 C 48.367188 22.347656 48.925781 22.40625 49.375 22.46875 L 49.375 22.21875 C 49.09375 21.988281 48.785156 21.679688 48.453125 21.296875 C 48.171875 21.015625 47.832031 20.632812 47.4375 20.15625 C 47.050781 19.6875 46.632812 19.113281 46.1875 18.4375 L 38.5625 6.625 L 50.71875 6.625 L 60.359375 20.796875 L 60.359375 34.625 L 10.890625 34.625 L 10.890625 47.359375 L 0 47.359375 L 0 5.875 Z M 10.890625 5.875 "/></g></g></g><g fill="#000000" fill-opacity="1"><g transform="translate(111.153331, 226.297073)"><g><path d="M 0 3.359375 L 60.359375 3.359375 L 60.359375 17.9375 L 42.078125 24.0625 C 41.460938 24.28125 40.816406 24.445312 40.140625 24.5625 C 39.472656 24.675781 38.863281 24.785156 38.3125 24.890625 C 37.695312 24.953125 37.082031 25.007812 36.46875 25.0625 L 36.46875 25.734375 C 37.082031 25.785156 37.695312 25.867188 38.3125 25.984375 C 38.863281 26.097656 39.472656 26.207031 40.140625 26.3125 C 40.816406 26.425781 41.460938 26.566406 42.078125 26.734375 L 60.359375 32.1875 L 60.359375 46.9375 L 0 46.9375 L 0 35.96875 L 36.890625 35.96875 C 38.453125 35.96875 40.015625 36.035156 41.578125 36.171875 C 43.140625 36.304688 44.566406 36.460938 45.859375 36.640625 C 47.421875 36.804688 48.898438 37 50.296875 37.21875 L 50.296875 36.21875 C 48.953125 35.9375 47.640625 35.679688 46.359375 35.453125 C 45.242188 35.179688 44.082031 34.929688 42.875 34.703125 C 41.675781 34.484375 40.65625 34.234375 39.8125 33.953125 L 26.40625 30.171875 L 26.40625 20.28125 L 39.8125 16.09375 C 40.65625 15.8125 41.660156 15.554688 42.828125 15.328125 C 44.003906 15.109375 45.148438 14.914062 46.265625 14.75 C 47.554688 14.53125 48.898438 14.304688 50.296875 14.078125 L 50.296875 13 C 48.898438 13.21875 47.421875 13.4375 45.859375 13.65625 C 44.566406 13.832031 43.140625 13.988281 41.578125 14.125 C 40.015625 14.257812 38.453125 14.328125 36.890625 14.328125 L 0 14.328125 Z M 0 3.359375 "/></g></g></g><g clip-path="url(#b847e19261)"><g clip-path="url(#29940e4118)"><path stroke-linecap="butt" transform="matrix(0.748442, 0, 0, 0.748442, 43.923128, 128.511732)" fill="none" stroke-linejoin="miter" d="M 130.389062 -0.0000182958 C 58.380056 -0.0000182958 -0.00167428 58.376493 -0.00167428 130.390718 C -0.00167428 202.404943 58.380056 260.781454 130.389062 260.781454 C 202.403287 260.781454 260.779798 202.404943 260.779798 130.390718 C 260.779798 58.376493 202.403287 -0.0000182958 130.389062 -0.0000182958 Z M 130.389062 -0.0000182958 " stroke="#000000" stroke-width="2" stroke-opacity="1" stroke-miterlimit="4"/></g></g><g clip-path="url(#1838d93489)"><g clip-path="url(#39df2de917)"><g transform="matrix(1, 0, 0, 1, 16, 16)"><g clip-path="url(#0085655557)"><g clip-path="url(#8ddf867f07)"><g clip-path="url(#49c2835849)"><path fill="#d9f4cd" d="M 46.140625 0.527344 L 46.140625 45.871094 L 0.796875 45.871094 L 0.796875 0.527344 Z M 46.140625 0.527344 " fill-opacity="1" fill-rule="nonzero"/></g></g></g></g></g></g><g clip-path="url(#0f072112ee)"><g clip-path="url(#88e6c35107)"><path stroke-linecap="butt" transform="matrix(0, 0.748441, -0.748441, 0, 62.140556, 16.527342)" fill="none" stroke-linejoin="miter" d="M 30.286897 -0.0000925514 C 13.559429 -0.0000925514 0.00000192092 13.559334 0.00000192092 30.286802 C 0.00000192092 47.019489 13.559429 60.578916 30.286897 60.578916 C 47.019584 60.578916 60.579011 47.019489 60.579011 30.286802 C 60.579011 13.559334 47.019584 -0.0000925514 30.286897 -0.0000925514 Z M 30.286897 -0.0000925514 " stroke="#000000" stroke-width="4" stroke-opacity="1" stroke-miterlimit="4"/></g></g><g fill="#000000" fill-opacity="1"><g transform="translate(35.196662, 30.806203)"><g><path d="M 1.8125 0.984375 L 1.8125 3.671875 L 7.078125 3.671875 C 7.484375 3.671875 7.773438 3.6875 7.953125 3.71875 C 8.054688 3.726562 8.148438 3.738281 8.234375 3.75 L 8.234375 3.703125 C 8.179688 3.660156 8.128906 3.609375 8.078125 3.546875 C 8.023438 3.503906 7.96875 3.441406 7.90625 3.359375 C 7.84375 3.273438 7.773438 3.179688 7.703125 3.078125 L 6.421875 1.109375 L 8.453125 1.109375 L 10.0625 3.46875 L 10.0625 5.765625 L 1.8125 5.765625 L 1.8125 7.890625 L 0 7.890625 L 0 0.984375 Z M 1.8125 0.984375 "/></g></g></g><g fill="#000000" fill-opacity="1"><g transform="translate(35.196662, 39.184074)"><g><path d="M 0 0.5625 L 10.0625 0.5625 L 10.0625 2.984375 L 7.015625 4.015625 C 6.910156 4.046875 6.800781 4.070312 6.6875 4.09375 C 6.570312 4.113281 6.472656 4.132812 6.390625 4.15625 C 6.285156 4.15625 6.179688 4.160156 6.078125 4.171875 L 6.078125 4.28125 C 6.179688 4.289062 6.285156 4.304688 6.390625 4.328125 C 6.472656 4.347656 6.570312 4.367188 6.6875 4.390625 C 6.800781 4.410156 6.910156 4.429688 7.015625 4.453125 L 10.0625 5.359375 L 10.0625 7.828125 L 0 7.828125 L 0 6 L 6.140625 6 C 6.398438 6 6.660156 6.007812 6.921875 6.03125 C 7.179688 6.050781 7.421875 6.078125 7.640625 6.109375 C 7.898438 6.128906 8.144531 6.160156 8.375 6.203125 L 8.375 6.03125 C 8.15625 5.988281 7.9375 5.945312 7.71875 5.90625 C 7.539062 5.863281 7.347656 5.820312 7.140625 5.78125 C 6.941406 5.75 6.773438 5.707031 6.640625 5.65625 L 4.40625 5.03125 L 4.40625 3.375 L 6.640625 2.6875 C 6.773438 2.632812 6.941406 2.585938 7.140625 2.546875 C 7.335938 2.515625 7.523438 2.484375 7.703125 2.453125 C 7.921875 2.421875 8.144531 2.382812 8.375 2.34375 L 8.375 2.171875 C 8.144531 2.203125 7.898438 2.238281 7.640625 2.28125 C 7.421875 2.300781 7.179688 2.320312 6.921875 2.34375 C 6.660156 2.375 6.398438 2.390625 6.140625 2.390625 L 0 2.390625 Z M 0 0.5625 "/></g></g></g><g clip-path="url(#ccf077a9e1)"><g clip-path="url(#6e0ee8c8c0)"><path stroke-linecap="butt" transform="matrix(0, 0.748441, -0.748441, 0, 59.407559, 19.255646)" fill="none" stroke-linejoin="miter" d="M 26.641584 0.00174862 C 11.928719 0.00174862 -0.0023239 11.927572 -0.0023239 26.640437 C -0.0023239 41.353302 11.928719 53.279126 26.641584 53.279126 C 41.354449 53.279126 53.280273 41.353302 53.280273 26.640437 C 53.280273 11.927572 41.354449 0.00174862 26.641584 0.00174862 Z M 26.641584 0.00174862 " stroke="#000000" stroke-width="2" stroke-opacity="1" stroke-miterlimit="4"/></g></g><g clip-path="url(#de0cb0470a)"><g clip-path="url(#bb343d48c2)"><g transform="matrix(1, 0, 0, 1, 220, 389)"><g clip-path="url(#8f76d76c7b)"><g clip-path="url(#6b026b4b97)"><g clip-path="url(#63602c5ba5)"><path fill="#d9f4cd" d="M 46.222656 0.550781 L 46.222656 46.679688 L 0.0898438 46.679688 L 0.0898438 0.550781 Z M 46.222656 0.550781 " fill-opacity="1" fill-rule="nonzero"/></g></g></g></g></g></g><g clip-path="url(#27ba2ae785)"><g clip-path="url(#e84432ca52)"><path stroke-linecap="butt" transform="matrix(0, 0.748441, -0.748441, 0, 266.221169, 389.549706)" fill="none" stroke-linejoin="miter" d="M 30.81025 -0.00198777 C 13.795727 -0.00198777 0.00143694 13.797521 0.00143694 30.812044 C 0.00143694 47.831786 13.795727 61.626076 30.81025 61.626076 C 47.829992 61.626076 61.624281 47.831786 61.624281 30.812044 C 61.624281 13.797521 47.829992 -0.00198777 30.81025 -0.00198777 Z M 30.81025 -0.00198777 " stroke="#000000" stroke-width="4" stroke-opacity="1" stroke-miterlimit="4"/></g></g><g fill="#000000" fill-opacity="1"><g transform="translate(238.528833, 404.226176)"><g><path d="M 1.8125 0.984375 L 1.8125 3.671875 L 7.078125 3.671875 C 7.484375 3.671875 7.773438 3.6875 7.953125 3.71875 C 8.054688 3.726562 8.148438 3.738281 8.234375 3.75 L 8.234375 3.703125 C 8.179688 3.660156 8.128906 3.609375 8.078125 3.546875 C 8.023438 3.503906 7.96875 3.441406 7.90625 3.359375 C 7.84375 3.273438 7.773438 3.179688 7.703125 3.078125 L 6.421875 1.109375 L 8.453125 1.109375 L 10.0625 3.46875 L 10.0625 5.765625 L 1.8125 5.765625 L 1.8125 7.890625 L 0 7.890625 L 0 0.984375 Z M 1.8125 0.984375 "/></g></g></g><g fill="#000000" fill-opacity="1"><g transform="translate(238.528833, 412.604047)"><g><path d="M 0 0.5625 L 10.0625 0.5625 L 10.0625 2.984375 L 7.015625 4.015625 C 6.910156 4.046875 6.800781 4.070312 6.6875 4.09375 C 6.570312 4.113281 6.472656 4.132812 6.390625 4.15625 C 6.285156 4.15625 6.179688 4.160156 6.078125 4.171875 L 6.078125 4.28125 C 6.179688 4.289062 6.285156 4.304688 6.390625 4.328125 C 6.472656 4.347656 6.570312 4.367188 6.6875 4.390625 C 6.800781 4.410156 6.910156 4.429688 7.015625 4.453125 L 10.0625 5.359375 L 10.0625 7.828125 L 0 7.828125 L 0 6 L 6.140625 6 C 6.398438 6 6.660156 6.007812 6.921875 6.03125 C 7.179688 6.050781 7.421875 6.078125 7.640625 6.109375 C 7.898438 6.128906 8.144531 6.160156 8.375 6.203125 L 8.375 6.03125 C 8.15625 5.988281 7.9375 5.945312 7.71875 5.90625 C 7.539062 5.863281 7.347656 5.820312 7.140625 5.78125 C 6.941406 5.75 6.773438 5.707031 6.640625 5.65625 L 4.40625 5.03125 L 4.40625 3.375 L 6.640625 2.6875 C 6.773438 2.632812 6.941406 2.585938 7.140625 2.546875 C 7.335938 2.515625 7.523438 2.484375 7.703125 2.453125 C 7.921875 2.421875 8.144531 2.382812 8.375 2.34375 L 8.375 2.171875 C 8.144531 2.203125 7.898438 2.238281 7.640625 2.28125 C 7.421875 2.300781 7.179688 2.320312 6.921875 2.34375 C 6.660156 2.375 6.398438 2.390625 6.140625 2.390625 L 0 2.390625 Z M 0 0.5625 "/></g></g></g><g clip-path="url(#8fc2e81d92)"><g clip-path="url(#b544a8e409)"><path stroke-linecap="butt" transform="matrix(0, 0.748441, -0.748441, 0, 263.499854, 392.278009)" fill="none" stroke-linejoin="miter" d="M 27.170157 -0.000194529 C 12.165018 -0.000194529 -0.000888239 12.165711 -0.000888239 27.17085 C -0.000888239 42.17599 12.165018 54.341895 27.170157 54.341895 C 42.180515 54.341895 54.341202 42.17599 54.341202 27.17085 C 54.341202 12.165711 42.180515 -0.000194529 27.170157 -0.000194529 Z M 27.170157 -0.000194529 " stroke="#000000" stroke-width="2" stroke-opacity="1" stroke-miterlimit="4"/></g></g></svg>