<svg xmlns="http://www.w3.org/2000/svg" xmlns:xlink="http://www.w3.org/1999/xlink" width="378" zoomAndPan="magnify" viewBox="0 0 282.96 461.03998" height="605" preserveAspectRatio="xMidYMid meet" version="1.0"><defs><g/><clipPath id="dcdd6eedf9"><path d="M 0.273438 0 L 282.644531 0 L 282.644531 452.808594 L 0.273438 452.808594 Z M 0.273438 0 " clip-rule="nonzero"/></clipPath><clipPath id="f67b183065"><path d="M 14.890625 226.300781 L 113.898438 226.300781 L 113.898438 438.621094 L 14.890625 438.621094 Z M 14.890625 226.300781 " clip-rule="nonzero"/></clipPath><clipPath id="489fed39d6"><path d="M 19.382812 226.300781 L 109.40625 226.300781 C 110.597656 226.300781 111.738281 226.773438 112.582031 227.617188 C 113.425781 228.457031 113.898438 229.601562 113.898438 230.792969 L 113.898438 433.964844 C 113.898438 435.15625 113.425781 436.300781 112.582031 437.140625 C 111.738281 437.984375 110.597656 438.457031 109.40625 438.457031 L 19.382812 438.457031 C 18.191406 438.457031 17.046875 437.984375 16.207031 437.140625 C 15.363281 436.300781 14.890625 435.15625 14.890625 433.964844 L 14.890625 230.792969 C 14.890625 229.601562 15.363281 228.457031 16.207031 227.617188 C 17.046875 226.773438 18.191406 226.300781 19.382812 226.300781 Z M 19.382812 226.300781 " clip-rule="nonzero"/></clipPath><clipPath id="edea65111f"><path d="M 0.890625 0.300781 L 99.898438 0.300781 L 99.898438 212.527344 L 0.890625 212.527344 Z M 0.890625 0.300781 " clip-rule="nonzero"/></clipPath><clipPath id="4e8dfb30ce"><path d="M 5.382812 0.300781 L 95.40625 0.300781 C 96.597656 0.300781 97.738281 0.773438 98.582031 1.617188 C 99.425781 2.457031 99.898438 3.601562 99.898438 4.792969 L 99.898438 207.964844 C 99.898438 209.15625 99.425781 210.300781 98.582031 211.140625 C 97.738281 211.984375 96.597656 212.457031 95.40625 212.457031 L 5.382812 212.457031 C 4.191406 212.457031 3.046875 211.984375 2.207031 211.140625 C 1.363281 210.300781 0.890625 209.15625 0.890625 207.964844 L 0.890625 4.792969 C 0.890625 3.601562 1.363281 2.457031 2.207031 1.617188 C 3.046875 0.773438 4.191406 0.300781 5.382812 0.300781 Z M 5.382812 0.300781 " clip-rule="nonzero"/></clipPath><clipPath id="643089ca99"><rect x="0" width="100" y="0" height="213"/></clipPath><clipPath id="18e5b81d03"><path d="M 14.890625 14.144531 L 113.898438 14.144531 L 113.898438 226.464844 L 14.890625 226.464844 Z M 14.890625 14.144531 " clip-rule="nonzero"/></clipPath><clipPath id="fb54524deb"><path d="M 19.382812 14.144531 L 109.40625 14.144531 C 110.597656 14.144531 111.738281 14.617188 112.582031 15.460938 C 113.425781 16.300781 113.898438 17.445312 113.898438 18.632812 L 113.898438 221.808594 C 113.898438 223 113.425781 224.144531 112.582031 224.984375 C 111.738281 225.828125 110.597656 226.300781 109.40625 226.300781 L 19.382812 226.300781 C 18.191406 226.300781 17.046875 225.828125 16.207031 224.984375 C 15.363281 224.144531 14.890625 223 14.890625 221.808594 L 14.890625 18.632812 C 14.890625 17.445312 15.363281 16.300781 16.207031 15.460938 C 17.046875 14.617188 18.191406 14.144531 19.382812 14.144531 Z M 19.382812 14.144531 " clip-rule="nonzero"/></clipPath><clipPath id="65410f0f53"><path d="M 0.890625 0.144531 L 99.898438 0.144531 L 99.898438 212.328125 L 0.890625 212.328125 Z M 0.890625 0.144531 " clip-rule="nonzero"/></clipPath><clipPath id="e002f8d4ca"><path d="M 5.382812 0.144531 L 95.40625 0.144531 C 96.597656 0.144531 97.738281 0.617188 98.582031 1.460938 C 99.425781 2.300781 99.898438 3.445312 99.898438 4.632812 L 99.898438 207.808594 C 99.898438 209 99.425781 210.144531 98.582031 210.984375 C 97.738281 211.828125 96.597656 212.300781 95.40625 212.300781 L 5.382812 212.300781 C 4.191406 212.300781 3.046875 211.828125 2.207031 210.984375 C 1.363281 210.144531 0.890625 209 0.890625 207.808594 L 0.890625 4.632812 C 0.890625 3.445312 1.363281 2.300781 2.207031 1.460938 C 3.046875 0.617188 4.191406 0.144531 5.382812 0.144531 Z M 5.382812 0.144531 " clip-rule="nonzero"/></clipPath><clipPath id="3f0ba73c7e"><rect x="0" width="100" y="0" height="213"/></clipPath><clipPath id="3e785939f9"><path d="M 14.890625 68.40625 L 113.898438 68.40625 L 113.898438 226.300781 L 14.890625 226.300781 Z M 14.890625 68.40625 " clip-rule="nonzero"/></clipPath><clipPath id="369a0e8f7c"><path d="M 0.890625 0.40625 L 99.898438 0.40625 L 99.898438 158.300781 L 0.890625 158.300781 Z M 0.890625 0.40625 " clip-rule="nonzero"/></clipPath><clipPath id="3e7e4c5bab"><rect x="0" width="100" y="0" height="159"/></clipPath><clipPath id="8f831a767f"><path d="M 14.890625 226.300781 L 113.898438 226.300781 L 113.898438 384.191406 L 14.890625 384.191406 Z M 14.890625 226.300781 " clip-rule="nonzero"/></clipPath><clipPath id="3bcd28acc0"><path d="M 0.890625 0.300781 L 99.898438 0.300781 L 99.898438 158.191406 L 0.890625 158.191406 Z M 0.890625 0.300781 " clip-rule="nonzero"/></clipPath><clipPath id="f944b714d0"><rect x="0" width="100" y="0" height="159"/></clipPath><clipPath id="8eafbbe5a6"><path d="M 14.417969 14.144531 L 113.898438 14.144531 L 113.898438 114 L 14.417969 114 Z M 14.417969 14.144531 " clip-rule="nonzero"/></clipPath><clipPath id="5b4ae4ba53"><path d="M 17.410156 14.144531 L 110.902344 14.144531 C 112.558594 14.144531 113.898438 15.484375 113.898438 17.136719 L 113.898438 110.722656 C 113.898438 112.375 112.558594 113.714844 110.902344 113.714844 L 17.410156 113.714844 C 15.757812 113.714844 14.417969 112.375 14.417969 110.722656 L 14.417969 17.136719 C 14.417969 15.484375 15.757812 14.144531 17.410156 14.144531 Z M 17.410156 14.144531 " clip-rule="nonzero"/></clipPath><clipPath id="c3d94145cd"><path d="M 0.417969 0.144531 L 99.898438 0.144531 L 99.898438 99.761719 L 0.417969 99.761719 Z M 0.417969 0.144531 " clip-rule="nonzero"/></clipPath><clipPath id="a5c418a88c"><path d="M 3.410156 0.144531 L 96.902344 0.144531 C 98.558594 0.144531 99.898438 1.484375 99.898438 3.136719 L 99.898438 96.722656 C 99.898438 98.375 98.558594 99.714844 96.902344 99.714844 L 3.410156 99.714844 C 1.757812 99.714844 0.417969 98.375 0.417969 96.722656 L 0.417969 3.136719 C 0.417969 1.484375 1.757812 0.144531 3.410156 0.144531 Z M 3.410156 0.144531 " clip-rule="nonzero"/></clipPath><clipPath id="03520c2d00"><rect x="0" width="100" y="0" height="100"/></clipPath><clipPath id="c918ea9551"><path d="M 14.417969 14.144531 L 113.960938 14.144531 L 113.960938 113.6875 L 14.417969 113.6875 Z M 14.417969 14.144531 " clip-rule="nonzero"/></clipPath><clipPath id="5e6c17c165"><path d="M 17.410156 14.144531 L 110.898438 14.144531 C 112.550781 14.144531 113.890625 15.484375 113.890625 17.136719 L 113.890625 110.714844 C 113.890625 112.367188 112.550781 113.710938 110.898438 113.710938 L 17.410156 113.710938 C 15.757812 113.710938 14.417969 112.367188 14.417969 110.714844 L 14.417969 17.136719 C 14.417969 15.484375 15.757812 14.144531 17.410156 14.144531 Z M 17.410156 14.144531 " clip-rule="nonzero"/></clipPath><clipPath id="86d37a2b80"><path d="M 14.417969 14.144531 L 268.886719 14.144531 L 268.886719 438.453125 L 14.417969 438.453125 Z M 14.417969 14.144531 " clip-rule="nonzero"/></clipPath><clipPath id="43faa2d62f"><path d="M 18.910156 14.144531 L 264.511719 14.144531 C 266.992188 14.144531 269.003906 16.152344 269.003906 18.632812 L 269.003906 433.960938 C 269.003906 436.441406 266.992188 438.453125 264.511719 438.453125 L 18.910156 438.453125 C 16.429688 438.453125 14.417969 436.441406 14.417969 433.960938 L 14.417969 18.632812 C 14.417969 16.152344 16.429688 14.144531 18.910156 14.144531 Z M 18.910156 14.144531 " clip-rule="nonzero"/></clipPath></defs><g clip-path="url(#dcdd6eedf9)"><path fill="#ffffff" d="M 0.273438 0 L 283.183594 0 L 283.183594 452.808594 L 0.273438 452.808594 Z M 0.273438 0 " fill-opacity="1" fill-rule="nonzero"/><path fill="#ffffff" d="M 0.273438 0 L 283.183594 0 L 283.183594 452.808594 L 0.273438 452.808594 Z M 0.273438 0 " fill-opacity="1" fill-rule="nonzero"/></g><g clip-path="url(#f67b183065)"><g clip-path="url(#489fed39d6)"><g transform="matrix(1, 0, 0, 1, 14, 226)"><g clip-path="url(#643089ca99)"><g clip-path="url(#edea65111f)"><g clip-path="url(#4e8dfb30ce)"><path fill="#1800ad" d="M 0.890625 0.300781 L 99.898438 0.300781 L 99.898438 212.621094 L 0.890625 212.621094 Z M 0.890625 0.300781 " fill-opacity="1" fill-rule="nonzero"/></g></g></g></g></g></g><g clip-path="url(#18e5b81d03)"><g clip-path="url(#fb54524deb)"><g transform="matrix(1, 0, 0, 1, 14, 14)"><g clip-path="url(#3f0ba73c7e)"><g clip-path="url(#65410f0f53)"><g clip-path="url(#e002f8d4ca)"><path fill="#247531" d="M 0.890625 0.144531 L 99.898438 0.144531 L 99.898438 212.464844 L 0.890625 212.464844 Z M 0.890625 0.144531 " fill-opacity="1" fill-rule="nonzero"/></g></g></g></g></g></g><g clip-path="url(#3e785939f9)"><g transform="matrix(1, 0, 0, 1, 14, 68)"><g clip-path="url(#3e7e4c5bab)"><g clip-path="url(#369a0e8f7c)"><path fill="#247531" d="M 0.890625 0.40625 L 99.898438 0.40625 L 99.898438 158.199219 L 0.890625 158.199219 Z M 0.890625 0.40625 " fill-opacity="1" fill-rule="nonzero"/></g></g></g></g><g clip-path="url(#8f831a767f)"><g transform="matrix(1, 0, 0, 1, 14, 226)"><g clip-path="url(#f944b714d0)"><g clip-path="url(#3bcd28acc0)"><path fill="#1800ad" d="M 0.890625 0.300781 L 99.898438 0.300781 L 99.898438 158.09375 L 0.890625 158.09375 Z M 0.890625 0.300781 " fill-opacity="1" fill-rule="nonzero"/></g></g></g></g><g clip-path="url(#8eafbbe5a6)"><g clip-path="url(#5b4ae4ba53)"><g transform="matrix(1, 0, 0, 1, 14, 14)"><g clip-path="url(#03520c2d00)"><g clip-path="url(#c3d94145cd)"><g clip-path="url(#a5c418a88c)"><path fill="#ffffff" d="M 0.417969 0.144531 L 99.898438 0.144531 L 99.898438 99.625 L 0.417969 99.625 Z M 0.417969 0.144531 " fill-opacity="1" fill-rule="nonzero"/></g></g></g></g></g></g><g clip-path="url(#c918ea9551)"><g clip-path="url(#5e6c17c165)"><path stroke-linecap="butt" transform="matrix(0.748441, 0, 0, 0.748441, 14.417809, 14.143776)" fill="none" stroke-linejoin="miter" d="M 3.998105 0.00100844 L 128.908712 0.00100844 C 131.116424 0.00100844 132.906603 1.791187 132.906603 3.998899 L 132.906603 129.029547 C 132.906603 131.23726 131.116424 133.032657 128.908712 133.032657 L 3.998105 133.032657 C 1.790392 133.032657 0.000213988 131.23726 0.000213988 129.029547 L 0.000213988 3.998899 C 0.000213988 1.791187 1.790392 0.00100844 3.998105 0.00100844 Z M 3.998105 0.00100844 " stroke="#000000" stroke-width="12" stroke-opacity="1" stroke-miterlimit="4"/></g></g><g fill="#000000" fill-opacity="1"><g transform="translate(34.216425, 82.251953)"><g><path d="M 16.65625 -35.921875 L 25.140625 -35.921875 L 9.484375 -15.015625 L 9.484375 -13.171875 L 18.953125 -13.171875 L 18.953125 -20.453125 L 26.4375 -20.453125 L 26.4375 0 L 18.953125 0 L 18.953125 -6.6875 L 2.5 -6.6875 L 2.5 -17.109375 Z M 16.65625 -35.921875 "/></g></g></g><g fill="#000000" fill-opacity="1"><g transform="translate(64.149448, 82.251953)"><g><path d="M 2 0 L 2 -35.921875 L 10.671875 -35.921875 L 14.3125 -25.046875 C 14.445312 -24.679688 14.546875 -24.296875 14.609375 -23.890625 C 14.679688 -23.492188 14.75 -23.128906 14.8125 -22.796875 C 14.851562 -22.429688 14.890625 -22.066406 14.921875 -21.703125 L 15.3125 -21.703125 C 15.34375 -22.066406 15.394531 -22.429688 15.46875 -22.796875 C 15.53125 -23.128906 15.59375 -23.492188 15.65625 -23.890625 C 15.726562 -24.296875 15.816406 -24.679688 15.921875 -25.046875 L 19.15625 -35.921875 L 27.9375 -35.921875 L 27.9375 0 L 21.40625 0 L 21.40625 -21.953125 C 21.40625 -22.878906 21.445312 -23.804688 21.53125 -24.734375 C 21.613281 -25.671875 21.703125 -26.523438 21.796875 -27.296875 C 21.898438 -28.222656 22.019531 -29.101562 22.15625 -29.9375 L 21.546875 -29.9375 C 21.378906 -29.132812 21.234375 -28.351562 21.109375 -27.59375 C 20.941406 -26.925781 20.789062 -26.234375 20.65625 -25.515625 C 20.519531 -24.804688 20.367188 -24.203125 20.203125 -23.703125 L 17.953125 -15.71875 L 12.078125 -15.71875 L 9.578125 -23.703125 C 9.410156 -24.203125 9.257812 -24.800781 9.125 -25.5 C 9 -26.195312 8.882812 -26.878906 8.78125 -27.546875 C 8.644531 -28.304688 8.507812 -29.101562 8.375 -29.9375 L 7.734375 -29.9375 C 7.867188 -29.101562 8 -28.222656 8.125 -27.296875 C 8.226562 -26.523438 8.320312 -25.671875 8.40625 -24.734375 C 8.488281 -23.804688 8.53125 -22.878906 8.53125 -21.953125 L 8.53125 0 Z M 2 0 "/></g></g></g><g clip-path="url(#86d37a2b80)"><g clip-path="url(#43faa2d62f)"><path stroke-linecap="butt" transform="matrix(0.748442, 0, 0, 0.748442, 14.417809, 14.143776)" fill="none" stroke-linejoin="miter" d="M 6.002269 0.00100844 L 334.152898 0.00100844 C 337.467076 0.00100844 340.154953 2.683666 340.154953 5.997845 L 340.154953 560.921778 C 340.154953 564.235957 337.467076 566.923833 334.152898 566.923833 L 6.002269 566.923833 C 2.688091 566.923833 0.000213988 564.235957 0.000213988 560.921778 L 0.000213988 5.997845 C 0.000213988 2.683666 2.688091 0.00100844 6.002269 0.00100844 Z M 6.002269 0.00100844 " stroke="#000000" stroke-width="12" stroke-opacity="1" stroke-miterlimit="4"/></g></g></svg>