<svg xmlns="http://www.w3.org/2000/svg" xmlns:xlink="http://www.w3.org/1999/xlink" width="378" height="605" preserveAspectRatio="xMidYMid meet" version="1.0" viewBox="0 0 282.96 461.04" zoomAndPan="magnify"><defs><clipPath id="fbd44255c7"><path d="M 0.273438 0 L 282.644531 0 L 282.644531 452.808594 L 0.273438 452.808594 Z M 0.273438 0" clip-rule="nonzero"/></clipPath><clipPath id="a9b1c45d6d"><path d="M 14.417969 14.144531 L 269.003906 14.144531 L 269.003906 438.457031 L 14.417969 438.457031 Z M 14.417969 14.144531" clip-rule="nonzero"/></clipPath><clipPath id="febc25c1f3"><path d="M 0.417969 0.144531 L 255.003906 0.144531 L 255.003906 424.457031 L 0.417969 424.457031 Z M 0.417969 0.144531" clip-rule="nonzero"/></clipPath><clipPath id="6215908946"><rect width="256" height="425" x="0" y="0"/></clipPath><clipPath id="00f73841a3"><path d="M 14.417969 14.144531 L 268.886719 14.144531 L 268.886719 438.453125 L 14.417969 438.453125 Z M 14.417969 14.144531" clip-rule="nonzero"/></clipPath><clipPath id="9496a74a1a"><path d="M 28.5625 28.289062 L 254.589844 28.289062 L 254.589844 424.214844 L 28.5625 424.214844 Z M 28.5625 28.289062" clip-rule="nonzero"/></clipPath><clipPath id="266a23b3e4"><path d="M 31.117188 30.824219 L 252.304688 30.824219 L 252.304688 421.511719 L 31.117188 421.511719 Z M 31.117188 30.824219" clip-rule="nonzero"/></clipPath><clipPath id="0b07aa36cb"><path d="M 33.675781 33.398438 L 249.222656 33.398438 L 249.222656 418.800781 L 33.675781 418.800781 Z M 33.675781 33.398438" clip-rule="nonzero"/></clipPath><clipPath id="1997ff16c9"><path d="M 42.707031 42.429688 L 240.714844 42.429688 L 240.714844 409.917969 L 42.707031 409.917969 Z M 42.707031 42.429688" clip-rule="nonzero"/></clipPath><clipPath id="880081e40b"><path d="M 41.289062 125.878906 L 242.132812 125.878906 L 242.132812 326.722656 L 41.289062 326.722656 Z M 41.289062 125.878906" clip-rule="nonzero"/></clipPath><clipPath id="8803c75ad7"><path d="M 141.710938 125.878906 C 86.25 125.878906 41.289062 170.839844 41.289062 226.300781 C 41.289062 281.761719 86.25 326.722656 141.710938 326.722656 C 197.171875 326.722656 242.132812 281.761719 242.132812 226.300781 C 242.132812 170.839844 197.171875 125.878906 141.710938 125.878906 Z M 141.710938 125.878906" clip-rule="nonzero"/></clipPath><clipPath id="d8ae356f8b"><path d="M 0.289062 0.878906 L 201.132812 0.878906 L 201.132812 201.722656 L 0.289062 201.722656 Z M 0.289062 0.878906" clip-rule="nonzero"/></clipPath><clipPath id="893bd1a9f8"><path d="M 100.710938 0.878906 C 45.25 0.878906 0.289062 45.839844 0.289062 101.300781 C 0.289062 156.761719 45.25 201.722656 100.710938 201.722656 C 156.171875 201.722656 201.132812 156.761719 201.132812 101.300781 C 201.132812 45.839844 156.171875 0.878906 100.710938 0.878906 Z M 100.710938 0.878906" clip-rule="nonzero"/></clipPath><clipPath id="341ec3adc9"><rect width="202" height="202" x="0" y="0"/></clipPath><clipPath id="d4c296c204"><path d="M 41.289062 125.878906 L 241.875 125.878906 L 241.875 326.460938 L 41.289062 326.460938 Z M 41.289062 125.878906" clip-rule="nonzero"/></clipPath><clipPath id="a78091e04c"><path d="M 141.710938 125.878906 C 86.25 125.878906 41.289062 170.839844 41.289062 226.300781 C 41.289062 281.761719 86.25 326.71875 141.710938 326.71875 C 197.171875 326.71875 242.128906 281.761719 242.128906 226.300781 C 242.128906 170.839844 197.171875 125.878906 141.710938 125.878906 Z M 141.710938 125.878906" clip-rule="nonzero"/></clipPath><clipPath id="6ca216cff4"><path d="M 16.796875 16.527344 L 62.140625 16.527344 L 62.140625 61.871094 L 16.796875 61.871094 Z M 16.796875 16.527344" clip-rule="nonzero"/></clipPath><clipPath id="3bc29f9840"><path d="M 62.140625 39.199219 C 62.140625 26.679688 51.988281 16.527344 39.46875 16.527344 C 26.945312 16.527344 16.796875 26.679688 16.796875 39.199219 C 16.796875 51.722656 26.945312 61.871094 39.46875 61.871094 C 51.988281 61.871094 62.140625 51.722656 62.140625 39.199219 Z M 62.140625 39.199219" clip-rule="nonzero"/></clipPath><clipPath id="b60f3e8927"><path d="M 0.796875 0.527344 L 46.140625 0.527344 L 46.140625 45.871094 L 0.796875 45.871094 Z M 0.796875 0.527344" clip-rule="nonzero"/></clipPath><clipPath id="54580712b3"><path d="M 46.140625 23.199219 C 46.140625 10.679688 35.988281 0.527344 23.46875 0.527344 C 10.945312 0.527344 0.796875 10.679688 0.796875 23.199219 C 0.796875 35.722656 10.945312 45.871094 23.46875 45.871094 C 35.988281 45.871094 46.140625 35.722656 46.140625 23.199219 Z M 46.140625 23.199219" clip-rule="nonzero"/></clipPath><clipPath id="a8d5fc8c1c"><rect width="47" height="46" x="0" y="0"/></clipPath><clipPath id="ab613c0e21"><path d="M 16.800781 16.527344 L 62.140625 16.527344 L 62.140625 61.867188 L 16.800781 61.867188 Z M 16.800781 16.527344" clip-rule="nonzero"/></clipPath><clipPath id="fe754a7293"><path d="M 62.140625 39.195312 C 62.140625 26.675781 51.992188 16.527344 39.472656 16.527344 C 26.949219 16.527344 16.800781 26.675781 16.800781 39.195312 C 16.800781 51.71875 26.949219 61.867188 39.472656 61.867188 C 51.992188 61.867188 62.140625 51.71875 62.140625 39.195312 Z M 62.140625 39.195312" clip-rule="nonzero"/></clipPath><clipPath id="0aef0d4b44"><path d="M 19.554688 19.253906 L 59.21875 19.253906 L 59.21875 58.921875 L 19.554688 58.921875 Z M 19.554688 19.253906" clip-rule="nonzero"/></clipPath><clipPath id="46aafedb88"><path d="M 59.21875 39.101562 C 59.21875 28.140625 50.335938 19.253906 39.375 19.253906 C 28.414062 19.253906 19.53125 28.140625 19.53125 39.101562 C 19.53125 50.0625 28.414062 58.945312 39.375 58.945312 C 50.335938 58.945312 59.21875 50.0625 59.21875 39.101562 Z M 59.21875 39.101562" clip-rule="nonzero"/></clipPath><clipPath id="1614272154"><path d="M 220.089844 389.550781 L 266.222656 389.550781 L 266.222656 435.679688 L 220.089844 435.679688 Z M 220.089844 389.550781" clip-rule="nonzero"/></clipPath><clipPath id="6363d8d2ef"><path d="M 266.222656 412.613281 C 266.222656 399.875 255.894531 389.550781 243.15625 389.550781 C 230.417969 389.550781 220.089844 399.875 220.089844 412.613281 C 220.089844 425.355469 230.417969 435.679688 243.15625 435.679688 C 255.894531 435.679688 266.222656 425.355469 266.222656 412.613281 Z M 266.222656 412.613281" clip-rule="nonzero"/></clipPath><clipPath id="a0356b474f"><path d="M 0.0898438 0.550781 L 46.222656 0.550781 L 46.222656 46.679688 L 0.0898438 46.679688 Z M 0.0898438 0.550781" clip-rule="nonzero"/></clipPath><clipPath id="5170920b65"><path d="M 46.222656 23.613281 C 46.222656 10.875 35.894531 0.550781 23.15625 0.550781 C 10.417969 0.550781 0.0898438 10.875 0.0898438 23.613281 C 0.0898438 36.355469 10.417969 46.679688 23.15625 46.679688 C 35.894531 46.679688 46.222656 36.355469 46.222656 23.613281 Z M 46.222656 23.613281" clip-rule="nonzero"/></clipPath><clipPath id="70a9f41984"><rect width="47" height="47" x="0" y="0"/></clipPath><clipPath id="ef5ceedd3a"><path d="M 220.097656 389.550781 L 266.222656 389.550781 L 266.222656 435.671875 L 220.097656 435.671875 Z M 220.097656 389.550781" clip-rule="nonzero"/></clipPath><clipPath id="c0e4a339e9"><path d="M 266.222656 412.609375 C 266.222656 399.875 255.894531 389.550781 243.160156 389.550781 C 230.421875 389.550781 220.097656 399.875 220.097656 412.609375 C 220.097656 425.347656 230.421875 435.671875 243.160156 435.671875 C 255.894531 435.671875 266.222656 425.347656 266.222656 412.609375 Z M 266.222656 412.609375" clip-rule="nonzero"/></clipPath><clipPath id="f240dbed83"><path d="M 223.085938 392.277344 L 263.5 392.277344 L 263.5 432.695312 L 223.085938 432.695312 Z M 223.085938 392.277344" clip-rule="nonzero"/></clipPath><clipPath id="83e6132b98"><path d="M 263.5 412.613281 C 263.5 401.382812 254.394531 392.277344 243.164062 392.277344 C 231.933594 392.277344 222.828125 401.382812 222.828125 412.613281 C 222.828125 423.847656 231.933594 432.953125 243.164062 432.953125 C 254.394531 432.953125 263.5 423.847656 263.5 412.613281 Z M 263.5 412.613281" clip-rule="nonzero"/></clipPath></defs><g clip-path="url(#fbd44255c7)"><path fill="#fff" fill-opacity="1" fill-rule="nonzero" d="M 0.273438 0 L 283.183594 0 L 283.183594 452.808594 L 0.273438 452.808594 Z M 0.273438 0"/><path fill="#fff" fill-opacity="1" fill-rule="nonzero" d="M 0.273438 0 L 283.183594 0 L 283.183594 452.808594 L 0.273438 452.808594 Z M 0.273438 0"/></g><g clip-path="url(#a9b1c45d6d)"><g><g clip-path="url(#6215908946)" transform="matrix(1, 0, 0, 1, 14, 14)"><g clip-path="url(#febc25c1f3)"><path fill="#ffd9c2" fill-opacity="1" fill-rule="nonzero" d="M 0.417969 0.144531 L 255.003906 0.144531 L 255.003906 424.789062 L 0.417969 424.789062 Z M 0.417969 0.144531"/></g></g></g></g><g clip-path="url(#00f73841a3)"><path fill="none" stroke="#000" stroke-linecap="butt" stroke-linejoin="miter" stroke-miterlimit="4" stroke-opacity="1" stroke-width="4" d="M 0.000213988 0.000990199 L 340.154953 0.000990199 L 340.154953 566.923815 L 0.000213988 566.923815 Z M 0.000213988 0.000990199" transform="matrix(0.748442, 0, 0, 0.748442, 14.417809, 14.14379)"/></g><g clip-path="url(#9496a74a1a)"><path fill="none" stroke="#000" stroke-linecap="butt" stroke-linejoin="miter" stroke-miterlimit="4" stroke-opacity="1" stroke-width="4" d="M 0.00122275 0.00213688 L 302.358671 0.00213688 L 302.358671 529.122452 L 0.00122275 529.122452 Z M 0.00122275 0.00213688" transform="matrix(0.748442, 0, 0, 0.748442, 28.561585, 28.287463)"/></g><g clip-path="url(#266a23b3e4)"><path fill="none" stroke="#000" stroke-linecap="butt" stroke-linejoin="miter" stroke-miterlimit="4" stroke-opacity="1" stroke-width="4" d="M 0.0013113 -0.00155367 L 295.532093 -0.00155367 L 295.532093 522.297329 L 0.0013113 522.297329 Z M 0.0013113 -0.00155367" transform="matrix(0.748441, 0, 0, 0.748441, 31.116206, 30.825382)"/></g><g clip-path="url(#0b07aa36cb)"><path fill="none" stroke="#000" stroke-linecap="butt" stroke-linejoin="miter" stroke-miterlimit="4" stroke-opacity="1" stroke-width="4" d="M 0.00313519 -0.0013337 L 288.169637 -0.0013337 L 288.169637 514.938474 L 0.00313519 514.938474 Z M 0.00313519 -0.0013337" transform="matrix(0.748442, 0, 0, 0.748442, 33.673435, 33.399436)"/></g><g clip-path="url(#1997ff16c9)"><path fill="none" stroke="#000" stroke-linecap="butt" stroke-linejoin="miter" stroke-miterlimit="4" stroke-opacity="1" stroke-width="4" d="M 0.00222991 -0.00209242 L 264.562421 -0.00209242 L 264.562421 491.326214 L 0.00222991 491.326214 Z M 0.00222991 -0.00209242" transform="matrix(0.748441, 0, 0, 0.748441, 42.705362, 42.431254)"/></g><g clip-path="url(#880081e40b)"><g clip-path="url(#8803c75ad7)"><g><g clip-path="url(#341ec3adc9)" transform="matrix(1, 0, 0, 1, 41, 125)"><g clip-path="url(#d8ae356f8b)"><g clip-path="url(#893bd1a9f8)"><path fill="#fff" fill-opacity="1" fill-rule="nonzero" d="M 0.289062 0.878906 L 201.132812 0.878906 L 201.132812 201.722656 L 0.289062 201.722656 Z M 0.289062 0.878906"/></g></g></g></g></g></g><g clip-path="url(#d4c296c204)"><g clip-path="url(#a78091e04c)"><path fill="none" stroke="#000" stroke-linecap="butt" stroke-linejoin="miter" stroke-miterlimit="4" stroke-opacity="1" stroke-width="10" d="M 134.172084 -0.00102482 C 60.070183 -0.00102482 -0.00256561 60.071723 -0.00256561 134.173624 C -0.00256561 208.275525 60.070183 268.343054 134.172084 268.343054 C 208.273985 268.343054 268.341514 208.275525 268.341514 134.173624 C 268.341514 60.071723 208.273985 -0.00102482 134.172084 -0.00102482 Z M 134.172084 -0.00102482" transform="matrix(0.748441, 0, 0, 0.748441, 41.290983, 125.879673)"/></g></g><g fill="#000" fill-opacity="1"><g><g><path d="M 2.015625 0 L 2.015625 -3.5 L 6.0625 -3.5 L 6.0625 -15.890625 L 2.015625 -15.890625 L 2.015625 -19.390625 L 14.140625 -19.390625 L 14.140625 -15.890625 L 10.09375 -15.890625 L 10.09375 -3.5 L 14.140625 -3.5 L 14.140625 0 Z M 2.015625 0" transform="translate(85.144977, 217.189536)"/></g></g></g><g fill="#000" fill-opacity="1"><g><g><path d="M 0.9375 -19.390625 L 15.21875 -19.390625 L 15.21875 -15.625 L 10.09375 -15.625 L 10.09375 0 L 6.0625 0 L 6.0625 -15.625 L 0.9375 -15.625 Z M 0.9375 -19.390625" transform="translate(101.304248, 217.189536)"/></g></g></g><g fill="#000" fill-opacity="1"><g><g><path d="M 10.78125 -20.90625 L 7.265625 -12.53125 L 3.765625 -12.53125 L 5.921875 -20.90625 Z M 10.78125 -20.90625" transform="translate(117.46352, 217.189536)"/></g></g></g><g fill="#000" fill-opacity="1"><g><g><path d="M 8.078125 0.265625 C 7.078125 0.265625 6.160156 0.132812 5.328125 -0.125 C 4.503906 -0.382812 3.796875 -0.75 3.203125 -1.21875 C 2.609375 -1.695312 2.140625 -2.273438 1.796875 -2.953125 C 1.460938 -3.640625 1.269531 -4.40625 1.21875 -5.25 L 5.25 -5.25 C 5.394531 -3.90625 6.363281 -3.234375 8.15625 -3.234375 C 9.0625 -3.234375 9.742188 -3.425781 10.203125 -3.8125 C 10.671875 -4.195312 10.90625 -4.710938 10.90625 -5.359375 C 10.90625 -5.929688 10.722656 -6.425781 10.359375 -6.84375 C 9.992188 -7.257812 9.484375 -7.535156 8.828125 -7.671875 L 6.78125 -8.140625 C 5.019531 -8.535156 3.6875 -9.238281 2.78125 -10.25 C 1.875 -11.257812 1.421875 -12.554688 1.421875 -14.140625 C 1.421875 -14.960938 1.578125 -15.710938 1.890625 -16.390625 C 2.210938 -17.078125 2.660156 -17.664062 3.234375 -18.15625 C 3.804688 -18.644531 4.5 -19.019531 5.3125 -19.28125 C 6.132812 -19.550781 7.054688 -19.6875 8.078125 -19.6875 C 10.003906 -19.6875 11.546875 -19.207031 12.703125 -18.25 C 13.859375 -17.300781 14.5 -15.984375 14.625 -14.296875 L 10.59375 -14.296875 C 10.519531 -14.890625 10.253906 -15.351562 9.796875 -15.6875 C 9.335938 -16.019531 8.726562 -16.1875 7.96875 -16.1875 C 7.175781 -16.1875 6.5625 -16 6.125 -15.625 C 5.6875 -15.25 5.46875 -14.773438 5.46875 -14.203125 C 5.46875 -13.691406 5.632812 -13.253906 5.96875 -12.890625 C 6.3125 -12.523438 6.8125 -12.269531 7.46875 -12.125 L 9.609375 -11.640625 C 11.359375 -11.242188 12.6875 -10.53125 13.59375 -9.5 C 14.5 -8.46875 14.953125 -7.148438 14.953125 -5.546875 C 14.953125 -4.679688 14.789062 -3.894531 14.46875 -3.1875 C 14.144531 -2.476562 13.679688 -1.867188 13.078125 -1.359375 C 12.472656 -0.847656 11.75 -0.445312 10.90625 -0.15625 C 10.0625 0.125 9.117188 0.265625 8.078125 0.265625 Z M 8.078125 0.265625" transform="translate(133.622792, 217.189536)"/></g></g></g><g fill="#000" fill-opacity="1"><g><g><path d="M 1.078125 0 L 1.078125 -19.390625 L 5.765625 -19.390625 L 7.734375 -13.515625 C 7.804688 -13.316406 7.859375 -13.109375 7.890625 -12.890625 C 7.929688 -12.679688 7.96875 -12.488281 8 -12.3125 C 8.019531 -12.113281 8.035156 -11.914062 8.046875 -11.71875 L 8.265625 -11.71875 C 8.285156 -11.914062 8.3125 -12.113281 8.34375 -12.3125 C 8.382812 -12.488281 8.421875 -12.679688 8.453125 -12.890625 C 8.492188 -13.109375 8.539062 -13.316406 8.59375 -13.515625 L 10.34375 -19.390625 L 15.078125 -19.390625 L 15.078125 0 L 11.5625 0 L 11.5625 -11.859375 C 11.5625 -12.359375 11.582031 -12.859375 11.625 -13.359375 C 11.664062 -13.859375 11.710938 -14.316406 11.765625 -14.734375 C 11.828125 -15.234375 11.890625 -15.707031 11.953125 -16.15625 L 11.640625 -16.15625 C 11.546875 -15.726562 11.460938 -15.304688 11.390625 -14.890625 C 11.304688 -14.535156 11.226562 -14.164062 11.15625 -13.78125 C 11.082031 -13.394531 11 -13.066406 10.90625 -12.796875 L 9.703125 -8.484375 L 6.515625 -8.484375 L 5.171875 -12.796875 C 5.078125 -13.066406 4.992188 -13.390625 4.921875 -13.765625 C 4.859375 -14.140625 4.796875 -14.507812 4.734375 -14.875 C 4.671875 -15.28125 4.601562 -15.707031 4.53125 -16.15625 L 4.171875 -16.15625 C 4.242188 -15.707031 4.316406 -15.234375 4.390625 -14.734375 C 4.441406 -14.316406 4.488281 -13.859375 4.53125 -13.359375 C 4.582031 -12.859375 4.609375 -12.359375 4.609375 -11.859375 L 4.609375 0 Z M 1.078125 0" transform="translate(165.941335, 217.189536)"/></g></g></g><g fill="#000" fill-opacity="1"><g><g><path d="M 0.40625 -19.390625 L 4.640625 -19.390625 L 7.515625 -12.53125 C 7.660156 -12.21875 7.765625 -11.914062 7.828125 -11.625 C 7.890625 -11.34375 7.9375 -11.085938 7.96875 -10.859375 C 8.007812 -10.585938 8.035156 -10.332031 8.046875 -10.09375 L 8.25 -10.09375 C 8.257812 -10.332031 8.285156 -10.585938 8.328125 -10.859375 C 8.359375 -11.085938 8.410156 -11.34375 8.484375 -11.625 C 8.554688 -11.914062 8.65625 -12.21875 8.78125 -12.53125 L 11.5625 -19.390625 L 15.765625 -19.390625 L 10.09375 -6.734375 L 10.09375 0 L 6.0625 0 L 6.0625 -6.734375 Z M 0.40625 -19.390625" transform="translate(182.100607, 217.189536)"/></g></g></g><g fill="#000" fill-opacity="1"><g><g><path d="M 1.703125 0 L 1.703125 -19.390625 L 8.1875 -19.390625 C 9.195312 -19.390625 10.101562 -19.269531 10.90625 -19.03125 C 11.71875 -18.800781 12.40625 -18.472656 12.96875 -18.046875 C 13.53125 -17.617188 13.960938 -17.097656 14.265625 -16.484375 C 14.578125 -15.867188 14.734375 -15.1875 14.734375 -14.4375 C 14.734375 -13.238281 14.394531 -12.269531 13.71875 -11.53125 C 13.050781 -10.789062 12.125 -10.367188 10.9375 -10.265625 L 10.9375 -9.96875 C 12.226562 -9.875 13.238281 -9.441406 13.96875 -8.671875 C 14.707031 -7.898438 15.078125 -6.882812 15.078125 -5.625 C 15.078125 -4.769531 14.921875 -3.992188 14.609375 -3.296875 C 14.296875 -2.609375 13.847656 -2.015625 13.265625 -1.515625 C 12.679688 -1.023438 11.972656 -0.648438 11.140625 -0.390625 C 10.304688 -0.128906 9.375 0 8.34375 0 Z M 5.609375 -8.4375 L 5.609375 -3.234375 L 8.1875 -3.234375 C 9.082031 -3.234375 9.773438 -3.457031 10.265625 -3.90625 C 10.765625 -4.351562 11.015625 -4.988281 11.015625 -5.8125 C 11.015625 -6.644531 10.765625 -7.289062 10.265625 -7.75 C 9.773438 -8.207031 9.082031 -8.4375 8.1875 -8.4375 Z M 5.609375 -16.15625 L 5.609375 -11.65625 L 8.140625 -11.65625 C 8.910156 -11.65625 9.523438 -11.863281 9.984375 -12.28125 C 10.441406 -12.695312 10.671875 -13.242188 10.671875 -13.921875 C 10.671875 -14.609375 10.445312 -15.148438 10 -15.546875 C 9.550781 -15.953125 8.929688 -16.15625 8.140625 -16.15625 Z M 5.609375 -16.15625" transform="translate(68.983318, 254.61161)"/></g></g></g><g fill="#000" fill-opacity="1"><g><g><path d="M 2.015625 0 L 2.015625 -3.5 L 6.0625 -3.5 L 6.0625 -15.890625 L 2.015625 -15.890625 L 2.015625 -19.390625 L 14.140625 -19.390625 L 14.140625 -15.890625 L 10.09375 -15.890625 L 10.09375 -3.5 L 14.140625 -3.5 L 14.140625 0 Z M 2.015625 0" transform="translate(85.14259, 254.61161)"/></g></g></g><g fill="#000" fill-opacity="1"><g><g><path d="M 1.75 -19.390625 L 8.21875 -19.390625 C 9.28125 -19.390625 10.234375 -19.25 11.078125 -18.96875 C 11.921875 -18.695312 12.632812 -18.304688 13.21875 -17.796875 C 13.8125 -17.285156 14.269531 -16.664062 14.59375 -15.9375 C 14.914062 -15.207031 15.078125 -14.382812 15.078125 -13.46875 C 15.078125 -12.207031 14.769531 -11.128906 14.15625 -10.234375 C 13.550781 -9.335938 12.710938 -8.65625 11.640625 -8.1875 L 15.359375 0 L 11.046875 0 L 7.765625 -7.546875 L 5.765625 -7.546875 L 5.765625 0 L 1.75 0 Z M 5.765625 -10.640625 L 8.21875 -10.640625 C 9.09375 -10.640625 9.78125 -10.875 10.28125 -11.34375 C 10.789062 -11.820312 11.046875 -12.46875 11.046875 -13.28125 C 11.046875 -14.125 10.789062 -14.789062 10.28125 -15.28125 C 9.769531 -15.78125 9.082031 -16.03125 8.21875 -16.03125 L 5.765625 -16.03125 Z M 5.765625 -10.640625" transform="translate(101.301862, 254.61161)"/></g></g></g><g fill="#000" fill-opacity="1"><g><g><path d="M 0.9375 -19.390625 L 15.21875 -19.390625 L 15.21875 -15.625 L 10.09375 -15.625 L 10.09375 0 L 6.0625 0 L 6.0625 -15.625 L 0.9375 -15.625 Z M 0.9375 -19.390625" transform="translate(117.461133, 254.61161)"/></g></g></g><g fill="#000" fill-opacity="1"><g><g><path d="M 5.796875 -19.390625 L 5.796875 -11.953125 L 10.375 -11.953125 L 10.375 -19.390625 L 14.40625 -19.390625 L 14.40625 0 L 10.375 0 L 10.375 -8.1875 L 5.796875 -8.1875 L 5.796875 0 L 1.75 0 L 1.75 -19.390625 Z M 5.796875 -19.390625" transform="translate(133.620405, 254.61161)"/></g></g></g><g fill="#000" fill-opacity="1"><g><g><path d="M 8.078125 -3.765625 C 8.910156 -3.765625 9.578125 -4 10.078125 -4.46875 C 10.578125 -4.9375 10.828125 -5.554688 10.828125 -6.328125 L 10.828125 -13.09375 C 10.828125 -13.84375 10.578125 -14.453125 10.078125 -14.921875 C 9.578125 -15.390625 8.910156 -15.625 8.078125 -15.625 L 5.734375 -15.625 L 5.734375 -3.765625 Z M 1.703125 0 L 1.703125 -19.390625 L 8.078125 -19.390625 C 9.097656 -19.390625 10.023438 -19.238281 10.859375 -18.9375 C 11.703125 -18.644531 12.421875 -18.21875 13.015625 -17.65625 C 13.609375 -17.101562 14.066406 -16.441406 14.390625 -15.671875 C 14.710938 -14.898438 14.875 -14.039062 14.875 -13.09375 L 14.875 -6.328125 C 14.875 -5.378906 14.710938 -4.515625 14.390625 -3.734375 C 14.066406 -2.953125 13.609375 -2.285156 13.015625 -1.734375 C 12.421875 -1.191406 11.703125 -0.765625 10.859375 -0.453125 C 10.023438 -0.148438 9.097656 0 8.078125 0 Z M 1.703125 0" transform="translate(149.779677, 254.61161)"/></g></g></g><g fill="#000" fill-opacity="1"><g><g><path d="M 0.265625 0 L 5.4375 -19.390625 L 10.828125 -19.390625 L 15.890625 0 L 11.796875 0 L 10.78125 -4.4375 L 5.359375 -4.4375 L 4.34375 0 Z M 6.09375 -7.59375 L 10.015625 -7.59375 L 8.546875 -13.984375 C 8.484375 -14.253906 8.425781 -14.546875 8.375 -14.859375 C 8.320312 -15.171875 8.28125 -15.472656 8.25 -15.765625 C 8.207031 -16.066406 8.171875 -16.378906 8.140625 -16.703125 L 7.96875 -16.703125 C 7.9375 -16.378906 7.894531 -16.066406 7.84375 -15.765625 C 7.800781 -15.472656 7.757812 -15.171875 7.71875 -14.859375 C 7.675781 -14.546875 7.617188 -14.253906 7.546875 -13.984375 Z M 6.09375 -7.59375" transform="translate(165.938949, 254.61161)"/></g></g></g><g fill="#000" fill-opacity="1"><g><g><path d="M 0.40625 -19.390625 L 4.640625 -19.390625 L 7.515625 -12.53125 C 7.660156 -12.21875 7.765625 -11.914062 7.828125 -11.625 C 7.890625 -11.34375 7.9375 -11.085938 7.96875 -10.859375 C 8.007812 -10.585938 8.035156 -10.332031 8.046875 -10.09375 L 8.25 -10.09375 C 8.257812 -10.332031 8.285156 -10.585938 8.328125 -10.859375 C 8.359375 -11.085938 8.410156 -11.34375 8.484375 -11.625 C 8.554688 -11.914062 8.65625 -12.21875 8.78125 -12.53125 L 11.5625 -19.390625 L 15.765625 -19.390625 L 10.09375 -6.734375 L 10.09375 0 L 6.0625 0 L 6.0625 -6.734375 Z M 0.40625 -19.390625" transform="translate(182.09822, 254.61161)"/></g></g></g><g fill="#000" fill-opacity="1"><g><g><path d="M 5.953125 -19.390625 L 10.203125 -19.390625 L 10.203125 -15.359375 L 9.59375 -6.59375 L 6.578125 -6.59375 L 5.953125 -15.359375 Z M 7.671875 -3.640625 L 8.484375 -3.640625 C 9.097656 -3.640625 9.585938 -3.46875 9.953125 -3.125 C 10.316406 -2.78125 10.5 -2.320312 10.5 -1.75 C 10.5 -1.175781 10.316406 -0.71875 9.953125 -0.375 C 9.585938 -0.03125 9.085938 0.140625 8.453125 0.140625 L 7.671875 0.140625 C 7.066406 0.140625 6.578125 -0.03125 6.203125 -0.375 C 5.835938 -0.71875 5.65625 -1.175781 5.65625 -1.75 C 5.65625 -2.320312 5.835938 -2.78125 6.203125 -3.125 C 6.578125 -3.46875 7.066406 -3.640625 7.671875 -3.640625 Z M 7.671875 -3.640625" transform="translate(198.257492, 254.61161)"/></g></g></g><g clip-path="url(#6ca216cff4)"><g clip-path="url(#3bc29f9840)"><g><g clip-path="url(#a8d5fc8c1c)" transform="matrix(1, 0, 0, 1, 16, 16)"><g clip-path="url(#b60f3e8927)"><g clip-path="url(#54580712b3)"><path fill="#ffd9c2" fill-opacity="1" fill-rule="nonzero" d="M 46.140625 0.527344 L 46.140625 45.871094 L 0.796875 45.871094 L 0.796875 0.527344 Z M 46.140625 0.527344"/></g></g></g></g></g></g><g clip-path="url(#ab613c0e21)"><g clip-path="url(#fe754a7293)"><path fill="none" stroke="#000" stroke-linecap="butt" stroke-linejoin="miter" stroke-miterlimit="4" stroke-opacity="1" stroke-width="4" d="M 30.286897 -0.0000925514 C 13.559429 -0.0000925514 0.00000192092 13.559334 0.00000192092 30.286802 C 0.00000192092 47.019489 13.559429 60.578916 30.286897 60.578916 C 47.019584 60.578916 60.579011 47.019489 60.579011 30.286802 C 60.579011 13.559334 47.019584 -0.0000925514 30.286897 -0.0000925514 Z M 30.286897 -0.0000925514" transform="matrix(0, 0.748441, -0.748441, 0, 62.140556, 16.527342)"/></g></g><g fill="#000" fill-opacity="1"><g><g><path d="M 7.140625 7.625 C 6.472656 7.625 5.859375 7.453125 5.296875 7.109375 C 4.742188 6.773438 4.160156 6.222656 3.546875 5.453125 L 2.53125 4.15625 C 2.300781 3.875 2.140625 3.609375 2.046875 3.359375 C 1.984375 3.242188 1.9375 3.128906 1.90625 3.015625 L 1.84375 3.015625 C 1.851562 3.140625 1.863281 3.273438 1.875 3.421875 C 1.875 3.554688 1.875 3.707031 1.875 3.875 C 1.882812 4.039062 1.890625 4.21875 1.890625 4.40625 L 1.890625 7.765625 L 0 7.765625 L 0 0.703125 L 2.171875 0.703125 L 5.015625 4.28125 C 5.347656 4.71875 5.675781 5.035156 6 5.234375 C 6.320312 5.429688 6.660156 5.53125 7.015625 5.53125 C 7.429688 5.53125 7.757812 5.410156 8 5.171875 C 8.25 4.929688 8.375 4.597656 8.375 4.171875 C 8.375 3.734375 8.257812 3.378906 8.03125 3.109375 C 7.800781 2.847656 7.5 2.71875 7.125 2.71875 L 7.125 0.625 C 7.59375 0.625 8.015625 0.707031 8.390625 0.875 C 8.765625 1.050781 9.082031 1.296875 9.34375 1.609375 C 9.613281 1.921875 9.820312 2.296875 9.96875 2.734375 C 10.125 3.179688 10.203125 3.675781 10.203125 4.21875 C 10.203125 4.71875 10.125 5.175781 9.96875 5.59375 C 9.820312 6.019531 9.613281 6.382812 9.34375 6.6875 C 9.082031 6.988281 8.765625 7.21875 8.390625 7.375 C 8.015625 7.539062 7.597656 7.625 7.140625 7.625 Z M 7.140625 7.625" transform="translate(35.196662, 30.806203)"/></g></g></g><g fill="#000" fill-opacity="1"><g><g><path d="M 0 0.5625 L 10.0625 0.5625 L 10.0625 2.984375 L 7.015625 4.015625 C 6.910156 4.046875 6.800781 4.070312 6.6875 4.09375 C 6.570312 4.113281 6.472656 4.132812 6.390625 4.15625 C 6.285156 4.15625 6.179688 4.160156 6.078125 4.171875 L 6.078125 4.28125 C 6.179688 4.289062 6.285156 4.304688 6.390625 4.328125 C 6.472656 4.347656 6.570312 4.367188 6.6875 4.390625 C 6.800781 4.410156 6.910156 4.429688 7.015625 4.453125 L 10.0625 5.359375 L 10.0625 7.828125 L 0 7.828125 L 0 6 L 6.140625 6 C 6.398438 6 6.660156 6.007812 6.921875 6.03125 C 7.179688 6.050781 7.421875 6.078125 7.640625 6.109375 C 7.898438 6.128906 8.144531 6.160156 8.375 6.203125 L 8.375 6.03125 C 8.15625 5.988281 7.9375 5.945312 7.71875 5.90625 C 7.539062 5.863281 7.347656 5.820312 7.140625 5.78125 C 6.941406 5.75 6.773438 5.707031 6.640625 5.65625 L 4.40625 5.03125 L 4.40625 3.375 L 6.640625 2.6875 C 6.773438 2.632812 6.941406 2.585938 7.140625 2.546875 C 7.335938 2.515625 7.523438 2.484375 7.703125 2.453125 C 7.921875 2.421875 8.144531 2.382812 8.375 2.34375 L 8.375 2.171875 C 8.144531 2.203125 7.898438 2.238281 7.640625 2.28125 C 7.421875 2.300781 7.179688 2.320312 6.921875 2.34375 C 6.660156 2.375 6.398438 2.390625 6.140625 2.390625 L 0 2.390625 Z M 0 0.5625" transform="translate(35.196662, 39.184074)"/></g></g></g><g clip-path="url(#0aef0d4b44)"><g clip-path="url(#46aafedb88)"><path fill="none" stroke="#ff3131" stroke-linecap="butt" stroke-linejoin="miter" stroke-miterlimit="4" stroke-opacity="1" stroke-width="2" d="M 26.51648 0.00226921 C 11.871464 0.00226921 -0.00216774 11.870682 -0.00216774 26.515698 C -0.00216774 41.160713 11.871464 53.029126 26.51648 53.029126 C 41.161496 53.029126 53.029908 41.160713 53.029908 26.515698 C 53.029908 11.870682 41.161496 0.00226921 26.51648 0.00226921 Z M 26.51648 0.00226921" transform="matrix(0, 0.748441, -0.748441, 0, 59.220448, 19.255529)"/></g></g><g clip-path="url(#1614272154)"><g clip-path="url(#6363d8d2ef)"><g><g clip-path="url(#70a9f41984)" transform="matrix(1, 0, 0, 1, 220, 389)"><g clip-path="url(#a0356b474f)"><g clip-path="url(#5170920b65)"><path fill="#ffd9c2" fill-opacity="1" fill-rule="nonzero" d="M 46.222656 0.550781 L 46.222656 46.679688 L 0.0898438 46.679688 L 0.0898438 0.550781 Z M 46.222656 0.550781"/></g></g></g></g></g></g><g clip-path="url(#ef5ceedd3a)"><g clip-path="url(#c0e4a339e9)"><path fill="none" stroke="#000" stroke-linecap="butt" stroke-linejoin="miter" stroke-miterlimit="4" stroke-opacity="1" stroke-width="4" d="M 30.81017 -0.00198777 C 13.795647 -0.00198777 0.00135694 13.797521 0.00135694 30.812044 C 0.00135694 47.831786 13.795647 61.626076 30.81017 61.626076 C 47.829912 61.626076 61.624201 47.831786 61.624201 30.812044 C 61.624201 13.797521 47.829912 -0.00198777 30.81017 -0.00198777 Z M 30.81017 -0.00198777" transform="matrix(0, 0.748441, -0.748441, 0, 266.221169, 389.549766)"/></g></g><g fill="#000" fill-opacity="1"><g><g><path d="M 7.140625 7.625 C 6.472656 7.625 5.859375 7.453125 5.296875 7.109375 C 4.742188 6.773438 4.160156 6.222656 3.546875 5.453125 L 2.53125 4.15625 C 2.300781 3.875 2.140625 3.609375 2.046875 3.359375 C 1.984375 3.242188 1.9375 3.128906 1.90625 3.015625 L 1.84375 3.015625 C 1.851562 3.140625 1.863281 3.273438 1.875 3.421875 C 1.875 3.554688 1.875 3.707031 1.875 3.875 C 1.882812 4.039062 1.890625 4.21875 1.890625 4.40625 L 1.890625 7.765625 L 0 7.765625 L 0 0.703125 L 2.171875 0.703125 L 5.015625 4.28125 C 5.347656 4.71875 5.675781 5.035156 6 5.234375 C 6.320312 5.429688 6.660156 5.53125 7.015625 5.53125 C 7.429688 5.53125 7.757812 5.410156 8 5.171875 C 8.25 4.929688 8.375 4.597656 8.375 4.171875 C 8.375 3.734375 8.257812 3.378906 8.03125 3.109375 C 7.800781 2.847656 7.5 2.71875 7.125 2.71875 L 7.125 0.625 C 7.59375 0.625 8.015625 0.707031 8.390625 0.875 C 8.765625 1.050781 9.082031 1.296875 9.34375 1.609375 C 9.613281 1.921875 9.820312 2.296875 9.96875 2.734375 C 10.125 3.179688 10.203125 3.675781 10.203125 4.21875 C 10.203125 4.71875 10.125 5.175781 9.96875 5.59375 C 9.820312 6.019531 9.613281 6.382812 9.34375 6.6875 C 9.082031 6.988281 8.765625 7.21875 8.390625 7.375 C 8.015625 7.539062 7.597656 7.625 7.140625 7.625 Z M 7.140625 7.625" transform="translate(238.528833, 404.226236)"/></g></g></g><g fill="#000" fill-opacity="1"><g><g><path d="M 0 0.5625 L 10.0625 0.5625 L 10.0625 2.984375 L 7.015625 4.015625 C 6.910156 4.046875 6.800781 4.070312 6.6875 4.09375 C 6.570312 4.113281 6.472656 4.132812 6.390625 4.15625 C 6.285156 4.15625 6.179688 4.160156 6.078125 4.171875 L 6.078125 4.28125 C 6.179688 4.289062 6.285156 4.304688 6.390625 4.328125 C 6.472656 4.347656 6.570312 4.367188 6.6875 4.390625 C 6.800781 4.410156 6.910156 4.429688 7.015625 4.453125 L 10.0625 5.359375 L 10.0625 7.828125 L 0 7.828125 L 0 6 L 6.140625 6 C 6.398438 6 6.660156 6.007812 6.921875 6.03125 C 7.179688 6.050781 7.421875 6.078125 7.640625 6.109375 C 7.898438 6.128906 8.144531 6.160156 8.375 6.203125 L 8.375 6.03125 C 8.15625 5.988281 7.9375 5.945312 7.71875 5.90625 C 7.539062 5.863281 7.347656 5.820312 7.140625 5.78125 C 6.941406 5.75 6.773438 5.707031 6.640625 5.65625 L 4.40625 5.03125 L 4.40625 3.375 L 6.640625 2.6875 C 6.773438 2.632812 6.941406 2.585938 7.140625 2.546875 C 7.335938 2.515625 7.523438 2.484375 7.703125 2.453125 C 7.921875 2.421875 8.144531 2.382812 8.375 2.34375 L 8.375 2.171875 C 8.144531 2.203125 7.898438 2.238281 7.640625 2.28125 C 7.421875 2.300781 7.179688 2.320312 6.921875 2.34375 C 6.660156 2.375 6.398438 2.390625 6.140625 2.390625 L 0 2.390625 Z M 0 0.5625" transform="translate(238.528833, 412.604107)"/></g></g></g><g clip-path="url(#f240dbed83)"><g clip-path="url(#83e6132b98)"><path fill="none" stroke="#ff3131" stroke-linecap="butt" stroke-linejoin="miter" stroke-miterlimit="4" stroke-opacity="1" stroke-width="2" d="M 27.170077 -0.000194529 C 12.164938 -0.000194529 -0.000968239 12.165711 -0.000968239 27.17085 C -0.000968239 42.17599 12.164938 54.341895 27.170077 54.341895 C 42.180435 54.341895 54.346341 42.17599 54.346341 27.17085 C 54.346341 12.165711 42.180435 -0.000194529 27.170077 -0.000194529 Z M 27.170077 -0.000194529" transform="matrix(0, 0.748441, -0.748441, 0, 263.499854, 392.278068)"/></g></g><g fill="#000" fill-opacity="1"><g><g><path d="M 0.15625 0 L 3.21875 -11.5 L 6.421875 -11.5 L 9.421875 0 L 7 0 L 6.390625 -2.640625 L 3.171875 -2.640625 L 2.578125 0 Z M 3.609375 -4.5 L 5.9375 -4.5 L 5.0625 -8.28125 C 5.03125 -8.445312 5 -8.625 4.96875 -8.8125 C 4.9375 -9 4.910156 -9.175781 4.890625 -9.34375 C 4.867188 -9.519531 4.847656 -9.707031 4.828125 -9.90625 L 4.734375 -9.90625 C 4.703125 -9.707031 4.671875 -9.519531 4.640625 -9.34375 C 4.617188 -9.175781 4.59375 -9 4.5625 -8.8125 C 4.539062 -8.625 4.507812 -8.445312 4.46875 -8.28125 Z M 3.609375 -4.5" transform="translate(89.026874, 100.960899)"/></g></g></g><g fill="#000" fill-opacity="1"><g><g><path d="M 4.875 -11.65625 C 5.46875 -11.65625 6.007812 -11.566406 6.5 -11.390625 C 6.988281 -11.222656 7.40625 -10.984375 7.75 -10.671875 C 8.101562 -10.359375 8.375 -9.976562 8.5625 -9.53125 C 8.757812 -9.09375 8.859375 -8.601562 8.859375 -8.0625 L 6.46875 -8.0625 C 6.46875 -8.507812 6.320312 -8.859375 6.03125 -9.109375 C 5.75 -9.367188 5.363281 -9.5 4.875 -9.5 C 4.375 -9.5 3.972656 -9.367188 3.671875 -9.109375 C 3.378906 -8.859375 3.234375 -8.507812 3.234375 -8.0625 L 3.234375 -3.4375 C 3.234375 -2.988281 3.375 -2.632812 3.65625 -2.375 C 3.945312 -2.125 4.347656 -2 4.859375 -2 C 5.359375 -2 5.75 -2.128906 6.03125 -2.390625 C 6.320312 -2.660156 6.46875 -3.007812 6.46875 -3.4375 L 8.859375 -3.4375 C 8.859375 -2.894531 8.757812 -2.398438 8.5625 -1.953125 C 8.375 -1.515625 8.101562 -1.132812 7.75 -0.8125 C 7.40625 -0.5 6.988281 -0.257812 6.5 -0.09375 C 6.007812 0.0703125 5.460938 0.15625 4.859375 0.15625 C 4.242188 0.15625 3.691406 0.0703125 3.203125 -0.09375 C 2.710938 -0.257812 2.289062 -0.5 1.9375 -0.8125 C 1.59375 -1.132812 1.320312 -1.515625 1.125 -1.953125 C 0.9375 -2.398438 0.84375 -2.894531 0.84375 -3.4375 L 0.84375 -8.0625 C 0.84375 -8.601562 0.9375 -9.09375 1.125 -9.53125 C 1.320312 -9.976562 1.59375 -10.359375 1.9375 -10.671875 C 2.289062 -10.984375 2.710938 -11.222656 3.203125 -11.390625 C 3.703125 -11.566406 4.257812 -11.65625 4.875 -11.65625 Z M 4.875 -11.65625" transform="translate(98.604621, 100.960899)"/></g></g></g><g fill="#000" fill-opacity="1"><g><g><path d="M 0.5625 -11.5 L 9.015625 -11.5 L 9.015625 -9.265625 L 5.984375 -9.265625 L 5.984375 0 L 3.59375 0 L 3.59375 -9.265625 L 0.5625 -9.265625 Z M 0.5625 -11.5" transform="translate(108.182367, 100.960899)"/></g></g></g><g fill="#000" fill-opacity="1"><g><g><path d="M 1.203125 0 L 1.203125 -2.078125 L 3.59375 -2.078125 L 3.59375 -9.421875 L 1.203125 -9.421875 L 1.203125 -11.5 L 8.390625 -11.5 L 8.390625 -9.421875 L 5.984375 -9.421875 L 5.984375 -2.078125 L 8.390625 -2.078125 L 8.390625 0 Z M 1.203125 0" transform="translate(117.760114, 100.960899)"/></g></g></g><g fill="#000" fill-opacity="1"><g><g><path d="M 3.15625 -3.4375 C 3.15625 -2.976562 3.300781 -2.613281 3.59375 -2.34375 C 3.894531 -2.070312 4.296875 -1.9375 4.796875 -1.9375 C 5.296875 -1.9375 5.691406 -2.070312 5.984375 -2.34375 C 6.273438 -2.613281 6.421875 -2.976562 6.421875 -3.4375 L 6.421875 -8.078125 C 6.421875 -8.535156 6.273438 -8.898438 5.984375 -9.171875 C 5.691406 -9.441406 5.296875 -9.578125 4.796875 -9.578125 C 4.296875 -9.578125 3.894531 -9.441406 3.59375 -9.171875 C 3.300781 -8.898438 3.15625 -8.535156 3.15625 -8.078125 Z M 0.765625 -8.078125 C 0.765625 -8.617188 0.859375 -9.109375 1.046875 -9.546875 C 1.242188 -9.984375 1.515625 -10.359375 1.859375 -10.671875 C 2.210938 -10.984375 2.632812 -11.222656 3.125 -11.390625 C 3.625 -11.566406 4.179688 -11.65625 4.796875 -11.65625 C 5.398438 -11.65625 5.945312 -11.566406 6.4375 -11.390625 C 6.9375 -11.222656 7.359375 -10.984375 7.703125 -10.671875 C 8.054688 -10.359375 8.328125 -9.984375 8.515625 -9.546875 C 8.710938 -9.109375 8.8125 -8.617188 8.8125 -8.078125 L 8.8125 -3.4375 C 8.8125 -2.90625 8.710938 -2.414062 8.515625 -1.96875 C 8.316406 -1.53125 8.039062 -1.15625 7.6875 -0.84375 C 7.34375 -0.53125 6.921875 -0.285156 6.421875 -0.109375 C 5.929688 0.0664062 5.390625 0.15625 4.796875 0.15625 C 4.179688 0.15625 3.625 0.0703125 3.125 -0.09375 C 2.632812 -0.257812 2.210938 -0.5 1.859375 -0.8125 C 1.515625 -1.132812 1.242188 -1.515625 1.046875 -1.953125 C 0.859375 -2.398438 0.765625 -2.894531 0.765625 -3.4375 Z M 0.765625 -8.078125" transform="translate(127.33786, 100.960899)"/></g></g></g><g fill="#000" fill-opacity="1"><g><g><path d="M 0.921875 -11.5 L 3.828125 -11.5 L 6.390625 -3.875 C 6.441406 -3.726562 6.484375 -3.550781 6.515625 -3.34375 C 6.546875 -3.132812 6.570312 -2.941406 6.59375 -2.765625 C 6.613281 -2.535156 6.632812 -2.304688 6.65625 -2.078125 L 6.875 -2.078125 C 6.875 -2.078125 6.859375 -2.171875 6.828125 -2.359375 C 6.804688 -2.554688 6.78125 -2.796875 6.75 -3.078125 C 6.71875 -3.367188 6.6875 -3.679688 6.65625 -4.015625 C 6.625 -4.347656 6.609375 -4.65625 6.609375 -4.9375 L 6.609375 -11.5 L 8.65625 -11.5 L 8.65625 0 L 5.75 0 L 3.234375 -7.609375 C 3.179688 -7.796875 3.132812 -7.992188 3.09375 -8.203125 C 3.050781 -8.410156 3.019531 -8.601562 3 -8.78125 C 2.976562 -9 2.960938 -9.210938 2.953125 -9.421875 L 2.734375 -9.421875 C 2.773438 -9.097656 2.816406 -8.773438 2.859375 -8.453125 C 2.878906 -8.171875 2.898438 -7.863281 2.921875 -7.53125 C 2.953125 -7.207031 2.96875 -6.890625 2.96875 -6.578125 L 2.96875 0 L 0.921875 0 Z M 0.921875 -11.5" transform="translate(136.915607, 100.960899)"/></g></g></g><g fill="#000" fill-opacity="1"><g><g><path d="M 4.875 -11.65625 C 5.46875 -11.65625 6.007812 -11.566406 6.5 -11.390625 C 6.988281 -11.222656 7.40625 -10.984375 7.75 -10.671875 C 8.101562 -10.359375 8.375 -9.976562 8.5625 -9.53125 C 8.757812 -9.09375 8.859375 -8.601562 8.859375 -8.0625 L 6.46875 -8.0625 C 6.46875 -8.507812 6.320312 -8.859375 6.03125 -9.109375 C 5.75 -9.367188 5.363281 -9.5 4.875 -9.5 C 4.375 -9.5 3.972656 -9.367188 3.671875 -9.109375 C 3.378906 -8.859375 3.234375 -8.507812 3.234375 -8.0625 L 3.234375 -3.4375 C 3.234375 -2.988281 3.375 -2.632812 3.65625 -2.375 C 3.945312 -2.125 4.347656 -2 4.859375 -2 C 5.359375 -2 5.75 -2.128906 6.03125 -2.390625 C 6.320312 -2.660156 6.46875 -3.007812 6.46875 -3.4375 L 8.859375 -3.4375 C 8.859375 -2.894531 8.757812 -2.398438 8.5625 -1.953125 C 8.375 -1.515625 8.101562 -1.132812 7.75 -0.8125 C 7.40625 -0.5 6.988281 -0.257812 6.5 -0.09375 C 6.007812 0.0703125 5.460938 0.15625 4.859375 0.15625 C 4.242188 0.15625 3.691406 0.0703125 3.203125 -0.09375 C 2.710938 -0.257812 2.289062 -0.5 1.9375 -0.8125 C 1.59375 -1.132812 1.320312 -1.515625 1.125 -1.953125 C 0.9375 -2.398438 0.84375 -2.894531 0.84375 -3.4375 L 0.84375 -8.0625 C 0.84375 -8.601562 0.9375 -9.09375 1.125 -9.53125 C 1.320312 -9.976562 1.59375 -10.359375 1.9375 -10.671875 C 2.289062 -10.984375 2.710938 -11.222656 3.203125 -11.390625 C 3.703125 -11.566406 4.257812 -11.65625 4.875 -11.65625 Z M 4.875 -11.65625" transform="translate(156.0711, 100.960899)"/></g></g></g><g fill="#000" fill-opacity="1"><g><g><path d="M 0.15625 0 L 3.21875 -11.5 L 6.421875 -11.5 L 9.421875 0 L 7 0 L 6.390625 -2.640625 L 3.171875 -2.640625 L 2.578125 0 Z M 3.609375 -4.5 L 5.9375 -4.5 L 5.0625 -8.28125 C 5.03125 -8.445312 5 -8.625 4.96875 -8.8125 C 4.9375 -9 4.910156 -9.175781 4.890625 -9.34375 C 4.867188 -9.519531 4.847656 -9.707031 4.828125 -9.90625 L 4.734375 -9.90625 C 4.703125 -9.707031 4.671875 -9.519531 4.640625 -9.34375 C 4.617188 -9.175781 4.59375 -9 4.5625 -8.8125 C 4.539062 -8.625 4.507812 -8.445312 4.46875 -8.28125 Z M 3.609375 -4.5" transform="translate(165.648846, 100.960899)"/></g></g></g><g fill="#000" fill-opacity="1"><g><g><path d="M 1.03125 -11.5 L 4.875 -11.5 C 5.5 -11.5 6.0625 -11.414062 6.5625 -11.25 C 7.0625 -11.082031 7.488281 -10.847656 7.84375 -10.546875 C 8.195312 -10.242188 8.46875 -9.875 8.65625 -9.4375 C 8.84375 -9.007812 8.9375 -8.523438 8.9375 -7.984375 C 8.9375 -7.234375 8.753906 -6.59375 8.390625 -6.0625 C 8.035156 -5.53125 7.539062 -5.128906 6.90625 -4.859375 L 9.109375 0 L 6.546875 0 L 4.59375 -4.46875 L 3.421875 -4.46875 L 3.421875 0 L 1.03125 0 Z M 3.421875 -6.3125 L 4.875 -6.3125 C 5.394531 -6.3125 5.800781 -6.453125 6.09375 -6.734375 C 6.394531 -7.015625 6.546875 -7.394531 6.546875 -7.875 C 6.546875 -8.375 6.394531 -8.769531 6.09375 -9.0625 C 5.789062 -9.351562 5.382812 -9.5 4.875 -9.5 L 3.421875 -9.5 Z M 3.421875 -6.3125" transform="translate(175.226593, 100.960899)"/></g></g></g><g fill="#000" fill-opacity="1"><g><g><path d="M 4.796875 -2.234375 C 5.285156 -2.234375 5.675781 -2.367188 5.96875 -2.640625 C 6.269531 -2.921875 6.421875 -3.289062 6.421875 -3.75 L 6.421875 -7.765625 C 6.421875 -8.210938 6.269531 -8.570312 5.96875 -8.84375 C 5.675781 -9.125 5.285156 -9.265625 4.796875 -9.265625 L 3.40625 -9.265625 L 3.40625 -2.234375 Z M 1 0 L 1 -11.5 L 4.796875 -11.5 C 5.398438 -11.5 5.945312 -11.410156 6.4375 -11.234375 C 6.9375 -11.054688 7.359375 -10.800781 7.703125 -10.46875 C 8.054688 -10.144531 8.328125 -9.753906 8.515625 -9.296875 C 8.710938 -8.835938 8.8125 -8.328125 8.8125 -7.765625 L 8.8125 -3.75 C 8.8125 -3.1875 8.710938 -2.671875 8.515625 -2.203125 C 8.328125 -1.742188 8.054688 -1.351562 7.703125 -1.03125 C 7.359375 -0.707031 6.9375 -0.453125 6.4375 -0.265625 C 5.945312 -0.0859375 5.398438 0 4.796875 0 Z M 1 0" transform="translate(184.80434, 100.960899)"/></g></g></g><g fill="#000" fill-opacity="1"><g><g><path d="M 0.53125 0 L 2.875 -8.625 L 4.375 -8.625 L 6.65625 0 L 5.5 0 L 4.90625 -2.421875 L 2.265625 -2.421875 L 1.65625 0 Z M 2.484375 -3.328125 L 4.6875 -3.328125 L 3.859375 -6.734375 C 3.816406 -6.898438 3.78125 -7.050781 3.75 -7.1875 C 3.71875 -7.332031 3.691406 -7.460938 3.671875 -7.578125 C 3.660156 -7.691406 3.644531 -7.800781 3.625 -7.90625 L 3.578125 -7.90625 C 3.566406 -7.800781 3.546875 -7.691406 3.515625 -7.578125 C 3.503906 -7.460938 3.484375 -7.332031 3.453125 -7.1875 C 3.421875 -7.050781 3.382812 -6.898438 3.34375 -6.734375 Z M 2.484375 -3.328125" transform="translate(69.861411, 370.539352)"/></g></g></g><g fill="#000" fill-opacity="1"><g><g><path d="M 3.734375 -8.734375 L 3.734375 -1.921875 C 3.734375 -1.617188 3.8125 -1.382812 3.96875 -1.21875 C 4.132812 -1.0625 4.351562 -0.984375 4.625 -0.984375 L 6.578125 -0.984375 L 6.578125 0 L 4.625 0 C 4.007812 0 3.523438 -0.164062 3.171875 -0.5 C 2.828125 -0.84375 2.65625 -1.316406 2.65625 -1.921875 L 2.65625 -7.75 L 0.484375 -7.75 L 0.484375 -8.734375 Z M 3.734375 -8.734375" transform="translate(77.046465, 370.539352)"/></g></g></g><g fill="#000" fill-opacity="1"><g><g><path d="M 3.734375 -8.734375 L 3.734375 -1.921875 C 3.734375 -1.617188 3.8125 -1.382812 3.96875 -1.21875 C 4.132812 -1.0625 4.351562 -0.984375 4.625 -0.984375 L 6.578125 -0.984375 L 6.578125 0 L 4.625 0 C 4.007812 0 3.523438 -0.164062 3.171875 -0.5 C 2.828125 -0.84375 2.65625 -1.316406 2.65625 -1.921875 L 2.65625 -7.75 L 0.484375 -7.75 L 0.484375 -8.734375 Z M 3.734375 -8.734375" transform="translate(84.23152, 370.539352)"/></g></g></g><g fill="#000" fill-opacity="1"><g><g><path d="M 2.078125 -6.578125 L 2.078125 -5.453125 L 2.171875 -5.453125 C 2.273438 -5.847656 2.484375 -6.15625 2.796875 -6.375 C 3.117188 -6.59375 3.523438 -6.703125 4.015625 -6.703125 C 4.347656 -6.703125 4.648438 -6.640625 4.921875 -6.515625 C 5.191406 -6.398438 5.421875 -6.234375 5.609375 -6.015625 C 5.804688 -5.796875 5.957031 -5.523438 6.0625 -5.203125 C 6.164062 -4.890625 6.21875 -4.53125 6.21875 -4.125 L 6.21875 -2.453125 C 6.21875 -2.054688 6.164062 -1.695312 6.0625 -1.375 C 5.957031 -1.050781 5.804688 -0.78125 5.609375 -0.5625 C 5.421875 -0.34375 5.191406 -0.171875 4.921875 -0.046875 C 4.648438 0.0664062 4.347656 0.125 4.015625 0.125 C 3.523438 0.125 3.117188 0.015625 2.796875 -0.203125 C 2.484375 -0.421875 2.273438 -0.734375 2.171875 -1.140625 L 2.078125 -1.140625 C 2.078125 -1.003906 2.085938 -0.867188 2.109375 -0.734375 C 2.117188 -0.609375 2.125 -0.484375 2.125 -0.359375 C 2.125 -0.234375 2.125 -0.113281 2.125 0 L 2.125 1.96875 L 1.046875 1.96875 L 1.046875 -6.578125 Z M 2.125 -2.453125 C 2.125 -1.953125 2.257812 -1.550781 2.53125 -1.25 C 2.800781 -0.957031 3.160156 -0.8125 3.609375 -0.8125 C 4.085938 -0.8125 4.460938 -0.957031 4.734375 -1.25 C 5.003906 -1.550781 5.140625 -1.953125 5.140625 -2.453125 L 5.140625 -4.125 C 5.140625 -4.644531 5.003906 -5.046875 4.734375 -5.328125 C 4.460938 -5.617188 4.085938 -5.765625 3.609375 -5.765625 C 3.160156 -5.765625 2.800781 -5.617188 2.53125 -5.328125 C 2.257812 -5.035156 2.125 -4.632812 2.125 -4.125 Z M 2.125 -2.453125" transform="translate(98.601629, 370.539352)"/></g></g></g><g fill="#000" fill-opacity="1"><g><g><path d="M 3.734375 -8.734375 L 3.734375 -1.921875 C 3.734375 -1.617188 3.8125 -1.382812 3.96875 -1.21875 C 4.132812 -1.0625 4.351562 -0.984375 4.625 -0.984375 L 6.578125 -0.984375 L 6.578125 0 L 4.625 0 C 4.007812 0 3.523438 -0.164062 3.171875 -0.5 C 2.828125 -0.84375 2.65625 -1.316406 2.65625 -1.921875 L 2.65625 -7.75 L 0.484375 -7.75 L 0.484375 -8.734375 Z M 3.734375 -8.734375" transform="translate(105.786683, 370.539352)"/></g></g></g><g fill="#000" fill-opacity="1"><g><g><path d="M 0.75 -1.921875 C 0.75 -2.222656 0.800781 -2.5 0.90625 -2.75 C 1.019531 -3.007812 1.175781 -3.222656 1.375 -3.390625 C 1.582031 -3.566406 1.828125 -3.703125 2.109375 -3.796875 C 2.398438 -3.898438 2.726562 -3.953125 3.09375 -3.953125 L 5.046875 -3.953125 L 5.046875 -4.484375 C 5.046875 -4.890625 4.910156 -5.207031 4.640625 -5.4375 C 4.378906 -5.664062 4 -5.78125 3.5 -5.78125 C 3.125 -5.78125 2.804688 -5.710938 2.546875 -5.578125 C 2.296875 -5.441406 2.125 -5.253906 2.03125 -5.015625 L 0.953125 -5.015625 C 1.066406 -5.535156 1.351562 -5.945312 1.8125 -6.25 C 2.269531 -6.550781 2.835938 -6.703125 3.515625 -6.703125 C 4.328125 -6.703125 4.960938 -6.507812 5.421875 -6.125 C 5.890625 -5.75 6.125 -5.222656 6.125 -4.546875 L 6.125 0 L 5.140625 0 L 5.140625 -1.25 L 5.046875 -1.25 C 4.941406 -0.832031 4.695312 -0.5 4.3125 -0.25 C 3.9375 0 3.472656 0.125 2.921875 0.125 C 2.253906 0.125 1.722656 -0.0546875 1.328125 -0.421875 C 0.941406 -0.796875 0.75 -1.296875 0.75 -1.921875 Z M 3.15625 -0.765625 C 3.425781 -0.765625 3.675781 -0.800781 3.90625 -0.875 C 4.144531 -0.945312 4.347656 -1.046875 4.515625 -1.171875 C 4.679688 -1.304688 4.8125 -1.460938 4.90625 -1.640625 C 5 -1.816406 5.046875 -2.007812 5.046875 -2.21875 L 5.046875 -3.109375 L 3.109375 -3.109375 C 2.710938 -3.109375 2.398438 -3.003906 2.171875 -2.796875 C 1.941406 -2.585938 1.828125 -2.300781 1.828125 -1.9375 C 1.828125 -1.570312 1.941406 -1.285156 2.171875 -1.078125 C 2.410156 -0.867188 2.738281 -0.765625 3.15625 -0.765625 Z M 3.15625 -0.765625" transform="translate(112.971737, 370.539352)"/></g></g></g><g fill="#000" fill-opacity="1"><g><g><path d="M 1.796875 -6.578125 L 3.296875 -2.796875 C 3.367188 -2.617188 3.425781 -2.445312 3.46875 -2.28125 C 3.519531 -2.125 3.554688 -1.984375 3.578125 -1.859375 C 3.609375 -1.710938 3.628906 -1.578125 3.640625 -1.453125 L 3.71875 -1.453125 C 3.726562 -1.578125 3.75 -1.710938 3.78125 -1.859375 C 3.800781 -1.984375 3.832031 -2.125 3.875 -2.28125 C 3.914062 -2.445312 3.96875 -2.617188 4.03125 -2.796875 L 5.421875 -6.578125 L 6.578125 -6.578125 L 3.390625 1.96875 L 2.234375 1.96875 L 3.140625 -0.484375 L 0.59375 -6.578125 Z M 1.796875 -6.578125" transform="translate(120.156792, 370.539352)"/></g></g></g><g fill="#000" fill-opacity="1"><g><g><path d="M 3.59375 0.125 C 2.769531 0.125 2.125 -0.0976562 1.65625 -0.546875 C 1.1875 -0.992188 0.953125 -1.609375 0.953125 -2.390625 L 0.953125 -4.1875 C 0.953125 -4.96875 1.1875 -5.582031 1.65625 -6.03125 C 2.125 -6.476562 2.769531 -6.703125 3.59375 -6.703125 C 4.414062 -6.703125 5.054688 -6.476562 5.515625 -6.03125 C 5.984375 -5.582031 6.21875 -4.96875 6.21875 -4.1875 L 6.21875 -2.984375 L 2.03125 -2.984375 L 2.03125 -2.453125 C 2.03125 -1.953125 2.164062 -1.554688 2.4375 -1.265625 C 2.71875 -0.984375 3.101562 -0.84375 3.59375 -0.84375 C 3.945312 -0.84375 4.253906 -0.894531 4.515625 -1 C 4.785156 -1.113281 4.984375 -1.28125 5.109375 -1.5 L 6.1875 -1.5 C 6.050781 -0.988281 5.75 -0.585938 5.28125 -0.296875 C 4.8125 -0.015625 4.25 0.125 3.59375 0.125 Z M 5.140625 -3.875 L 5.140625 -4.1875 C 5.140625 -4.6875 5.003906 -5.070312 4.734375 -5.34375 C 4.460938 -5.613281 4.082031 -5.75 3.59375 -5.75 C 3.09375 -5.75 2.707031 -5.613281 2.4375 -5.34375 C 2.164062 -5.070312 2.03125 -4.6875 2.03125 -4.1875 L 2.03125 -3.875 Z M 5.140625 -3.875" transform="translate(127.341846, 370.539352)"/></g></g></g><g fill="#000" fill-opacity="1"><g><g><path d="M 1.34375 -6.578125 L 2.359375 -6.578125 L 2.359375 -5.453125 L 2.453125 -5.453125 C 2.554688 -5.835938 2.769531 -6.140625 3.09375 -6.359375 C 3.425781 -6.585938 3.832031 -6.703125 4.3125 -6.703125 C 5 -6.703125 5.539062 -6.484375 5.9375 -6.046875 C 6.332031 -5.609375 6.53125 -5.015625 6.53125 -4.265625 L 6.53125 -3.890625 L 5.453125 -3.890625 L 5.453125 -4.125 C 5.453125 -4.644531 5.320312 -5.046875 5.0625 -5.328125 C 4.8125 -5.609375 4.445312 -5.75 3.96875 -5.75 C 3.488281 -5.75 3.109375 -5.601562 2.828125 -5.3125 C 2.554688 -5.03125 2.421875 -4.632812 2.421875 -4.125 L 2.421875 0 L 1.34375 0 Z M 1.34375 -6.578125" transform="translate(134.5269, 370.539352)"/></g></g></g><g fill="#000" fill-opacity="1"><g><g><path d="M 3.40625 0.125 C 2.71875 0.125 2.144531 -0.03125 1.6875 -0.34375 C 1.238281 -0.664062 0.984375 -1.085938 0.921875 -1.609375 L 2.0625 -1.609375 C 2.101562 -1.378906 2.25 -1.191406 2.5 -1.046875 C 2.75 -0.910156 3.050781 -0.84375 3.40625 -0.84375 L 3.75 -0.84375 C 4.175781 -0.84375 4.507812 -0.929688 4.75 -1.109375 C 4.988281 -1.285156 5.109375 -1.523438 5.109375 -1.828125 C 5.109375 -2.347656 4.742188 -2.664062 4.015625 -2.78125 L 3.015625 -2.921875 C 2.367188 -3.015625 1.882812 -3.21875 1.5625 -3.53125 C 1.25 -3.84375 1.09375 -4.273438 1.09375 -4.828125 C 1.09375 -5.421875 1.300781 -5.878906 1.71875 -6.203125 C 2.132812 -6.535156 2.71875 -6.703125 3.46875 -6.703125 L 3.8125 -6.703125 C 4.125 -6.703125 4.414062 -6.660156 4.6875 -6.578125 C 4.957031 -6.503906 5.195312 -6.390625 5.40625 -6.234375 C 5.613281 -6.085938 5.78125 -5.910156 5.90625 -5.703125 C 6.039062 -5.503906 6.128906 -5.28125 6.171875 -5.03125 L 5.03125 -5.03125 C 4.988281 -5.238281 4.851562 -5.410156 4.625 -5.546875 C 4.40625 -5.679688 4.132812 -5.75 3.8125 -5.75 L 3.46875 -5.75 C 3.0625 -5.75 2.742188 -5.664062 2.515625 -5.5 C 2.285156 -5.34375 2.171875 -5.101562 2.171875 -4.78125 C 2.171875 -4.53125 2.25 -4.335938 2.40625 -4.203125 C 2.5625 -4.078125 2.816406 -3.988281 3.171875 -3.9375 L 4.171875 -3.796875 C 4.878906 -3.691406 5.394531 -3.484375 5.71875 -3.171875 C 6.039062 -2.859375 6.203125 -2.414062 6.203125 -1.84375 C 6.203125 -1.226562 5.988281 -0.742188 5.5625 -0.390625 C 5.132812 -0.046875 4.53125 0.125 3.75 0.125 Z M 3.40625 0.125" transform="translate(141.711955, 370.539352)"/></g></g></g><g fill="#000" fill-opacity="1"><g><g><path d="M 0.875 -4.1875 C 0.875 -4.570312 0.925781 -4.921875 1.03125 -5.234375 C 1.132812 -5.546875 1.28125 -5.804688 1.46875 -6.015625 C 1.664062 -6.234375 1.90625 -6.398438 2.1875 -6.515625 C 2.46875 -6.640625 2.78125 -6.703125 3.125 -6.703125 C 3.601562 -6.703125 4.007812 -6.585938 4.34375 -6.359375 C 4.675781 -6.128906 4.90625 -5.804688 5.03125 -5.390625 L 5.109375 -5.390625 L 5.109375 -6.578125 L 6.125 -6.578125 L 6.125 -0.484375 C 6.125 0.296875 5.894531 0.898438 5.4375 1.328125 C 4.988281 1.753906 4.351562 1.96875 3.53125 1.96875 L 1.921875 1.96875 L 1.921875 1 L 3.53125 1 C 4.007812 1 4.378906 0.867188 4.640625 0.609375 C 4.910156 0.359375 5.046875 -0.00390625 5.046875 -0.484375 L 5.046875 -0.71875 L 5.09375 -1.921875 L 5.03125 -1.921875 C 4.90625 -1.492188 4.675781 -1.164062 4.34375 -0.9375 C 4.007812 -0.707031 3.601562 -0.59375 3.125 -0.59375 C 2.78125 -0.59375 2.46875 -0.648438 2.1875 -0.765625 C 1.914062 -0.890625 1.679688 -1.0625 1.484375 -1.28125 C 1.296875 -1.5 1.144531 -1.757812 1.03125 -2.0625 C 0.925781 -2.375 0.875 -2.722656 0.875 -3.109375 Z M 1.96875 -3.109375 C 1.96875 -2.617188 2.101562 -2.234375 2.375 -1.953125 C 2.65625 -1.671875 3.035156 -1.53125 3.515625 -1.53125 C 3.992188 -1.53125 4.367188 -1.671875 4.640625 -1.953125 C 4.910156 -2.234375 5.046875 -2.617188 5.046875 -3.109375 L 5.046875 -4.1875 C 5.046875 -4.6875 4.910156 -5.070312 4.640625 -5.34375 C 4.367188 -5.625 3.992188 -5.765625 3.515625 -5.765625 C 3.035156 -5.765625 2.65625 -5.625 2.375 -5.34375 C 2.101562 -5.070312 1.96875 -4.6875 1.96875 -4.1875 Z M 1.96875 -3.109375" transform="translate(156.082064, 370.539352)"/></g></g></g><g fill="#000" fill-opacity="1"><g><g><path d="M 1.140625 0 L 1.140625 -0.984375 L 3.53125 -0.984375 L 3.53125 -5.59375 L 1.4375 -5.59375 L 1.4375 -6.578125 L 4.609375 -6.578125 L 4.609375 -0.984375 L 6.578125 -0.984375 L 6.578125 0 Z M 3.765625 -9.15625 L 4.015625 -9.15625 C 4.242188 -9.15625 4.425781 -9.085938 4.5625 -8.953125 C 4.707031 -8.816406 4.78125 -8.640625 4.78125 -8.421875 C 4.78125 -8.210938 4.707031 -8.039062 4.5625 -7.90625 C 4.425781 -7.78125 4.242188 -7.71875 4.015625 -7.71875 L 3.765625 -7.71875 C 3.535156 -7.71875 3.347656 -7.78125 3.203125 -7.90625 C 3.066406 -8.03125 3 -8.203125 3 -8.421875 C 3 -8.640625 3.066406 -8.816406 3.203125 -8.953125 C 3.347656 -9.085938 3.535156 -9.15625 3.765625 -9.15625 Z M 3.765625 -9.15625" transform="translate(163.267118, 370.539352)"/></g></g></g><g fill="#000" fill-opacity="1"><g><g><path d="M 0.59375 -6.578125 L 1.734375 -6.578125 L 3.34375 -1.921875 C 3.40625 -1.742188 3.453125 -1.582031 3.484375 -1.4375 C 3.515625 -1.300781 3.539062 -1.1875 3.5625 -1.09375 C 3.570312 -0.96875 3.578125 -0.863281 3.578125 -0.78125 L 3.6875 -0.78125 C 3.675781 -0.863281 3.679688 -0.96875 3.703125 -1.09375 C 3.710938 -1.1875 3.726562 -1.300781 3.75 -1.4375 C 3.78125 -1.582031 3.828125 -1.742188 3.890625 -1.921875 L 5.40625 -6.578125 L 6.578125 -6.578125 L 4.21875 0 L 3 0 Z M 0.59375 -6.578125" transform="translate(170.452172, 370.539352)"/></g></g></g><g fill="#000" fill-opacity="1"><g><g><path d="M 3.59375 0.125 C 2.769531 0.125 2.125 -0.0976562 1.65625 -0.546875 C 1.1875 -0.992188 0.953125 -1.609375 0.953125 -2.390625 L 0.953125 -4.1875 C 0.953125 -4.96875 1.1875 -5.582031 1.65625 -6.03125 C 2.125 -6.476562 2.769531 -6.703125 3.59375 -6.703125 C 4.414062 -6.703125 5.054688 -6.476562 5.515625 -6.03125 C 5.984375 -5.582031 6.21875 -4.96875 6.21875 -4.1875 L 6.21875 -2.984375 L 2.03125 -2.984375 L 2.03125 -2.453125 C 2.03125 -1.953125 2.164062 -1.554688 2.4375 -1.265625 C 2.71875 -0.984375 3.101562 -0.84375 3.59375 -0.84375 C 3.945312 -0.84375 4.253906 -0.894531 4.515625 -1 C 4.785156 -1.113281 4.984375 -1.28125 5.109375 -1.5 L 6.1875 -1.5 C 6.050781 -0.988281 5.75 -0.585938 5.28125 -0.296875 C 4.8125 -0.015625 4.25 0.125 3.59375 0.125 Z M 5.140625 -3.875 L 5.140625 -4.1875 C 5.140625 -4.6875 5.003906 -5.070312 4.734375 -5.34375 C 4.460938 -5.613281 4.082031 -5.75 3.59375 -5.75 C 3.09375 -5.75 2.707031 -5.613281 2.4375 -5.34375 C 2.164062 -5.070312 2.03125 -4.6875 2.03125 -4.1875 L 2.03125 -3.875 Z M 5.140625 -3.875" transform="translate(177.637227, 370.539352)"/></g></g></g><g fill="#000" fill-opacity="1"><g><g><path d="M 1.796875 -6.578125 L 3.296875 -2.796875 C 3.367188 -2.617188 3.425781 -2.445312 3.46875 -2.28125 C 3.519531 -2.125 3.554688 -1.984375 3.578125 -1.859375 C 3.609375 -1.710938 3.628906 -1.578125 3.640625 -1.453125 L 3.71875 -1.453125 C 3.726562 -1.578125 3.75 -1.710938 3.78125 -1.859375 C 3.800781 -1.984375 3.832031 -2.125 3.875 -2.28125 C 3.914062 -2.445312 3.96875 -2.617188 4.03125 -2.796875 L 5.421875 -6.578125 L 6.578125 -6.578125 L 3.390625 1.96875 L 2.234375 1.96875 L 3.140625 -0.484375 L 0.59375 -6.578125 Z M 1.796875 -6.578125" transform="translate(192.007335, 370.539352)"/></g></g></g><g fill="#000" fill-opacity="1"><g><g><path d="M 2.03125 -2.453125 C 2.03125 -1.953125 2.164062 -1.554688 2.4375 -1.265625 C 2.71875 -0.984375 3.101562 -0.84375 3.59375 -0.84375 C 4.070312 -0.84375 4.445312 -0.984375 4.71875 -1.265625 C 5 -1.554688 5.140625 -1.953125 5.140625 -2.453125 L 5.140625 -4.125 C 5.140625 -4.632812 5 -5.03125 4.71875 -5.3125 C 4.445312 -5.601562 4.070312 -5.75 3.59375 -5.75 C 3.113281 -5.75 2.734375 -5.601562 2.453125 -5.3125 C 2.171875 -5.03125 2.03125 -4.632812 2.03125 -4.125 Z M 0.953125 -4.125 C 0.953125 -4.53125 1.015625 -4.890625 1.140625 -5.203125 C 1.265625 -5.515625 1.441406 -5.78125 1.671875 -6 C 1.898438 -6.226562 2.175781 -6.398438 2.5 -6.515625 C 2.820312 -6.640625 3.1875 -6.703125 3.59375 -6.703125 C 4.40625 -6.703125 5.046875 -6.472656 5.515625 -6.015625 C 5.984375 -5.566406 6.21875 -4.941406 6.21875 -4.140625 L 6.21875 -2.453125 C 6.21875 -2.054688 6.15625 -1.695312 6.03125 -1.375 C 5.914062 -1.050781 5.742188 -0.78125 5.515625 -0.5625 C 5.296875 -0.34375 5.019531 -0.171875 4.6875 -0.046875 C 4.363281 0.0664062 4 0.125 3.59375 0.125 C 3.1875 0.125 2.820312 0.0664062 2.5 -0.046875 C 2.175781 -0.171875 1.898438 -0.34375 1.671875 -0.5625 C 1.441406 -0.789062 1.265625 -1.0625 1.140625 -1.375 C 1.015625 -1.695312 0.953125 -2.054688 0.953125 -2.453125 Z M 0.953125 -4.125" transform="translate(199.19239, 370.539352)"/></g></g></g><g fill="#000" fill-opacity="1"><g><g><path d="M 1.078125 -6.578125 L 2.15625 -6.578125 L 2.15625 -2.328125 C 2.15625 -1.328125 2.628906 -0.828125 3.578125 -0.828125 C 4.546875 -0.828125 5.03125 -1.328125 5.03125 -2.328125 L 5.03125 -6.578125 L 6.109375 -6.578125 L 6.109375 -2.328125 C 6.109375 -1.546875 5.890625 -0.941406 5.453125 -0.515625 C 5.015625 -0.0859375 4.390625 0.125 3.578125 0.125 C 2.773438 0.125 2.15625 -0.0859375 1.71875 -0.515625 C 1.289062 -0.941406 1.078125 -1.546875 1.078125 -2.328125 Z M 1.078125 -6.578125" transform="translate(206.377444, 370.539352)"/></g></g></g><g fill="#000" fill-opacity="1"><g><g><path d="M 6.140625 -6.34375 C 6.140625 -5.695312 5.960938 -5.070312 5.609375 -4.46875 C 5.253906 -3.863281 4.6875 -3.226562 3.90625 -2.5625 L 2.46875 -1.296875 C 2.425781 -1.265625 2.378906 -1.234375 2.328125 -1.203125 C 2.285156 -1.171875 2.238281 -1.140625 2.1875 -1.109375 C 2.125 -1.066406 2.066406 -1.03125 2.015625 -1 L 2.015625 -0.953125 C 2.140625 -0.960938 2.257812 -0.96875 2.375 -0.96875 C 2.488281 -0.976562 2.601562 -0.984375 2.71875 -0.984375 C 2.832031 -0.984375 2.941406 -0.984375 3.046875 -0.984375 L 6.21875 -0.984375 L 6.21875 0 L 0.84375 0 L 0.84375 -1.203125 L 3.109375 -3.140625 C 3.453125 -3.441406 3.742188 -3.722656 3.984375 -3.984375 C 4.234375 -4.242188 4.429688 -4.5 4.578125 -4.75 C 4.734375 -5.007812 4.847656 -5.265625 4.921875 -5.515625 C 4.992188 -5.773438 5.03125 -6.046875 5.03125 -6.328125 C 5.03125 -6.773438 4.894531 -7.128906 4.625 -7.390625 C 4.351562 -7.648438 3.992188 -7.78125 3.546875 -7.78125 C 3.035156 -7.78125 2.628906 -7.644531 2.328125 -7.375 C 2.035156 -7.113281 1.890625 -6.769531 1.890625 -6.34375 L 0.78125 -6.34375 C 0.789062 -6.695312 0.863281 -7.019531 1 -7.3125 C 1.132812 -7.613281 1.320312 -7.867188 1.5625 -8.078125 C 1.8125 -8.285156 2.101562 -8.445312 2.4375 -8.5625 C 2.769531 -8.675781 3.140625 -8.734375 3.546875 -8.734375 C 3.941406 -8.734375 4.296875 -8.675781 4.609375 -8.5625 C 4.929688 -8.457031 5.203125 -8.300781 5.421875 -8.09375 C 5.648438 -7.882812 5.828125 -7.628906 5.953125 -7.328125 C 6.078125 -7.035156 6.140625 -6.707031 6.140625 -6.34375 Z M 6.140625 -6.34375" transform="translate(87.812313, 387.005065)"/></g></g></g><g fill="#000" fill-opacity="1"><g><g><path d="M 0.890625 0 L 0.890625 -8.625 L 2.234375 -8.625 L 3.296875 -5.703125 C 3.328125 -5.609375 3.359375 -5.503906 3.390625 -5.390625 C 3.429688 -5.273438 3.460938 -5.171875 3.484375 -5.078125 C 3.515625 -4.953125 3.546875 -4.835938 3.578125 -4.734375 L 3.65625 -4.734375 C 3.6875 -4.835938 3.71875 -4.953125 3.75 -5.078125 C 3.78125 -5.171875 3.8125 -5.273438 3.84375 -5.390625 C 3.882812 -5.503906 3.921875 -5.609375 3.953125 -5.703125 L 4.9375 -8.625 L 6.28125 -8.625 L 6.28125 0 L 5.296875 0 L 5.296875 -6.046875 C 5.296875 -6.171875 5.296875 -6.3125 5.296875 -6.46875 C 5.296875 -6.632812 5.304688 -6.789062 5.328125 -6.9375 C 5.335938 -7.113281 5.34375 -7.289062 5.34375 -7.46875 L 5.28125 -7.46875 C 5.226562 -7.300781 5.179688 -7.140625 5.140625 -6.984375 C 5.097656 -6.835938 5.050781 -6.679688 5 -6.515625 C 4.945312 -6.347656 4.894531 -6.191406 4.84375 -6.046875 L 4.109375 -3.828125 L 3.09375 -3.828125 L 2.359375 -6.046875 C 2.304688 -6.191406 2.253906 -6.347656 2.203125 -6.515625 C 2.148438 -6.691406 2.101562 -6.847656 2.0625 -6.984375 C 2.007812 -7.148438 1.960938 -7.316406 1.921875 -7.484375 L 1.859375 -7.484375 C 1.859375 -7.304688 1.863281 -7.128906 1.875 -6.953125 C 1.875 -6.804688 1.875 -6.648438 1.875 -6.484375 C 1.882812 -6.328125 1.890625 -6.179688 1.890625 -6.046875 L 1.890625 0 Z M 0.890625 0" transform="translate(94.997367, 387.005065)"/></g></g></g><g fill="#000" fill-opacity="1"><g><g><path d="M 0.75 -1.921875 C 0.75 -2.222656 0.800781 -2.5 0.90625 -2.75 C 1.019531 -3.007812 1.175781 -3.222656 1.375 -3.390625 C 1.582031 -3.566406 1.828125 -3.703125 2.109375 -3.796875 C 2.398438 -3.898438 2.726562 -3.953125 3.09375 -3.953125 L 5.046875 -3.953125 L 5.046875 -4.484375 C 5.046875 -4.890625 4.910156 -5.207031 4.640625 -5.4375 C 4.378906 -5.664062 4 -5.78125 3.5 -5.78125 C 3.125 -5.78125 2.804688 -5.710938 2.546875 -5.578125 C 2.296875 -5.441406 2.125 -5.253906 2.03125 -5.015625 L 0.953125 -5.015625 C 1.066406 -5.535156 1.351562 -5.945312 1.8125 -6.25 C 2.269531 -6.550781 2.835938 -6.703125 3.515625 -6.703125 C 4.328125 -6.703125 4.960938 -6.507812 5.421875 -6.125 C 5.890625 -5.75 6.125 -5.222656 6.125 -4.546875 L 6.125 0 L 5.140625 0 L 5.140625 -1.25 L 5.046875 -1.25 C 4.941406 -0.832031 4.695312 -0.5 4.3125 -0.25 C 3.9375 0 3.472656 0.125 2.921875 0.125 C 2.253906 0.125 1.722656 -0.0546875 1.328125 -0.421875 C 0.941406 -0.796875 0.75 -1.296875 0.75 -1.921875 Z M 3.15625 -0.765625 C 3.425781 -0.765625 3.675781 -0.800781 3.90625 -0.875 C 4.144531 -0.945312 4.347656 -1.046875 4.515625 -1.171875 C 4.679688 -1.304688 4.8125 -1.460938 4.90625 -1.640625 C 5 -1.816406 5.046875 -2.007812 5.046875 -2.21875 L 5.046875 -3.109375 L 3.109375 -3.109375 C 2.710938 -3.109375 2.398438 -3.003906 2.171875 -2.796875 C 1.941406 -2.585938 1.828125 -2.300781 1.828125 -1.9375 C 1.828125 -1.570312 1.941406 -1.285156 2.171875 -1.078125 C 2.410156 -0.867188 2.738281 -0.765625 3.15625 -0.765625 Z M 3.15625 -0.765625" transform="translate(109.367476, 387.005065)"/></g></g></g><g fill="#000" fill-opacity="1"><g><g><path d="M 3.40625 0.125 C 2.71875 0.125 2.144531 -0.03125 1.6875 -0.34375 C 1.238281 -0.664062 0.984375 -1.085938 0.921875 -1.609375 L 2.0625 -1.609375 C 2.101562 -1.378906 2.25 -1.191406 2.5 -1.046875 C 2.75 -0.910156 3.050781 -0.84375 3.40625 -0.84375 L 3.75 -0.84375 C 4.175781 -0.84375 4.507812 -0.929688 4.75 -1.109375 C 4.988281 -1.285156 5.109375 -1.523438 5.109375 -1.828125 C 5.109375 -2.347656 4.742188 -2.664062 4.015625 -2.78125 L 3.015625 -2.921875 C 2.367188 -3.015625 1.882812 -3.21875 1.5625 -3.53125 C 1.25 -3.84375 1.09375 -4.273438 1.09375 -4.828125 C 1.09375 -5.421875 1.300781 -5.878906 1.71875 -6.203125 C 2.132812 -6.535156 2.71875 -6.703125 3.46875 -6.703125 L 3.8125 -6.703125 C 4.125 -6.703125 4.414062 -6.660156 4.6875 -6.578125 C 4.957031 -6.503906 5.195312 -6.390625 5.40625 -6.234375 C 5.613281 -6.085938 5.78125 -5.910156 5.90625 -5.703125 C 6.039062 -5.503906 6.128906 -5.28125 6.171875 -5.03125 L 5.03125 -5.03125 C 4.988281 -5.238281 4.851562 -5.410156 4.625 -5.546875 C 4.40625 -5.679688 4.132812 -5.75 3.8125 -5.75 L 3.46875 -5.75 C 3.0625 -5.75 2.742188 -5.664062 2.515625 -5.5 C 2.285156 -5.34375 2.171875 -5.101562 2.171875 -4.78125 C 2.171875 -4.53125 2.25 -4.335938 2.40625 -4.203125 C 2.5625 -4.078125 2.816406 -3.988281 3.171875 -3.9375 L 4.171875 -3.796875 C 4.878906 -3.691406 5.394531 -3.484375 5.71875 -3.171875 C 6.039062 -2.859375 6.203125 -2.414062 6.203125 -1.84375 C 6.203125 -1.226562 5.988281 -0.742188 5.5625 -0.390625 C 5.132812 -0.046875 4.53125 0.125 3.75 0.125 Z M 3.40625 0.125" transform="translate(116.55253, 387.005065)"/></g></g></g><g fill="#000" fill-opacity="1"><g><g><path d="M 0.75 -1.921875 C 0.75 -2.222656 0.800781 -2.5 0.90625 -2.75 C 1.019531 -3.007812 1.175781 -3.222656 1.375 -3.390625 C 1.582031 -3.566406 1.828125 -3.703125 2.109375 -3.796875 C 2.398438 -3.898438 2.726562 -3.953125 3.09375 -3.953125 L 5.046875 -3.953125 L 5.046875 -4.484375 C 5.046875 -4.890625 4.910156 -5.207031 4.640625 -5.4375 C 4.378906 -5.664062 4 -5.78125 3.5 -5.78125 C 3.125 -5.78125 2.804688 -5.710938 2.546875 -5.578125 C 2.296875 -5.441406 2.125 -5.253906 2.03125 -5.015625 L 0.953125 -5.015625 C 1.066406 -5.535156 1.351562 -5.945312 1.8125 -6.25 C 2.269531 -6.550781 2.835938 -6.703125 3.515625 -6.703125 C 4.328125 -6.703125 4.960938 -6.507812 5.421875 -6.125 C 5.890625 -5.75 6.125 -5.222656 6.125 -4.546875 L 6.125 0 L 5.140625 0 L 5.140625 -1.25 L 5.046875 -1.25 C 4.941406 -0.832031 4.695312 -0.5 4.3125 -0.25 C 3.9375 0 3.472656 0.125 2.921875 0.125 C 2.253906 0.125 1.722656 -0.0546875 1.328125 -0.421875 C 0.941406 -0.796875 0.75 -1.296875 0.75 -1.921875 Z M 3.15625 -0.765625 C 3.425781 -0.765625 3.675781 -0.800781 3.90625 -0.875 C 4.144531 -0.945312 4.347656 -1.046875 4.515625 -1.171875 C 4.679688 -1.304688 4.8125 -1.460938 4.90625 -1.640625 C 5 -1.816406 5.046875 -2.007812 5.046875 -2.21875 L 5.046875 -3.109375 L 3.109375 -3.109375 C 2.710938 -3.109375 2.398438 -3.003906 2.171875 -2.796875 C 1.941406 -2.585938 1.828125 -2.300781 1.828125 -1.9375 C 1.828125 -1.570312 1.941406 -1.285156 2.171875 -1.078125 C 2.410156 -0.867188 2.738281 -0.765625 3.15625 -0.765625 Z M 3.15625 -0.765625" transform="translate(130.922639, 387.005065)"/></g></g></g><g fill="#000" fill-opacity="1"><g><g><path d="M 5.8125 -9.28125 L 6.765625 -9.28125 L 5.8125 -5.546875 L 4.25 -5.546875 Z M 2.515625 -9.28125 L 3.46875 -9.28125 L 2.515625 -5.546875 L 0.953125 -5.546875 Z M 2.515625 -9.28125" transform="translate(145.292748, 387.005065)"/></g></g></g><g fill="#000" fill-opacity="1"><g><g><path d="M 0.875 -4.1875 C 0.875 -4.570312 0.925781 -4.921875 1.03125 -5.234375 C 1.132812 -5.546875 1.28125 -5.804688 1.46875 -6.015625 C 1.664062 -6.234375 1.90625 -6.398438 2.1875 -6.515625 C 2.46875 -6.640625 2.78125 -6.703125 3.125 -6.703125 C 3.601562 -6.703125 4.007812 -6.585938 4.34375 -6.359375 C 4.675781 -6.128906 4.90625 -5.804688 5.03125 -5.390625 L 5.109375 -5.390625 L 5.109375 -6.578125 L 6.125 -6.578125 L 6.125 -0.484375 C 6.125 0.296875 5.894531 0.898438 5.4375 1.328125 C 4.988281 1.753906 4.351562 1.96875 3.53125 1.96875 L 1.921875 1.96875 L 1.921875 1 L 3.53125 1 C 4.007812 1 4.378906 0.867188 4.640625 0.609375 C 4.910156 0.359375 5.046875 -0.00390625 5.046875 -0.484375 L 5.046875 -0.71875 L 5.09375 -1.921875 L 5.03125 -1.921875 C 4.90625 -1.492188 4.675781 -1.164062 4.34375 -0.9375 C 4.007812 -0.707031 3.601562 -0.59375 3.125 -0.59375 C 2.78125 -0.59375 2.46875 -0.648438 2.1875 -0.765625 C 1.914062 -0.890625 1.679688 -1.0625 1.484375 -1.28125 C 1.296875 -1.5 1.144531 -1.757812 1.03125 -2.0625 C 0.925781 -2.375 0.875 -2.722656 0.875 -3.109375 Z M 1.96875 -3.109375 C 1.96875 -2.617188 2.101562 -2.234375 2.375 -1.953125 C 2.65625 -1.671875 3.035156 -1.53125 3.515625 -1.53125 C 3.992188 -1.53125 4.367188 -1.671875 4.640625 -1.953125 C 4.910156 -2.234375 5.046875 -2.617188 5.046875 -3.109375 L 5.046875 -4.1875 C 5.046875 -4.6875 4.910156 -5.070312 4.640625 -5.34375 C 4.367188 -5.625 3.992188 -5.765625 3.515625 -5.765625 C 3.035156 -5.765625 2.65625 -5.625 2.375 -5.34375 C 2.101562 -5.070312 1.96875 -4.6875 1.96875 -4.1875 Z M 1.96875 -3.109375" transform="translate(152.477802, 387.005065)"/></g></g></g><g fill="#000" fill-opacity="1"><g><g><path d="M 1.140625 0 L 1.140625 -0.984375 L 3.53125 -0.984375 L 3.53125 -5.59375 L 1.4375 -5.59375 L 1.4375 -6.578125 L 4.609375 -6.578125 L 4.609375 -0.984375 L 6.578125 -0.984375 L 6.578125 0 Z M 3.765625 -9.15625 L 4.015625 -9.15625 C 4.242188 -9.15625 4.425781 -9.085938 4.5625 -8.953125 C 4.707031 -8.816406 4.78125 -8.640625 4.78125 -8.421875 C 4.78125 -8.210938 4.707031 -8.039062 4.5625 -7.90625 C 4.425781 -7.78125 4.242188 -7.71875 4.015625 -7.71875 L 3.765625 -7.71875 C 3.535156 -7.71875 3.347656 -7.78125 3.203125 -7.90625 C 3.066406 -8.03125 3 -8.203125 3 -8.421875 C 3 -8.640625 3.066406 -8.816406 3.203125 -8.953125 C 3.347656 -9.085938 3.535156 -9.15625 3.765625 -9.15625 Z M 3.765625 -9.15625" transform="translate(159.662856, 387.005065)"/></g></g></g><g fill="#000" fill-opacity="1"><g><g><path d="M 0.71875 -4.9375 L 0.71875 -5.921875 L 2.640625 -5.921875 L 2.640625 -7.0625 C 2.640625 -7.59375 2.800781 -8.003906 3.125 -8.296875 C 3.445312 -8.585938 3.894531 -8.734375 4.46875 -8.734375 L 6.40625 -8.734375 L 6.40625 -7.75 L 4.46875 -7.75 C 3.957031 -7.75 3.703125 -7.519531 3.703125 -7.0625 L 3.703125 -5.921875 L 6.40625 -5.921875 L 6.40625 -4.9375 L 3.703125 -4.9375 L 3.703125 0 L 2.640625 0 L 2.640625 -4.9375 Z M 0.71875 -4.9375" transform="translate(166.847911, 387.005065)"/></g></g></g><g fill="#000" fill-opacity="1"><g><g><path d="M 0.71875 -6.578125 L 2.640625 -6.578125 L 2.640625 -8.625 L 3.703125 -8.625 L 3.703125 -6.578125 L 6.28125 -6.578125 L 6.28125 -5.59375 L 3.703125 -5.59375 L 3.703125 -1.703125 C 3.703125 -1.472656 3.769531 -1.296875 3.90625 -1.171875 C 4.050781 -1.046875 4.242188 -0.984375 4.484375 -0.984375 L 6.15625 -0.984375 L 6.15625 0 L 4.484375 0 C 3.921875 0 3.472656 -0.15625 3.140625 -0.46875 C 2.804688 -0.78125 2.640625 -1.191406 2.640625 -1.703125 L 2.640625 -5.59375 L 0.71875 -5.59375 Z M 0.71875 -6.578125" transform="translate(174.032965, 387.005065)"/></g></g></g><g fill="#000" fill-opacity="1"><g><g><path d="M 3.703125 -5.5625 L 4.671875 -9.28125 L 6.21875 -9.28125 L 4.671875 -5.5625 Z M 1.375 -9.28125 L 2.9375 -9.28125 L 1.375 -5.5625 L 0.421875 -5.5625 Z M 1.375 -9.28125" transform="translate(181.218019, 387.005065)"/></g></g></g><g fill="#000" fill-opacity="1"><g><g><path d="M 2.5625 -0.953125 C 2.5625 -1.253906 2.65625 -1.5 2.84375 -1.6875 C 3.03125 -1.875 3.28125 -1.96875 3.59375 -1.96875 C 3.90625 -1.96875 4.15625 -1.875 4.34375 -1.6875 C 4.53125 -1.5 4.625 -1.253906 4.625 -0.953125 C 4.625 -0.628906 4.53125 -0.367188 4.34375 -0.171875 C 4.15625 0.0234375 3.90625 0.125 3.59375 0.125 C 3.28125 0.125 3.03125 0.0234375 2.84375 -0.171875 C 2.65625 -0.367188 2.5625 -0.628906 2.5625 -0.953125 Z M 2.5625 -0.953125" transform="translate(188.403074, 387.005065)"/></g></g></g></svg>