<svg xmlns="http://www.w3.org/2000/svg" xmlns:xlink="http://www.w3.org/1999/xlink" width="378" height="605" preserveAspectRatio="xMidYMid meet" version="1.0" viewBox="0 0 282.96 461.04" zoomAndPan="magnify"><defs><clipPath id="20cee44c27"><path d="M 0.273438 0 L 282.644531 0 L 282.644531 452.808594 L 0.273438 452.808594 Z M 0.273438 0" clip-rule="nonzero"/></clipPath><clipPath id="e2c8e61f36"><path d="M 14.417969 14.144531 L 269.003906 14.144531 L 269.003906 438.457031 L 14.417969 438.457031 Z M 14.417969 14.144531" clip-rule="nonzero"/></clipPath><clipPath id="daf2282ad4"><path d="M 0.417969 0.144531 L 255.003906 0.144531 L 255.003906 424.457031 L 0.417969 424.457031 Z M 0.417969 0.144531" clip-rule="nonzero"/></clipPath><clipPath id="acc940049e"><rect width="256" height="425" x="0" y="0"/></clipPath><clipPath id="2fb8455872"><path d="M 14.417969 14.144531 L 268.886719 14.144531 L 268.886719 438.453125 L 14.417969 438.453125 Z M 14.417969 14.144531" clip-rule="nonzero"/></clipPath><clipPath id="608d52cbe2"><path d="M 28.5625 28.289062 L 254.589844 28.289062 L 254.589844 424.214844 L 28.5625 424.214844 Z M 28.5625 28.289062" clip-rule="nonzero"/></clipPath><clipPath id="c35403dddc"><path d="M 31.117188 30.824219 L 252.304688 30.824219 L 252.304688 421.511719 L 31.117188 421.511719 Z M 31.117188 30.824219" clip-rule="nonzero"/></clipPath><clipPath id="89b72da0dc"><path d="M 33.675781 33.398438 L 249.222656 33.398438 L 249.222656 418.800781 L 33.675781 418.800781 Z M 33.675781 33.398438" clip-rule="nonzero"/></clipPath><clipPath id="afe65c0280"><path d="M 42.707031 42.429688 L 240.714844 42.429688 L 240.714844 409.917969 L 42.707031 409.917969 Z M 42.707031 42.429688" clip-rule="nonzero"/></clipPath><clipPath id="862f38483e"><path d="M 41.289062 125.878906 L 242.128906 125.878906 L 242.128906 326.722656 L 41.289062 326.722656 Z M 41.289062 125.878906" clip-rule="nonzero"/></clipPath><clipPath id="64a89c108d"><path d="M 242.128906 226.300781 C 242.128906 170.839844 197.171875 125.878906 141.710938 125.878906 C 86.25 125.878906 41.289062 170.839844 41.289062 226.300781 C 41.289062 281.761719 86.25 326.722656 141.710938 326.722656 C 197.171875 326.722656 242.128906 281.761719 242.128906 226.300781 Z M 242.128906 226.300781" clip-rule="nonzero"/></clipPath><clipPath id="0cf7ef19a1"><path d="M 0.289062 0.878906 L 201.128906 0.878906 L 201.128906 201.722656 L 0.289062 201.722656 Z M 0.289062 0.878906" clip-rule="nonzero"/></clipPath><clipPath id="03296651bb"><path d="M 201.128906 101.300781 C 201.128906 45.839844 156.171875 0.878906 100.710938 0.878906 C 45.25 0.878906 0.289062 45.839844 0.289062 101.300781 C 0.289062 156.761719 45.25 201.722656 100.710938 201.722656 C 156.171875 201.722656 201.128906 156.761719 201.128906 101.300781 Z M 201.128906 101.300781" clip-rule="nonzero"/></clipPath><clipPath id="1b264a7d0f"><rect width="202" height="202" x="0" y="0"/></clipPath><clipPath id="c6542ec350"><path d="M 41.546875 125.878906 L 242.128906 125.878906 L 242.128906 326.460938 L 41.546875 326.460938 Z M 41.546875 125.878906" clip-rule="nonzero"/></clipPath><clipPath id="cf1b2a3841"><path d="M 242.128906 226.300781 C 242.128906 170.839844 197.171875 125.878906 141.710938 125.878906 C 86.25 125.878906 41.289062 170.839844 41.289062 226.300781 C 41.289062 281.757812 86.25 326.71875 141.710938 326.71875 C 197.171875 326.71875 242.128906 281.757812 242.128906 226.300781 Z M 242.128906 226.300781" clip-rule="nonzero"/></clipPath><clipPath id="b43d3d1596"><path d="M 43.921875 128.511719 L 239.265625 128.511719 L 239.265625 323.855469 L 43.921875 323.855469 Z M 43.921875 128.511719" clip-rule="nonzero"/></clipPath><clipPath id="413480dff0"><path d="M 141.511719 128.511719 C 87.617188 128.511719 43.921875 172.203125 43.921875 226.101562 C 43.921875 280 87.617188 323.691406 141.511719 323.691406 C 195.410156 323.691406 239.101562 280 239.101562 226.101562 C 239.101562 172.203125 195.410156 128.511719 141.511719 128.511719 Z M 141.511719 128.511719" clip-rule="nonzero"/></clipPath><clipPath id="24f809a7e5"><path d="M 16.796875 16.527344 L 62.140625 16.527344 L 62.140625 61.871094 L 16.796875 61.871094 Z M 16.796875 16.527344" clip-rule="nonzero"/></clipPath><clipPath id="d1452f30ab"><path d="M 62.140625 39.199219 C 62.140625 26.679688 51.988281 16.527344 39.46875 16.527344 C 26.945312 16.527344 16.796875 26.679688 16.796875 39.199219 C 16.796875 51.722656 26.945312 61.871094 39.46875 61.871094 C 51.988281 61.871094 62.140625 51.722656 62.140625 39.199219 Z M 62.140625 39.199219" clip-rule="nonzero"/></clipPath><clipPath id="f47f1ca6b3"><path d="M 0.796875 0.527344 L 46.140625 0.527344 L 46.140625 45.871094 L 0.796875 45.871094 Z M 0.796875 0.527344" clip-rule="nonzero"/></clipPath><clipPath id="2dbbe69e12"><path d="M 46.140625 23.199219 C 46.140625 10.679688 35.988281 0.527344 23.46875 0.527344 C 10.945312 0.527344 0.796875 10.679688 0.796875 23.199219 C 0.796875 35.722656 10.945312 45.871094 23.46875 45.871094 C 35.988281 45.871094 46.140625 35.722656 46.140625 23.199219 Z M 46.140625 23.199219" clip-rule="nonzero"/></clipPath><clipPath id="cefdc8f85e"><rect width="47" height="46" x="0" y="0"/></clipPath><clipPath id="126ab4137b"><path d="M 16.800781 16.527344 L 62.140625 16.527344 L 62.140625 61.867188 L 16.800781 61.867188 Z M 16.800781 16.527344" clip-rule="nonzero"/></clipPath><clipPath id="301b1f5f17"><path d="M 62.140625 39.195312 C 62.140625 26.675781 51.992188 16.527344 39.472656 16.527344 C 26.949219 16.527344 16.800781 26.675781 16.800781 39.195312 C 16.800781 51.71875 26.949219 61.867188 39.472656 61.867188 C 51.992188 61.867188 62.140625 51.71875 62.140625 39.195312 Z M 62.140625 39.195312" clip-rule="nonzero"/></clipPath><clipPath id="77e5491d74"><path d="M 19.269531 19.253906 L 59.605469 19.253906 L 59.605469 59.59375 L 19.269531 59.59375 Z M 19.269531 19.253906" clip-rule="nonzero"/></clipPath><clipPath id="d791e1fe21"><path d="M 59.605469 39.292969 C 59.605469 28.226562 50.636719 19.253906 39.566406 19.253906 C 28.5 19.253906 19.53125 28.226562 19.53125 39.292969 C 19.53125 50.359375 28.5 59.332031 39.566406 59.332031 C 50.636719 59.332031 59.605469 50.359375 59.605469 39.292969 Z M 59.605469 39.292969" clip-rule="nonzero"/></clipPath><clipPath id="e3592c092f"><path d="M 220.285156 389.746094 L 266.21875 389.746094 L 266.21875 435.679688 L 220.285156 435.679688 Z M 220.285156 389.746094" clip-rule="nonzero"/></clipPath><clipPath id="07683ba2b7"><path d="M 266.21875 412.714844 C 266.21875 400.027344 255.9375 389.746094 243.253906 389.746094 C 230.566406 389.746094 220.285156 400.027344 220.285156 412.714844 C 220.285156 425.398438 230.566406 435.679688 243.253906 435.679688 C 255.9375 435.679688 266.21875 425.398438 266.21875 412.714844 Z M 266.21875 412.714844" clip-rule="nonzero"/></clipPath><clipPath id="f714e702e1"><path d="M 0.285156 0.746094 L 46.21875 0.746094 L 46.21875 46.679688 L 0.285156 46.679688 Z M 0.285156 0.746094" clip-rule="nonzero"/></clipPath><clipPath id="21721bd695"><path d="M 46.21875 23.714844 C 46.21875 11.027344 35.9375 0.746094 23.253906 0.746094 C 10.566406 0.746094 0.285156 11.027344 0.285156 23.714844 C 0.285156 36.398438 10.566406 46.679688 23.253906 46.679688 C 35.9375 46.679688 46.21875 36.398438 46.21875 23.714844 Z M 46.21875 23.714844" clip-rule="nonzero"/></clipPath><clipPath id="db81e96da3"><rect width="47" height="47" x="0" y="0"/></clipPath><clipPath id="eebb0f6b2b"><path d="M 220.5625 389.746094 L 266.21875 389.746094 L 266.21875 435.402344 L 220.5625 435.402344 Z M 220.5625 389.746094" clip-rule="nonzero"/></clipPath><clipPath id="feb12f2800"><path d="M 266.21875 412.707031 C 266.21875 400.027344 255.9375 389.746094 243.257812 389.746094 C 230.574219 389.746094 220.296875 400.027344 220.296875 412.707031 C 220.296875 425.390625 230.574219 435.671875 243.257812 435.671875 C 255.9375 435.671875 266.21875 425.390625 266.21875 412.707031 Z M 266.21875 412.707031" clip-rule="nonzero"/></clipPath><clipPath id="ad80ba08b2"><path d="M 223.082031 392.476562 L 263.496094 392.476562 L 263.496094 432.890625 L 223.082031 432.890625 Z M 223.082031 392.476562" clip-rule="nonzero"/></clipPath><clipPath id="31c6e41ff0"><path d="M 263.496094 412.710938 C 263.496094 401.535156 254.4375 392.476562 243.261719 392.476562 C 232.082031 392.476562 223.023438 401.535156 223.023438 412.710938 C 223.023438 423.886719 232.082031 432.949219 243.261719 432.949219 C 254.4375 432.949219 263.496094 423.886719 263.496094 412.710938 Z M 263.496094 412.710938" clip-rule="nonzero"/></clipPath></defs><g clip-path="url(#20cee44c27)"><path fill="#fff" fill-opacity="1" fill-rule="nonzero" d="M 0.273438 0 L 283.183594 0 L 283.183594 452.808594 L 0.273438 452.808594 Z M 0.273438 0"/><path fill="#fff" fill-opacity="1" fill-rule="nonzero" d="M 0.273438 0 L 283.183594 0 L 283.183594 452.808594 L 0.273438 452.808594 Z M 0.273438 0"/></g><g clip-path="url(#e2c8e61f36)"><g><g clip-path="url(#acc940049e)" transform="matrix(1, 0, 0, 1, 14, 14)"><g clip-path="url(#daf2282ad4)"><path fill="#c2dcff" fill-opacity="1" fill-rule="nonzero" d="M 0.417969 0.144531 L 255.003906 0.144531 L 255.003906 424.789062 L 0.417969 424.789062 Z M 0.417969 0.144531"/></g></g></g></g><g clip-path="url(#2fb8455872)"><path fill="none" stroke="#000" stroke-linecap="butt" stroke-linejoin="miter" stroke-miterlimit="4" stroke-opacity="1" stroke-width="4" d="M 0.000213988 0.000990199 L 340.154953 0.000990199 L 340.154953 566.923815 L 0.000213988 566.923815 Z M 0.000213988 0.000990199" transform="matrix(0.748442, 0, 0, 0.748442, 14.417809, 14.14379)"/></g><g clip-path="url(#608d52cbe2)"><path fill="none" stroke="#000" stroke-linecap="butt" stroke-linejoin="miter" stroke-miterlimit="4" stroke-opacity="1" stroke-width="4" d="M 0.00122275 0.0019804 L 302.358671 0.0019804 L 302.358671 529.127515 L 0.00122275 529.127515 Z M 0.00122275 0.0019804" transform="matrix(0.748442, 0, 0, 0.748442, 28.561585, 28.28758)"/></g><g clip-path="url(#c35403dddc)"><path fill="none" stroke="#000" stroke-linecap="butt" stroke-linejoin="miter" stroke-miterlimit="4" stroke-opacity="1" stroke-width="4" d="M 0.0013113 -0.00155367 L 295.532093 -0.00155367 L 295.532093 522.297329 L 0.0013113 522.297329 Z M 0.0013113 -0.00155367" transform="matrix(0.748441, 0, 0, 0.748441, 31.116206, 30.825382)"/></g><g clip-path="url(#89b72da0dc)"><path fill="none" stroke="#000" stroke-linecap="butt" stroke-linejoin="miter" stroke-miterlimit="4" stroke-opacity="1" stroke-width="4" d="M 0.00313519 -0.0013337 L 288.169637 -0.0013337 L 288.169637 514.938474 L 0.00313519 514.938474 Z M 0.00313519 -0.0013337" transform="matrix(0.748442, 0, 0, 0.748442, 33.673435, 33.399436)"/></g><g clip-path="url(#afe65c0280)"><path fill="none" stroke="#000" stroke-linecap="butt" stroke-linejoin="miter" stroke-miterlimit="4" stroke-opacity="1" stroke-width="4" d="M 0.00222991 -0.00209242 L 264.562421 -0.00209242 L 264.562421 491.326214 L 0.00222991 491.326214 Z M 0.00222991 -0.00209242" transform="matrix(0.748441, 0, 0, 0.748441, 42.705362, 42.431254)"/></g><g clip-path="url(#862f38483e)"><g clip-path="url(#64a89c108d)"><g><g clip-path="url(#1b264a7d0f)" transform="matrix(1, 0, 0, 1, 41, 125)"><g clip-path="url(#0cf7ef19a1)"><g clip-path="url(#03296651bb)"><path fill="#c2dcff" fill-opacity="1" fill-rule="nonzero" d="M 201.128906 0.878906 L 201.128906 201.722656 L 0.289062 201.722656 L 0.289062 0.878906 Z M 201.128906 0.878906"/></g></g></g></g></g></g><g clip-path="url(#c6542ec350)"><g clip-path="url(#cf1b2a3841)"><path fill="none" stroke="#000" stroke-linecap="butt" stroke-linejoin="miter" stroke-miterlimit="4" stroke-opacity="1" stroke-width="4" d="M 134.173781 0.00225281 C 60.07188 0.00225281 -0.000868023 60.069782 -0.000868023 134.171683 C -0.000868023 208.273584 60.07188 268.346332 134.173781 268.346332 C 208.270463 268.346332 268.343211 208.273584 268.343211 134.171683 C 268.343211 60.069782 208.270463 0.00225281 134.173781 0.00225281 Z M 134.173781 0.00225281" transform="matrix(0, 0.748441, -0.748441, 0, 242.130592, 125.879556)"/></g></g><g fill="#000" fill-opacity="1"><g><g><path d="M 60.359375 28 L 60.359375 42.25 L 25.234375 15.921875 L 22.125 15.921875 L 22.125 31.859375 L 34.375 31.859375 L 34.375 44.421875 L 0 44.421875 L 0 31.859375 L 11.234375 31.859375 L 11.234375 4.1875 L 28.75 4.1875 Z M 60.359375 28" transform="translate(111.153331, 176.001747)"/></g></g></g><g fill="#000" fill-opacity="1"><g><g><path d="M 0 3.359375 L 60.359375 3.359375 L 60.359375 17.9375 L 42.078125 24.0625 C 41.460938 24.28125 40.816406 24.445312 40.140625 24.5625 C 39.472656 24.675781 38.863281 24.785156 38.3125 24.890625 C 37.695312 24.953125 37.082031 25.007812 36.46875 25.0625 L 36.46875 25.734375 C 37.082031 25.785156 37.695312 25.867188 38.3125 25.984375 C 38.863281 26.097656 39.472656 26.207031 40.140625 26.3125 C 40.816406 26.425781 41.460938 26.566406 42.078125 26.734375 L 60.359375 32.1875 L 60.359375 46.9375 L 0 46.9375 L 0 35.96875 L 36.890625 35.96875 C 38.453125 35.96875 40.015625 36.035156 41.578125 36.171875 C 43.140625 36.304688 44.566406 36.460938 45.859375 36.640625 C 47.421875 36.804688 48.898438 37 50.296875 37.21875 L 50.296875 36.21875 C 48.953125 35.9375 47.640625 35.679688 46.359375 35.453125 C 45.242188 35.179688 44.082031 34.929688 42.875 34.703125 C 41.675781 34.484375 40.65625 34.234375 39.8125 33.953125 L 26.40625 30.171875 L 26.40625 20.28125 L 39.8125 16.09375 C 40.65625 15.8125 41.660156 15.554688 42.828125 15.328125 C 44.003906 15.109375 45.148438 14.914062 46.265625 14.75 C 47.554688 14.53125 48.898438 14.304688 50.296875 14.078125 L 50.296875 13 C 48.898438 13.21875 47.421875 13.4375 45.859375 13.65625 C 44.566406 13.832031 43.140625 13.988281 41.578125 14.125 C 40.015625 14.257812 38.453125 14.328125 36.890625 14.328125 L 0 14.328125 Z M 0 3.359375" transform="translate(111.153331, 226.297013)"/></g></g></g><g clip-path="url(#b43d3d1596)"><g clip-path="url(#413480dff0)"><path fill="none" stroke="#000" stroke-linecap="butt" stroke-linejoin="miter" stroke-miterlimit="4" stroke-opacity="1" stroke-width="2" d="M 130.389062 -0.0000182958 C 58.380056 -0.0000182958 -0.00167428 58.376493 -0.00167428 130.390718 C -0.00167428 202.404943 58.380056 260.781454 130.389062 260.781454 C 202.403287 260.781454 260.779798 202.404943 260.779798 130.390718 C 260.779798 58.376493 202.403287 -0.0000182958 130.389062 -0.0000182958 Z M 130.389062 -0.0000182958" transform="matrix(0.748442, 0, 0, 0.748442, 43.923128, 128.511732)"/></g></g><g clip-path="url(#24f809a7e5)"><g clip-path="url(#d1452f30ab)"><g><g clip-path="url(#cefdc8f85e)" transform="matrix(1, 0, 0, 1, 16, 16)"><g clip-path="url(#f47f1ca6b3)"><g clip-path="url(#2dbbe69e12)"><path fill="#c2dcff" fill-opacity="1" fill-rule="nonzero" d="M 46.140625 0.527344 L 46.140625 45.871094 L 0.796875 45.871094 L 0.796875 0.527344 Z M 46.140625 0.527344"/></g></g></g></g></g></g><g clip-path="url(#126ab4137b)"><g clip-path="url(#301b1f5f17)"><path fill="none" stroke="#000" stroke-linecap="butt" stroke-linejoin="miter" stroke-miterlimit="4" stroke-opacity="1" stroke-width="4" d="M 30.286897 -0.0000925514 C 13.559429 -0.0000925514 0.00000192092 13.559334 0.00000192092 30.286802 C 0.00000192092 47.019489 13.559429 60.578916 30.286897 60.578916 C 47.019584 60.578916 60.579011 47.019489 60.579011 30.286802 C 60.579011 13.559334 47.019584 -0.0000925514 30.286897 -0.0000925514 Z M 30.286897 -0.0000925514" transform="matrix(0, 0.748441, -0.748441, 0, 62.140556, 16.527342)"/></g></g><g fill="#000" fill-opacity="1"><g><g><path d="M 10.0625 4.671875 L 10.0625 7.046875 L 4.203125 2.65625 L 3.6875 2.65625 L 3.6875 5.3125 L 5.734375 5.3125 L 5.734375 7.40625 L 0 7.40625 L 0 5.3125 L 1.875 5.3125 L 1.875 0.703125 L 4.796875 0.703125 Z M 10.0625 4.671875" transform="translate(35.196662, 30.806203)"/></g></g></g><g fill="#000" fill-opacity="1"><g><g><path d="M 0 0.5625 L 10.0625 0.5625 L 10.0625 2.984375 L 7.015625 4.015625 C 6.910156 4.046875 6.800781 4.070312 6.6875 4.09375 C 6.570312 4.113281 6.472656 4.132812 6.390625 4.15625 C 6.285156 4.15625 6.179688 4.160156 6.078125 4.171875 L 6.078125 4.28125 C 6.179688 4.289062 6.285156 4.304688 6.390625 4.328125 C 6.472656 4.347656 6.570312 4.367188 6.6875 4.390625 C 6.800781 4.410156 6.910156 4.429688 7.015625 4.453125 L 10.0625 5.359375 L 10.0625 7.828125 L 0 7.828125 L 0 6 L 6.140625 6 C 6.398438 6 6.660156 6.007812 6.921875 6.03125 C 7.179688 6.050781 7.421875 6.078125 7.640625 6.109375 C 7.898438 6.128906 8.144531 6.160156 8.375 6.203125 L 8.375 6.03125 C 8.15625 5.988281 7.9375 5.945312 7.71875 5.90625 C 7.539062 5.863281 7.347656 5.820312 7.140625 5.78125 C 6.941406 5.75 6.773438 5.707031 6.640625 5.65625 L 4.40625 5.03125 L 4.40625 3.375 L 6.640625 2.6875 C 6.773438 2.632812 6.941406 2.585938 7.140625 2.546875 C 7.335938 2.515625 7.523438 2.484375 7.703125 2.453125 C 7.921875 2.421875 8.144531 2.382812 8.375 2.34375 L 8.375 2.171875 C 8.144531 2.203125 7.898438 2.238281 7.640625 2.28125 C 7.421875 2.300781 7.179688 2.320312 6.921875 2.34375 C 6.660156 2.375 6.398438 2.390625 6.140625 2.390625 L 0 2.390625 Z M 0 0.5625" transform="translate(35.196662, 39.184074)"/></g></g></g><g clip-path="url(#77e5491d74)"><g clip-path="url(#d791e1fe21)"><path fill="none" stroke="#000" stroke-linecap="butt" stroke-linejoin="miter" stroke-miterlimit="4" stroke-opacity="1" stroke-width="2" d="M 26.772063 0.0011929 C 11.98613 0.0011929 -0.0023239 11.984427 -0.0023239 26.77558 C -0.0023239 41.561514 11.98613 53.544748 26.772063 53.544748 C 41.557997 53.544748 53.546451 41.561514 53.546451 26.77558 C 53.546451 11.984427 41.557997 0.0011929 26.772063 0.0011929 Z M 26.772063 0.0011929" transform="matrix(0, 0.748441, -0.748441, 0, 59.606362, 19.255646)"/></g></g><g clip-path="url(#e3592c092f)"><g clip-path="url(#07683ba2b7)"><g><g clip-path="url(#db81e96da3)" transform="matrix(1, 0, 0, 1, 220, 389)"><g clip-path="url(#f714e702e1)"><g clip-path="url(#21721bd695)"><path fill="#c2dcff" fill-opacity="1" fill-rule="nonzero" d="M 46.21875 0.746094 L 46.21875 46.679688 L 0.285156 46.679688 L 0.285156 0.746094 Z M 46.21875 0.746094"/></g></g></g></g></g></g><g clip-path="url(#eebb0f6b2b)"><g clip-path="url(#feb12f2800)"><path fill="none" stroke="#000" stroke-linecap="butt" stroke-linejoin="miter" stroke-miterlimit="4" stroke-opacity="1" stroke-width="4" d="M 30.677993 0.00030341 C 13.736539 0.00030341 -0.000340116 13.737182 -0.000340116 30.678637 C -0.000340116 47.62531 13.736539 61.35697 30.677993 61.35697 C 47.624667 61.35697 61.361545 47.62531 61.361545 30.678637 C 61.361545 13.737182 47.624667 0.00030341 30.677993 0.00030341 Z M 30.677993 0.00030341" transform="matrix(0, 0.748441, -0.748441, 0, 266.218977, 389.746348)"/></g></g><g fill="#000" fill-opacity="1"><g><g><path d="M 10.0625 4.671875 L 10.0625 7.046875 L 4.203125 2.65625 L 3.6875 2.65625 L 3.6875 5.3125 L 5.734375 5.3125 L 5.734375 7.40625 L 0 7.40625 L 0 5.3125 L 1.875 5.3125 L 1.875 0.703125 L 4.796875 0.703125 Z M 10.0625 4.671875" transform="translate(238.526642, 404.329263)"/></g></g></g><g fill="#000" fill-opacity="1"><g><g><path d="M 0 0.5625 L 10.0625 0.5625 L 10.0625 2.984375 L 7.015625 4.015625 C 6.910156 4.046875 6.800781 4.070312 6.6875 4.09375 C 6.570312 4.113281 6.472656 4.132812 6.390625 4.15625 C 6.285156 4.15625 6.179688 4.160156 6.078125 4.171875 L 6.078125 4.28125 C 6.179688 4.289062 6.285156 4.304688 6.390625 4.328125 C 6.472656 4.347656 6.570312 4.367188 6.6875 4.390625 C 6.800781 4.410156 6.910156 4.429688 7.015625 4.453125 L 10.0625 5.359375 L 10.0625 7.828125 L 0 7.828125 L 0 6 L 6.140625 6 C 6.398438 6 6.660156 6.007812 6.921875 6.03125 C 7.179688 6.050781 7.421875 6.078125 7.640625 6.109375 C 7.898438 6.128906 8.144531 6.160156 8.375 6.203125 L 8.375 6.03125 C 8.15625 5.988281 7.9375 5.945312 7.71875 5.90625 C 7.539062 5.863281 7.347656 5.820312 7.140625 5.78125 C 6.941406 5.75 6.773438 5.707031 6.640625 5.65625 L 4.40625 5.03125 L 4.40625 3.375 L 6.640625 2.6875 C 6.773438 2.632812 6.941406 2.585938 7.140625 2.546875 C 7.335938 2.515625 7.523438 2.484375 7.703125 2.453125 C 7.921875 2.421875 8.144531 2.382812 8.375 2.34375 L 8.375 2.171875 C 8.144531 2.203125 7.898438 2.238281 7.640625 2.28125 C 7.421875 2.300781 7.179688 2.320312 6.921875 2.34375 C 6.660156 2.375 6.398438 2.390625 6.140625 2.390625 L 0 2.390625 Z M 0 0.5625" transform="translate(238.526642, 412.707135)"/></g></g></g><g clip-path="url(#ad80ba08b2)"><g clip-path="url(#31c6e41ff0)"><path fill="none" stroke="#000" stroke-linecap="butt" stroke-linejoin="miter" stroke-miterlimit="4" stroke-opacity="1" stroke-width="2" d="M 27.037898 0.00209345 C 12.105829 0.00209345 0.00255388 12.105368 0.00255388 27.037438 C 0.00255388 41.974727 12.105829 54.078002 27.037898 54.078002 C 41.969968 54.078002 54.078462 41.974727 54.078462 27.037438 C 54.078462 12.105368 41.969968 0.00209345 27.037898 0.00209345 Z M 27.037898 0.00209345" transform="matrix(0, 0.748442, -0.748442, 0, 263.497661, 392.474651)"/></g></g></svg>