<svg xmlns="http://www.w3.org/2000/svg" xmlns:xlink="http://www.w3.org/1999/xlink" width="378" zoomAndPan="magnify" viewBox="0 0 282.96 461.03998" height="605" preserveAspectRatio="xMidYMid meet" version="1.0"><defs><g/><clipPath id="cb1e20a980"><path d="M 0.273438 0 L 282.644531 0 L 282.644531 452.808594 L 0.273438 452.808594 Z M 0.273438 0 " clip-rule="nonzero"/></clipPath><clipPath id="b72391ba73"><path d="M 14.417969 14.144531 L 269.003906 14.144531 L 269.003906 438.457031 L 14.417969 438.457031 Z M 14.417969 14.144531 " clip-rule="nonzero"/></clipPath><clipPath id="e6e58a45ad"><path d="M 0.417969 0.144531 L 255.003906 0.144531 L 255.003906 424.457031 L 0.417969 424.457031 Z M 0.417969 0.144531 " clip-rule="nonzero"/></clipPath><clipPath id="7d4dbba40a"><rect x="0" width="256" y="0" height="425"/></clipPath><clipPath id="7570cc3beb"><path d="M 14.417969 14.144531 L 268.886719 14.144531 L 268.886719 438.453125 L 14.417969 438.453125 Z M 14.417969 14.144531 " clip-rule="nonzero"/></clipPath><clipPath id="73bcf866ef"><path d="M 28.5625 28.289062 L 254.589844 28.289062 L 254.589844 424.214844 L 28.5625 424.214844 Z M 28.5625 28.289062 " clip-rule="nonzero"/></clipPath><clipPath id="746879fec4"><path d="M 31.117188 30.824219 L 252.304688 30.824219 L 252.304688 421.511719 L 31.117188 421.511719 Z M 31.117188 30.824219 " clip-rule="nonzero"/></clipPath><clipPath id="5779a0d775"><path d="M 33.675781 33.398438 L 249.222656 33.398438 L 249.222656 418.800781 L 33.675781 418.800781 Z M 33.675781 33.398438 " clip-rule="nonzero"/></clipPath><clipPath id="c43e6e18ea"><path d="M 42.707031 42.429688 L 240.714844 42.429688 L 240.714844 409.917969 L 42.707031 409.917969 Z M 42.707031 42.429688 " clip-rule="nonzero"/></clipPath><clipPath id="6225db225b"><path d="M 41.289062 125.878906 L 242.128906 125.878906 L 242.128906 326.722656 L 41.289062 326.722656 Z M 41.289062 125.878906 " clip-rule="nonzero"/></clipPath><clipPath id="88409cddf4"><path d="M 242.128906 226.300781 C 242.128906 170.839844 197.171875 125.878906 141.710938 125.878906 C 86.25 125.878906 41.289062 170.839844 41.289062 226.300781 C 41.289062 281.761719 86.25 326.722656 141.710938 326.722656 C 197.171875 326.722656 242.128906 281.761719 242.128906 226.300781 Z M 242.128906 226.300781 " clip-rule="nonzero"/></clipPath><clipPath id="d0081ac97d"><path d="M 0.289062 0.878906 L 201.128906 0.878906 L 201.128906 201.722656 L 0.289062 201.722656 Z M 0.289062 0.878906 " clip-rule="nonzero"/></clipPath><clipPath id="a149cd899b"><path d="M 201.128906 101.300781 C 201.128906 45.839844 156.171875 0.878906 100.710938 0.878906 C 45.25 0.878906 0.289062 45.839844 0.289062 101.300781 C 0.289062 156.761719 45.25 201.722656 100.710938 201.722656 C 156.171875 201.722656 201.128906 156.761719 201.128906 101.300781 Z M 201.128906 101.300781 " clip-rule="nonzero"/></clipPath><clipPath id="56efa47a34"><rect x="0" width="202" y="0" height="202"/></clipPath><clipPath id="8f88b2c36e"><path d="M 41.546875 125.878906 L 242.128906 125.878906 L 242.128906 326.460938 L 41.546875 326.460938 Z M 41.546875 125.878906 " clip-rule="nonzero"/></clipPath><clipPath id="c997d6e4b5"><path d="M 242.128906 226.300781 C 242.128906 170.839844 197.171875 125.878906 141.710938 125.878906 C 86.25 125.878906 41.289062 170.839844 41.289062 226.300781 C 41.289062 281.757812 86.25 326.71875 141.710938 326.71875 C 197.171875 326.71875 242.128906 281.757812 242.128906 226.300781 Z M 242.128906 226.300781 " clip-rule="nonzero"/></clipPath><clipPath id="fd79f187a3"><path d="M 43.921875 128.511719 L 239.265625 128.511719 L 239.265625 323.855469 L 43.921875 323.855469 Z M 43.921875 128.511719 " clip-rule="nonzero"/></clipPath><clipPath id="2a7e709075"><path d="M 141.511719 128.511719 C 87.617188 128.511719 43.921875 172.203125 43.921875 226.101562 C 43.921875 280 87.617188 323.691406 141.511719 323.691406 C 195.410156 323.691406 239.101562 280 239.101562 226.101562 C 239.101562 172.203125 195.410156 128.511719 141.511719 128.511719 Z M 141.511719 128.511719 " clip-rule="nonzero"/></clipPath><clipPath id="ad00faa93e"><path d="M 16.792969 16.527344 L 62.726562 16.527344 L 62.726562 62.460938 L 16.792969 62.460938 Z M 16.792969 16.527344 " clip-rule="nonzero"/></clipPath><clipPath id="deedaa97ee"><path d="M 62.726562 39.496094 C 62.726562 26.808594 52.441406 16.527344 39.757812 16.527344 C 27.074219 16.527344 16.792969 26.808594 16.792969 39.496094 C 16.792969 52.179688 27.074219 62.460938 39.757812 62.460938 C 52.441406 62.460938 62.726562 52.179688 62.726562 39.496094 Z M 62.726562 39.496094 " clip-rule="nonzero"/></clipPath><clipPath id="838717ac38"><path d="M 0.792969 0.527344 L 46.726562 0.527344 L 46.726562 46.460938 L 0.792969 46.460938 Z M 0.792969 0.527344 " clip-rule="nonzero"/></clipPath><clipPath id="0d517882b4"><path d="M 46.726562 23.496094 C 46.726562 10.808594 36.441406 0.527344 23.757812 0.527344 C 11.074219 0.527344 0.792969 10.808594 0.792969 23.496094 C 0.792969 36.179688 11.074219 46.460938 23.757812 46.460938 C 36.441406 46.460938 46.726562 36.179688 46.726562 23.496094 Z M 46.726562 23.496094 " clip-rule="nonzero"/></clipPath><clipPath id="ffe1433b91"><rect x="0" width="47" y="0" height="47"/></clipPath><clipPath id="83e0f6f779"><path d="M 17.070312 16.527344 L 62.726562 16.527344 L 62.726562 62.183594 L 17.070312 62.183594 Z M 17.070312 16.527344 " clip-rule="nonzero"/></clipPath><clipPath id="612dca94c7"><path d="M 62.726562 39.488281 C 62.726562 26.808594 52.445312 16.527344 39.761719 16.527344 C 27.082031 16.527344 16.800781 26.808594 16.800781 39.488281 C 16.800781 52.171875 27.082031 62.453125 39.761719 62.453125 C 52.445312 62.453125 62.726562 52.171875 62.726562 39.488281 Z M 62.726562 39.488281 " clip-rule="nonzero"/></clipPath><clipPath id="4cc94f7665"><path d="M 19.589844 19.253906 L 60.003906 19.253906 L 60.003906 59.671875 L 19.589844 59.671875 Z M 19.589844 19.253906 " clip-rule="nonzero"/></clipPath><clipPath id="8bcf7dde1f"><path d="M 60.003906 39.492188 C 60.003906 28.316406 50.945312 19.253906 39.765625 19.253906 C 28.589844 19.253906 19.53125 28.316406 19.53125 39.492188 C 19.53125 50.667969 28.589844 59.730469 39.765625 59.730469 C 50.945312 59.730469 60.003906 50.667969 60.003906 39.492188 Z M 60.003906 39.492188 " clip-rule="nonzero"/></clipPath><clipPath id="dc7f7f597b"><path d="M 220.492188 389.941406 L 266.226562 389.941406 L 266.226562 435.679688 L 220.492188 435.679688 Z M 220.492188 389.941406 " clip-rule="nonzero"/></clipPath><clipPath id="04d82ff8be"><path d="M 266.226562 412.8125 C 266.226562 400.179688 255.988281 389.941406 243.359375 389.941406 C 230.730469 389.941406 220.492188 400.179688 220.492188 412.8125 C 220.492188 425.441406 230.730469 435.679688 243.359375 435.679688 C 255.988281 435.679688 266.226562 425.441406 266.226562 412.8125 Z M 266.226562 412.8125 " clip-rule="nonzero"/></clipPath><clipPath id="68a3f0e291"><path d="M 0.492188 0.941406 L 46.226562 0.941406 L 46.226562 46.679688 L 0.492188 46.679688 Z M 0.492188 0.941406 " clip-rule="nonzero"/></clipPath><clipPath id="50e109522c"><path d="M 46.226562 23.8125 C 46.226562 11.179688 35.988281 0.941406 23.359375 0.941406 C 10.730469 0.941406 0.492188 11.179688 0.492188 23.8125 C 0.492188 36.441406 10.730469 46.679688 23.359375 46.679688 C 35.988281 46.679688 46.226562 36.441406 46.226562 23.8125 Z M 46.226562 23.8125 " clip-rule="nonzero"/></clipPath><clipPath id="1578860bfa"><rect x="0" width="47" y="0" height="47"/></clipPath><clipPath id="8d81b82a29"><path d="M 220.574219 389.941406 L 266.226562 389.941406 L 266.226562 435.597656 L 220.574219 435.597656 Z M 220.574219 389.941406 " clip-rule="nonzero"/></clipPath><clipPath id="b554817a07"><path d="M 266.226562 412.8125 C 266.226562 400.179688 255.988281 389.941406 243.359375 389.941406 C 230.730469 389.941406 220.492188 400.179688 220.492188 412.8125 C 220.492188 425.441406 230.730469 435.679688 243.359375 435.679688 C 255.988281 435.679688 266.226562 425.441406 266.226562 412.8125 Z M 266.226562 412.8125 " clip-rule="nonzero"/></clipPath><clipPath id="6615dd2dda"><path d="M 223.078125 392.671875 L 263.496094 392.671875 L 263.496094 433 L 223.078125 433 Z M 223.078125 392.671875 " clip-rule="nonzero"/></clipPath><clipPath id="76b7c4a45f"><path d="M 263.496094 412.808594 C 263.496094 401.6875 254.480469 392.671875 243.359375 392.671875 C 232.234375 392.671875 223.21875 401.6875 223.21875 412.808594 C 223.21875 423.929688 232.234375 432.945312 243.359375 432.945312 C 254.480469 432.945312 263.496094 423.929688 263.496094 412.808594 Z M 263.496094 412.808594 " clip-rule="nonzero"/></clipPath></defs><g clip-path="url(#cb1e20a980)"><path fill="#ffffff" d="M 0.273438 0 L 283.183594 0 L 283.183594 452.808594 L 0.273438 452.808594 Z M 0.273438 0 " fill-opacity="1" fill-rule="nonzero"/><path fill="#ffffff" d="M 0.273438 0 L 283.183594 0 L 283.183594 452.808594 L 0.273438 452.808594 Z M 0.273438 0 " fill-opacity="1" fill-rule="nonzero"/></g><g clip-path="url(#b72391ba73)"><g transform="matrix(1, 0, 0, 1, 14, 14)"><g clip-path="url(#7d4dbba40a)"><g clip-path="url(#e6e58a45ad)"><path fill="#ffbd59" d="M 0.417969 0.144531 L 255.003906 0.144531 L 255.003906 424.789062 L 0.417969 424.789062 Z M 0.417969 0.144531 " fill-opacity="1" fill-rule="nonzero"/></g></g></g></g><g clip-path="url(#7570cc3beb)"><path stroke-linecap="butt" transform="matrix(0.748442, 0, 0, 0.748442, 14.417809, 14.14379)" fill="none" stroke-linejoin="miter" d="M 0.000213988 0.000990199 L 340.154953 0.000990199 L 340.154953 566.923815 L 0.000213988 566.923815 Z M 0.000213988 0.000990199 " stroke="#000000" stroke-width="4" stroke-opacity="1" stroke-miterlimit="4"/></g><g clip-path="url(#73bcf866ef)"><path stroke-linecap="butt" transform="matrix(0.748442, 0, 0, 0.748442, 28.561585, 28.287551)" fill="none" stroke-linejoin="miter" d="M 0.00122275 0.00201976 L 302.358671 0.00201976 L 302.358671 529.127554 L 0.00122275 529.127554 Z M 0.00122275 0.00201976 " stroke="#000000" stroke-width="4" stroke-opacity="1" stroke-miterlimit="4"/></g><g clip-path="url(#746879fec4)"><path stroke-linecap="butt" transform="matrix(0.748441, 0, 0, 0.748441, 31.116206, 30.825323)" fill="none" stroke-linejoin="miter" d="M 0.0013113 -0.00147559 L 295.532093 -0.00147559 L 295.532093 522.297407 L 0.0013113 522.297407 Z M 0.0013113 -0.00147559 " stroke="#000000" stroke-width="4" stroke-opacity="1" stroke-miterlimit="4"/></g><g clip-path="url(#5779a0d775)"><path stroke-linecap="butt" transform="matrix(0.748442, 0, 0, 0.748442, 33.673435, 33.399377)" fill="none" stroke-linejoin="miter" d="M 0.00313519 -0.0012553 L 288.169637 -0.0012553 L 288.169637 514.938552 L 0.00313519 514.938552 Z M 0.00313519 -0.0012553 " stroke="#000000" stroke-width="4" stroke-opacity="1" stroke-miterlimit="4"/></g><g clip-path="url(#c43e6e18ea)"><path stroke-linecap="butt" transform="matrix(0.748441, 0, 0, 0.748441, 42.705362, 42.431371)" fill="none" stroke-linejoin="miter" d="M 0.00222991 -0.00224922 L 264.562421 -0.00224922 L 264.562421 491.326057 L 0.00222991 491.326057 Z M 0.00222991 -0.00224922 " stroke="#000000" stroke-width="4" stroke-opacity="1" stroke-miterlimit="4"/></g><g clip-path="url(#6225db225b)"><g clip-path="url(#88409cddf4)"><g transform="matrix(1, 0, 0, 1, 41, 125)"><g clip-path="url(#56efa47a34)"><g clip-path="url(#d0081ac97d)"><g clip-path="url(#a149cd899b)"><path fill="#ffbd59" d="M 201.128906 0.878906 L 201.128906 201.722656 L 0.289062 201.722656 L 0.289062 0.878906 Z M 201.128906 0.878906 " fill-opacity="1" fill-rule="nonzero"/></g></g></g></g></g></g><g clip-path="url(#8f88b2c36e)"><g clip-path="url(#c997d6e4b5)"><path stroke-linecap="butt" transform="matrix(0, 0.748441, -0.748441, 0, 242.130592, 125.879616)" fill="none" stroke-linejoin="miter" d="M 134.173701 0.00225281 C 60.0718 0.00225281 -0.000948023 60.069782 -0.000948023 134.171683 C -0.000948023 208.273584 60.0718 268.346332 134.173701 268.346332 C 208.270383 268.346332 268.343131 208.273584 268.343131 134.171683 C 268.343131 60.069782 208.270383 0.00225281 134.173701 0.00225281 Z M 134.173701 0.00225281 " stroke="#000000" stroke-width="4" stroke-opacity="1" stroke-miterlimit="4"/></g></g><g fill="#000000" fill-opacity="1"><g transform="translate(111.153331, 150.847156)"><g><path d="M 10.890625 5.875 L 10.890625 22.046875 L 42.5 22.046875 C 44.90625 22.046875 46.640625 22.128906 47.703125 22.296875 C 48.367188 22.347656 48.925781 22.40625 49.375 22.46875 L 49.375 22.21875 C 49.09375 21.988281 48.785156 21.679688 48.453125 21.296875 C 48.171875 21.015625 47.832031 20.632812 47.4375 20.15625 C 47.050781 19.6875 46.632812 19.113281 46.1875 18.4375 L 38.5625 6.625 L 50.71875 6.625 L 60.359375 20.796875 L 60.359375 34.625 L 10.890625 34.625 L 10.890625 47.359375 L 0 47.359375 L 0 5.875 Z M 10.890625 5.875 "/></g></g></g><g fill="#000000" fill-opacity="1"><g transform="translate(111.153331, 201.142422)"><g><path d="M 33.953125 21.375 C 35.234375 21.375 36.25 21.722656 37 22.421875 C 37.757812 23.117188 38.140625 24.03125 38.140625 25.15625 C 38.140625 26.269531 37.757812 27.175781 37 27.875 C 36.25 28.570312 35.234375 28.921875 33.953125 28.921875 L 25.5625 28.921875 C 24.28125 28.921875 23.257812 28.570312 22.5 27.875 C 21.75 27.175781 21.375 26.269531 21.375 25.15625 C 21.375 24.03125 21.75 23.117188 22.5 22.421875 C 23.257812 21.722656 24.28125 21.375 25.5625 21.375 Z M 18.015625 16.171875 C 15.671875 16.171875 13.769531 16.992188 12.3125 18.640625 C 10.863281 20.296875 10.140625 22.46875 10.140625 25.15625 C 10.140625 27.832031 10.863281 29.992188 12.3125 31.640625 C 13.769531 33.296875 15.671875 34.125 18.015625 34.125 L 42.421875 34.125 C 44.765625 34.125 46.660156 33.296875 48.109375 31.640625 C 49.566406 29.992188 50.296875 27.832031 50.296875 25.15625 C 50.296875 22.46875 49.566406 20.296875 48.109375 18.640625 C 46.660156 16.992188 44.765625 16.171875 42.421875 16.171875 Z M 18.015625 4.03125 L 42.421875 4.03125 C 45.265625 4.03125 47.832031 4.53125 50.125 5.53125 C 52.414062 6.539062 54.382812 7.96875 56.03125 9.8125 C 57.6875 11.65625 58.957031 13.875 59.84375 16.46875 C 60.738281 19.070312 61.1875 21.96875 61.1875 25.15625 C 61.1875 28.332031 60.738281 31.21875 59.84375 33.8125 C 58.957031 36.414062 57.6875 38.640625 56.03125 40.484375 C 54.382812 42.328125 52.414062 43.75 50.125 44.75 C 47.832031 45.757812 45.265625 46.265625 42.421875 46.265625 L 18.015625 46.265625 C 15.222656 46.265625 12.664062 45.75 10.34375 44.71875 C 8.03125 43.6875 6.046875 42.25 4.390625 40.40625 C 2.742188 38.5625 1.457031 36.335938 0.53125 33.734375 C -0.382812 31.140625 -0.84375 28.28125 -0.84375 25.15625 C -0.84375 21.96875 -0.394531 19.070312 0.5 16.46875 C 1.394531 13.875 2.664062 11.65625 4.3125 9.8125 C 5.96875 7.96875 7.953125 6.539062 10.265625 5.53125 C 12.585938 4.53125 15.171875 4.03125 18.015625 4.03125 Z M 18.015625 4.03125 "/></g></g></g><g fill="#000000" fill-opacity="1"><g transform="translate(111.153331, 251.437689)"><g><path d="M 0 3.359375 L 60.359375 3.359375 L 60.359375 17.9375 L 42.078125 24.0625 C 41.460938 24.28125 40.816406 24.445312 40.140625 24.5625 C 39.472656 24.675781 38.863281 24.785156 38.3125 24.890625 C 37.695312 24.953125 37.082031 25.007812 36.46875 25.0625 L 36.46875 25.734375 C 37.082031 25.785156 37.695312 25.867188 38.3125 25.984375 C 38.863281 26.097656 39.472656 26.207031 40.140625 26.3125 C 40.816406 26.425781 41.460938 26.566406 42.078125 26.734375 L 60.359375 32.1875 L 60.359375 46.9375 L 0 46.9375 L 0 35.96875 L 36.890625 35.96875 C 38.453125 35.96875 40.015625 36.035156 41.578125 36.171875 C 43.140625 36.304688 44.566406 36.460938 45.859375 36.640625 C 47.421875 36.804688 48.898438 37 50.296875 37.21875 L 50.296875 36.21875 C 48.953125 35.9375 47.640625 35.679688 46.359375 35.453125 C 45.242188 35.179688 44.082031 34.929688 42.875 34.703125 C 41.675781 34.484375 40.65625 34.234375 39.8125 33.953125 L 26.40625 30.171875 L 26.40625 20.28125 L 39.8125 16.09375 C 40.65625 15.8125 41.660156 15.554688 42.828125 15.328125 C 44.003906 15.109375 45.148438 14.914062 46.265625 14.75 C 47.554688 14.53125 48.898438 14.304688 50.296875 14.078125 L 50.296875 13 C 48.898438 13.21875 47.421875 13.4375 45.859375 13.65625 C 44.566406 13.832031 43.140625 13.988281 41.578125 14.125 C 40.015625 14.257812 38.453125 14.328125 36.890625 14.328125 L 0 14.328125 Z M 0 3.359375 "/></g></g></g><g clip-path="url(#fd79f187a3)"><g clip-path="url(#2a7e709075)"><path stroke-linecap="butt" transform="matrix(0.748442, 0, 0, 0.748442, 43.923128, 128.511732)" fill="none" stroke-linejoin="miter" d="M 130.389062 -0.0000182958 C 58.380056 -0.0000182958 -0.00167428 58.376493 -0.00167428 130.390718 C -0.00167428 202.404943 58.380056 260.781454 130.389062 260.781454 C 202.403287 260.781454 260.779798 202.404943 260.779798 130.390718 C 260.779798 58.376493 202.403287 -0.0000182958 130.389062 -0.0000182958 Z M 130.389062 -0.0000182958 " stroke="#000000" stroke-width="2" stroke-opacity="1" stroke-miterlimit="4"/></g></g><g clip-path="url(#ad00faa93e)"><g clip-path="url(#deedaa97ee)"><g transform="matrix(1, 0, 0, 1, 16, 16)"><g clip-path="url(#ffe1433b91)"><g clip-path="url(#838717ac38)"><g clip-path="url(#0d517882b4)"><path fill="#ffbd59" d="M 46.726562 0.527344 L 46.726562 46.460938 L 0.792969 46.460938 L 0.792969 0.527344 Z M 46.726562 0.527344 " fill-opacity="1" fill-rule="nonzero"/></g></g></g></g></g></g><g clip-path="url(#83e0f6f779)"><g clip-path="url(#612dca94c7)"><path stroke-linecap="butt" transform="matrix(0, 0.748441, -0.748441, 0, 62.725277, 16.527342)" fill="none" stroke-linejoin="miter" d="M 30.678335 -0.00171817 C 13.736881 -0.00171817 0.00000192092 13.73516 0.00000192092 30.681834 C 0.00000192092 47.623289 13.736881 61.360167 30.678335 61.360167 C 47.625009 61.360167 61.361887 47.623289 61.361887 30.681834 C 61.361887 13.73516 47.625009 -0.00171817 30.678335 -0.00171817 Z M 30.678335 -0.00171817 " stroke="#000000" stroke-width="4" stroke-opacity="1" stroke-miterlimit="4"/></g></g><g fill="#000000" fill-opacity="1"><g transform="translate(35.032941, 26.911968)"><g><path d="M 1.8125 0.984375 L 1.8125 3.671875 L 7.078125 3.671875 C 7.484375 3.671875 7.773438 3.6875 7.953125 3.71875 C 8.054688 3.726562 8.148438 3.738281 8.234375 3.75 L 8.234375 3.703125 C 8.179688 3.660156 8.128906 3.609375 8.078125 3.546875 C 8.023438 3.503906 7.96875 3.441406 7.90625 3.359375 C 7.84375 3.273438 7.773438 3.179688 7.703125 3.078125 L 6.421875 1.109375 L 8.453125 1.109375 L 10.0625 3.46875 L 10.0625 5.765625 L 1.8125 5.765625 L 1.8125 7.890625 L 0 7.890625 L 0 0.984375 Z M 1.8125 0.984375 "/></g></g></g><g fill="#000000" fill-opacity="1"><g transform="translate(35.032941, 35.28984)"><g><path d="M 5.65625 3.5625 C 5.875 3.5625 6.046875 3.617188 6.171875 3.734375 C 6.296875 3.847656 6.359375 4 6.359375 4.1875 C 6.359375 4.375 6.296875 4.523438 6.171875 4.640625 C 6.046875 4.753906 5.875 4.8125 5.65625 4.8125 L 4.265625 4.8125 C 4.046875 4.8125 3.875 4.753906 3.75 4.640625 C 3.625 4.523438 3.5625 4.375 3.5625 4.1875 C 3.5625 4 3.625 3.847656 3.75 3.734375 C 3.875 3.617188 4.046875 3.5625 4.265625 3.5625 Z M 3 2.703125 C 2.613281 2.703125 2.296875 2.835938 2.046875 3.109375 C 1.804688 3.378906 1.6875 3.738281 1.6875 4.1875 C 1.6875 4.632812 1.804688 4.992188 2.046875 5.265625 C 2.296875 5.546875 2.613281 5.6875 3 5.6875 L 7.0625 5.6875 C 7.457031 5.6875 7.773438 5.546875 8.015625 5.265625 C 8.253906 4.992188 8.375 4.632812 8.375 4.1875 C 8.375 3.738281 8.253906 3.378906 8.015625 3.109375 C 7.773438 2.835938 7.457031 2.703125 7.0625 2.703125 Z M 3 0.671875 L 7.0625 0.671875 C 7.539062 0.671875 7.96875 0.753906 8.34375 0.921875 C 8.726562 1.085938 9.054688 1.320312 9.328125 1.625 C 9.609375 1.9375 9.820312 2.304688 9.96875 2.734375 C 10.125 3.171875 10.203125 3.65625 10.203125 4.1875 C 10.203125 4.71875 10.125 5.195312 9.96875 5.625 C 9.820312 6.0625 9.609375 6.429688 9.328125 6.734375 C 9.054688 7.046875 8.726562 7.285156 8.34375 7.453125 C 7.96875 7.617188 7.539062 7.703125 7.0625 7.703125 L 3 7.703125 C 2.539062 7.703125 2.113281 7.613281 1.71875 7.4375 C 1.332031 7.269531 1.003906 7.03125 0.734375 6.71875 C 0.460938 6.414062 0.25 6.046875 0.09375 5.609375 C -0.0625 5.179688 -0.140625 4.707031 -0.140625 4.1875 C -0.140625 3.65625 -0.0664062 3.171875 0.078125 2.734375 C 0.234375 2.304688 0.445312 1.9375 0.71875 1.625 C 0.988281 1.320312 1.316406 1.085938 1.703125 0.921875 C 2.097656 0.753906 2.53125 0.671875 3 0.671875 Z M 3 0.671875 "/></g></g></g><g fill="#000000" fill-opacity="1"><g transform="translate(35.032941, 43.667711)"><g><path d="M 0 0.5625 L 10.0625 0.5625 L 10.0625 2.984375 L 7.015625 4.015625 C 6.910156 4.046875 6.800781 4.070312 6.6875 4.09375 C 6.570312 4.113281 6.472656 4.132812 6.390625 4.15625 C 6.285156 4.15625 6.179688 4.160156 6.078125 4.171875 L 6.078125 4.28125 C 6.179688 4.289062 6.285156 4.304688 6.390625 4.328125 C 6.472656 4.347656 6.570312 4.367188 6.6875 4.390625 C 6.800781 4.410156 6.910156 4.429688 7.015625 4.453125 L 10.0625 5.359375 L 10.0625 7.828125 L 0 7.828125 L 0 6 L 6.140625 6 C 6.398438 6 6.660156 6.007812 6.921875 6.03125 C 7.179688 6.050781 7.421875 6.078125 7.640625 6.109375 C 7.898438 6.128906 8.144531 6.160156 8.375 6.203125 L 8.375 6.03125 C 8.15625 5.988281 7.9375 5.945312 7.71875 5.90625 C 7.539062 5.863281 7.347656 5.820312 7.140625 5.78125 C 6.941406 5.75 6.773438 5.707031 6.640625 5.65625 L 4.40625 5.03125 L 4.40625 3.375 L 6.640625 2.6875 C 6.773438 2.632812 6.941406 2.585938 7.140625 2.546875 C 7.335938 2.515625 7.523438 2.484375 7.703125 2.453125 C 7.921875 2.421875 8.144531 2.382812 8.375 2.34375 L 8.375 2.171875 C 8.144531 2.203125 7.898438 2.238281 7.640625 2.28125 C 7.421875 2.300781 7.179688 2.320312 6.921875 2.34375 C 6.660156 2.375 6.398438 2.390625 6.140625 2.390625 L 0 2.390625 Z M 0 0.5625 "/></g></g></g><g clip-path="url(#4cc94f7665)"><g clip-path="url(#8bcf7dde1f)"><path stroke-linecap="butt" transform="matrix(0, 0.748442, -0.748442, 0, 60.003972, 19.255646)" fill="none" stroke-linejoin="miter" d="M 27.03824 0.0000878649 C 12.10617 0.0000878649 -0.0023239 12.103363 -0.0023239 27.040652 C -0.0023239 41.972721 12.10617 54.075996 27.03824 54.075996 C 41.97031 54.075996 54.078804 41.972721 54.078804 27.040652 C 54.078804 12.103363 41.97031 0.0000878649 27.03824 0.0000878649 Z M 27.03824 0.0000878649 " stroke="#000000" stroke-width="2" stroke-opacity="1" stroke-miterlimit="4"/></g></g><g clip-path="url(#dc7f7f597b)"><g clip-path="url(#04d82ff8be)"><g transform="matrix(1, 0, 0, 1, 220, 389)"><g clip-path="url(#1578860bfa)"><g clip-path="url(#68a3f0e291)"><g clip-path="url(#50e109522c)"><path fill="#ffbd59" d="M 46.226562 0.941406 L 46.226562 46.679688 L 0.492188 46.679688 L 0.492188 0.941406 Z M 46.226562 0.941406 " fill-opacity="1" fill-rule="nonzero"/></g></g></g></g></g></g><g clip-path="url(#8d81b82a29)"><g clip-path="url(#b554817a07)"><path stroke-linecap="butt" transform="matrix(0, 0.748441, -0.748441, 0, 266.228478, 389.942931)" fill="none" stroke-linejoin="miter" d="M 30.556255 0.00255945 C 13.677431 0.00255945 -0.00203717 13.682027 -0.00203717 30.555632 C -0.00203717 47.429237 13.677431 61.108705 30.556255 61.108705 C 47.42986 61.108705 61.109328 47.429237 61.109328 30.555632 C 61.109328 13.682027 47.42986 0.00255945 30.556255 0.00255945 Z M 30.556255 0.00255945 " stroke="#000000" stroke-width="4" stroke-opacity="1" stroke-miterlimit="4"/></g></g><g fill="#000000" fill-opacity="1"><g transform="translate(238.536143, 400.222307)"><g><path d="M 1.8125 0.984375 L 1.8125 3.671875 L 7.078125 3.671875 C 7.484375 3.671875 7.773438 3.6875 7.953125 3.71875 C 8.054688 3.726562 8.148438 3.738281 8.234375 3.75 L 8.234375 3.703125 C 8.179688 3.660156 8.128906 3.609375 8.078125 3.546875 C 8.023438 3.503906 7.96875 3.441406 7.90625 3.359375 C 7.84375 3.273438 7.773438 3.179688 7.703125 3.078125 L 6.421875 1.109375 L 8.453125 1.109375 L 10.0625 3.46875 L 10.0625 5.765625 L 1.8125 5.765625 L 1.8125 7.890625 L 0 7.890625 L 0 0.984375 Z M 1.8125 0.984375 "/></g></g></g><g fill="#000000" fill-opacity="1"><g transform="translate(238.536143, 408.600179)"><g><path d="M 5.65625 3.5625 C 5.875 3.5625 6.046875 3.617188 6.171875 3.734375 C 6.296875 3.847656 6.359375 4 6.359375 4.1875 C 6.359375 4.375 6.296875 4.523438 6.171875 4.640625 C 6.046875 4.753906 5.875 4.8125 5.65625 4.8125 L 4.265625 4.8125 C 4.046875 4.8125 3.875 4.753906 3.75 4.640625 C 3.625 4.523438 3.5625 4.375 3.5625 4.1875 C 3.5625 4 3.625 3.847656 3.75 3.734375 C 3.875 3.617188 4.046875 3.5625 4.265625 3.5625 Z M 3 2.703125 C 2.613281 2.703125 2.296875 2.835938 2.046875 3.109375 C 1.804688 3.378906 1.6875 3.738281 1.6875 4.1875 C 1.6875 4.632812 1.804688 4.992188 2.046875 5.265625 C 2.296875 5.546875 2.613281 5.6875 3 5.6875 L 7.0625 5.6875 C 7.457031 5.6875 7.773438 5.546875 8.015625 5.265625 C 8.253906 4.992188 8.375 4.632812 8.375 4.1875 C 8.375 3.738281 8.253906 3.378906 8.015625 3.109375 C 7.773438 2.835938 7.457031 2.703125 7.0625 2.703125 Z M 3 0.671875 L 7.0625 0.671875 C 7.539062 0.671875 7.96875 0.753906 8.34375 0.921875 C 8.726562 1.085938 9.054688 1.320312 9.328125 1.625 C 9.609375 1.9375 9.820312 2.304688 9.96875 2.734375 C 10.125 3.171875 10.203125 3.65625 10.203125 4.1875 C 10.203125 4.71875 10.125 5.195312 9.96875 5.625 C 9.820312 6.0625 9.609375 6.429688 9.328125 6.734375 C 9.054688 7.046875 8.726562 7.285156 8.34375 7.453125 C 7.96875 7.617188 7.539062 7.703125 7.0625 7.703125 L 3 7.703125 C 2.539062 7.703125 2.113281 7.613281 1.71875 7.4375 C 1.332031 7.269531 1.003906 7.03125 0.734375 6.71875 C 0.460938 6.414062 0.25 6.046875 0.09375 5.609375 C -0.0625 5.179688 -0.140625 4.707031 -0.140625 4.1875 C -0.140625 3.65625 -0.0664062 3.171875 0.078125 2.734375 C 0.234375 2.304688 0.445312 1.9375 0.71875 1.625 C 0.988281 1.320312 1.316406 1.085938 1.703125 0.921875 C 2.097656 0.753906 2.53125 0.671875 3 0.671875 Z M 3 0.671875 "/></g></g></g><g fill="#000000" fill-opacity="1"><g transform="translate(238.536143, 416.97805)"><g><path d="M 0 0.5625 L 10.0625 0.5625 L 10.0625 2.984375 L 7.015625 4.015625 C 6.910156 4.046875 6.800781 4.070312 6.6875 4.09375 C 6.570312 4.113281 6.472656 4.132812 6.390625 4.15625 C 6.285156 4.15625 6.179688 4.160156 6.078125 4.171875 L 6.078125 4.28125 C 6.179688 4.289062 6.285156 4.304688 6.390625 4.328125 C 6.472656 4.347656 6.570312 4.367188 6.6875 4.390625 C 6.800781 4.410156 6.910156 4.429688 7.015625 4.453125 L 10.0625 5.359375 L 10.0625 7.828125 L 0 7.828125 L 0 6 L 6.140625 6 C 6.398438 6 6.660156 6.007812 6.921875 6.03125 C 7.179688 6.050781 7.421875 6.078125 7.640625 6.109375 C 7.898438 6.128906 8.144531 6.160156 8.375 6.203125 L 8.375 6.03125 C 8.15625 5.988281 7.9375 5.945312 7.71875 5.90625 C 7.539062 5.863281 7.347656 5.820312 7.140625 5.78125 C 6.941406 5.75 6.773438 5.707031 6.640625 5.65625 L 4.40625 5.03125 L 4.40625 3.375 L 6.640625 2.6875 C 6.773438 2.632812 6.941406 2.585938 7.140625 2.546875 C 7.335938 2.515625 7.523438 2.484375 7.703125 2.453125 C 7.921875 2.421875 8.144531 2.382812 8.375 2.34375 L 8.375 2.171875 C 8.144531 2.203125 7.898438 2.238281 7.640625 2.28125 C 7.421875 2.300781 7.179688 2.320312 6.921875 2.34375 C 6.660156 2.375 6.398438 2.390625 6.140625 2.390625 L 0 2.390625 Z M 0 0.5625 "/></g></g></g><g clip-path="url(#6615dd2dda)"><g clip-path="url(#76b7c4a45f)"><path stroke-linecap="butt" transform="matrix(0, 0.748441, -0.748441, 0, 263.495467, 392.671234)" fill="none" stroke-linejoin="miter" d="M 26.905724 -0.00083775 C 12.046722 -0.00083775 0.000856822 12.045027 0.000856822 26.904029 C 0.000856822 41.76825 12.046722 53.814115 26.905724 53.814115 C 41.764726 53.814115 53.81059 41.76825 53.81059 26.904029 C 53.81059 12.045027 41.764726 -0.00083775 26.905724 -0.00083775 Z M 26.905724 -0.00083775 " stroke="#000000" stroke-width="2" stroke-opacity="1" stroke-miterlimit="4"/></g></g></svg>