<svg xmlns="http://www.w3.org/2000/svg" xmlns:xlink="http://www.w3.org/1999/xlink" width="378" height="605" preserveAspectRatio="xMidYMid meet" version="1.0" viewBox="0 0 282.96 461.04" zoomAndPan="magnify"><defs><clipPath id="75d297785e"><path d="M 0.273438 0 L 282.644531 0 L 282.644531 452.808594 L 0.273438 452.808594 Z M 0.273438 0" clip-rule="nonzero"/></clipPath><clipPath id="4aa7eb3d17"><path d="M 14.417969 14.144531 L 269.003906 14.144531 L 269.003906 438.457031 L 14.417969 438.457031 Z M 14.417969 14.144531" clip-rule="nonzero"/></clipPath><clipPath id="8211bd0c91"><path d="M 0.417969 0.144531 L 255.003906 0.144531 L 255.003906 424.457031 L 0.417969 424.457031 Z M 0.417969 0.144531" clip-rule="nonzero"/></clipPath><clipPath id="59c14b6d58"><rect width="256" height="425" x="0" y="0"/></clipPath><clipPath id="5d26bb0251"><path d="M 14.417969 14.144531 L 268.886719 14.144531 L 268.886719 438.453125 L 14.417969 438.453125 Z M 14.417969 14.144531" clip-rule="nonzero"/></clipPath><clipPath id="da75efd635"><path d="M 28.5625 28.289062 L 254.589844 28.289062 L 254.589844 424.214844 L 28.5625 424.214844 Z M 28.5625 28.289062" clip-rule="nonzero"/></clipPath><clipPath id="e2db1fc5df"><path d="M 31.117188 30.824219 L 252.304688 30.824219 L 252.304688 421.511719 L 31.117188 421.511719 Z M 31.117188 30.824219" clip-rule="nonzero"/></clipPath><clipPath id="ff8df48d5c"><path d="M 33.675781 33.398438 L 249.222656 33.398438 L 249.222656 418.800781 L 33.675781 418.800781 Z M 33.675781 33.398438" clip-rule="nonzero"/></clipPath><clipPath id="0065be3f22"><path d="M 42.707031 42.429688 L 240.714844 42.429688 L 240.714844 409.917969 L 42.707031 409.917969 Z M 42.707031 42.429688" clip-rule="nonzero"/></clipPath><clipPath id="b344d7dae5"><path d="M 41.289062 125.878906 L 242.128906 125.878906 L 242.128906 326.722656 L 41.289062 326.722656 Z M 41.289062 125.878906" clip-rule="nonzero"/></clipPath><clipPath id="6eecc39d40"><path d="M 242.128906 226.300781 C 242.128906 170.839844 197.171875 125.878906 141.710938 125.878906 C 86.25 125.878906 41.289062 170.839844 41.289062 226.300781 C 41.289062 281.761719 86.25 326.722656 141.710938 326.722656 C 197.171875 326.722656 242.128906 281.761719 242.128906 226.300781 Z M 242.128906 226.300781" clip-rule="nonzero"/></clipPath><clipPath id="27482434"><path d="M 0.289062 0.878906 L 201.128906 0.878906 L 201.128906 201.722656 L 0.289062 201.722656 Z M 0.289062 0.878906" clip-rule="nonzero"/></clipPath><clipPath id="8471cc672f"><path d="M 201.128906 101.300781 C 201.128906 45.839844 156.171875 0.878906 100.710938 0.878906 C 45.25 0.878906 0.289062 45.839844 0.289062 101.300781 C 0.289062 156.761719 45.25 201.722656 100.710938 201.722656 C 156.171875 201.722656 201.128906 156.761719 201.128906 101.300781 Z M 201.128906 101.300781" clip-rule="nonzero"/></clipPath><clipPath id="8530b2177b"><rect width="202" height="202" x="0" y="0"/></clipPath><clipPath id="cf3cc4a38a"><path d="M 41.546875 125.878906 L 242.128906 125.878906 L 242.128906 326.460938 L 41.546875 326.460938 Z M 41.546875 125.878906" clip-rule="nonzero"/></clipPath><clipPath id="d6b31050fb"><path d="M 242.128906 226.300781 C 242.128906 170.839844 197.171875 125.878906 141.710938 125.878906 C 86.25 125.878906 41.289062 170.839844 41.289062 226.300781 C 41.289062 281.761719 86.25 326.71875 141.710938 326.71875 C 197.171875 326.71875 242.128906 281.761719 242.128906 226.300781 Z M 242.128906 226.300781" clip-rule="nonzero"/></clipPath><clipPath id="622469bce0"><path d="M 43.921875 128.511719 L 239.265625 128.511719 L 239.265625 323.855469 L 43.921875 323.855469 Z M 43.921875 128.511719" clip-rule="nonzero"/></clipPath><clipPath id="ef4ceb1b44"><path d="M 141.511719 128.511719 C 87.617188 128.511719 43.921875 172.203125 43.921875 226.101562 C 43.921875 280 87.617188 323.691406 141.511719 323.691406 C 195.410156 323.691406 239.101562 280 239.101562 226.101562 C 239.101562 172.203125 195.410156 128.511719 141.511719 128.511719 Z M 141.511719 128.511719" clip-rule="nonzero"/></clipPath><clipPath id="38d53eb87c"><path d="M 16.796875 16.527344 L 63.121094 16.527344 L 63.121094 62.855469 L 16.796875 62.855469 Z M 16.796875 16.527344" clip-rule="nonzero"/></clipPath><clipPath id="b7e4ff9da6"><path d="M 63.121094 39.691406 C 63.121094 26.898438 52.753906 16.527344 39.960938 16.527344 C 27.167969 16.527344 16.796875 26.898438 16.796875 39.691406 C 16.796875 52.484375 27.167969 62.855469 39.960938 62.855469 C 52.753906 62.855469 63.121094 52.484375 63.121094 39.691406 Z M 63.121094 39.691406" clip-rule="nonzero"/></clipPath><clipPath id="0af0b14d87"><path d="M 0.796875 0.527344 L 47.121094 0.527344 L 47.121094 46.855469 L 0.796875 46.855469 Z M 0.796875 0.527344" clip-rule="nonzero"/></clipPath><clipPath id="efa1522b37"><path d="M 47.121094 23.691406 C 47.121094 10.898438 36.753906 0.527344 23.960938 0.527344 C 11.167969 0.527344 0.796875 10.898438 0.796875 23.691406 C 0.796875 36.484375 11.167969 46.855469 23.960938 46.855469 C 36.753906 46.855469 47.121094 36.484375 47.121094 23.691406 Z M 47.121094 23.691406" clip-rule="nonzero"/></clipPath><clipPath id="d33dd4be0b"><rect width="48" height="47" x="0" y="0"/></clipPath><clipPath id="3951f58fec"><path d="M 16.800781 16.527344 L 63.121094 16.527344 L 63.121094 62.847656 L 16.800781 62.847656 Z M 16.800781 16.527344" clip-rule="nonzero"/></clipPath><clipPath id="cecc4f2e96"><path d="M 63.121094 39.6875 C 63.121094 26.898438 52.753906 16.527344 39.960938 16.527344 C 27.171875 16.527344 16.800781 26.898438 16.800781 39.6875 C 16.800781 52.480469 27.171875 62.847656 39.960938 62.847656 C 52.753906 62.847656 63.121094 52.480469 63.121094 39.6875 Z M 63.121094 39.6875" clip-rule="nonzero"/></clipPath><clipPath id="8cd567c83c"><path d="M 19.265625 19.253906 L 60.390625 19.253906 L 60.390625 60.382812 L 19.265625 60.382812 Z M 19.265625 19.253906" clip-rule="nonzero"/></clipPath><clipPath id="7f919cdf55"><path d="M 60.390625 39.6875 C 60.390625 28.402344 51.242188 19.253906 39.960938 19.253906 C 28.675781 19.253906 19.53125 28.402344 19.53125 39.6875 C 19.53125 50.96875 28.675781 60.117188 39.960938 60.117188 C 51.242188 60.117188 60.390625 50.96875 60.390625 39.6875 Z M 60.390625 39.6875" clip-rule="nonzero"/></clipPath><clipPath id="c6d248edad"><path d="M 220.878906 390.335938 L 266.222656 390.335938 L 266.222656 435.679688 L 220.878906 435.679688 Z M 220.878906 390.335938" clip-rule="nonzero"/></clipPath><clipPath id="85416025a4"><path d="M 266.222656 413.007812 C 266.222656 400.488281 256.074219 390.335938 243.550781 390.335938 C 231.03125 390.335938 220.878906 400.488281 220.878906 413.007812 C 220.878906 425.53125 231.03125 435.679688 243.550781 435.679688 C 256.074219 435.679688 266.222656 425.53125 266.222656 413.007812 Z M 266.222656 413.007812" clip-rule="nonzero"/></clipPath><clipPath id="a1a084d3f6"><path d="M 0.878906 0.335938 L 46.222656 0.335938 L 46.222656 45.679688 L 0.878906 45.679688 Z M 0.878906 0.335938" clip-rule="nonzero"/></clipPath><clipPath id="58b0dbbc7f"><path d="M 46.222656 23.007812 C 46.222656 10.488281 36.074219 0.335938 23.550781 0.335938 C 11.03125 0.335938 0.878906 10.488281 0.878906 23.007812 C 0.878906 35.53125 11.03125 45.679688 23.550781 45.679688 C 36.074219 45.679688 46.222656 35.53125 46.222656 23.007812 Z M 46.222656 23.007812" clip-rule="nonzero"/></clipPath><clipPath id="3dfd7eb82c"><rect width="47" height="46" x="0" y="0"/></clipPath><clipPath id="0e35c03c19"><path d="M 220.886719 390.335938 L 266.222656 390.335938 L 266.222656 435.675781 L 220.886719 435.675781 Z M 220.886719 390.335938" clip-rule="nonzero"/></clipPath><clipPath id="2b76e91f62"><path d="M 266.222656 413.003906 C 266.222656 400.484375 256.074219 390.335938 243.554688 390.335938 C 231.035156 390.335938 220.886719 400.484375 220.886719 413.003906 C 220.886719 425.527344 231.035156 435.675781 243.554688 435.675781 C 256.074219 435.675781 266.222656 425.527344 266.222656 413.003906 Z M 266.222656 413.003906" clip-rule="nonzero"/></clipPath><clipPath id="380e8ffee6"><path d="M 223.832031 393.261719 L 263.5 393.261719 L 263.5 432.929688 L 223.832031 432.929688 Z M 223.832031 393.261719" clip-rule="nonzero"/></clipPath><clipPath id="9eb3a1d7cf"><path d="M 263.5 413.105469 C 263.5 402.144531 254.617188 393.261719 243.65625 393.261719 C 232.695312 393.261719 223.808594 402.144531 223.808594 413.105469 C 223.808594 424.066406 232.695312 432.953125 243.65625 432.953125 C 254.617188 432.953125 263.5 424.066406 263.5 413.105469 Z M 263.5 413.105469" clip-rule="nonzero"/></clipPath></defs><g clip-path="url(#75d297785e)"><path fill="#fff" fill-opacity="1" fill-rule="nonzero" d="M 0.273438 0 L 283.183594 0 L 283.183594 452.808594 L 0.273438 452.808594 Z M 0.273438 0"/><path fill="#fff" fill-opacity="1" fill-rule="nonzero" d="M 0.273438 0 L 283.183594 0 L 283.183594 452.808594 L 0.273438 452.808594 Z M 0.273438 0"/></g><g clip-path="url(#4aa7eb3d17)"><g><g clip-path="url(#59c14b6d58)" transform="matrix(1, 0, 0, 1, 14, 14)"><g clip-path="url(#8211bd0c91)"><path fill="#d2dbb2" fill-opacity="1" fill-rule="nonzero" d="M 0.417969 0.144531 L 255.003906 0.144531 L 255.003906 424.789062 L 0.417969 424.789062 Z M 0.417969 0.144531"/></g></g></g></g><g clip-path="url(#5d26bb0251)"><path fill="none" stroke="#000" stroke-linecap="butt" stroke-linejoin="miter" stroke-miterlimit="4" stroke-opacity="1" stroke-width="4" d="M 0.000213988 0.000990199 L 340.154953 0.000990199 L 340.154953 566.923815 L 0.000213988 566.923815 Z M 0.000213988 0.000990199" transform="matrix(0.748442, 0, 0, 0.748442, 14.417809, 14.14379)"/></g><g clip-path="url(#da75efd635)"><path fill="none" stroke="#000" stroke-linecap="butt" stroke-linejoin="miter" stroke-miterlimit="4" stroke-opacity="1" stroke-width="4" d="M 0.00122275 0.00213688 L 302.358671 0.00213688 L 302.358671 529.122452 L 0.00122275 529.122452 Z M 0.00122275 0.00213688" transform="matrix(0.748442, 0, 0, 0.748442, 28.561585, 28.287463)"/></g><g clip-path="url(#e2db1fc5df)"><path fill="none" stroke="#000" stroke-linecap="butt" stroke-linejoin="miter" stroke-miterlimit="4" stroke-opacity="1" stroke-width="4" d="M 0.0013113 -0.00155367 L 295.532093 -0.00155367 L 295.532093 522.297329 L 0.0013113 522.297329 Z M 0.0013113 -0.00155367" transform="matrix(0.748441, 0, 0, 0.748441, 31.116206, 30.825382)"/></g><g clip-path="url(#ff8df48d5c)"><path fill="none" stroke="#000" stroke-linecap="butt" stroke-linejoin="miter" stroke-miterlimit="4" stroke-opacity="1" stroke-width="4" d="M 0.00313519 -0.0013337 L 288.169637 -0.0013337 L 288.169637 514.938474 L 0.00313519 514.938474 Z M 0.00313519 -0.0013337" transform="matrix(0.748442, 0, 0, 0.748442, 33.673435, 33.399436)"/></g><g clip-path="url(#0065be3f22)"><path fill="none" stroke="#000" stroke-linecap="butt" stroke-linejoin="miter" stroke-miterlimit="4" stroke-opacity="1" stroke-width="4" d="M 0.00222991 -0.00209242 L 264.562421 -0.00209242 L 264.562421 491.326214 L 0.00222991 491.326214 Z M 0.00222991 -0.00209242" transform="matrix(0.748441, 0, 0, 0.748441, 42.705362, 42.431254)"/></g><g clip-path="url(#b344d7dae5)"><g clip-path="url(#6eecc39d40)"><g><g clip-path="url(#8530b2177b)" transform="matrix(1, 0, 0, 1, 41, 125)"><g clip-path="url(#27482434e0)"><g clip-path="url(#8471cc672f)"><path fill="#d2dbb2" fill-opacity="1" fill-rule="nonzero" d="M 201.128906 0.878906 L 201.128906 201.722656 L 0.289062 201.722656 L 0.289062 0.878906 Z M 201.128906 0.878906"/></g></g></g></g></g></g><g clip-path="url(#cf3cc4a38a)"><g clip-path="url(#d6b31050fb)"><path fill="none" stroke="#000" stroke-linecap="butt" stroke-linejoin="miter" stroke-miterlimit="4" stroke-opacity="1" stroke-width="4" d="M 134.173624 0.00225281 C 60.071723 0.00225281 -0.00102482 60.069782 -0.00102482 134.171683 C -0.00102482 208.273584 60.071723 268.346332 134.173624 268.346332 C 208.275525 268.346332 268.343054 208.273584 268.343054 134.171683 C 268.343054 60.069782 208.275525 0.00225281 134.173624 0.00225281 Z M 134.173624 0.00225281" transform="matrix(0, 0.748441, -0.748441, 0, 242.130592, 125.879673)"/></g></g><g fill="#000" fill-opacity="1"><g><g><path d="M 37.390625 28.5 C 37.160156 31.289062 36.539062 33.804688 35.53125 36.046875 C 34.53125 38.285156 33.21875 40.171875 31.59375 41.703125 C 29.976562 43.242188 28.050781 44.429688 25.8125 45.265625 C 23.582031 46.109375 21.125 46.53125 18.4375 46.53125 C 15.53125 46.53125 12.890625 46.007812 10.515625 44.96875 C 8.140625 43.9375 6.113281 42.484375 4.4375 40.609375 C 2.757812 38.742188 1.457031 36.492188 0.53125 33.859375 C -0.382812 31.234375 -0.84375 28.332031 -0.84375 25.15625 C -0.84375 22.070312 -0.46875 19.273438 0.28125 16.765625 C 1.039062 14.253906 2.132812 12.0625 3.5625 10.1875 C 4.988281 8.3125 6.707031 6.828125 8.71875 5.734375 C 10.726562 4.648438 12.992188 3.992188 15.515625 3.765625 L 15.515625 16.34375 C 13.722656 16.625 12.296875 17.570312 11.234375 19.1875 C 10.171875 20.8125 9.640625 22.800781 9.640625 25.15625 C 9.640625 27.832031 10.4375 29.96875 12.03125 31.5625 C 13.625 33.15625 15.757812 33.953125 18.4375 33.953125 C 21.125 33.953125 23.265625 33.113281 24.859375 31.4375 C 26.453125 29.757812 27.25 27.523438 27.25 24.734375 L 27.25 17.1875 L 38.5625 17.1875 L 45.609375 25.234375 C 46.222656 25.960938 46.804688 26.71875 47.359375 27.5 C 47.921875 28.28125 48.394531 28.976562 48.78125 29.59375 C 49.289062 30.375 49.738281 31.128906 50.125 31.859375 L 50.96875 31.859375 C 50.738281 31.015625 50.570312 30.09375 50.46875 29.09375 C 50.300781 28.25 50.160156 27.253906 50.046875 26.109375 C 49.929688 24.960938 49.875 23.75 49.875 22.46875 L 49.875 6.703125 L 60.359375 6.703125 L 60.359375 44.015625 L 49.046875 44.015625 L 40.328125 33.203125 C 39.484375 32.140625 38.78125 31.078125 38.21875 30.015625 C 37.882812 29.503906 37.609375 29 37.390625 28.5 Z M 37.390625 28.5" transform="translate(111.153331, 176.001865)"/></g></g></g><g fill="#000" fill-opacity="1"><g><g><path d="M 0 3.359375 L 60.359375 3.359375 L 60.359375 17.9375 L 42.078125 24.0625 C 41.460938 24.28125 40.816406 24.445312 40.140625 24.5625 C 39.472656 24.675781 38.863281 24.785156 38.3125 24.890625 C 37.695312 24.953125 37.082031 25.007812 36.46875 25.0625 L 36.46875 25.734375 C 37.082031 25.785156 37.695312 25.867188 38.3125 25.984375 C 38.863281 26.097656 39.472656 26.207031 40.140625 26.3125 C 40.816406 26.425781 41.460938 26.566406 42.078125 26.734375 L 60.359375 32.1875 L 60.359375 46.9375 L 0 46.9375 L 0 35.96875 L 36.890625 35.96875 C 38.453125 35.96875 40.015625 36.035156 41.578125 36.171875 C 43.140625 36.304688 44.566406 36.460938 45.859375 36.640625 C 47.421875 36.804688 48.898438 37 50.296875 37.21875 L 50.296875 36.21875 C 48.953125 35.9375 47.640625 35.679688 46.359375 35.453125 C 45.242188 35.179688 44.082031 34.929688 42.875 34.703125 C 41.675781 34.484375 40.65625 34.234375 39.8125 33.953125 L 26.40625 30.171875 L 26.40625 20.28125 L 39.8125 16.09375 C 40.65625 15.8125 41.660156 15.554688 42.828125 15.328125 C 44.003906 15.109375 45.148438 14.914062 46.265625 14.75 C 47.554688 14.53125 48.898438 14.304688 50.296875 14.078125 L 50.296875 13 C 48.898438 13.21875 47.421875 13.4375 45.859375 13.65625 C 44.566406 13.832031 43.140625 13.988281 41.578125 14.125 C 40.015625 14.257812 38.453125 14.328125 36.890625 14.328125 L 0 14.328125 Z M 0 3.359375" transform="translate(111.153331, 226.297131)"/></g></g></g><g clip-path="url(#622469bce0)"><g clip-path="url(#ef4ceb1b44)"><path fill="none" stroke="#000" stroke-linecap="butt" stroke-linejoin="miter" stroke-miterlimit="4" stroke-opacity="1" stroke-width="2" d="M 130.389062 -0.000171896 C 58.380056 -0.000171896 -0.00167428 58.37634 -0.00167428 130.390564 C -0.00167428 202.404789 58.380056 260.7813 130.389062 260.7813 C 202.403287 260.7813 260.779798 202.404789 260.779798 130.390564 C 260.779798 58.37634 202.403287 -0.000171896 130.389062 -0.000171896 Z M 130.389062 -0.000171896" transform="matrix(0.748442, 0, 0, 0.748442, 43.923128, 128.511847)"/></g></g><g clip-path="url(#38d53eb87c)"><g clip-path="url(#b7e4ff9da6)"><g><g clip-path="url(#d33dd4be0b)" transform="matrix(1, 0, 0, 1, 16, 16)"><g clip-path="url(#0af0b14d87)"><g clip-path="url(#efa1522b37)"><path fill="#d2dbb2" fill-opacity="1" fill-rule="nonzero" d="M 47.121094 0.527344 L 47.121094 46.855469 L 0.796875 46.855469 L 0.796875 0.527344 Z M 47.121094 0.527344"/></g></g></g></g></g></g><g clip-path="url(#3951f58fec)"><g clip-path="url(#cecc4f2e96)"><path fill="none" stroke="#000" stroke-linecap="butt" stroke-linejoin="miter" stroke-miterlimit="4" stroke-opacity="1" stroke-width="4" d="M 30.944513 0.00239596 C 13.856922 0.00239596 0.00000192092 13.854097 0.00000192092 30.946907 C 0.00000192092 48.034499 13.856922 61.891418 30.944513 61.891418 C 48.037324 61.891418 61.889024 48.034499 61.889024 30.946907 C 61.889024 13.854097 48.037324 0.00239596 30.944513 0.00239596 Z M 30.944513 0.00239596" transform="matrix(0, 0.748441, -0.748441, 0, 63.122887, 16.527342)"/></g></g><g fill="#000" fill-opacity="1"><g><g><path d="M 6.234375 4.75 C 6.191406 5.21875 6.085938 5.632812 5.921875 6 C 5.753906 6.375 5.535156 6.6875 5.265625 6.9375 C 4.992188 7.195312 4.671875 7.394531 4.296875 7.53125 C 3.929688 7.675781 3.523438 7.75 3.078125 7.75 C 2.585938 7.75 2.144531 7.660156 1.75 7.484375 C 1.351562 7.316406 1.015625 7.078125 0.734375 6.765625 C 0.460938 6.453125 0.25 6.078125 0.09375 5.640625 C -0.0625 5.203125 -0.140625 4.71875 -0.140625 4.1875 C -0.140625 3.675781 -0.078125 3.210938 0.046875 2.796875 C 0.171875 2.378906 0.351562 2.015625 0.59375 1.703125 C 0.832031 1.390625 1.117188 1.140625 1.453125 0.953125 C 1.785156 0.773438 2.160156 0.664062 2.578125 0.625 L 2.578125 2.71875 C 2.285156 2.769531 2.050781 2.929688 1.875 3.203125 C 1.695312 3.472656 1.609375 3.800781 1.609375 4.1875 C 1.609375 4.632812 1.738281 4.988281 2 5.25 C 2.269531 5.519531 2.628906 5.65625 3.078125 5.65625 C 3.523438 5.65625 3.878906 5.515625 4.140625 5.234375 C 4.410156 4.953125 4.546875 4.582031 4.546875 4.125 L 4.546875 2.859375 L 6.421875 2.859375 L 7.59375 4.203125 C 7.695312 4.328125 7.796875 4.453125 7.890625 4.578125 C 7.984375 4.710938 8.0625 4.832031 8.125 4.9375 C 8.207031 5.0625 8.285156 5.1875 8.359375 5.3125 L 8.5 5.3125 C 8.457031 5.164062 8.425781 5.007812 8.40625 4.84375 C 8.382812 4.707031 8.363281 4.539062 8.34375 4.34375 C 8.320312 4.15625 8.3125 3.957031 8.3125 3.75 L 8.3125 1.125 L 10.0625 1.125 L 10.0625 7.328125 L 8.171875 7.328125 L 6.71875 5.53125 C 6.582031 5.351562 6.46875 5.175781 6.375 5 C 6.3125 4.914062 6.265625 4.832031 6.234375 4.75 Z M 6.234375 4.75" transform="translate(35.430552, 31.297367)"/></g></g></g><g fill="#000" fill-opacity="1"><g><g><path d="M 0 0.5625 L 10.0625 0.5625 L 10.0625 2.984375 L 7.015625 4.015625 C 6.910156 4.046875 6.800781 4.070312 6.6875 4.09375 C 6.570312 4.113281 6.472656 4.132812 6.390625 4.15625 C 6.285156 4.15625 6.179688 4.160156 6.078125 4.171875 L 6.078125 4.28125 C 6.179688 4.289062 6.285156 4.304688 6.390625 4.328125 C 6.472656 4.347656 6.570312 4.367188 6.6875 4.390625 C 6.800781 4.410156 6.910156 4.429688 7.015625 4.453125 L 10.0625 5.359375 L 10.0625 7.828125 L 0 7.828125 L 0 6 L 6.140625 6 C 6.398438 6 6.660156 6.007812 6.921875 6.03125 C 7.179688 6.050781 7.421875 6.078125 7.640625 6.109375 C 7.898438 6.128906 8.144531 6.160156 8.375 6.203125 L 8.375 6.03125 C 8.15625 5.988281 7.9375 5.945312 7.71875 5.90625 C 7.539062 5.863281 7.347656 5.820312 7.140625 5.78125 C 6.941406 5.75 6.773438 5.707031 6.640625 5.65625 L 4.40625 5.03125 L 4.40625 3.375 L 6.640625 2.6875 C 6.773438 2.632812 6.941406 2.585938 7.140625 2.546875 C 7.335938 2.515625 7.523438 2.484375 7.703125 2.453125 C 7.921875 2.421875 8.144531 2.382812 8.375 2.34375 L 8.375 2.171875 C 8.144531 2.203125 7.898438 2.238281 7.640625 2.28125 C 7.421875 2.300781 7.179688 2.320312 6.921875 2.34375 C 6.660156 2.375 6.398438 2.390625 6.140625 2.390625 L 0 2.390625 Z M 0 0.5625" transform="translate(35.430552, 39.675239)"/></g></g></g><g clip-path="url(#8cd567c83c)"><g clip-path="url(#7f919cdf55)"><path fill="none" stroke="#000" stroke-linecap="butt" stroke-linejoin="miter" stroke-miterlimit="4" stroke-opacity="1" stroke-width="2" d="M 27.299357 -0.000985239 C 12.221149 -0.000985239 -0.00216774 12.222332 -0.00216774 27.29532 C -0.00216774 42.373528 12.221149 54.591625 27.299357 54.591625 C 42.372345 54.591625 54.595662 42.373528 54.595662 27.29532 C 54.595662 12.222332 42.372345 -0.000985239 27.299357 -0.000985239 Z M 27.299357 -0.000985239" transform="matrix(0, 0.748441, -0.748441, 0, 60.389888, 19.255529)"/></g></g><g clip-path="url(#c6d248edad)"><g clip-path="url(#85416025a4)"><g><g clip-path="url(#3dfd7eb82c)" transform="matrix(1, 0, 0, 1, 220, 390)"><g clip-path="url(#a1a084d3f6)"><g clip-path="url(#58b0dbbc7f)"><path fill="#d2dbb2" fill-opacity="1" fill-rule="nonzero" d="M 46.222656 0.335938 L 46.222656 45.679688 L 0.878906 45.679688 L 0.878906 0.335938 Z M 46.222656 0.335938"/></g></g></g></g></g></g><g clip-path="url(#0e35c03c19)"><g clip-path="url(#2b76e91f62)"><path fill="none" stroke="#000" stroke-linecap="butt" stroke-linejoin="miter" stroke-miterlimit="4" stroke-opacity="1" stroke-width="4" d="M 30.286683 0.00191943 C 13.559214 0.00191943 -0.000212114 13.561346 -0.000212114 30.288814 C -0.000212114 47.016282 13.559214 60.575709 30.286683 60.575709 C 47.01937 60.575709 60.578796 47.016282 60.578796 30.288814 C 60.578796 13.561346 47.01937 0.00191943 30.286683 0.00191943 Z M 30.286683 0.00191943" transform="matrix(0, 0.748441, -0.748441, 0, 266.224093, 390.336096)"/></g></g><g fill="#000" fill-opacity="1"><g><g><path d="M 6.234375 4.75 C 6.191406 5.21875 6.085938 5.632812 5.921875 6 C 5.753906 6.375 5.535156 6.6875 5.265625 6.9375 C 4.992188 7.195312 4.671875 7.394531 4.296875 7.53125 C 3.929688 7.675781 3.523438 7.75 3.078125 7.75 C 2.585938 7.75 2.144531 7.660156 1.75 7.484375 C 1.351562 7.316406 1.015625 7.078125 0.734375 6.765625 C 0.460938 6.453125 0.25 6.078125 0.09375 5.640625 C -0.0625 5.203125 -0.140625 4.71875 -0.140625 4.1875 C -0.140625 3.675781 -0.078125 3.210938 0.046875 2.796875 C 0.171875 2.378906 0.351562 2.015625 0.59375 1.703125 C 0.832031 1.390625 1.117188 1.140625 1.453125 0.953125 C 1.785156 0.773438 2.160156 0.664062 2.578125 0.625 L 2.578125 2.71875 C 2.285156 2.769531 2.050781 2.929688 1.875 3.203125 C 1.695312 3.472656 1.609375 3.800781 1.609375 4.1875 C 1.609375 4.632812 1.738281 4.988281 2 5.25 C 2.269531 5.519531 2.628906 5.65625 3.078125 5.65625 C 3.523438 5.65625 3.878906 5.515625 4.140625 5.234375 C 4.410156 4.953125 4.546875 4.582031 4.546875 4.125 L 4.546875 2.859375 L 6.421875 2.859375 L 7.59375 4.203125 C 7.695312 4.328125 7.796875 4.453125 7.890625 4.578125 C 7.984375 4.710938 8.0625 4.832031 8.125 4.9375 C 8.207031 5.0625 8.285156 5.1875 8.359375 5.3125 L 8.5 5.3125 C 8.457031 5.164062 8.425781 5.007812 8.40625 4.84375 C 8.382812 4.707031 8.363281 4.539062 8.34375 4.34375 C 8.320312 4.15625 8.3125 3.957031 8.3125 3.75 L 8.3125 1.125 L 10.0625 1.125 L 10.0625 7.328125 L 8.171875 7.328125 L 6.71875 5.53125 C 6.582031 5.351562 6.46875 5.175781 6.375 5 C 6.3125 4.914062 6.265625 4.832031 6.234375 4.75 Z M 6.234375 4.75" transform="translate(239.280199, 404.614957)"/></g></g></g><g fill="#000" fill-opacity="1"><g><g><path d="M 0 0.5625 L 10.0625 0.5625 L 10.0625 2.984375 L 7.015625 4.015625 C 6.910156 4.046875 6.800781 4.070312 6.6875 4.09375 C 6.570312 4.113281 6.472656 4.132812 6.390625 4.15625 C 6.285156 4.15625 6.179688 4.160156 6.078125 4.171875 L 6.078125 4.28125 C 6.179688 4.289062 6.285156 4.304688 6.390625 4.328125 C 6.472656 4.347656 6.570312 4.367188 6.6875 4.390625 C 6.800781 4.410156 6.910156 4.429688 7.015625 4.453125 L 10.0625 5.359375 L 10.0625 7.828125 L 0 7.828125 L 0 6 L 6.140625 6 C 6.398438 6 6.660156 6.007812 6.921875 6.03125 C 7.179688 6.050781 7.421875 6.078125 7.640625 6.109375 C 7.898438 6.128906 8.144531 6.160156 8.375 6.203125 L 8.375 6.03125 C 8.15625 5.988281 7.9375 5.945312 7.71875 5.90625 C 7.539062 5.863281 7.347656 5.820312 7.140625 5.78125 C 6.941406 5.75 6.773438 5.707031 6.640625 5.65625 L 4.40625 5.03125 L 4.40625 3.375 L 6.640625 2.6875 C 6.773438 2.632812 6.941406 2.585938 7.140625 2.546875 C 7.335938 2.515625 7.523438 2.484375 7.703125 2.453125 C 7.921875 2.421875 8.144531 2.382812 8.375 2.34375 L 8.375 2.171875 C 8.144531 2.203125 7.898438 2.238281 7.640625 2.28125 C 7.421875 2.300781 7.179688 2.320312 6.921875 2.34375 C 6.660156 2.375 6.398438 2.390625 6.140625 2.390625 L 0 2.390625 Z M 0 0.5625" transform="translate(239.280199, 412.992828)"/></g></g></g><g clip-path="url(#380e8ffee6)"><g clip-path="url(#9eb3a1d7cf)"><path fill="none" stroke="#000" stroke-linecap="butt" stroke-linejoin="miter" stroke-miterlimit="4" stroke-opacity="1" stroke-width="2" d="M 26.514256 0.000781471 C 11.869241 0.000781471 0.000828025 11.869194 0.000828025 26.51421 C 0.000828025 41.159226 11.869241 53.032857 26.514256 53.032857 C 41.159272 53.032857 53.032904 41.159226 53.032904 26.51421 C 53.032904 11.869194 41.159272 0.000781471 26.514256 0.000781471 Z M 26.514256 0.000781471" transform="matrix(0, 0.748441, -0.748441, 0, 263.500585, 393.261099)"/></g></g></svg>