<svg xmlns="http://www.w3.org/2000/svg" xmlns:xlink="http://www.w3.org/1999/xlink" width="378" height="605" preserveAspectRatio="xMidYMid meet" version="1.0" viewBox="0 0 282.96 461.04" zoomAndPan="magnify"><defs><clipPath id="bb3e321ac9"><path d="M 0.273438 0 L 282.644531 0 L 282.644531 452.808594 L 0.273438 452.808594 Z M 0.273438 0" clip-rule="nonzero"/></clipPath><clipPath id="c91a394fab"><path d="M 14.417969 14.144531 L 269.003906 14.144531 L 269.003906 438.457031 L 14.417969 438.457031 Z M 14.417969 14.144531" clip-rule="nonzero"/></clipPath><clipPath id="358dcb6507"><path d="M 0.417969 0.144531 L 255.003906 0.144531 L 255.003906 424.457031 L 0.417969 424.457031 Z M 0.417969 0.144531" clip-rule="nonzero"/></clipPath><clipPath id="abf6d91493"><rect width="256" height="425" x="0" y="0"/></clipPath><clipPath id="2711b09876"><path d="M 14.417969 14.144531 L 268.886719 14.144531 L 268.886719 438.453125 L 14.417969 438.453125 Z M 14.417969 14.144531" clip-rule="nonzero"/></clipPath><clipPath id="c99e791313"><path d="M 28.5625 28.289062 L 254.589844 28.289062 L 254.589844 424.214844 L 28.5625 424.214844 Z M 28.5625 28.289062" clip-rule="nonzero"/></clipPath><clipPath id="e11187287a"><path d="M 31.117188 30.824219 L 252.304688 30.824219 L 252.304688 421.511719 L 31.117188 421.511719 Z M 31.117188 30.824219" clip-rule="nonzero"/></clipPath><clipPath id="63131536b2"><path d="M 33.675781 33.398438 L 249.222656 33.398438 L 249.222656 418.800781 L 33.675781 418.800781 Z M 33.675781 33.398438" clip-rule="nonzero"/></clipPath><clipPath id="9f38a5b30f"><path d="M 42.707031 42.429688 L 240.714844 42.429688 L 240.714844 409.917969 L 42.707031 409.917969 Z M 42.707031 42.429688" clip-rule="nonzero"/></clipPath><clipPath id="b1d6e112ad"><path d="M 41.289062 125.878906 L 242.128906 125.878906 L 242.128906 326.722656 L 41.289062 326.722656 Z M 41.289062 125.878906" clip-rule="nonzero"/></clipPath><clipPath id="43be98bc33"><path d="M 242.128906 226.300781 C 242.128906 170.839844 197.171875 125.878906 141.710938 125.878906 C 86.25 125.878906 41.289062 170.839844 41.289062 226.300781 C 41.289062 281.761719 86.25 326.722656 141.710938 326.722656 C 197.171875 326.722656 242.128906 281.761719 242.128906 226.300781 Z M 242.128906 226.300781" clip-rule="nonzero"/></clipPath><clipPath id="79cceaafaf"><path d="M 0.289062 0.878906 L 201.128906 0.878906 L 201.128906 201.722656 L 0.289062 201.722656 Z M 0.289062 0.878906" clip-rule="nonzero"/></clipPath><clipPath id="5d77081b79"><path d="M 201.128906 101.300781 C 201.128906 45.839844 156.171875 0.878906 100.710938 0.878906 C 45.25 0.878906 0.289062 45.839844 0.289062 101.300781 C 0.289062 156.761719 45.25 201.722656 100.710938 201.722656 C 156.171875 201.722656 201.128906 156.761719 201.128906 101.300781 Z M 201.128906 101.300781" clip-rule="nonzero"/></clipPath><clipPath id="5e60be893f"><rect width="202" height="202" x="0" y="0"/></clipPath><clipPath id="d19bf53bc4"><path d="M 41.546875 125.878906 L 242.128906 125.878906 L 242.128906 326.460938 L 41.546875 326.460938 Z M 41.546875 125.878906" clip-rule="nonzero"/></clipPath><clipPath id="d518551506"><path d="M 242.128906 226.300781 C 242.128906 170.839844 197.171875 125.878906 141.710938 125.878906 C 86.25 125.878906 41.289062 170.839844 41.289062 226.300781 C 41.289062 281.757812 86.25 326.71875 141.710938 326.71875 C 197.171875 326.71875 242.128906 281.757812 242.128906 226.300781 Z M 242.128906 226.300781" clip-rule="nonzero"/></clipPath><clipPath id="4b665dfbb6"><path d="M 43.921875 128.511719 L 239.265625 128.511719 L 239.265625 323.855469 L 43.921875 323.855469 Z M 43.921875 128.511719" clip-rule="nonzero"/></clipPath><clipPath id="0965bc7d96"><path d="M 141.511719 128.511719 C 87.617188 128.511719 43.921875 172.203125 43.921875 226.101562 C 43.921875 280 87.617188 323.691406 141.511719 323.691406 C 195.410156 323.691406 239.101562 280 239.101562 226.101562 C 239.101562 172.203125 195.410156 128.511719 141.511719 128.511719 Z M 141.511719 128.511719" clip-rule="nonzero"/></clipPath><clipPath id="913058d7df"><path d="M 16.796875 16.527344 L 62.140625 16.527344 L 62.140625 61.871094 L 16.796875 61.871094 Z M 16.796875 16.527344" clip-rule="nonzero"/></clipPath><clipPath id="ad4e6294ce"><path d="M 62.140625 39.199219 C 62.140625 26.679688 51.988281 16.527344 39.46875 16.527344 C 26.945312 16.527344 16.796875 26.679688 16.796875 39.199219 C 16.796875 51.722656 26.945312 61.871094 39.46875 61.871094 C 51.988281 61.871094 62.140625 51.722656 62.140625 39.199219 Z M 62.140625 39.199219" clip-rule="nonzero"/></clipPath><clipPath id="33d0e4aad9"><path d="M 0.796875 0.527344 L 46.140625 0.527344 L 46.140625 45.871094 L 0.796875 45.871094 Z M 0.796875 0.527344" clip-rule="nonzero"/></clipPath><clipPath id="a1a0bad13a"><path d="M 46.140625 23.199219 C 46.140625 10.679688 35.988281 0.527344 23.46875 0.527344 C 10.945312 0.527344 0.796875 10.679688 0.796875 23.199219 C 0.796875 35.722656 10.945312 45.871094 23.46875 45.871094 C 35.988281 45.871094 46.140625 35.722656 46.140625 23.199219 Z M 46.140625 23.199219" clip-rule="nonzero"/></clipPath><clipPath id="6df046cd76"><rect width="47" height="46" x="0" y="0"/></clipPath><clipPath id="07ff97df11"><path d="M 16.800781 16.527344 L 62.140625 16.527344 L 62.140625 61.867188 L 16.800781 61.867188 Z M 16.800781 16.527344" clip-rule="nonzero"/></clipPath><clipPath id="f3fea7da4c"><path d="M 62.140625 39.195312 C 62.140625 26.675781 51.992188 16.527344 39.472656 16.527344 C 26.949219 16.527344 16.800781 26.675781 16.800781 39.195312 C 16.800781 51.71875 26.949219 61.867188 39.472656 61.867188 C 51.992188 61.867188 62.140625 51.71875 62.140625 39.195312 Z M 62.140625 39.195312" clip-rule="nonzero"/></clipPath><clipPath id="93655f7503"><path d="M 19.554688 19.253906 L 59.21875 19.253906 L 59.21875 58.921875 L 19.554688 58.921875 Z M 19.554688 19.253906" clip-rule="nonzero"/></clipPath><clipPath id="8b3f967090"><path d="M 59.21875 39.101562 C 59.21875 28.140625 50.335938 19.253906 39.375 19.253906 C 28.414062 19.253906 19.53125 28.140625 19.53125 39.101562 C 19.53125 50.0625 28.414062 58.945312 39.375 58.945312 C 50.335938 58.945312 59.21875 50.0625 59.21875 39.101562 Z M 59.21875 39.101562" clip-rule="nonzero"/></clipPath><clipPath id="3a93692108"><path d="M 220.089844 389.550781 L 266.222656 389.550781 L 266.222656 435.679688 L 220.089844 435.679688 Z M 220.089844 389.550781" clip-rule="nonzero"/></clipPath><clipPath id="f26ee433b8"><path d="M 266.222656 412.613281 C 266.222656 399.875 255.894531 389.550781 243.15625 389.550781 C 230.417969 389.550781 220.089844 399.875 220.089844 412.613281 C 220.089844 425.355469 230.417969 435.679688 243.15625 435.679688 C 255.894531 435.679688 266.222656 425.355469 266.222656 412.613281 Z M 266.222656 412.613281" clip-rule="nonzero"/></clipPath><clipPath id="243b668e8a"><path d="M 0.0898438 0.550781 L 46.222656 0.550781 L 46.222656 46.679688 L 0.0898438 46.679688 Z M 0.0898438 0.550781" clip-rule="nonzero"/></clipPath><clipPath id="e884932c52"><path d="M 46.222656 23.613281 C 46.222656 10.875 35.894531 0.550781 23.15625 0.550781 C 10.417969 0.550781 0.0898438 10.875 0.0898438 23.613281 C 0.0898438 36.355469 10.417969 46.679688 23.15625 46.679688 C 35.894531 46.679688 46.222656 36.355469 46.222656 23.613281 Z M 46.222656 23.613281" clip-rule="nonzero"/></clipPath><clipPath id="c686a21ca8"><rect width="47" height="47" x="0" y="0"/></clipPath><clipPath id="ab94a36077"><path d="M 220.097656 389.550781 L 266.222656 389.550781 L 266.222656 435.671875 L 220.097656 435.671875 Z M 220.097656 389.550781" clip-rule="nonzero"/></clipPath><clipPath id="9b22c86da2"><path d="M 266.222656 412.609375 C 266.222656 399.875 255.894531 389.550781 243.160156 389.550781 C 230.421875 389.550781 220.097656 399.875 220.097656 412.609375 C 220.097656 425.347656 230.421875 435.671875 243.160156 435.671875 C 255.894531 435.671875 266.222656 425.347656 266.222656 412.609375 Z M 266.222656 412.609375" clip-rule="nonzero"/></clipPath><clipPath id="f03388e932"><path d="M 223.085938 392.277344 L 263.5 392.277344 L 263.5 432.695312 L 223.085938 432.695312 Z M 223.085938 392.277344" clip-rule="nonzero"/></clipPath><clipPath id="9c802ec746"><path d="M 263.5 412.613281 C 263.5 401.382812 254.394531 392.277344 243.164062 392.277344 C 231.933594 392.277344 222.828125 401.382812 222.828125 412.613281 C 222.828125 423.847656 231.933594 432.949219 243.164062 432.949219 C 254.394531 432.949219 263.5 423.847656 263.5 412.613281 Z M 263.5 412.613281" clip-rule="nonzero"/></clipPath></defs><g clip-path="url(#bb3e321ac9)"><path fill="#fff" fill-opacity="1" fill-rule="nonzero" d="M 0.273438 0 L 283.183594 0 L 283.183594 452.808594 L 0.273438 452.808594 Z M 0.273438 0"/><path fill="#fff" fill-opacity="1" fill-rule="nonzero" d="M 0.273438 0 L 283.183594 0 L 283.183594 452.808594 L 0.273438 452.808594 Z M 0.273438 0"/></g><g clip-path="url(#c91a394fab)"><g><g clip-path="url(#abf6d91493)" transform="matrix(1, 0, 0, 1, 14, 14)"><g clip-path="url(#358dcb6507)"><path fill="#bea1f7" fill-opacity="1" fill-rule="nonzero" d="M 0.417969 0.144531 L 255.003906 0.144531 L 255.003906 424.789062 L 0.417969 424.789062 Z M 0.417969 0.144531"/></g></g></g></g><g clip-path="url(#2711b09876)"><path fill="none" stroke="#000" stroke-linecap="butt" stroke-linejoin="miter" stroke-miterlimit="4" stroke-opacity="1" stroke-width="4" d="M 0.000213988 0.00106828 L 340.154953 0.00106828 L 340.154953 566.923893 L 0.000213988 566.923893 Z M 0.000213988 0.00106828" transform="matrix(0.748442, 0, 0, 0.748442, 14.417809, 14.143732)"/></g><g clip-path="url(#c99e791313)"><path fill="none" stroke="#000" stroke-linecap="butt" stroke-linejoin="miter" stroke-miterlimit="4" stroke-opacity="1" stroke-width="4" d="M 0.00122275 0.0019804 L 302.358671 0.0019804 L 302.358671 529.127515 L 0.00122275 529.127515 Z M 0.00122275 0.0019804" transform="matrix(0.748442, 0, 0, 0.748442, 28.561585, 28.28758)"/></g><g clip-path="url(#e11187287a)"><path fill="none" stroke="#000" stroke-linecap="butt" stroke-linejoin="miter" stroke-miterlimit="4" stroke-opacity="1" stroke-width="4" d="M 0.0013113 -0.00147559 L 295.532093 -0.00147559 L 295.532093 522.297407 L 0.0013113 522.297407 Z M 0.0013113 -0.00147559" transform="matrix(0.748441, 0, 0, 0.748441, 31.116206, 30.825323)"/></g><g clip-path="url(#63131536b2)"><path fill="none" stroke="#000" stroke-linecap="butt" stroke-linejoin="miter" stroke-miterlimit="4" stroke-opacity="1" stroke-width="4" d="M 0.00313519 -0.0012553 L 288.169637 -0.0012553 L 288.169637 514.938552 L 0.00313519 514.938552 Z M 0.00313519 -0.0012553" transform="matrix(0.748442, 0, 0, 0.748442, 33.673435, 33.399377)"/></g><g clip-path="url(#9f38a5b30f)"><path fill="none" stroke="#000" stroke-linecap="butt" stroke-linejoin="miter" stroke-miterlimit="4" stroke-opacity="1" stroke-width="4" d="M 0.00222991 -0.00216922 L 264.562421 -0.00216922 L 264.562421 491.326137 L 0.00222991 491.326137 Z M 0.00222991 -0.00216922" transform="matrix(0.748441, 0, 0, 0.748441, 42.705362, 42.431311)"/></g><g clip-path="url(#b1d6e112ad)"><g clip-path="url(#43be98bc33)"><g><g clip-path="url(#5e60be893f)" transform="matrix(1, 0, 0, 1, 41, 125)"><g clip-path="url(#79cceaafaf)"><g clip-path="url(#5d77081b79)"><path fill="#bea1f7" fill-opacity="1" fill-rule="nonzero" d="M 201.128906 0.878906 L 201.128906 201.722656 L 0.289062 201.722656 L 0.289062 0.878906 Z M 201.128906 0.878906"/></g></g></g></g></g></g><g clip-path="url(#d19bf53bc4)"><g clip-path="url(#d518551506)"><path fill="none" stroke="#000" stroke-linecap="butt" stroke-linejoin="miter" stroke-miterlimit="4" stroke-opacity="1" stroke-width="4" d="M 134.173781 0.00225281 C 60.07188 0.00225281 -0.000868023 60.069782 -0.000868023 134.171683 C -0.000868023 208.273584 60.07188 268.346332 134.173781 268.346332 C 208.270463 268.346332 268.343211 208.273584 268.343211 134.171683 C 268.343211 60.069782 208.270463 0.00225281 134.173781 0.00225281 Z M 134.173781 0.00225281" transform="matrix(0, 0.748441, -0.748441, 0, 242.130592, 125.879556)"/></g></g><g fill="#000" fill-opacity="1"><g><g><path d="M 38.890625 29.921875 C 38.890625 32.441406 38.46875 34.75 37.625 36.84375 C 36.789062 38.9375 35.59375 40.722656 34.03125 42.203125 C 32.46875 43.679688 30.582031 44.835938 28.375 45.671875 C 26.164062 46.515625 23.691406 46.9375 20.953125 46.9375 L 18.015625 46.9375 C 15.109375 46.9375 12.492188 46.429688 10.171875 45.421875 C 7.859375 44.421875 5.890625 42.984375 4.265625 41.109375 C 2.648438 39.242188 1.394531 36.984375 0.5 34.328125 C -0.394531 31.671875 -0.84375 28.722656 -0.84375 25.484375 C -0.84375 22.578125 -0.476562 19.894531 0.25 17.4375 C 0.976562 14.976562 2.007812 12.828125 3.34375 10.984375 C 4.6875 9.140625 6.320312 7.628906 8.25 6.453125 C 10.1875 5.273438 12.328125 4.519531 14.671875 4.1875 L 14.671875 16.765625 C 13.160156 17.265625 11.941406 18.3125 11.015625 19.90625 C 10.097656 21.5 9.640625 23.359375 9.640625 25.484375 C 9.640625 28.160156 10.40625 30.3125 11.9375 31.9375 C 13.476562 33.5625 15.503906 34.375 18.015625 34.375 L 20.953125 34.375 C 23.472656 34.375 25.5 33.5625 27.03125 31.9375 C 28.570312 30.3125 29.34375 28.160156 29.34375 25.484375 C 29.34375 23.804688 29.117188 22.320312 28.671875 21.03125 C 28.222656 19.75 27.609375 18.773438 26.828125 18.109375 L 26.828125 5.953125 L 60.359375 6.375 L 60.359375 44.6875 L 49.453125 44.6875 L 49.453125 18.28125 L 32.609375 17.9375 L 32.609375 18.28125 C 33.785156 18.78125 34.847656 19.53125 35.796875 20.53125 C 36.578125 21.375 37.285156 22.550781 37.921875 24.0625 C 38.566406 25.570312 38.890625 27.523438 38.890625 29.921875 Z M 38.890625 29.921875" transform="translate(111.153331, 176.001747)"/></g></g></g><g fill="#000" fill-opacity="1"><g><g><path d="M 0 3.359375 L 60.359375 3.359375 L 60.359375 17.9375 L 42.078125 24.0625 C 41.460938 24.28125 40.816406 24.445312 40.140625 24.5625 C 39.472656 24.675781 38.863281 24.785156 38.3125 24.890625 C 37.695312 24.953125 37.082031 25.007812 36.46875 25.0625 L 36.46875 25.734375 C 37.082031 25.785156 37.695312 25.867188 38.3125 25.984375 C 38.863281 26.097656 39.472656 26.207031 40.140625 26.3125 C 40.816406 26.425781 41.460938 26.566406 42.078125 26.734375 L 60.359375 32.1875 L 60.359375 46.9375 L 0 46.9375 L 0 35.96875 L 36.890625 35.96875 C 38.453125 35.96875 40.015625 36.035156 41.578125 36.171875 C 43.140625 36.304688 44.566406 36.460938 45.859375 36.640625 C 47.421875 36.804688 48.898438 37 50.296875 37.21875 L 50.296875 36.21875 C 48.953125 35.9375 47.640625 35.679688 46.359375 35.453125 C 45.242188 35.179688 44.082031 34.929688 42.875 34.703125 C 41.675781 34.484375 40.65625 34.234375 39.8125 33.953125 L 26.40625 30.171875 L 26.40625 20.28125 L 39.8125 16.09375 C 40.65625 15.8125 41.660156 15.554688 42.828125 15.328125 C 44.003906 15.109375 45.148438 14.914062 46.265625 14.75 C 47.554688 14.53125 48.898438 14.304688 50.296875 14.078125 L 50.296875 13 C 48.898438 13.21875 47.421875 13.4375 45.859375 13.65625 C 44.566406 13.832031 43.140625 13.988281 41.578125 14.125 C 40.015625 14.257812 38.453125 14.328125 36.890625 14.328125 L 0 14.328125 Z M 0 3.359375" transform="translate(111.153331, 226.297013)"/></g></g></g><g clip-path="url(#4b665dfbb6)"><g clip-path="url(#0965bc7d96)"><path fill="none" stroke="#000" stroke-linecap="butt" stroke-linejoin="miter" stroke-miterlimit="4" stroke-opacity="1" stroke-width="2" d="M 130.389062 -0.0000182958 C 58.380056 -0.0000182958 -0.00167428 58.376493 -0.00167428 130.390718 C -0.00167428 202.404943 58.380056 260.781454 130.389062 260.781454 C 202.403287 260.781454 260.779798 202.404943 260.779798 130.390718 C 260.779798 58.376493 202.403287 -0.0000182958 130.389062 -0.0000182958 Z M 130.389062 -0.0000182958" transform="matrix(0.748442, 0, 0, 0.748442, 43.923128, 128.511732)"/></g></g><g clip-path="url(#913058d7df)"><g clip-path="url(#ad4e6294ce)"><g><g clip-path="url(#6df046cd76)" transform="matrix(1, 0, 0, 1, 16, 16)"><g clip-path="url(#33d0e4aad9)"><g clip-path="url(#a1a0bad13a)"><path fill="#bea1f7" fill-opacity="1" fill-rule="nonzero" d="M 46.140625 0.527344 L 46.140625 45.871094 L 0.796875 45.871094 L 0.796875 0.527344 Z M 46.140625 0.527344"/></g></g></g></g></g></g><g clip-path="url(#07ff97df11)"><g clip-path="url(#f3fea7da4c)"><path fill="none" stroke="#000" stroke-linecap="butt" stroke-linejoin="miter" stroke-miterlimit="4" stroke-opacity="1" stroke-width="4" d="M 30.286819 -0.0000925514 C 13.55935 -0.0000925514 -0.0000761591 13.559334 -0.0000761591 30.286802 C -0.0000761591 47.019489 13.55935 60.578916 30.286819 60.578916 C 47.019506 60.578916 60.578932 47.019489 60.578932 30.286802 C 60.578932 13.559334 47.019506 -0.0000925514 30.286819 -0.0000925514 Z M 30.286819 -0.0000925514" transform="matrix(0, 0.748441, -0.748441, 0, 62.140556, 16.527401)"/></g></g><g fill="#000" fill-opacity="1"><g><g><path d="M 6.484375 4.984375 C 6.484375 5.398438 6.410156 5.78125 6.265625 6.125 C 6.128906 6.476562 5.929688 6.78125 5.671875 7.03125 C 5.410156 7.28125 5.09375 7.472656 4.71875 7.609375 C 4.351562 7.753906 3.941406 7.828125 3.484375 7.828125 L 3 7.828125 C 2.519531 7.828125 2.085938 7.738281 1.703125 7.5625 C 1.316406 7.394531 0.988281 7.15625 0.71875 6.84375 C 0.445312 6.539062 0.234375 6.164062 0.078125 5.71875 C -0.0664062 5.28125 -0.140625 4.789062 -0.140625 4.25 C -0.140625 3.757812 -0.0820312 3.3125 0.03125 2.90625 C 0.15625 2.5 0.328125 2.140625 0.546875 1.828125 C 0.773438 1.523438 1.050781 1.273438 1.375 1.078125 C 1.695312 0.878906 2.050781 0.753906 2.4375 0.703125 L 2.4375 2.796875 C 2.1875 2.878906 1.984375 3.050781 1.828125 3.3125 C 1.679688 3.582031 1.609375 3.894531 1.609375 4.25 C 1.609375 4.695312 1.734375 5.054688 1.984375 5.328125 C 2.242188 5.597656 2.582031 5.734375 3 5.734375 L 3.484375 5.734375 C 3.910156 5.734375 4.25 5.597656 4.5 5.328125 C 4.757812 5.054688 4.890625 4.695312 4.890625 4.25 C 4.890625 3.96875 4.851562 3.71875 4.78125 3.5 C 4.707031 3.289062 4.601562 3.128906 4.46875 3.015625 L 4.46875 0.984375 L 10.0625 1.0625 L 10.0625 7.453125 L 8.234375 7.453125 L 8.234375 3.046875 L 5.4375 2.984375 L 5.4375 3.046875 C 5.632812 3.128906 5.8125 3.253906 5.96875 3.421875 C 6.09375 3.554688 6.207031 3.75 6.3125 4 C 6.425781 4.257812 6.484375 4.585938 6.484375 4.984375 Z M 6.484375 4.984375" transform="translate(35.196662, 30.806261)"/></g></g></g><g fill="#000" fill-opacity="1"><g><g><path d="M 0 0.5625 L 10.0625 0.5625 L 10.0625 2.984375 L 7.015625 4.015625 C 6.910156 4.046875 6.800781 4.070312 6.6875 4.09375 C 6.570312 4.113281 6.472656 4.132812 6.390625 4.15625 C 6.285156 4.15625 6.179688 4.160156 6.078125 4.171875 L 6.078125 4.28125 C 6.179688 4.289062 6.285156 4.304688 6.390625 4.328125 C 6.472656 4.347656 6.570312 4.367188 6.6875 4.390625 C 6.800781 4.410156 6.910156 4.429688 7.015625 4.453125 L 10.0625 5.359375 L 10.0625 7.828125 L 0 7.828125 L 0 6 L 6.140625 6 C 6.398438 6 6.660156 6.007812 6.921875 6.03125 C 7.179688 6.050781 7.421875 6.078125 7.640625 6.109375 C 7.898438 6.128906 8.144531 6.160156 8.375 6.203125 L 8.375 6.03125 C 8.15625 5.988281 7.9375 5.945312 7.71875 5.90625 C 7.539062 5.863281 7.347656 5.820312 7.140625 5.78125 C 6.941406 5.75 6.773438 5.707031 6.640625 5.65625 L 4.40625 5.03125 L 4.40625 3.375 L 6.640625 2.6875 C 6.773438 2.632812 6.941406 2.585938 7.140625 2.546875 C 7.335938 2.515625 7.523438 2.484375 7.703125 2.453125 C 7.921875 2.421875 8.144531 2.382812 8.375 2.34375 L 8.375 2.171875 C 8.144531 2.203125 7.898438 2.238281 7.640625 2.28125 C 7.421875 2.300781 7.179688 2.320312 6.921875 2.34375 C 6.660156 2.375 6.398438 2.390625 6.140625 2.390625 L 0 2.390625 Z M 0 0.5625" transform="translate(35.196662, 39.184133)"/></g></g></g><g clip-path="url(#93655f7503)"><g clip-path="url(#8b3f967090)"><path fill="none" stroke="#000" stroke-linecap="butt" stroke-linejoin="miter" stroke-miterlimit="4" stroke-opacity="1" stroke-width="2" d="M 26.516324 0.00226921 C 11.871308 0.00226921 -0.0023239 11.870682 -0.0023239 26.515698 C -0.0023239 41.160713 11.871308 53.029126 26.516324 53.029126 C 41.161339 53.029126 53.029752 41.160713 53.029752 26.515698 C 53.029752 11.870682 41.161339 0.00226921 26.516324 0.00226921 Z M 26.516324 0.00226921" transform="matrix(0, 0.748441, -0.748441, 0, 59.220448, 19.255646)"/></g></g><g clip-path="url(#3a93692108)"><g clip-path="url(#f26ee433b8)"><g><g clip-path="url(#c686a21ca8)" transform="matrix(1, 0, 0, 1, 220, 389)"><g clip-path="url(#243b668e8a)"><g clip-path="url(#e884932c52)"><path fill="#bea1f7" fill-opacity="1" fill-rule="nonzero" d="M 46.222656 0.550781 L 46.222656 46.679688 L 0.0898438 46.679688 L 0.0898438 0.550781 Z M 46.222656 0.550781"/></g></g></g></g></g></g><g clip-path="url(#ab94a36077)"><g clip-path="url(#9b22c86da2)"><path fill="none" stroke="#000" stroke-linecap="butt" stroke-linejoin="miter" stroke-miterlimit="4" stroke-opacity="1" stroke-width="4" d="M 30.81017 -0.00198777 C 13.795647 -0.00198777 0.00135694 13.797521 0.00135694 30.812044 C 0.00135694 47.831786 13.795647 61.626076 30.81017 61.626076 C 47.829912 61.626076 61.624201 47.831786 61.624201 30.812044 C 61.624201 13.797521 47.829912 -0.00198777 30.81017 -0.00198777 Z M 30.81017 -0.00198777" transform="matrix(0, 0.748441, -0.748441, 0, 266.221169, 389.549766)"/></g></g><g fill="#000" fill-opacity="1"><g><g><path d="M 6.484375 4.984375 C 6.484375 5.398438 6.410156 5.78125 6.265625 6.125 C 6.128906 6.476562 5.929688 6.78125 5.671875 7.03125 C 5.410156 7.28125 5.09375 7.472656 4.71875 7.609375 C 4.351562 7.753906 3.941406 7.828125 3.484375 7.828125 L 3 7.828125 C 2.519531 7.828125 2.085938 7.738281 1.703125 7.5625 C 1.316406 7.394531 0.988281 7.15625 0.71875 6.84375 C 0.445312 6.539062 0.234375 6.164062 0.078125 5.71875 C -0.0664062 5.28125 -0.140625 4.789062 -0.140625 4.25 C -0.140625 3.757812 -0.0820312 3.3125 0.03125 2.90625 C 0.15625 2.5 0.328125 2.140625 0.546875 1.828125 C 0.773438 1.523438 1.050781 1.273438 1.375 1.078125 C 1.695312 0.878906 2.050781 0.753906 2.4375 0.703125 L 2.4375 2.796875 C 2.1875 2.878906 1.984375 3.050781 1.828125 3.3125 C 1.679688 3.582031 1.609375 3.894531 1.609375 4.25 C 1.609375 4.695312 1.734375 5.054688 1.984375 5.328125 C 2.242188 5.597656 2.582031 5.734375 3 5.734375 L 3.484375 5.734375 C 3.910156 5.734375 4.25 5.597656 4.5 5.328125 C 4.757812 5.054688 4.890625 4.695312 4.890625 4.25 C 4.890625 3.96875 4.851562 3.71875 4.78125 3.5 C 4.707031 3.289062 4.601562 3.128906 4.46875 3.015625 L 4.46875 0.984375 L 10.0625 1.0625 L 10.0625 7.453125 L 8.234375 7.453125 L 8.234375 3.046875 L 5.4375 2.984375 L 5.4375 3.046875 C 5.632812 3.128906 5.8125 3.253906 5.96875 3.421875 C 6.09375 3.554688 6.207031 3.75 6.3125 4 C 6.425781 4.257812 6.484375 4.585938 6.484375 4.984375 Z M 6.484375 4.984375" transform="translate(238.528833, 404.226236)"/></g></g></g><g fill="#000" fill-opacity="1"><g><g><path d="M 0 0.5625 L 10.0625 0.5625 L 10.0625 2.984375 L 7.015625 4.015625 C 6.910156 4.046875 6.800781 4.070312 6.6875 4.09375 C 6.570312 4.113281 6.472656 4.132812 6.390625 4.15625 C 6.285156 4.15625 6.179688 4.160156 6.078125 4.171875 L 6.078125 4.28125 C 6.179688 4.289062 6.285156 4.304688 6.390625 4.328125 C 6.472656 4.347656 6.570312 4.367188 6.6875 4.390625 C 6.800781 4.410156 6.910156 4.429688 7.015625 4.453125 L 10.0625 5.359375 L 10.0625 7.828125 L 0 7.828125 L 0 6 L 6.140625 6 C 6.398438 6 6.660156 6.007812 6.921875 6.03125 C 7.179688 6.050781 7.421875 6.078125 7.640625 6.109375 C 7.898438 6.128906 8.144531 6.160156 8.375 6.203125 L 8.375 6.03125 C 8.15625 5.988281 7.9375 5.945312 7.71875 5.90625 C 7.539062 5.863281 7.347656 5.820312 7.140625 5.78125 C 6.941406 5.75 6.773438 5.707031 6.640625 5.65625 L 4.40625 5.03125 L 4.40625 3.375 L 6.640625 2.6875 C 6.773438 2.632812 6.941406 2.585938 7.140625 2.546875 C 7.335938 2.515625 7.523438 2.484375 7.703125 2.453125 C 7.921875 2.421875 8.144531 2.382812 8.375 2.34375 L 8.375 2.171875 C 8.144531 2.203125 7.898438 2.238281 7.640625 2.28125 C 7.421875 2.300781 7.179688 2.320312 6.921875 2.34375 C 6.660156 2.375 6.398438 2.390625 6.140625 2.390625 L 0 2.390625 Z M 0 0.5625" transform="translate(238.528833, 412.604107)"/></g></g></g><g clip-path="url(#f03388e932)"><g clip-path="url(#9c802ec746)"><path fill="none" stroke="#000" stroke-linecap="butt" stroke-linejoin="miter" stroke-miterlimit="4" stroke-opacity="1" stroke-width="2" d="M 27.170234 -0.000194529 C 12.165094 -0.000194529 -0.000811439 12.165711 -0.000811439 27.17085 C -0.000811439 42.17599 12.165094 54.341895 27.170234 54.341895 C 42.180592 54.341895 54.341278 42.17599 54.341278 27.17085 C 54.341278 12.165711 42.180592 -0.000194529 27.170234 -0.000194529 Z M 27.170234 -0.000194529" transform="matrix(0, 0.748441, -0.748441, 0, 263.499854, 392.277951)"/></g></g></svg>