<svg xmlns="http://www.w3.org/2000/svg" xmlns:xlink="http://www.w3.org/1999/xlink" width="378" zoomAndPan="magnify" viewBox="0 0 282.96 461.03998" height="605" preserveAspectRatio="xMidYMid meet" version="1.0"><defs><g/><clipPath id="fc4b0b775e"><path d="M 0.273438 0 L 282.644531 0 L 282.644531 452.808594 L 0.273438 452.808594 Z M 0.273438 0 " clip-rule="nonzero"/></clipPath><clipPath id="a9ed337171"><path d="M 14.417969 14.144531 L 269.003906 14.144531 L 269.003906 438.457031 L 14.417969 438.457031 Z M 14.417969 14.144531 " clip-rule="nonzero"/></clipPath><clipPath id="c793b06432"><path d="M 0.417969 0.144531 L 255.003906 0.144531 L 255.003906 424.457031 L 0.417969 424.457031 Z M 0.417969 0.144531 " clip-rule="nonzero"/></clipPath><clipPath id="532529885f"><rect x="0" width="256" y="0" height="425"/></clipPath><clipPath id="4b6738df48"><path d="M 14.417969 14.144531 L 268.886719 14.144531 L 268.886719 438.453125 L 14.417969 438.453125 Z M 14.417969 14.144531 " clip-rule="nonzero"/></clipPath><clipPath id="3f13aff18a"><path d="M 28.5625 28.289062 L 254.589844 28.289062 L 254.589844 424.214844 L 28.5625 424.214844 Z M 28.5625 28.289062 " clip-rule="nonzero"/></clipPath><clipPath id="588df6d7cb"><path d="M 31.117188 30.824219 L 252.304688 30.824219 L 252.304688 421.511719 L 31.117188 421.511719 Z M 31.117188 30.824219 " clip-rule="nonzero"/></clipPath><clipPath id="74380ca3d4"><path d="M 33.675781 33.398438 L 249.222656 33.398438 L 249.222656 418.800781 L 33.675781 418.800781 Z M 33.675781 33.398438 " clip-rule="nonzero"/></clipPath><clipPath id="4851317aa7"><path d="M 42.707031 42.429688 L 240.714844 42.429688 L 240.714844 409.917969 L 42.707031 409.917969 Z M 42.707031 42.429688 " clip-rule="nonzero"/></clipPath><clipPath id="d8011f6ebe"><path d="M 41.289062 125.878906 L 242.128906 125.878906 L 242.128906 326.722656 L 41.289062 326.722656 Z M 41.289062 125.878906 " clip-rule="nonzero"/></clipPath><clipPath id="1cf851fcc8"><path d="M 242.128906 226.300781 C 242.128906 170.839844 197.171875 125.878906 141.710938 125.878906 C 86.25 125.878906 41.289062 170.839844 41.289062 226.300781 C 41.289062 281.761719 86.25 326.722656 141.710938 326.722656 C 197.171875 326.722656 242.128906 281.761719 242.128906 226.300781 Z M 242.128906 226.300781 " clip-rule="nonzero"/></clipPath><clipPath id="eb1f09a157"><path d="M 0.289062 0.878906 L 201.128906 0.878906 L 201.128906 201.722656 L 0.289062 201.722656 Z M 0.289062 0.878906 " clip-rule="nonzero"/></clipPath><clipPath id="2e9309b5c6"><path d="M 201.128906 101.300781 C 201.128906 45.839844 156.171875 0.878906 100.710938 0.878906 C 45.25 0.878906 0.289062 45.839844 0.289062 101.300781 C 0.289062 156.761719 45.25 201.722656 100.710938 201.722656 C 156.171875 201.722656 201.128906 156.761719 201.128906 101.300781 Z M 201.128906 101.300781 " clip-rule="nonzero"/></clipPath><clipPath id="03131167d6"><rect x="0" width="202" y="0" height="202"/></clipPath><clipPath id="5296f4b66d"><path d="M 41.546875 125.878906 L 242.128906 125.878906 L 242.128906 326.460938 L 41.546875 326.460938 Z M 41.546875 125.878906 " clip-rule="nonzero"/></clipPath><clipPath id="1e9dc8822d"><path d="M 242.128906 226.300781 C 242.128906 170.839844 197.171875 125.878906 141.710938 125.878906 C 86.25 125.878906 41.289062 170.839844 41.289062 226.300781 C 41.289062 281.757812 86.25 326.71875 141.710938 326.71875 C 197.171875 326.71875 242.128906 281.757812 242.128906 226.300781 Z M 242.128906 226.300781 " clip-rule="nonzero"/></clipPath><clipPath id="b32baf9b57"><path d="M 43.921875 128.511719 L 239.265625 128.511719 L 239.265625 323.855469 L 43.921875 323.855469 Z M 43.921875 128.511719 " clip-rule="nonzero"/></clipPath><clipPath id="4f183d9741"><path d="M 141.511719 128.511719 C 87.617188 128.511719 43.921875 172.203125 43.921875 226.101562 C 43.921875 280 87.617188 323.691406 141.511719 323.691406 C 195.410156 323.691406 239.101562 280 239.101562 226.101562 C 239.101562 172.203125 195.410156 128.511719 141.511719 128.511719 Z M 141.511719 128.511719 " clip-rule="nonzero"/></clipPath><clipPath id="0187d2de71"><path d="M 16.792969 16.527344 L 62.726562 16.527344 L 62.726562 62.460938 L 16.792969 62.460938 Z M 16.792969 16.527344 " clip-rule="nonzero"/></clipPath><clipPath id="6d400ce09a"><path d="M 62.726562 39.496094 C 62.726562 26.808594 52.441406 16.527344 39.757812 16.527344 C 27.074219 16.527344 16.792969 26.808594 16.792969 39.496094 C 16.792969 52.179688 27.074219 62.460938 39.757812 62.460938 C 52.441406 62.460938 62.726562 52.179688 62.726562 39.496094 Z M 62.726562 39.496094 " clip-rule="nonzero"/></clipPath><clipPath id="bb3c6488e7"><path d="M 0.792969 0.527344 L 46.726562 0.527344 L 46.726562 46.460938 L 0.792969 46.460938 Z M 0.792969 0.527344 " clip-rule="nonzero"/></clipPath><clipPath id="1408126f18"><path d="M 46.726562 23.496094 C 46.726562 10.808594 36.441406 0.527344 23.757812 0.527344 C 11.074219 0.527344 0.792969 10.808594 0.792969 23.496094 C 0.792969 36.179688 11.074219 46.460938 23.757812 46.460938 C 36.441406 46.460938 46.726562 36.179688 46.726562 23.496094 Z M 46.726562 23.496094 " clip-rule="nonzero"/></clipPath><clipPath id="1a1d05db0c"><rect x="0" width="47" y="0" height="47"/></clipPath><clipPath id="410ebac269"><path d="M 17.070312 16.527344 L 62.726562 16.527344 L 62.726562 62.183594 L 17.070312 62.183594 Z M 17.070312 16.527344 " clip-rule="nonzero"/></clipPath><clipPath id="4a71fd0127"><path d="M 62.726562 39.488281 C 62.726562 26.808594 52.445312 16.527344 39.761719 16.527344 C 27.082031 16.527344 16.800781 26.808594 16.800781 39.488281 C 16.800781 52.171875 27.082031 62.453125 39.761719 62.453125 C 52.445312 62.453125 62.726562 52.171875 62.726562 39.488281 Z M 62.726562 39.488281 " clip-rule="nonzero"/></clipPath><clipPath id="14b689a9aa"><path d="M 19.390625 19.253906 L 59.804688 19.253906 L 59.804688 59.671875 L 19.390625 59.671875 Z M 19.390625 19.253906 " clip-rule="nonzero"/></clipPath><clipPath id="ac4a423d29"><path d="M 59.804688 39.394531 C 59.804688 28.273438 50.789062 19.253906 39.667969 19.253906 C 28.546875 19.253906 19.53125 28.273438 19.53125 39.394531 C 19.53125 50.515625 28.546875 59.53125 39.667969 59.53125 C 50.789062 59.53125 59.804688 50.515625 59.804688 39.394531 Z M 59.804688 39.394531 " clip-rule="nonzero"/></clipPath><clipPath id="3209353dab"><path d="M 220.6875 390.140625 L 266.226562 390.140625 L 266.226562 435.679688 L 220.6875 435.679688 Z M 220.6875 390.140625 " clip-rule="nonzero"/></clipPath><clipPath id="935f87b42e"><path d="M 266.226562 412.910156 C 266.226562 400.335938 256.03125 390.140625 243.457031 390.140625 C 230.878906 390.140625 220.6875 400.335938 220.6875 412.910156 C 220.6875 425.484375 230.878906 435.679688 243.457031 435.679688 C 256.03125 435.679688 266.226562 425.484375 266.226562 412.910156 Z M 266.226562 412.910156 " clip-rule="nonzero"/></clipPath><clipPath id="ec71c731bf"><path d="M 0.6875 0.140625 L 46.226562 0.140625 L 46.226562 45.679688 L 0.6875 45.679688 Z M 0.6875 0.140625 " clip-rule="nonzero"/></clipPath><clipPath id="590cc8caf3"><path d="M 46.226562 22.910156 C 46.226562 10.335938 36.03125 0.140625 23.457031 0.140625 C 10.878906 0.140625 0.6875 10.335938 0.6875 22.910156 C 0.6875 35.484375 10.878906 45.679688 23.457031 45.679688 C 36.03125 45.679688 46.226562 35.484375 46.226562 22.910156 Z M 46.226562 22.910156 " clip-rule="nonzero"/></clipPath><clipPath id="5495a314a3"><rect x="0" width="47" y="0" height="46"/></clipPath><clipPath id="8c92c9695a"><path d="M 220.6875 390.140625 L 266.226562 390.140625 L 266.226562 435.675781 L 220.6875 435.675781 Z M 220.6875 390.140625 " clip-rule="nonzero"/></clipPath><clipPath id="ee405e50d6"><path d="M 266.226562 412.910156 C 266.226562 400.332031 256.03125 390.140625 243.457031 390.140625 C 230.882812 390.140625 220.6875 400.332031 220.6875 412.910156 C 220.6875 425.484375 230.882812 435.675781 243.457031 435.675781 C 256.03125 435.675781 266.226562 425.484375 266.226562 412.910156 Z M 266.226562 412.910156 " clip-rule="nonzero"/></clipPath><clipPath id="6f39c8eee3"><path d="M 223.15625 392.867188 L 263.492188 392.867188 L 263.492188 433 L 223.15625 433 Z M 223.15625 392.867188 " clip-rule="nonzero"/></clipPath><clipPath id="33e80fdbee"><path d="M 263.492188 412.90625 C 263.492188 401.839844 254.523438 392.867188 243.453125 392.867188 C 232.386719 392.867188 223.417969 401.839844 223.417969 412.90625 C 223.417969 423.972656 232.386719 432.945312 243.453125 432.945312 C 254.523438 432.945312 263.492188 423.972656 263.492188 412.90625 Z M 263.492188 412.90625 " clip-rule="nonzero"/></clipPath></defs><g clip-path="url(#fc4b0b775e)"><path fill="#ffffff" d="M 0.273438 0 L 283.183594 0 L 283.183594 452.808594 L 0.273438 452.808594 Z M 0.273438 0 " fill-opacity="1" fill-rule="nonzero"/><path fill="#ffffff" d="M 0.273438 0 L 283.183594 0 L 283.183594 452.808594 L 0.273438 452.808594 Z M 0.273438 0 " fill-opacity="1" fill-rule="nonzero"/></g><g clip-path="url(#a9ed337171)"><g transform="matrix(1, 0, 0, 1, 14, 14)"><g clip-path="url(#532529885f)"><g clip-path="url(#c793b06432)"><path fill="#ffd9c2" d="M 0.417969 0.144531 L 255.003906 0.144531 L 255.003906 424.789062 L 0.417969 424.789062 Z M 0.417969 0.144531 " fill-opacity="1" fill-rule="nonzero"/></g></g></g></g><g clip-path="url(#4b6738df48)"><path stroke-linecap="butt" transform="matrix(0.748442, 0, 0, 0.748442, 14.417809, 14.143776)" fill="none" stroke-linejoin="miter" d="M 0.000213988 0.00100844 L 340.154953 0.00100844 L 340.154953 566.923833 L 0.000213988 566.923833 Z M 0.000213988 0.00100844 " stroke="#000000" stroke-width="4" stroke-opacity="1" stroke-miterlimit="4"/></g><g clip-path="url(#3f13aff18a)"><path stroke-linecap="butt" transform="matrix(0.748442, 0, 0, 0.748442, 28.561585, 28.287553)" fill="none" stroke-linejoin="miter" d="M 0.00122275 0.0020172 L 302.358671 0.0020172 L 302.358671 529.127552 L 0.00122275 529.127552 Z M 0.00122275 0.0020172 " stroke="#000000" stroke-width="4" stroke-opacity="1" stroke-miterlimit="4"/></g><g clip-path="url(#588df6d7cb)"><path stroke-linecap="butt" transform="matrix(0.748441, 0, 0, 0.748441, 31.116206, 30.825349)" fill="none" stroke-linejoin="miter" d="M 0.0013113 -0.00150983 L 295.532093 -0.00150983 L 295.532093 522.297373 L 0.0013113 522.297373 Z M 0.0013113 -0.00150983 " stroke="#000000" stroke-width="4" stroke-opacity="1" stroke-miterlimit="4"/></g><g clip-path="url(#74380ca3d4)"><path stroke-linecap="butt" transform="matrix(0.748442, 0, 0, 0.748442, 33.673435, 33.399403)" fill="none" stroke-linejoin="miter" d="M 0.00313519 -0.00128954 L 288.169637 -0.00128954 L 288.169637 514.938518 L 0.00313519 514.938518 Z M 0.00313519 -0.00128954 " stroke="#000000" stroke-width="4" stroke-opacity="1" stroke-miterlimit="4"/></g><g clip-path="url(#4851317aa7)"><path stroke-linecap="butt" transform="matrix(0.748441, 0, 0, 0.748441, 42.705362, 42.43133)" fill="none" stroke-linejoin="miter" d="M 0.00222991 -0.00219482 L 264.562421 -0.00219482 L 264.562421 491.326112 L 0.00222991 491.326112 Z M 0.00222991 -0.00219482 " stroke="#000000" stroke-width="4" stroke-opacity="1" stroke-miterlimit="4"/></g><g clip-path="url(#d8011f6ebe)"><g clip-path="url(#1cf851fcc8)"><g transform="matrix(1, 0, 0, 1, 41, 125)"><g clip-path="url(#03131167d6)"><g clip-path="url(#eb1f09a157)"><g clip-path="url(#2e9309b5c6)"><path fill="#ffd9c2" d="M 201.128906 0.878906 L 201.128906 201.722656 L 0.289062 201.722656 L 0.289062 0.878906 Z M 201.128906 0.878906 " fill-opacity="1" fill-rule="nonzero"/></g></g></g></g></g></g><g clip-path="url(#5296f4b66d)"><g clip-path="url(#1e9dc8822d)"><path stroke-linecap="butt" transform="matrix(0, 0.748441, -0.748441, 0, 242.130592, 125.879616)" fill="none" stroke-linejoin="miter" d="M 134.173701 0.00225281 C 60.0718 0.00225281 -0.000948023 60.069782 -0.000948023 134.171683 C -0.000948023 208.273584 60.0718 268.346332 134.173701 268.346332 C 208.270383 268.346332 268.343131 208.273584 268.343131 134.171683 C 268.343131 60.069782 208.270383 0.00225281 134.173701 0.00225281 Z M 134.173701 0.00225281 " stroke="#000000" stroke-width="4" stroke-opacity="1" stroke-miterlimit="4"/></g></g><g fill="#000000" fill-opacity="1"><g transform="translate(111.153331, 176.001807)"><g><path d="M 42.84375 45.765625 C 38.875 45.765625 35.210938 44.742188 31.859375 42.703125 C 28.503906 40.671875 24.984375 37.332031 21.296875 32.6875 L 15.171875 24.984375 C 13.828125 23.242188 12.847656 21.648438 12.234375 20.203125 C 11.898438 19.472656 11.625 18.773438 11.40625 18.109375 L 11.0625 18.109375 C 11.125 18.835938 11.179688 19.644531 11.234375 20.53125 C 11.234375 21.320312 11.242188 22.21875 11.265625 23.21875 C 11.296875 24.226562 11.3125 25.289062 11.3125 26.40625 L 11.3125 46.609375 L 0 46.609375 L 0 4.1875 L 13 4.1875 L 30.09375 25.734375 C 32.101562 28.304688 34.070312 30.191406 36 31.390625 C 37.925781 32.597656 39.953125 33.203125 42.078125 33.203125 C 44.597656 33.203125 46.582031 32.472656 48.03125 31.015625 C 49.488281 29.566406 50.21875 27.582031 50.21875 25.0625 C 50.21875 22.4375 49.53125 20.328125 48.15625 18.734375 C 46.789062 17.140625 44.988281 16.34375 42.75 16.34375 L 42.75 3.765625 C 45.539062 3.765625 48.066406 4.28125 50.328125 5.3125 C 52.597656 6.351562 54.53125 7.804688 56.125 9.671875 C 57.71875 11.546875 58.957031 13.8125 59.84375 16.46875 C 60.738281 19.125 61.1875 22.070312 61.1875 25.3125 C 61.1875 28.332031 60.738281 31.097656 59.84375 33.609375 C 58.957031 36.128906 57.71875 38.296875 56.125 40.109375 C 54.53125 41.929688 52.597656 43.328125 50.328125 44.296875 C 48.066406 45.273438 45.570312 45.765625 42.84375 45.765625 Z M 42.84375 45.765625 "/></g></g></g><g fill="#000000" fill-opacity="1"><g transform="translate(111.153331, 226.297073)"><g><path d="M 0 3.359375 L 60.359375 3.359375 L 60.359375 17.9375 L 42.078125 24.0625 C 41.460938 24.28125 40.816406 24.445312 40.140625 24.5625 C 39.472656 24.675781 38.863281 24.785156 38.3125 24.890625 C 37.695312 24.953125 37.082031 25.007812 36.46875 25.0625 L 36.46875 25.734375 C 37.082031 25.785156 37.695312 25.867188 38.3125 25.984375 C 38.863281 26.097656 39.472656 26.207031 40.140625 26.3125 C 40.816406 26.425781 41.460938 26.566406 42.078125 26.734375 L 60.359375 32.1875 L 60.359375 46.9375 L 0 46.9375 L 0 35.96875 L 36.890625 35.96875 C 38.453125 35.96875 40.015625 36.035156 41.578125 36.171875 C 43.140625 36.304688 44.566406 36.460938 45.859375 36.640625 C 47.421875 36.804688 48.898438 37 50.296875 37.21875 L 50.296875 36.21875 C 48.953125 35.9375 47.640625 35.679688 46.359375 35.453125 C 45.242188 35.179688 44.082031 34.929688 42.875 34.703125 C 41.675781 34.484375 40.65625 34.234375 39.8125 33.953125 L 26.40625 30.171875 L 26.40625 20.28125 L 39.8125 16.09375 C 40.65625 15.8125 41.660156 15.554688 42.828125 15.328125 C 44.003906 15.109375 45.148438 14.914062 46.265625 14.75 C 47.554688 14.53125 48.898438 14.304688 50.296875 14.078125 L 50.296875 13 C 48.898438 13.21875 47.421875 13.4375 45.859375 13.65625 C 44.566406 13.832031 43.140625 13.988281 41.578125 14.125 C 40.015625 14.257812 38.453125 14.328125 36.890625 14.328125 L 0 14.328125 Z M 0 3.359375 "/></g></g></g><g clip-path="url(#b32baf9b57)"><g clip-path="url(#4f183d9741)"><path stroke-linecap="butt" transform="matrix(0.748442, 0, 0, 0.748442, 43.923128, 128.511761)" fill="none" stroke-linejoin="miter" d="M 130.389062 -0.0000566958 C 58.380056 -0.0000566958 -0.00167428 58.376455 -0.00167428 130.390679 C -0.00167428 202.404904 58.380056 260.781416 130.389062 260.781416 C 202.403287 260.781416 260.779798 202.404904 260.779798 130.390679 C 260.779798 58.376455 202.403287 -0.0000566958 130.389062 -0.0000566958 Z M 130.389062 -0.0000566958 " stroke="#000000" stroke-width="2" stroke-opacity="1" stroke-miterlimit="4"/></g></g><g clip-path="url(#0187d2de71)"><g clip-path="url(#6d400ce09a)"><g transform="matrix(1, 0, 0, 1, 16, 16)"><g clip-path="url(#1a1d05db0c)"><g clip-path="url(#bb3c6488e7)"><g clip-path="url(#1408126f18)"><path fill="#ffd9c2" d="M 46.726562 0.527344 L 46.726562 46.460938 L 0.792969 46.460938 L 0.792969 0.527344 Z M 46.726562 0.527344 " fill-opacity="1" fill-rule="nonzero"/></g></g></g></g></g></g><g clip-path="url(#410ebac269)"><g clip-path="url(#4a71fd0127)"><path stroke-linecap="butt" transform="matrix(0, 0.748441, -0.748441, 0, 62.725277, 16.527342)" fill="none" stroke-linejoin="miter" d="M 30.678335 -0.00171817 C 13.736881 -0.00171817 0.00000192092 13.73516 0.00000192092 30.681834 C 0.00000192092 47.623289 13.736881 61.360167 30.678335 61.360167 C 47.625009 61.360167 61.361887 47.623289 61.361887 30.681834 C 61.361887 13.73516 47.625009 -0.00171817 30.678335 -0.00171817 Z M 30.678335 -0.00171817 " stroke="#000000" stroke-width="4" stroke-opacity="1" stroke-miterlimit="4"/></g></g><g fill="#000000" fill-opacity="1"><g transform="translate(35.032941, 31.110257)"><g><path d="M 7.140625 7.625 C 6.472656 7.625 5.859375 7.453125 5.296875 7.109375 C 4.742188 6.773438 4.160156 6.222656 3.546875 5.453125 L 2.53125 4.15625 C 2.300781 3.875 2.140625 3.609375 2.046875 3.359375 C 1.984375 3.242188 1.9375 3.128906 1.90625 3.015625 L 1.84375 3.015625 C 1.851562 3.140625 1.863281 3.273438 1.875 3.421875 C 1.875 3.554688 1.875 3.707031 1.875 3.875 C 1.882812 4.039062 1.890625 4.21875 1.890625 4.40625 L 1.890625 7.765625 L 0 7.765625 L 0 0.703125 L 2.171875 0.703125 L 5.015625 4.28125 C 5.347656 4.71875 5.675781 5.035156 6 5.234375 C 6.320312 5.429688 6.660156 5.53125 7.015625 5.53125 C 7.429688 5.53125 7.757812 5.410156 8 5.171875 C 8.25 4.929688 8.375 4.597656 8.375 4.171875 C 8.375 3.734375 8.257812 3.378906 8.03125 3.109375 C 7.800781 2.847656 7.5 2.71875 7.125 2.71875 L 7.125 0.625 C 7.59375 0.625 8.015625 0.707031 8.390625 0.875 C 8.765625 1.050781 9.082031 1.296875 9.34375 1.609375 C 9.613281 1.921875 9.820312 2.296875 9.96875 2.734375 C 10.125 3.179688 10.203125 3.675781 10.203125 4.21875 C 10.203125 4.71875 10.125 5.175781 9.96875 5.59375 C 9.820312 6.019531 9.613281 6.382812 9.34375 6.6875 C 9.082031 6.988281 8.765625 7.21875 8.390625 7.375 C 8.015625 7.539062 7.597656 7.625 7.140625 7.625 Z M 7.140625 7.625 "/></g></g></g><g fill="#000000" fill-opacity="1"><g transform="translate(35.032941, 39.488129)"><g><path d="M 0 0.5625 L 10.0625 0.5625 L 10.0625 2.984375 L 7.015625 4.015625 C 6.910156 4.046875 6.800781 4.070312 6.6875 4.09375 C 6.570312 4.113281 6.472656 4.132812 6.390625 4.15625 C 6.285156 4.15625 6.179688 4.160156 6.078125 4.171875 L 6.078125 4.28125 C 6.179688 4.289062 6.285156 4.304688 6.390625 4.328125 C 6.472656 4.347656 6.570312 4.367188 6.6875 4.390625 C 6.800781 4.410156 6.910156 4.429688 7.015625 4.453125 L 10.0625 5.359375 L 10.0625 7.828125 L 0 7.828125 L 0 6 L 6.140625 6 C 6.398438 6 6.660156 6.007812 6.921875 6.03125 C 7.179688 6.050781 7.421875 6.078125 7.640625 6.109375 C 7.898438 6.128906 8.144531 6.160156 8.375 6.203125 L 8.375 6.03125 C 8.15625 5.988281 7.9375 5.945312 7.71875 5.90625 C 7.539062 5.863281 7.347656 5.820312 7.140625 5.78125 C 6.941406 5.75 6.773438 5.707031 6.640625 5.65625 L 4.40625 5.03125 L 4.40625 3.375 L 6.640625 2.6875 C 6.773438 2.632812 6.941406 2.585938 7.140625 2.546875 C 7.335938 2.515625 7.523438 2.484375 7.703125 2.453125 C 7.921875 2.421875 8.144531 2.382812 8.375 2.34375 L 8.375 2.171875 C 8.144531 2.203125 7.898438 2.238281 7.640625 2.28125 C 7.421875 2.300781 7.179688 2.320312 6.921875 2.34375 C 6.660156 2.375 6.398438 2.390625 6.140625 2.390625 L 0 2.390625 Z M 0 0.5625 "/></g></g></g><g clip-path="url(#14b689a9aa)"><g clip-path="url(#ac4a423d29)"><path stroke-linecap="butt" transform="matrix(0, 0.748441, -0.748441, 0, 59.805167, 19.255629)" fill="none" stroke-linejoin="miter" d="M 26.907784 0.000640385 C 12.048782 0.000640385 -0.00230182 12.046505 -0.00230182 26.905507 C -0.00230182 41.764509 12.048782 53.810374 26.907784 53.810374 C 41.766786 53.810374 53.812651 41.764509 53.812651 26.905507 C 53.812651 12.046505 41.766786 0.000640385 26.907784 0.000640385 Z M 26.907784 0.000640385 " stroke="#000000" stroke-width="2" stroke-opacity="1" stroke-miterlimit="4"/></g></g><g clip-path="url(#3209353dab)"><g clip-path="url(#935f87b42e)"><g transform="matrix(1, 0, 0, 1, 220, 390)"><g clip-path="url(#5495a314a3)"><g clip-path="url(#ec71c731bf)"><g clip-path="url(#590cc8caf3)"><path fill="#ffd9c2" d="M 46.226562 0.140625 L 46.226562 45.679688 L 0.6875 45.679688 L 0.6875 0.140625 Z M 46.226562 0.140625 " fill-opacity="1" fill-rule="nonzero"/></g></g></g></g></g></g><g clip-path="url(#8c92c9695a)"><g clip-path="url(#ee405e50d6)"><path stroke-linecap="butt" transform="matrix(0, 0.748441, -0.748441, 0, 266.226284, 390.139571)" fill="none" stroke-linejoin="miter" d="M 30.424003 -0.000371748 C 13.618247 -0.000371748 0.00140815 13.621686 0.00140815 30.422224 C 0.00140815 47.222761 13.618247 60.844819 30.424003 60.844819 C 47.224541 60.844819 60.84138 47.222761 60.84138 30.422224 C 60.84138 13.621686 47.224541 -0.000371748 30.424003 -0.000371748 Z M 30.424003 -0.000371748 " stroke="#000000" stroke-width="4" stroke-opacity="1" stroke-miterlimit="4"/></g></g><g fill="#000000" fill-opacity="1"><g transform="translate(239.28239, 404.523681)"><g><path d="M 7.140625 7.625 C 6.472656 7.625 5.859375 7.453125 5.296875 7.109375 C 4.742188 6.773438 4.160156 6.222656 3.546875 5.453125 L 2.53125 4.15625 C 2.300781 3.875 2.140625 3.609375 2.046875 3.359375 C 1.984375 3.242188 1.9375 3.128906 1.90625 3.015625 L 1.84375 3.015625 C 1.851562 3.140625 1.863281 3.273438 1.875 3.421875 C 1.875 3.554688 1.875 3.707031 1.875 3.875 C 1.882812 4.039062 1.890625 4.21875 1.890625 4.40625 L 1.890625 7.765625 L 0 7.765625 L 0 0.703125 L 2.171875 0.703125 L 5.015625 4.28125 C 5.347656 4.71875 5.675781 5.035156 6 5.234375 C 6.320312 5.429688 6.660156 5.53125 7.015625 5.53125 C 7.429688 5.53125 7.757812 5.410156 8 5.171875 C 8.25 4.929688 8.375 4.597656 8.375 4.171875 C 8.375 3.734375 8.257812 3.378906 8.03125 3.109375 C 7.800781 2.847656 7.5 2.71875 7.125 2.71875 L 7.125 0.625 C 7.59375 0.625 8.015625 0.707031 8.390625 0.875 C 8.765625 1.050781 9.082031 1.296875 9.34375 1.609375 C 9.613281 1.921875 9.820312 2.296875 9.96875 2.734375 C 10.125 3.179688 10.203125 3.675781 10.203125 4.21875 C 10.203125 4.71875 10.125 5.175781 9.96875 5.59375 C 9.820312 6.019531 9.613281 6.382812 9.34375 6.6875 C 9.082031 6.988281 8.765625 7.21875 8.390625 7.375 C 8.015625 7.539062 7.597656 7.625 7.140625 7.625 Z M 7.140625 7.625 "/></g></g></g><g fill="#000000" fill-opacity="1"><g transform="translate(239.28239, 412.901553)"><g><path d="M 0 0.5625 L 10.0625 0.5625 L 10.0625 2.984375 L 7.015625 4.015625 C 6.910156 4.046875 6.800781 4.070312 6.6875 4.09375 C 6.570312 4.113281 6.472656 4.132812 6.390625 4.15625 C 6.285156 4.15625 6.179688 4.160156 6.078125 4.171875 L 6.078125 4.28125 C 6.179688 4.289062 6.285156 4.304688 6.390625 4.328125 C 6.472656 4.347656 6.570312 4.367188 6.6875 4.390625 C 6.800781 4.410156 6.910156 4.429688 7.015625 4.453125 L 10.0625 5.359375 L 10.0625 7.828125 L 0 7.828125 L 0 6 L 6.140625 6 C 6.398438 6 6.660156 6.007812 6.921875 6.03125 C 7.179688 6.050781 7.421875 6.078125 7.640625 6.109375 C 7.898438 6.128906 8.144531 6.160156 8.375 6.203125 L 8.375 6.03125 C 8.15625 5.988281 7.9375 5.945312 7.71875 5.90625 C 7.539062 5.863281 7.347656 5.820312 7.140625 5.78125 C 6.941406 5.75 6.773438 5.707031 6.640625 5.65625 L 4.40625 5.03125 L 4.40625 3.375 L 6.640625 2.6875 C 6.773438 2.632812 6.941406 2.585938 7.140625 2.546875 C 7.335938 2.515625 7.523438 2.484375 7.703125 2.453125 C 7.921875 2.421875 8.144531 2.382812 8.375 2.34375 L 8.375 2.171875 C 8.144531 2.203125 7.898438 2.238281 7.640625 2.28125 C 7.421875 2.300781 7.179688 2.320312 6.921875 2.34375 C 6.660156 2.375 6.398438 2.390625 6.140625 2.390625 L 0 2.390625 Z M 0 0.5625 "/></g></g></g><g clip-path="url(#6f39c8eee3)"><g clip-path="url(#33e80fdbee)"><path stroke-linecap="butt" transform="matrix(0, 0.748441, -0.748441, 0, 263.493275, 392.867874)" fill="none" stroke-linejoin="miter" d="M 26.77347 0.00145343 C 11.987537 0.00145343 -0.000917036 11.984688 -0.000917036 26.775841 C -0.000917036 41.561774 11.987537 53.545009 26.77347 53.545009 C 41.559404 53.545009 53.547858 41.561774 53.547858 26.775841 C 53.547858 11.984688 41.559404 0.00145343 26.77347 0.00145343 Z M 26.77347 0.00145343 " stroke="#000000" stroke-width="2" stroke-opacity="1" stroke-miterlimit="4"/></g></g></svg>