<svg xmlns="http://www.w3.org/2000/svg" xmlns:xlink="http://www.w3.org/1999/xlink" width="378" height="605" preserveAspectRatio="xMidYMid meet" version="1.0" viewBox="0 0 282.96 461.04" zoomAndPan="magnify"><defs><clipPath id="58b089c79b"><path d="M 0.273438 0 L 282.644531 0 L 282.644531 452.808594 L 0.273438 452.808594 Z M 0.273438 0" clip-rule="nonzero"/></clipPath><clipPath id="44f3d3df9c"><path d="M 14.417969 14.144531 L 269.003906 14.144531 L 269.003906 438.457031 L 14.417969 438.457031 Z M 14.417969 14.144531" clip-rule="nonzero"/></clipPath><clipPath id="9b8cfe42d7"><path d="M 0.417969 0.144531 L 255.003906 0.144531 L 255.003906 424.457031 L 0.417969 424.457031 Z M 0.417969 0.144531" clip-rule="nonzero"/></clipPath><clipPath id="9bc4150c6c"><rect width="256" height="425" x="0" y="0"/></clipPath><clipPath id="0f41ad91d7"><path d="M 14.417969 14.144531 L 268.886719 14.144531 L 268.886719 438.453125 L 14.417969 438.453125 Z M 14.417969 14.144531" clip-rule="nonzero"/></clipPath><clipPath id="6ae188d3db"><path d="M 28.5625 28.289062 L 254.589844 28.289062 L 254.589844 424.214844 L 28.5625 424.214844 Z M 28.5625 28.289062" clip-rule="nonzero"/></clipPath><clipPath id="0ac1d769b1"><path d="M 31.117188 30.824219 L 252.304688 30.824219 L 252.304688 421.511719 L 31.117188 421.511719 Z M 31.117188 30.824219" clip-rule="nonzero"/></clipPath><clipPath id="648c6a0752"><path d="M 33.675781 33.398438 L 249.222656 33.398438 L 249.222656 418.800781 L 33.675781 418.800781 Z M 33.675781 33.398438" clip-rule="nonzero"/></clipPath><clipPath id="9723a2c8ca"><path d="M 42.707031 42.429688 L 240.714844 42.429688 L 240.714844 409.917969 L 42.707031 409.917969 Z M 42.707031 42.429688" clip-rule="nonzero"/></clipPath><clipPath id="72c79a19fa"><path d="M 41.289062 125.878906 L 242.132812 125.878906 L 242.132812 326.722656 L 41.289062 326.722656 Z M 41.289062 125.878906" clip-rule="nonzero"/></clipPath><clipPath id="ec8c5015de"><path d="M 141.710938 125.878906 C 86.25 125.878906 41.289062 170.839844 41.289062 226.300781 C 41.289062 281.761719 86.25 326.722656 141.710938 326.722656 C 197.171875 326.722656 242.132812 281.761719 242.132812 226.300781 C 242.132812 170.839844 197.171875 125.878906 141.710938 125.878906 Z M 141.710938 125.878906" clip-rule="nonzero"/></clipPath><clipPath id="30eb597f3f"><path d="M 0.289062 0.878906 L 201.132812 0.878906 L 201.132812 201.722656 L 0.289062 201.722656 Z M 0.289062 0.878906" clip-rule="nonzero"/></clipPath><clipPath id="c82b681606"><path d="M 100.710938 0.878906 C 45.25 0.878906 0.289062 45.839844 0.289062 101.300781 C 0.289062 156.761719 45.25 201.722656 100.710938 201.722656 C 156.171875 201.722656 201.132812 156.761719 201.132812 101.300781 C 201.132812 45.839844 156.171875 0.878906 100.710938 0.878906 Z M 100.710938 0.878906" clip-rule="nonzero"/></clipPath><clipPath id="56f6693d3b"><rect width="202" height="202" x="0" y="0"/></clipPath><clipPath id="5cbe3e4c3f"><path d="M 41.289062 125.878906 L 241.875 125.878906 L 241.875 326.460938 L 41.289062 326.460938 Z M 41.289062 125.878906" clip-rule="nonzero"/></clipPath><clipPath id="20884a178d"><path d="M 141.710938 125.878906 C 86.25 125.878906 41.289062 170.839844 41.289062 226.300781 C 41.289062 281.757812 86.25 326.71875 141.710938 326.71875 C 197.171875 326.71875 242.128906 281.757812 242.128906 226.300781 C 242.128906 170.839844 197.171875 125.878906 141.710938 125.878906 Z M 141.710938 125.878906" clip-rule="nonzero"/></clipPath><clipPath id="753370297c"><path d="M 16.796875 16.527344 L 62.140625 16.527344 L 62.140625 61.871094 L 16.796875 61.871094 Z M 16.796875 16.527344" clip-rule="nonzero"/></clipPath><clipPath id="3f9d555021"><path d="M 62.140625 39.199219 C 62.140625 26.679688 51.988281 16.527344 39.46875 16.527344 C 26.945312 16.527344 16.796875 26.679688 16.796875 39.199219 C 16.796875 51.722656 26.945312 61.871094 39.46875 61.871094 C 51.988281 61.871094 62.140625 51.722656 62.140625 39.199219 Z M 62.140625 39.199219" clip-rule="nonzero"/></clipPath><clipPath id="9b6c55ba4e"><path d="M 0.796875 0.527344 L 46.140625 0.527344 L 46.140625 45.871094 L 0.796875 45.871094 Z M 0.796875 0.527344" clip-rule="nonzero"/></clipPath><clipPath id="f1dd3bd0e2"><path d="M 46.140625 23.199219 C 46.140625 10.679688 35.988281 0.527344 23.46875 0.527344 C 10.945312 0.527344 0.796875 10.679688 0.796875 23.199219 C 0.796875 35.722656 10.945312 45.871094 23.46875 45.871094 C 35.988281 45.871094 46.140625 35.722656 46.140625 23.199219 Z M 46.140625 23.199219" clip-rule="nonzero"/></clipPath><clipPath id="b287616d81"><rect width="47" height="46" x="0" y="0"/></clipPath><clipPath id="ce6b08af34"><path d="M 16.800781 16.527344 L 62.140625 16.527344 L 62.140625 61.867188 L 16.800781 61.867188 Z M 16.800781 16.527344" clip-rule="nonzero"/></clipPath><clipPath id="e9b0922572"><path d="M 62.140625 39.195312 C 62.140625 26.675781 51.992188 16.527344 39.472656 16.527344 C 26.949219 16.527344 16.800781 26.675781 16.800781 39.195312 C 16.800781 51.71875 26.949219 61.867188 39.472656 61.867188 C 51.992188 61.867188 62.140625 51.71875 62.140625 39.195312 Z M 62.140625 39.195312" clip-rule="nonzero"/></clipPath><clipPath id="3ecb4e76c2"><path d="M 19.554688 19.253906 L 59.21875 19.253906 L 59.21875 58.921875 L 19.554688 58.921875 Z M 19.554688 19.253906" clip-rule="nonzero"/></clipPath><clipPath id="5c16c35112"><path d="M 59.21875 39.101562 C 59.21875 28.140625 50.335938 19.253906 39.375 19.253906 C 28.414062 19.253906 19.53125 28.140625 19.53125 39.101562 C 19.53125 50.0625 28.414062 58.945312 39.375 58.945312 C 50.335938 58.945312 59.21875 50.0625 59.21875 39.101562 Z M 59.21875 39.101562" clip-rule="nonzero"/></clipPath><clipPath id="94804b8f29"><path d="M 220.089844 389.550781 L 266.222656 389.550781 L 266.222656 435.679688 L 220.089844 435.679688 Z M 220.089844 389.550781" clip-rule="nonzero"/></clipPath><clipPath id="8946abb05c"><path d="M 266.222656 412.613281 C 266.222656 399.875 255.894531 389.550781 243.15625 389.550781 C 230.417969 389.550781 220.089844 399.875 220.089844 412.613281 C 220.089844 425.355469 230.417969 435.679688 243.15625 435.679688 C 255.894531 435.679688 266.222656 425.355469 266.222656 412.613281 Z M 266.222656 412.613281" clip-rule="nonzero"/></clipPath><clipPath id="e3a838011f"><path d="M 0.0898438 0.550781 L 46.222656 0.550781 L 46.222656 46.679688 L 0.0898438 46.679688 Z M 0.0898438 0.550781" clip-rule="nonzero"/></clipPath><clipPath id="e20dfcee58"><path d="M 46.222656 23.613281 C 46.222656 10.875 35.894531 0.550781 23.15625 0.550781 C 10.417969 0.550781 0.0898438 10.875 0.0898438 23.613281 C 0.0898438 36.355469 10.417969 46.679688 23.15625 46.679688 C 35.894531 46.679688 46.222656 36.355469 46.222656 23.613281 Z M 46.222656 23.613281" clip-rule="nonzero"/></clipPath><clipPath id="53b0bc7b60"><rect width="47" height="47" x="0" y="0"/></clipPath><clipPath id="d18983d02d"><path d="M 220.097656 389.550781 L 266.222656 389.550781 L 266.222656 435.671875 L 220.097656 435.671875 Z M 220.097656 389.550781" clip-rule="nonzero"/></clipPath><clipPath id="c0e4966d75"><path d="M 266.222656 412.609375 C 266.222656 399.875 255.894531 389.550781 243.160156 389.550781 C 230.421875 389.550781 220.097656 399.875 220.097656 412.609375 C 220.097656 425.347656 230.421875 435.671875 243.160156 435.671875 C 255.894531 435.671875 266.222656 425.347656 266.222656 412.609375 Z M 266.222656 412.609375" clip-rule="nonzero"/></clipPath><clipPath id="5800ed9f33"><path d="M 223.085938 392.277344 L 263.5 392.277344 L 263.5 432.695312 L 223.085938 432.695312 Z M 223.085938 392.277344" clip-rule="nonzero"/></clipPath><clipPath id="0b995d40bb"><path d="M 263.5 412.613281 C 263.5 401.382812 254.394531 392.277344 243.164062 392.277344 C 231.933594 392.277344 222.828125 401.382812 222.828125 412.613281 C 222.828125 423.847656 231.933594 432.949219 243.164062 432.949219 C 254.394531 432.949219 263.5 423.847656 263.5 412.613281 Z M 263.5 412.613281" clip-rule="nonzero"/></clipPath></defs><g clip-path="url(#58b089c79b)"><path fill="#fff" fill-opacity="1" fill-rule="nonzero" d="M 0.273438 0 L 283.183594 0 L 283.183594 452.808594 L 0.273438 452.808594 Z M 0.273438 0"/><path fill="#fff" fill-opacity="1" fill-rule="nonzero" d="M 0.273438 0 L 283.183594 0 L 283.183594 452.808594 L 0.273438 452.808594 Z M 0.273438 0"/></g><g clip-path="url(#44f3d3df9c)"><g><g clip-path="url(#9bc4150c6c)" transform="matrix(1, 0, 0, 1, 14, 14)"><g clip-path="url(#9b8cfe42d7)"><path fill="#d9f4cd" fill-opacity="1" fill-rule="nonzero" d="M 0.417969 0.144531 L 255.003906 0.144531 L 255.003906 424.789062 L 0.417969 424.789062 Z M 0.417969 0.144531"/></g></g></g></g><g clip-path="url(#0f41ad91d7)"><path fill="none" stroke="#000" stroke-linecap="butt" stroke-linejoin="miter" stroke-miterlimit="4" stroke-opacity="1" stroke-width="4" d="M 0.000213988 0.000990199 L 340.154953 0.000990199 L 340.154953 566.923815 L 0.000213988 566.923815 Z M 0.000213988 0.000990199" transform="matrix(0.748442, 0, 0, 0.748442, 14.417809, 14.14379)"/></g><g clip-path="url(#6ae188d3db)"><path fill="none" stroke="#000" stroke-linecap="butt" stroke-linejoin="miter" stroke-miterlimit="4" stroke-opacity="1" stroke-width="4" d="M 0.00122275 0.00201976 L 302.358671 0.00201976 L 302.358671 529.127554 L 0.00122275 529.127554 Z M 0.00122275 0.00201976" transform="matrix(0.748442, 0, 0, 0.748442, 28.561585, 28.287551)"/></g><g clip-path="url(#0ac1d769b1)"><path fill="none" stroke="#000" stroke-linecap="butt" stroke-linejoin="miter" stroke-miterlimit="4" stroke-opacity="1" stroke-width="4" d="M 0.0013113 -0.00147559 L 295.532093 -0.00147559 L 295.532093 522.297407 L 0.0013113 522.297407 Z M 0.0013113 -0.00147559" transform="matrix(0.748441, 0, 0, 0.748441, 31.116206, 30.825323)"/></g><g clip-path="url(#648c6a0752)"><path fill="none" stroke="#000" stroke-linecap="butt" stroke-linejoin="miter" stroke-miterlimit="4" stroke-opacity="1" stroke-width="4" d="M 0.00313519 -0.0012553 L 288.169637 -0.0012553 L 288.169637 514.938552 L 0.00313519 514.938552 Z M 0.00313519 -0.0012553" transform="matrix(0.748442, 0, 0, 0.748442, 33.673435, 33.399377)"/></g><g clip-path="url(#9723a2c8ca)"><path fill="none" stroke="#000" stroke-linecap="butt" stroke-linejoin="miter" stroke-miterlimit="4" stroke-opacity="1" stroke-width="4" d="M 0.00222991 -0.00224922 L 264.562421 -0.00224922 L 264.562421 491.326057 L 0.00222991 491.326057 Z M 0.00222991 -0.00224922" transform="matrix(0.748441, 0, 0, 0.748441, 42.705362, 42.431371)"/></g><g clip-path="url(#72c79a19fa)"><g clip-path="url(#ec8c5015de)"><g><g clip-path="url(#56f6693d3b)" transform="matrix(1, 0, 0, 1, 41, 125)"><g clip-path="url(#30eb597f3f)"><g clip-path="url(#c82b681606)"><path fill="#fff" fill-opacity="1" fill-rule="nonzero" d="M 0.289062 0.878906 L 201.132812 0.878906 L 201.132812 201.722656 L 0.289062 201.722656 Z M 0.289062 0.878906"/></g></g></g></g></g></g><g clip-path="url(#5cbe3e4c3f)"><g clip-path="url(#20884a178d)"><path fill="none" stroke="#000" stroke-linecap="butt" stroke-linejoin="miter" stroke-miterlimit="4" stroke-opacity="1" stroke-width="10" d="M 134.172084 -0.000948023 C 60.070183 -0.000948023 -0.00256561 60.0718 -0.00256561 134.173701 C -0.00256561 208.270383 60.070183 268.343131 134.172084 268.343131 C 208.273985 268.343131 268.341514 208.270383 268.341514 134.173701 C 268.341514 60.0718 208.273985 -0.000948023 134.172084 -0.000948023 Z M 134.172084 -0.000948023" transform="matrix(0.748441, 0, 0, 0.748441, 41.290983, 125.879616)"/></g></g><g fill="#000" fill-opacity="1"><g><g><path d="M 8.484375 -19.390625 C 9.546875 -19.390625 10.5 -19.25 11.34375 -18.96875 C 12.1875 -18.695312 12.90625 -18.296875 13.5 -17.765625 C 14.09375 -17.234375 14.550781 -16.59375 14.875 -15.84375 C 15.195312 -15.101562 15.359375 -14.265625 15.359375 -13.328125 C 15.359375 -12.410156 15.195312 -11.578125 14.875 -10.828125 C 14.550781 -10.078125 14.09375 -9.441406 13.5 -8.921875 C 12.90625 -8.398438 12.1875 -7.992188 11.34375 -7.703125 C 10.5 -7.410156 9.546875 -7.265625 8.484375 -7.265625 L 5.734375 -7.265625 L 5.734375 0 L 1.703125 0 L 1.703125 -19.390625 Z M 5.734375 -16.03125 L 5.734375 -10.640625 L 8.484375 -10.640625 C 9.378906 -10.640625 10.070312 -10.882812 10.5625 -11.375 C 11.0625 -11.875 11.3125 -12.523438 11.3125 -13.328125 C 11.3125 -14.140625 11.0625 -14.789062 10.5625 -15.28125 C 10.070312 -15.78125 9.378906 -16.03125 8.484375 -16.03125 Z M 5.734375 -16.03125" transform="translate(109.387464, 217.189478)"/></g></g></g><g fill="#000" fill-opacity="1"><g><g><path d="M 0.265625 0 L 5.4375 -19.390625 L 10.828125 -19.390625 L 15.890625 0 L 11.796875 0 L 10.78125 -4.4375 L 5.359375 -4.4375 L 4.34375 0 Z M 6.09375 -7.59375 L 10.015625 -7.59375 L 8.546875 -13.984375 C 8.484375 -14.253906 8.425781 -14.546875 8.375 -14.859375 C 8.320312 -15.171875 8.28125 -15.472656 8.25 -15.765625 C 8.207031 -16.066406 8.171875 -16.378906 8.140625 -16.703125 L 7.96875 -16.703125 C 7.9375 -16.378906 7.894531 -16.066406 7.84375 -15.765625 C 7.800781 -15.472656 7.757812 -15.171875 7.71875 -14.859375 C 7.675781 -14.546875 7.617188 -14.253906 7.546875 -13.984375 Z M 6.09375 -7.59375" transform="translate(125.546736, 217.189478)"/></g></g></g><g fill="#000" fill-opacity="1"><g><g><path d="M 8.078125 0.265625 C 7.078125 0.265625 6.160156 0.132812 5.328125 -0.125 C 4.503906 -0.382812 3.796875 -0.75 3.203125 -1.21875 C 2.609375 -1.695312 2.140625 -2.273438 1.796875 -2.953125 C 1.460938 -3.640625 1.269531 -4.40625 1.21875 -5.25 L 5.25 -5.25 C 5.394531 -3.90625 6.363281 -3.234375 8.15625 -3.234375 C 9.0625 -3.234375 9.742188 -3.425781 10.203125 -3.8125 C 10.671875 -4.195312 10.90625 -4.710938 10.90625 -5.359375 C 10.90625 -5.929688 10.722656 -6.425781 10.359375 -6.84375 C 9.992188 -7.257812 9.484375 -7.535156 8.828125 -7.671875 L 6.78125 -8.140625 C 5.019531 -8.535156 3.6875 -9.238281 2.78125 -10.25 C 1.875 -11.257812 1.421875 -12.554688 1.421875 -14.140625 C 1.421875 -14.960938 1.578125 -15.710938 1.890625 -16.390625 C 2.210938 -17.078125 2.660156 -17.664062 3.234375 -18.15625 C 3.804688 -18.644531 4.5 -19.019531 5.3125 -19.28125 C 6.132812 -19.550781 7.054688 -19.6875 8.078125 -19.6875 C 10.003906 -19.6875 11.546875 -19.207031 12.703125 -18.25 C 13.859375 -17.300781 14.5 -15.984375 14.625 -14.296875 L 10.59375 -14.296875 C 10.519531 -14.890625 10.253906 -15.351562 9.796875 -15.6875 C 9.335938 -16.019531 8.726562 -16.1875 7.96875 -16.1875 C 7.175781 -16.1875 6.5625 -16 6.125 -15.625 C 5.6875 -15.25 5.46875 -14.773438 5.46875 -14.203125 C 5.46875 -13.691406 5.632812 -13.253906 5.96875 -12.890625 C 6.3125 -12.523438 6.8125 -12.269531 7.46875 -12.125 L 9.609375 -11.640625 C 11.359375 -11.242188 12.6875 -10.53125 13.59375 -9.5 C 14.5 -8.46875 14.953125 -7.148438 14.953125 -5.546875 C 14.953125 -4.679688 14.789062 -3.894531 14.46875 -3.1875 C 14.144531 -2.476562 13.679688 -1.867188 13.078125 -1.359375 C 12.472656 -0.847656 11.75 -0.445312 10.90625 -0.15625 C 10.0625 0.125 9.117188 0.265625 8.078125 0.265625 Z M 8.078125 0.265625" transform="translate(141.706008, 217.189478)"/></g></g></g><g fill="#000" fill-opacity="1"><g><g><path d="M 8.078125 0.265625 C 7.078125 0.265625 6.160156 0.132812 5.328125 -0.125 C 4.503906 -0.382812 3.796875 -0.75 3.203125 -1.21875 C 2.609375 -1.695312 2.140625 -2.273438 1.796875 -2.953125 C 1.460938 -3.640625 1.269531 -4.40625 1.21875 -5.25 L 5.25 -5.25 C 5.394531 -3.90625 6.363281 -3.234375 8.15625 -3.234375 C 9.0625 -3.234375 9.742188 -3.425781 10.203125 -3.8125 C 10.671875 -4.195312 10.90625 -4.710938 10.90625 -5.359375 C 10.90625 -5.929688 10.722656 -6.425781 10.359375 -6.84375 C 9.992188 -7.257812 9.484375 -7.535156 8.828125 -7.671875 L 6.78125 -8.140625 C 5.019531 -8.535156 3.6875 -9.238281 2.78125 -10.25 C 1.875 -11.257812 1.421875 -12.554688 1.421875 -14.140625 C 1.421875 -14.960938 1.578125 -15.710938 1.890625 -16.390625 C 2.210938 -17.078125 2.660156 -17.664062 3.234375 -18.15625 C 3.804688 -18.644531 4.5 -19.019531 5.3125 -19.28125 C 6.132812 -19.550781 7.054688 -19.6875 8.078125 -19.6875 C 10.003906 -19.6875 11.546875 -19.207031 12.703125 -18.25 C 13.859375 -17.300781 14.5 -15.984375 14.625 -14.296875 L 10.59375 -14.296875 C 10.519531 -14.890625 10.253906 -15.351562 9.796875 -15.6875 C 9.335938 -16.019531 8.726562 -16.1875 7.96875 -16.1875 C 7.175781 -16.1875 6.5625 -16 6.125 -15.625 C 5.6875 -15.25 5.46875 -14.773438 5.46875 -14.203125 C 5.46875 -13.691406 5.632812 -13.253906 5.96875 -12.890625 C 6.3125 -12.523438 6.8125 -12.269531 7.46875 -12.125 L 9.609375 -11.640625 C 11.359375 -11.242188 12.6875 -10.53125 13.59375 -9.5 C 14.5 -8.46875 14.953125 -7.148438 14.953125 -5.546875 C 14.953125 -4.679688 14.789062 -3.894531 14.46875 -3.1875 C 14.144531 -2.476562 13.679688 -1.867188 13.078125 -1.359375 C 12.472656 -0.847656 11.75 -0.445312 10.90625 -0.15625 C 10.0625 0.125 9.117188 0.265625 8.078125 0.265625 Z M 8.078125 0.265625" transform="translate(157.86528, 217.189478)"/></g></g></g><g fill="#000" fill-opacity="1"><g><g><path d="M 7.8125 -10.78125 L 14.875 -10.78125 L 14.875 -5.796875 C 14.875 -4.878906 14.710938 -4.046875 14.390625 -3.296875 C 14.066406 -2.554688 13.609375 -1.921875 13.015625 -1.390625 C 12.421875 -0.859375 11.703125 -0.445312 10.859375 -0.15625 C 10.023438 0.125 9.097656 0.265625 8.078125 0.265625 C 7.054688 0.265625 6.128906 0.125 5.296875 -0.15625 C 4.460938 -0.445312 3.75 -0.859375 3.15625 -1.390625 C 2.5625 -1.921875 2.101562 -2.554688 1.78125 -3.296875 C 1.457031 -4.046875 1.296875 -4.878906 1.296875 -5.796875 L 1.296875 -13.609375 C 1.296875 -14.503906 1.457031 -15.3125 1.78125 -16.03125 C 2.101562 -16.757812 2.5625 -17.378906 3.15625 -17.890625 C 3.75 -18.410156 4.460938 -18.8125 5.296875 -19.09375 C 6.128906 -19.382812 7.054688 -19.53125 8.078125 -19.53125 C 9.035156 -19.53125 9.90625 -19.398438 10.6875 -19.140625 C 11.476562 -18.878906 12.171875 -18.5 12.765625 -18 C 13.359375 -17.507812 13.832031 -16.914062 14.1875 -16.21875 C 14.550781 -15.519531 14.78125 -14.738281 14.875 -13.875 L 10.828125 -13.875 C 10.753906 -14.5 10.46875 -14.988281 9.96875 -15.34375 C 9.476562 -15.707031 8.847656 -15.890625 8.078125 -15.890625 C 7.234375 -15.890625 6.5625 -15.675781 6.0625 -15.25 C 5.570312 -14.832031 5.328125 -14.285156 5.328125 -13.609375 L 5.328125 -5.796875 C 5.328125 -5.023438 5.570312 -4.410156 6.0625 -3.953125 C 6.5625 -3.492188 7.234375 -3.265625 8.078125 -3.265625 C 8.921875 -3.265625 9.585938 -3.492188 10.078125 -3.953125 C 10.578125 -4.410156 10.828125 -5.023438 10.828125 -5.796875 L 10.828125 -7.359375 L 7.8125 -7.359375 Z M 7.8125 -10.78125" transform="translate(125.549123, 254.611553)"/></g></g></g><g fill="#000" fill-opacity="1"><g><g><path d="M 5.328125 -5.796875 C 5.328125 -5.023438 5.570312 -4.410156 6.0625 -3.953125 C 6.5625 -3.492188 7.234375 -3.265625 8.078125 -3.265625 C 8.921875 -3.265625 9.585938 -3.492188 10.078125 -3.953125 C 10.578125 -4.410156 10.828125 -5.023438 10.828125 -5.796875 L 10.828125 -13.625 C 10.828125 -14.394531 10.578125 -15.007812 10.078125 -15.46875 C 9.585938 -15.925781 8.921875 -16.15625 8.078125 -16.15625 C 7.234375 -16.15625 6.5625 -15.925781 6.0625 -15.46875 C 5.570312 -15.007812 5.328125 -14.394531 5.328125 -13.625 Z M 1.296875 -13.625 C 1.296875 -14.539062 1.457031 -15.367188 1.78125 -16.109375 C 2.101562 -16.847656 2.5625 -17.476562 3.15625 -18 C 3.75 -18.53125 4.460938 -18.941406 5.296875 -19.234375 C 6.128906 -19.523438 7.054688 -19.671875 8.078125 -19.671875 C 9.097656 -19.671875 10.023438 -19.523438 10.859375 -19.234375 C 11.703125 -18.941406 12.421875 -18.53125 13.015625 -18 C 13.609375 -17.476562 14.066406 -16.847656 14.390625 -16.109375 C 14.710938 -15.367188 14.875 -14.539062 14.875 -13.625 L 14.875 -5.796875 C 14.875 -4.890625 14.707031 -4.0625 14.375 -3.3125 C 14.039062 -2.570312 13.578125 -1.9375 12.984375 -1.40625 C 12.390625 -0.882812 11.675781 -0.472656 10.84375 -0.171875 C 10.007812 0.117188 9.085938 0.265625 8.078125 0.265625 C 7.054688 0.265625 6.128906 0.125 5.296875 -0.15625 C 4.460938 -0.445312 3.75 -0.859375 3.15625 -1.390625 C 2.5625 -1.921875 2.101562 -2.554688 1.78125 -3.296875 C 1.457031 -4.046875 1.296875 -4.878906 1.296875 -5.796875 Z M 1.296875 -13.625" transform="translate(141.708395, 254.611553)"/></g></g></g><g clip-path="url(#753370297c)"><g clip-path="url(#3f9d555021)"><g><g clip-path="url(#b287616d81)" transform="matrix(1, 0, 0, 1, 16, 16)"><g clip-path="url(#9b6c55ba4e)"><g clip-path="url(#f1dd3bd0e2)"><path fill="#d9f4cd" fill-opacity="1" fill-rule="nonzero" d="M 46.140625 0.527344 L 46.140625 45.871094 L 0.796875 45.871094 L 0.796875 0.527344 Z M 46.140625 0.527344"/></g></g></g></g></g></g><g clip-path="url(#ce6b08af34)"><g clip-path="url(#e9b0922572)"><path fill="none" stroke="#000" stroke-linecap="butt" stroke-linejoin="miter" stroke-miterlimit="4" stroke-opacity="1" stroke-width="4" d="M 30.286897 -0.0000925514 C 13.559429 -0.0000925514 0.00000192092 13.559334 0.00000192092 30.286802 C 0.00000192092 47.019489 13.559429 60.578916 30.286897 60.578916 C 47.019584 60.578916 60.579011 47.019489 60.579011 30.286802 C 60.579011 13.559334 47.019584 -0.0000925514 30.286897 -0.0000925514 Z M 30.286897 -0.0000925514" transform="matrix(0, 0.748441, -0.748441, 0, 62.140556, 16.527342)"/></g></g><g fill="#000" fill-opacity="1"><g><g><path d="M 1.8125 0.984375 L 1.8125 3.671875 L 7.078125 3.671875 C 7.484375 3.671875 7.773438 3.6875 7.953125 3.71875 C 8.054688 3.726562 8.148438 3.738281 8.234375 3.75 L 8.234375 3.703125 C 8.179688 3.660156 8.128906 3.609375 8.078125 3.546875 C 8.023438 3.503906 7.96875 3.441406 7.90625 3.359375 C 7.84375 3.273438 7.773438 3.179688 7.703125 3.078125 L 6.421875 1.109375 L 8.453125 1.109375 L 10.0625 3.46875 L 10.0625 5.765625 L 1.8125 5.765625 L 1.8125 7.890625 L 0 7.890625 L 0 0.984375 Z M 1.8125 0.984375" transform="translate(35.196662, 30.806203)"/></g></g></g><g fill="#000" fill-opacity="1"><g><g><path d="M 0 0.5625 L 10.0625 0.5625 L 10.0625 2.984375 L 7.015625 4.015625 C 6.910156 4.046875 6.800781 4.070312 6.6875 4.09375 C 6.570312 4.113281 6.472656 4.132812 6.390625 4.15625 C 6.285156 4.15625 6.179688 4.160156 6.078125 4.171875 L 6.078125 4.28125 C 6.179688 4.289062 6.285156 4.304688 6.390625 4.328125 C 6.472656 4.347656 6.570312 4.367188 6.6875 4.390625 C 6.800781 4.410156 6.910156 4.429688 7.015625 4.453125 L 10.0625 5.359375 L 10.0625 7.828125 L 0 7.828125 L 0 6 L 6.140625 6 C 6.398438 6 6.660156 6.007812 6.921875 6.03125 C 7.179688 6.050781 7.421875 6.078125 7.640625 6.109375 C 7.898438 6.128906 8.144531 6.160156 8.375 6.203125 L 8.375 6.03125 C 8.15625 5.988281 7.9375 5.945312 7.71875 5.90625 C 7.539062 5.863281 7.347656 5.820312 7.140625 5.78125 C 6.941406 5.75 6.773438 5.707031 6.640625 5.65625 L 4.40625 5.03125 L 4.40625 3.375 L 6.640625 2.6875 C 6.773438 2.632812 6.941406 2.585938 7.140625 2.546875 C 7.335938 2.515625 7.523438 2.484375 7.703125 2.453125 C 7.921875 2.421875 8.144531 2.382812 8.375 2.34375 L 8.375 2.171875 C 8.144531 2.203125 7.898438 2.238281 7.640625 2.28125 C 7.421875 2.300781 7.179688 2.320312 6.921875 2.34375 C 6.660156 2.375 6.398438 2.390625 6.140625 2.390625 L 0 2.390625 Z M 0 0.5625" transform="translate(35.196662, 39.184074)"/></g></g></g><g clip-path="url(#3ecb4e76c2)"><g clip-path="url(#5c16c35112)"><path fill="none" stroke="#ff3131" stroke-linecap="butt" stroke-linejoin="miter" stroke-miterlimit="4" stroke-opacity="1" stroke-width="2" d="M 26.516324 0.00226921 C 11.871308 0.00226921 -0.0023239 11.870682 -0.0023239 26.515698 C -0.0023239 41.160713 11.871308 53.029126 26.516324 53.029126 C 41.161339 53.029126 53.029752 41.160713 53.029752 26.515698 C 53.029752 11.870682 41.161339 0.00226921 26.516324 0.00226921 Z M 26.516324 0.00226921" transform="matrix(0, 0.748441, -0.748441, 0, 59.220448, 19.255646)"/></g></g><g clip-path="url(#94804b8f29)"><g clip-path="url(#8946abb05c)"><g><g clip-path="url(#53b0bc7b60)" transform="matrix(1, 0, 0, 1, 220, 389)"><g clip-path="url(#e3a838011f)"><g clip-path="url(#e20dfcee58)"><path fill="#d9f4cd" fill-opacity="1" fill-rule="nonzero" d="M 46.222656 0.550781 L 46.222656 46.679688 L 0.0898438 46.679688 L 0.0898438 0.550781 Z M 46.222656 0.550781"/></g></g></g></g></g></g><g clip-path="url(#d18983d02d)"><g clip-path="url(#c0e4966d75)"><path fill="none" stroke="#000" stroke-linecap="butt" stroke-linejoin="miter" stroke-miterlimit="4" stroke-opacity="1" stroke-width="4" d="M 30.81025 -0.00198777 C 13.795727 -0.00198777 0.00143694 13.797521 0.00143694 30.812044 C 0.00143694 47.831786 13.795727 61.626076 30.81025 61.626076 C 47.829992 61.626076 61.624281 47.831786 61.624281 30.812044 C 61.624281 13.797521 47.829992 -0.00198777 30.81025 -0.00198777 Z M 30.81025 -0.00198777" transform="matrix(0, 0.748441, -0.748441, 0, 266.221169, 389.549706)"/></g></g><g fill="#000" fill-opacity="1"><g><g><path d="M 1.8125 0.984375 L 1.8125 3.671875 L 7.078125 3.671875 C 7.484375 3.671875 7.773438 3.6875 7.953125 3.71875 C 8.054688 3.726562 8.148438 3.738281 8.234375 3.75 L 8.234375 3.703125 C 8.179688 3.660156 8.128906 3.609375 8.078125 3.546875 C 8.023438 3.503906 7.96875 3.441406 7.90625 3.359375 C 7.84375 3.273438 7.773438 3.179688 7.703125 3.078125 L 6.421875 1.109375 L 8.453125 1.109375 L 10.0625 3.46875 L 10.0625 5.765625 L 1.8125 5.765625 L 1.8125 7.890625 L 0 7.890625 L 0 0.984375 Z M 1.8125 0.984375" transform="translate(238.528833, 404.226176)"/></g></g></g><g fill="#000" fill-opacity="1"><g><g><path d="M 0 0.5625 L 10.0625 0.5625 L 10.0625 2.984375 L 7.015625 4.015625 C 6.910156 4.046875 6.800781 4.070312 6.6875 4.09375 C 6.570312 4.113281 6.472656 4.132812 6.390625 4.15625 C 6.285156 4.15625 6.179688 4.160156 6.078125 4.171875 L 6.078125 4.28125 C 6.179688 4.289062 6.285156 4.304688 6.390625 4.328125 C 6.472656 4.347656 6.570312 4.367188 6.6875 4.390625 C 6.800781 4.410156 6.910156 4.429688 7.015625 4.453125 L 10.0625 5.359375 L 10.0625 7.828125 L 0 7.828125 L 0 6 L 6.140625 6 C 6.398438 6 6.660156 6.007812 6.921875 6.03125 C 7.179688 6.050781 7.421875 6.078125 7.640625 6.109375 C 7.898438 6.128906 8.144531 6.160156 8.375 6.203125 L 8.375 6.03125 C 8.15625 5.988281 7.9375 5.945312 7.71875 5.90625 C 7.539062 5.863281 7.347656 5.820312 7.140625 5.78125 C 6.941406 5.75 6.773438 5.707031 6.640625 5.65625 L 4.40625 5.03125 L 4.40625 3.375 L 6.640625 2.6875 C 6.773438 2.632812 6.941406 2.585938 7.140625 2.546875 C 7.335938 2.515625 7.523438 2.484375 7.703125 2.453125 C 7.921875 2.421875 8.144531 2.382812 8.375 2.34375 L 8.375 2.171875 C 8.144531 2.203125 7.898438 2.238281 7.640625 2.28125 C 7.421875 2.300781 7.179688 2.320312 6.921875 2.34375 C 6.660156 2.375 6.398438 2.390625 6.140625 2.390625 L 0 2.390625 Z M 0 0.5625" transform="translate(238.528833, 412.604047)"/></g></g></g><g clip-path="url(#5800ed9f33)"><g clip-path="url(#0b995d40bb)"><path fill="none" stroke="#ff3131" stroke-linecap="butt" stroke-linejoin="miter" stroke-miterlimit="4" stroke-opacity="1" stroke-width="2" d="M 27.170157 -0.000194529 C 12.165018 -0.000194529 -0.000888239 12.165711 -0.000888239 27.17085 C -0.000888239 42.17599 12.165018 54.341895 27.170157 54.341895 C 42.180515 54.341895 54.341202 42.17599 54.341202 27.17085 C 54.341202 12.165711 42.180515 -0.000194529 27.170157 -0.000194529 Z M 27.170157 -0.000194529" transform="matrix(0, 0.748441, -0.748441, 0, 263.499854, 392.278009)"/></g></g><g fill="#000" fill-opacity="1"><g><g><path d="M 0.15625 0 L 3.21875 -11.5 L 6.421875 -11.5 L 9.421875 0 L 7 0 L 6.390625 -2.640625 L 3.171875 -2.640625 L 2.578125 0 Z M 3.609375 -4.5 L 5.9375 -4.5 L 5.0625 -8.28125 C 5.03125 -8.445312 5 -8.625 4.96875 -8.8125 C 4.9375 -9 4.910156 -9.175781 4.890625 -9.34375 C 4.867188 -9.519531 4.847656 -9.707031 4.828125 -9.90625 L 4.734375 -9.90625 C 4.703125 -9.707031 4.671875 -9.519531 4.640625 -9.34375 C 4.617188 -9.175781 4.59375 -9 4.5625 -8.8125 C 4.539062 -8.625 4.507812 -8.445312 4.46875 -8.28125 Z M 3.609375 -4.5" transform="translate(89.026874, 100.960782)"/></g></g></g><g fill="#000" fill-opacity="1"><g><g><path d="M 4.875 -11.65625 C 5.46875 -11.65625 6.007812 -11.566406 6.5 -11.390625 C 6.988281 -11.222656 7.40625 -10.984375 7.75 -10.671875 C 8.101562 -10.359375 8.375 -9.976562 8.5625 -9.53125 C 8.757812 -9.09375 8.859375 -8.601562 8.859375 -8.0625 L 6.46875 -8.0625 C 6.46875 -8.507812 6.320312 -8.859375 6.03125 -9.109375 C 5.75 -9.367188 5.363281 -9.5 4.875 -9.5 C 4.375 -9.5 3.972656 -9.367188 3.671875 -9.109375 C 3.378906 -8.859375 3.234375 -8.507812 3.234375 -8.0625 L 3.234375 -3.4375 C 3.234375 -2.988281 3.375 -2.632812 3.65625 -2.375 C 3.945312 -2.125 4.347656 -2 4.859375 -2 C 5.359375 -2 5.75 -2.128906 6.03125 -2.390625 C 6.320312 -2.660156 6.46875 -3.007812 6.46875 -3.4375 L 8.859375 -3.4375 C 8.859375 -2.894531 8.757812 -2.398438 8.5625 -1.953125 C 8.375 -1.515625 8.101562 -1.132812 7.75 -0.8125 C 7.40625 -0.5 6.988281 -0.257812 6.5 -0.09375 C 6.007812 0.0703125 5.460938 0.15625 4.859375 0.15625 C 4.242188 0.15625 3.691406 0.0703125 3.203125 -0.09375 C 2.710938 -0.257812 2.289062 -0.5 1.9375 -0.8125 C 1.59375 -1.132812 1.320312 -1.515625 1.125 -1.953125 C 0.9375 -2.398438 0.84375 -2.894531 0.84375 -3.4375 L 0.84375 -8.0625 C 0.84375 -8.601562 0.9375 -9.09375 1.125 -9.53125 C 1.320312 -9.976562 1.59375 -10.359375 1.9375 -10.671875 C 2.289062 -10.984375 2.710938 -11.222656 3.203125 -11.390625 C 3.703125 -11.566406 4.257812 -11.65625 4.875 -11.65625 Z M 4.875 -11.65625" transform="translate(98.604621, 100.960782)"/></g></g></g><g fill="#000" fill-opacity="1"><g><g><path d="M 0.5625 -11.5 L 9.015625 -11.5 L 9.015625 -9.265625 L 5.984375 -9.265625 L 5.984375 0 L 3.59375 0 L 3.59375 -9.265625 L 0.5625 -9.265625 Z M 0.5625 -11.5" transform="translate(108.182367, 100.960782)"/></g></g></g><g fill="#000" fill-opacity="1"><g><g><path d="M 1.203125 0 L 1.203125 -2.078125 L 3.59375 -2.078125 L 3.59375 -9.421875 L 1.203125 -9.421875 L 1.203125 -11.5 L 8.390625 -11.5 L 8.390625 -9.421875 L 5.984375 -9.421875 L 5.984375 -2.078125 L 8.390625 -2.078125 L 8.390625 0 Z M 1.203125 0" transform="translate(117.760114, 100.960782)"/></g></g></g><g fill="#000" fill-opacity="1"><g><g><path d="M 3.15625 -3.4375 C 3.15625 -2.976562 3.300781 -2.613281 3.59375 -2.34375 C 3.894531 -2.070312 4.296875 -1.9375 4.796875 -1.9375 C 5.296875 -1.9375 5.691406 -2.070312 5.984375 -2.34375 C 6.273438 -2.613281 6.421875 -2.976562 6.421875 -3.4375 L 6.421875 -8.078125 C 6.421875 -8.535156 6.273438 -8.898438 5.984375 -9.171875 C 5.691406 -9.441406 5.296875 -9.578125 4.796875 -9.578125 C 4.296875 -9.578125 3.894531 -9.441406 3.59375 -9.171875 C 3.300781 -8.898438 3.15625 -8.535156 3.15625 -8.078125 Z M 0.765625 -8.078125 C 0.765625 -8.617188 0.859375 -9.109375 1.046875 -9.546875 C 1.242188 -9.984375 1.515625 -10.359375 1.859375 -10.671875 C 2.210938 -10.984375 2.632812 -11.222656 3.125 -11.390625 C 3.625 -11.566406 4.179688 -11.65625 4.796875 -11.65625 C 5.398438 -11.65625 5.945312 -11.566406 6.4375 -11.390625 C 6.9375 -11.222656 7.359375 -10.984375 7.703125 -10.671875 C 8.054688 -10.359375 8.328125 -9.984375 8.515625 -9.546875 C 8.710938 -9.109375 8.8125 -8.617188 8.8125 -8.078125 L 8.8125 -3.4375 C 8.8125 -2.90625 8.710938 -2.414062 8.515625 -1.96875 C 8.316406 -1.53125 8.039062 -1.15625 7.6875 -0.84375 C 7.34375 -0.53125 6.921875 -0.285156 6.421875 -0.109375 C 5.929688 0.0664062 5.390625 0.15625 4.796875 0.15625 C 4.179688 0.15625 3.625 0.0703125 3.125 -0.09375 C 2.632812 -0.257812 2.210938 -0.5 1.859375 -0.8125 C 1.515625 -1.132812 1.242188 -1.515625 1.046875 -1.953125 C 0.859375 -2.398438 0.765625 -2.894531 0.765625 -3.4375 Z M 0.765625 -8.078125" transform="translate(127.33786, 100.960782)"/></g></g></g><g fill="#000" fill-opacity="1"><g><g><path d="M 0.921875 -11.5 L 3.828125 -11.5 L 6.390625 -3.875 C 6.441406 -3.726562 6.484375 -3.550781 6.515625 -3.34375 C 6.546875 -3.132812 6.570312 -2.941406 6.59375 -2.765625 C 6.613281 -2.535156 6.632812 -2.304688 6.65625 -2.078125 L 6.875 -2.078125 C 6.875 -2.078125 6.859375 -2.171875 6.828125 -2.359375 C 6.804688 -2.554688 6.78125 -2.796875 6.75 -3.078125 C 6.71875 -3.367188 6.6875 -3.679688 6.65625 -4.015625 C 6.625 -4.347656 6.609375 -4.65625 6.609375 -4.9375 L 6.609375 -11.5 L 8.65625 -11.5 L 8.65625 0 L 5.75 0 L 3.234375 -7.609375 C 3.179688 -7.796875 3.132812 -7.992188 3.09375 -8.203125 C 3.050781 -8.410156 3.019531 -8.601562 3 -8.78125 C 2.976562 -9 2.960938 -9.210938 2.953125 -9.421875 L 2.734375 -9.421875 C 2.773438 -9.097656 2.816406 -8.773438 2.859375 -8.453125 C 2.878906 -8.171875 2.898438 -7.863281 2.921875 -7.53125 C 2.953125 -7.207031 2.96875 -6.890625 2.96875 -6.578125 L 2.96875 0 L 0.921875 0 Z M 0.921875 -11.5" transform="translate(136.915607, 100.960782)"/></g></g></g><g fill="#000" fill-opacity="1"><g><g><path d="M 4.875 -11.65625 C 5.46875 -11.65625 6.007812 -11.566406 6.5 -11.390625 C 6.988281 -11.222656 7.40625 -10.984375 7.75 -10.671875 C 8.101562 -10.359375 8.375 -9.976562 8.5625 -9.53125 C 8.757812 -9.09375 8.859375 -8.601562 8.859375 -8.0625 L 6.46875 -8.0625 C 6.46875 -8.507812 6.320312 -8.859375 6.03125 -9.109375 C 5.75 -9.367188 5.363281 -9.5 4.875 -9.5 C 4.375 -9.5 3.972656 -9.367188 3.671875 -9.109375 C 3.378906 -8.859375 3.234375 -8.507812 3.234375 -8.0625 L 3.234375 -3.4375 C 3.234375 -2.988281 3.375 -2.632812 3.65625 -2.375 C 3.945312 -2.125 4.347656 -2 4.859375 -2 C 5.359375 -2 5.75 -2.128906 6.03125 -2.390625 C 6.320312 -2.660156 6.46875 -3.007812 6.46875 -3.4375 L 8.859375 -3.4375 C 8.859375 -2.894531 8.757812 -2.398438 8.5625 -1.953125 C 8.375 -1.515625 8.101562 -1.132812 7.75 -0.8125 C 7.40625 -0.5 6.988281 -0.257812 6.5 -0.09375 C 6.007812 0.0703125 5.460938 0.15625 4.859375 0.15625 C 4.242188 0.15625 3.691406 0.0703125 3.203125 -0.09375 C 2.710938 -0.257812 2.289062 -0.5 1.9375 -0.8125 C 1.59375 -1.132812 1.320312 -1.515625 1.125 -1.953125 C 0.9375 -2.398438 0.84375 -2.894531 0.84375 -3.4375 L 0.84375 -8.0625 C 0.84375 -8.601562 0.9375 -9.09375 1.125 -9.53125 C 1.320312 -9.976562 1.59375 -10.359375 1.9375 -10.671875 C 2.289062 -10.984375 2.710938 -11.222656 3.203125 -11.390625 C 3.703125 -11.566406 4.257812 -11.65625 4.875 -11.65625 Z M 4.875 -11.65625" transform="translate(156.0711, 100.960782)"/></g></g></g><g fill="#000" fill-opacity="1"><g><g><path d="M 0.15625 0 L 3.21875 -11.5 L 6.421875 -11.5 L 9.421875 0 L 7 0 L 6.390625 -2.640625 L 3.171875 -2.640625 L 2.578125 0 Z M 3.609375 -4.5 L 5.9375 -4.5 L 5.0625 -8.28125 C 5.03125 -8.445312 5 -8.625 4.96875 -8.8125 C 4.9375 -9 4.910156 -9.175781 4.890625 -9.34375 C 4.867188 -9.519531 4.847656 -9.707031 4.828125 -9.90625 L 4.734375 -9.90625 C 4.703125 -9.707031 4.671875 -9.519531 4.640625 -9.34375 C 4.617188 -9.175781 4.59375 -9 4.5625 -8.8125 C 4.539062 -8.625 4.507812 -8.445312 4.46875 -8.28125 Z M 3.609375 -4.5" transform="translate(165.648846, 100.960782)"/></g></g></g><g fill="#000" fill-opacity="1"><g><g><path d="M 1.03125 -11.5 L 4.875 -11.5 C 5.5 -11.5 6.0625 -11.414062 6.5625 -11.25 C 7.0625 -11.082031 7.488281 -10.847656 7.84375 -10.546875 C 8.195312 -10.242188 8.46875 -9.875 8.65625 -9.4375 C 8.84375 -9.007812 8.9375 -8.523438 8.9375 -7.984375 C 8.9375 -7.234375 8.753906 -6.59375 8.390625 -6.0625 C 8.035156 -5.53125 7.539062 -5.128906 6.90625 -4.859375 L 9.109375 0 L 6.546875 0 L 4.59375 -4.46875 L 3.421875 -4.46875 L 3.421875 0 L 1.03125 0 Z M 3.421875 -6.3125 L 4.875 -6.3125 C 5.394531 -6.3125 5.800781 -6.453125 6.09375 -6.734375 C 6.394531 -7.015625 6.546875 -7.394531 6.546875 -7.875 C 6.546875 -8.375 6.394531 -8.769531 6.09375 -9.0625 C 5.789062 -9.351562 5.382812 -9.5 4.875 -9.5 L 3.421875 -9.5 Z M 3.421875 -6.3125" transform="translate(175.226593, 100.960782)"/></g></g></g><g fill="#000" fill-opacity="1"><g><g><path d="M 4.796875 -2.234375 C 5.285156 -2.234375 5.675781 -2.367188 5.96875 -2.640625 C 6.269531 -2.921875 6.421875 -3.289062 6.421875 -3.75 L 6.421875 -7.765625 C 6.421875 -8.210938 6.269531 -8.570312 5.96875 -8.84375 C 5.675781 -9.125 5.285156 -9.265625 4.796875 -9.265625 L 3.40625 -9.265625 L 3.40625 -2.234375 Z M 1 0 L 1 -11.5 L 4.796875 -11.5 C 5.398438 -11.5 5.945312 -11.410156 6.4375 -11.234375 C 6.9375 -11.054688 7.359375 -10.800781 7.703125 -10.46875 C 8.054688 -10.144531 8.328125 -9.753906 8.515625 -9.296875 C 8.710938 -8.835938 8.8125 -8.328125 8.8125 -7.765625 L 8.8125 -3.75 C 8.8125 -3.1875 8.710938 -2.671875 8.515625 -2.203125 C 8.328125 -1.742188 8.054688 -1.351562 7.703125 -1.03125 C 7.359375 -0.707031 6.9375 -0.453125 6.4375 -0.265625 C 5.945312 -0.0859375 5.398438 0 4.796875 0 Z M 1 0" transform="translate(184.80434, 100.960782)"/></g></g></g><g fill="#000" fill-opacity="1"><g><g><path d="M 3.453125 -0.953125 C 3.960938 -0.953125 4.367188 -1.101562 4.671875 -1.40625 C 4.984375 -1.71875 5.140625 -2.128906 5.140625 -2.640625 L 5.140625 -6 C 5.140625 -6.5 4.984375 -6.898438 4.671875 -7.203125 C 4.367188 -7.503906 3.960938 -7.65625 3.453125 -7.65625 L 2.125 -7.65625 L 2.125 -0.953125 Z M 1.046875 0 L 1.046875 -8.625 L 3.453125 -8.625 C 3.867188 -8.625 4.242188 -8.554688 4.578125 -8.421875 C 4.921875 -8.296875 5.210938 -8.117188 5.453125 -7.890625 C 5.703125 -7.660156 5.890625 -7.382812 6.015625 -7.0625 C 6.148438 -6.738281 6.21875 -6.382812 6.21875 -6 L 6.21875 -2.640625 C 6.21875 -2.242188 6.148438 -1.878906 6.015625 -1.546875 C 5.890625 -1.222656 5.703125 -0.945312 5.453125 -0.71875 C 5.210938 -0.5 4.921875 -0.320312 4.578125 -0.1875 C 4.242188 -0.0625 3.867188 0 3.453125 0 Z M 1.046875 0" transform="translate(73.453937, 387.005005)"/></g></g></g><g fill="#000" fill-opacity="1"><g><g><path d="M 1.34375 -6.578125 L 2.359375 -6.578125 L 2.359375 -5.453125 L 2.453125 -5.453125 C 2.554688 -5.835938 2.769531 -6.140625 3.09375 -6.359375 C 3.425781 -6.585938 3.832031 -6.703125 4.3125 -6.703125 C 5 -6.703125 5.539062 -6.484375 5.9375 -6.046875 C 6.332031 -5.609375 6.53125 -5.015625 6.53125 -4.265625 L 6.53125 -3.890625 L 5.453125 -3.890625 L 5.453125 -4.125 C 5.453125 -4.644531 5.320312 -5.046875 5.0625 -5.328125 C 4.8125 -5.609375 4.445312 -5.75 3.96875 -5.75 C 3.488281 -5.75 3.109375 -5.601562 2.828125 -5.3125 C 2.554688 -5.03125 2.421875 -4.632812 2.421875 -4.125 L 2.421875 0 L 1.34375 0 Z M 1.34375 -6.578125" transform="translate(80.638992, 387.005005)"/></g></g></g><g fill="#000" fill-opacity="1"><g><g><path d="M 0.75 -1.921875 C 0.75 -2.222656 0.800781 -2.5 0.90625 -2.75 C 1.019531 -3.007812 1.175781 -3.222656 1.375 -3.390625 C 1.582031 -3.566406 1.828125 -3.703125 2.109375 -3.796875 C 2.398438 -3.898438 2.726562 -3.953125 3.09375 -3.953125 L 5.046875 -3.953125 L 5.046875 -4.484375 C 5.046875 -4.890625 4.910156 -5.207031 4.640625 -5.4375 C 4.378906 -5.664062 4 -5.78125 3.5 -5.78125 C 3.125 -5.78125 2.804688 -5.710938 2.546875 -5.578125 C 2.296875 -5.441406 2.125 -5.253906 2.03125 -5.015625 L 0.953125 -5.015625 C 1.066406 -5.535156 1.351562 -5.945312 1.8125 -6.25 C 2.269531 -6.550781 2.835938 -6.703125 3.515625 -6.703125 C 4.328125 -6.703125 4.960938 -6.507812 5.421875 -6.125 C 5.890625 -5.75 6.125 -5.222656 6.125 -4.546875 L 6.125 0 L 5.140625 0 L 5.140625 -1.25 L 5.046875 -1.25 C 4.941406 -0.832031 4.695312 -0.5 4.3125 -0.25 C 3.9375 0 3.472656 0.125 2.921875 0.125 C 2.253906 0.125 1.722656 -0.0546875 1.328125 -0.421875 C 0.941406 -0.796875 0.75 -1.296875 0.75 -1.921875 Z M 3.15625 -0.765625 C 3.425781 -0.765625 3.675781 -0.800781 3.90625 -0.875 C 4.144531 -0.945312 4.347656 -1.046875 4.515625 -1.171875 C 4.679688 -1.304688 4.8125 -1.460938 4.90625 -1.640625 C 5 -1.816406 5.046875 -2.007812 5.046875 -2.21875 L 5.046875 -3.109375 L 3.109375 -3.109375 C 2.710938 -3.109375 2.398438 -3.003906 2.171875 -2.796875 C 1.941406 -2.585938 1.828125 -2.300781 1.828125 -1.9375 C 1.828125 -1.570312 1.941406 -1.285156 2.171875 -1.078125 C 2.410156 -0.867188 2.738281 -0.765625 3.15625 -0.765625 Z M 3.15625 -0.765625" transform="translate(87.824046, 387.005005)"/></g></g></g><g fill="#000" fill-opacity="1"><g><g><path d="M 0.359375 -6.578125 L 1.25 -6.578125 L 1.828125 -2.078125 C 1.847656 -1.953125 1.863281 -1.804688 1.875 -1.640625 C 1.894531 -1.472656 1.910156 -1.3125 1.921875 -1.15625 C 1.953125 -0.957031 1.972656 -0.765625 1.984375 -0.578125 L 2.109375 -0.578125 C 2.128906 -0.773438 2.148438 -0.96875 2.171875 -1.15625 C 2.203125 -1.3125 2.226562 -1.472656 2.25 -1.640625 C 2.269531 -1.816406 2.289062 -1.960938 2.3125 -2.078125 L 3 -6.578125 L 4.171875 -6.578125 L 4.84375 -2.078125 C 4.863281 -1.953125 4.882812 -1.800781 4.90625 -1.625 C 4.925781 -1.457031 4.953125 -1.296875 4.984375 -1.140625 C 5.003906 -0.953125 5.023438 -0.765625 5.046875 -0.578125 L 5.1875 -0.578125 C 5.207031 -0.765625 5.226562 -0.957031 5.25 -1.15625 C 5.269531 -1.3125 5.289062 -1.472656 5.3125 -1.640625 C 5.332031 -1.804688 5.347656 -1.953125 5.359375 -2.078125 L 5.953125 -6.578125 L 6.828125 -6.578125 L 5.890625 0 L 4.421875 0 L 3.734375 -4.65625 C 3.710938 -4.789062 3.695312 -4.929688 3.6875 -5.078125 C 3.675781 -5.222656 3.664062 -5.363281 3.65625 -5.5 C 3.65625 -5.632812 3.65625 -5.773438 3.65625 -5.921875 L 3.53125 -5.921875 C 3.519531 -5.773438 3.507812 -5.632812 3.5 -5.5 C 3.5 -5.363281 3.488281 -5.222656 3.46875 -5.078125 C 3.457031 -4.929688 3.441406 -4.789062 3.421875 -4.65625 L 2.703125 0 L 1.28125 0 Z M 0.359375 -6.578125" transform="translate(95.009101, 387.005005)"/></g></g></g><g fill="#000" fill-opacity="1"><g><g><path d="M 6.140625 -6.34375 C 6.140625 -5.695312 5.960938 -5.070312 5.609375 -4.46875 C 5.253906 -3.863281 4.6875 -3.226562 3.90625 -2.5625 L 2.46875 -1.296875 C 2.425781 -1.265625 2.378906 -1.234375 2.328125 -1.203125 C 2.285156 -1.171875 2.238281 -1.140625 2.1875 -1.109375 C 2.125 -1.066406 2.066406 -1.03125 2.015625 -1 L 2.015625 -0.953125 C 2.140625 -0.960938 2.257812 -0.96875 2.375 -0.96875 C 2.488281 -0.976562 2.601562 -0.984375 2.71875 -0.984375 C 2.832031 -0.984375 2.941406 -0.984375 3.046875 -0.984375 L 6.21875 -0.984375 L 6.21875 0 L 0.84375 0 L 0.84375 -1.203125 L 3.109375 -3.140625 C 3.453125 -3.441406 3.742188 -3.722656 3.984375 -3.984375 C 4.234375 -4.242188 4.429688 -4.5 4.578125 -4.75 C 4.734375 -5.007812 4.847656 -5.265625 4.921875 -5.515625 C 4.992188 -5.773438 5.03125 -6.046875 5.03125 -6.328125 C 5.03125 -6.773438 4.894531 -7.128906 4.625 -7.390625 C 4.351562 -7.648438 3.992188 -7.78125 3.546875 -7.78125 C 3.035156 -7.78125 2.628906 -7.644531 2.328125 -7.375 C 2.035156 -7.113281 1.890625 -6.769531 1.890625 -6.34375 L 0.78125 -6.34375 C 0.789062 -6.695312 0.863281 -7.019531 1 -7.3125 C 1.132812 -7.613281 1.320312 -7.867188 1.5625 -8.078125 C 1.8125 -8.285156 2.101562 -8.445312 2.4375 -8.5625 C 2.769531 -8.675781 3.140625 -8.734375 3.546875 -8.734375 C 3.941406 -8.734375 4.296875 -8.675781 4.609375 -8.5625 C 4.929688 -8.457031 5.203125 -8.300781 5.421875 -8.09375 C 5.648438 -7.882812 5.828125 -7.628906 5.953125 -7.328125 C 6.078125 -7.035156 6.140625 -6.707031 6.140625 -6.34375 Z M 6.140625 -6.34375" transform="translate(109.379209, 387.005005)"/></g></g></g><g fill="#000" fill-opacity="1"><g><g><path d="M 3.59375 0.125 C 2.769531 0.125 2.125 -0.0976562 1.65625 -0.546875 C 1.1875 -0.992188 0.953125 -1.609375 0.953125 -2.390625 L 0.953125 -4.1875 C 0.953125 -4.96875 1.1875 -5.582031 1.65625 -6.03125 C 2.125 -6.476562 2.769531 -6.703125 3.59375 -6.703125 C 4.414062 -6.703125 5.054688 -6.476562 5.515625 -6.03125 C 5.984375 -5.582031 6.21875 -4.96875 6.21875 -4.1875 L 6.21875 -2.984375 L 2.03125 -2.984375 L 2.03125 -2.453125 C 2.03125 -1.953125 2.164062 -1.554688 2.4375 -1.265625 C 2.71875 -0.984375 3.101562 -0.84375 3.59375 -0.84375 C 3.945312 -0.84375 4.253906 -0.894531 4.515625 -1 C 4.785156 -1.113281 4.984375 -1.28125 5.109375 -1.5 L 6.1875 -1.5 C 6.050781 -0.988281 5.75 -0.585938 5.28125 -0.296875 C 4.8125 -0.015625 4.25 0.125 3.59375 0.125 Z M 5.140625 -3.875 L 5.140625 -4.1875 C 5.140625 -4.6875 5.003906 -5.070312 4.734375 -5.34375 C 4.460938 -5.613281 4.082031 -5.75 3.59375 -5.75 C 3.09375 -5.75 2.707031 -5.613281 2.4375 -5.34375 C 2.164062 -5.070312 2.03125 -4.6875 2.03125 -4.1875 L 2.03125 -3.875 Z M 5.140625 -3.875" transform="translate(123.749318, 387.005005)"/></g></g></g><g fill="#000" fill-opacity="1"><g><g><path d="M 0.578125 0 L 2.953125 -3.375 L 0.71875 -6.578125 L 2.015625 -6.578125 L 3.390625 -4.484375 C 3.429688 -4.429688 3.460938 -4.378906 3.484375 -4.328125 C 3.503906 -4.273438 3.523438 -4.226562 3.546875 -4.1875 C 3.554688 -4.144531 3.566406 -4.101562 3.578125 -4.0625 L 3.625 -4.0625 C 3.632812 -4.101562 3.644531 -4.144531 3.65625 -4.1875 C 3.675781 -4.226562 3.695312 -4.273438 3.71875 -4.328125 C 3.75 -4.378906 3.78125 -4.429688 3.8125 -4.484375 L 5.1875 -6.578125 L 6.46875 -6.578125 L 4.234375 -3.390625 L 6.609375 0 L 5.3125 0 L 3.84375 -2.21875 C 3.8125 -2.28125 3.78125 -2.335938 3.75 -2.390625 C 3.71875 -2.441406 3.691406 -2.488281 3.671875 -2.53125 C 3.648438 -2.59375 3.628906 -2.644531 3.609375 -2.6875 L 3.5625 -2.6875 C 3.550781 -2.632812 3.53125 -2.582031 3.5 -2.53125 C 3.476562 -2.488281 3.457031 -2.4375 3.4375 -2.375 C 3.414062 -2.320312 3.382812 -2.269531 3.34375 -2.21875 L 1.859375 0 Z M 0.578125 0" transform="translate(130.934372, 387.005005)"/></g></g></g><g fill="#000" fill-opacity="1"><g><g><path d="M 0.71875 -6.578125 L 2.640625 -6.578125 L 2.640625 -8.625 L 3.703125 -8.625 L 3.703125 -6.578125 L 6.28125 -6.578125 L 6.28125 -5.59375 L 3.703125 -5.59375 L 3.703125 -1.703125 C 3.703125 -1.472656 3.769531 -1.296875 3.90625 -1.171875 C 4.050781 -1.046875 4.242188 -0.984375 4.484375 -0.984375 L 6.15625 -0.984375 L 6.15625 0 L 4.484375 0 C 3.921875 0 3.472656 -0.15625 3.140625 -0.46875 C 2.804688 -0.78125 2.640625 -1.191406 2.640625 -1.703125 L 2.640625 -5.59375 L 0.71875 -5.59375 Z M 0.71875 -6.578125" transform="translate(138.119427, 387.005005)"/></g></g></g><g fill="#000" fill-opacity="1"><g><g><path d="M 1.34375 -6.578125 L 2.359375 -6.578125 L 2.359375 -5.453125 L 2.453125 -5.453125 C 2.554688 -5.835938 2.769531 -6.140625 3.09375 -6.359375 C 3.425781 -6.585938 3.832031 -6.703125 4.3125 -6.703125 C 5 -6.703125 5.539062 -6.484375 5.9375 -6.046875 C 6.332031 -5.609375 6.53125 -5.015625 6.53125 -4.265625 L 6.53125 -3.890625 L 5.453125 -3.890625 L 5.453125 -4.125 C 5.453125 -4.644531 5.320312 -5.046875 5.0625 -5.328125 C 4.8125 -5.609375 4.445312 -5.75 3.96875 -5.75 C 3.488281 -5.75 3.109375 -5.601562 2.828125 -5.3125 C 2.554688 -5.03125 2.421875 -4.632812 2.421875 -4.125 L 2.421875 0 L 1.34375 0 Z M 1.34375 -6.578125" transform="translate(145.304481, 387.005005)"/></g></g></g><g fill="#000" fill-opacity="1"><g><g><path d="M 0.75 -1.921875 C 0.75 -2.222656 0.800781 -2.5 0.90625 -2.75 C 1.019531 -3.007812 1.175781 -3.222656 1.375 -3.390625 C 1.582031 -3.566406 1.828125 -3.703125 2.109375 -3.796875 C 2.398438 -3.898438 2.726562 -3.953125 3.09375 -3.953125 L 5.046875 -3.953125 L 5.046875 -4.484375 C 5.046875 -4.890625 4.910156 -5.207031 4.640625 -5.4375 C 4.378906 -5.664062 4 -5.78125 3.5 -5.78125 C 3.125 -5.78125 2.804688 -5.710938 2.546875 -5.578125 C 2.296875 -5.441406 2.125 -5.253906 2.03125 -5.015625 L 0.953125 -5.015625 C 1.066406 -5.535156 1.351562 -5.945312 1.8125 -6.25 C 2.269531 -6.550781 2.835938 -6.703125 3.515625 -6.703125 C 4.328125 -6.703125 4.960938 -6.507812 5.421875 -6.125 C 5.890625 -5.75 6.125 -5.222656 6.125 -4.546875 L 6.125 0 L 5.140625 0 L 5.140625 -1.25 L 5.046875 -1.25 C 4.941406 -0.832031 4.695312 -0.5 4.3125 -0.25 C 3.9375 0 3.472656 0.125 2.921875 0.125 C 2.253906 0.125 1.722656 -0.0546875 1.328125 -0.421875 C 0.941406 -0.796875 0.75 -1.296875 0.75 -1.921875 Z M 3.15625 -0.765625 C 3.425781 -0.765625 3.675781 -0.800781 3.90625 -0.875 C 4.144531 -0.945312 4.347656 -1.046875 4.515625 -1.171875 C 4.679688 -1.304688 4.8125 -1.460938 4.90625 -1.640625 C 5 -1.816406 5.046875 -2.007812 5.046875 -2.21875 L 5.046875 -3.109375 L 3.109375 -3.109375 C 2.710938 -3.109375 2.398438 -3.003906 2.171875 -2.796875 C 1.941406 -2.585938 1.828125 -2.300781 1.828125 -1.9375 C 1.828125 -1.570312 1.941406 -1.285156 2.171875 -1.078125 C 2.410156 -0.867188 2.738281 -0.765625 3.15625 -0.765625 Z M 3.15625 -0.765625" transform="translate(152.489536, 387.005005)"/></g></g></g><g fill="#000" fill-opacity="1"><g><g><path d="M 3.6875 0.125 C 3.28125 0.125 2.914062 0.0664062 2.59375 -0.046875 C 2.269531 -0.171875 1.992188 -0.34375 1.765625 -0.5625 C 1.535156 -0.789062 1.359375 -1.0625 1.234375 -1.375 C 1.109375 -1.695312 1.046875 -2.054688 1.046875 -2.453125 L 1.046875 -4.125 C 1.046875 -4.519531 1.109375 -4.875 1.234375 -5.1875 C 1.359375 -5.507812 1.535156 -5.78125 1.765625 -6 C 1.992188 -6.226562 2.269531 -6.398438 2.59375 -6.515625 C 2.914062 -6.640625 3.28125 -6.703125 3.6875 -6.703125 C 4.414062 -6.703125 5.007812 -6.503906 5.46875 -6.109375 C 5.9375 -5.710938 6.21875 -5.171875 6.3125 -4.484375 L 5.25 -4.484375 C 5.1875 -4.867188 5.015625 -5.175781 4.734375 -5.40625 C 4.453125 -5.632812 4.101562 -5.75 3.6875 -5.75 C 3.207031 -5.75 2.828125 -5.601562 2.546875 -5.3125 C 2.265625 -5.03125 2.125 -4.632812 2.125 -4.125 L 2.125 -2.453125 C 2.125 -1.953125 2.257812 -1.554688 2.53125 -1.265625 C 2.8125 -0.984375 3.195312 -0.84375 3.6875 -0.84375 C 4.101562 -0.84375 4.453125 -0.953125 4.734375 -1.171875 C 5.015625 -1.398438 5.1875 -1.707031 5.25 -2.09375 L 6.3125 -2.09375 C 6.207031 -1.394531 5.921875 -0.847656 5.453125 -0.453125 C 4.992188 -0.0664062 4.40625 0.125 3.6875 0.125 Z M 3.6875 0.125" transform="translate(166.859644, 387.005005)"/></g></g></g><g fill="#000" fill-opacity="1"><g><g><path d="M 0.75 -1.921875 C 0.75 -2.222656 0.800781 -2.5 0.90625 -2.75 C 1.019531 -3.007812 1.175781 -3.222656 1.375 -3.390625 C 1.582031 -3.566406 1.828125 -3.703125 2.109375 -3.796875 C 2.398438 -3.898438 2.726562 -3.953125 3.09375 -3.953125 L 5.046875 -3.953125 L 5.046875 -4.484375 C 5.046875 -4.890625 4.910156 -5.207031 4.640625 -5.4375 C 4.378906 -5.664062 4 -5.78125 3.5 -5.78125 C 3.125 -5.78125 2.804688 -5.710938 2.546875 -5.578125 C 2.296875 -5.441406 2.125 -5.253906 2.03125 -5.015625 L 0.953125 -5.015625 C 1.066406 -5.535156 1.351562 -5.945312 1.8125 -6.25 C 2.269531 -6.550781 2.835938 -6.703125 3.515625 -6.703125 C 4.328125 -6.703125 4.960938 -6.507812 5.421875 -6.125 C 5.890625 -5.75 6.125 -5.222656 6.125 -4.546875 L 6.125 0 L 5.140625 0 L 5.140625 -1.25 L 5.046875 -1.25 C 4.941406 -0.832031 4.695312 -0.5 4.3125 -0.25 C 3.9375 0 3.472656 0.125 2.921875 0.125 C 2.253906 0.125 1.722656 -0.0546875 1.328125 -0.421875 C 0.941406 -0.796875 0.75 -1.296875 0.75 -1.921875 Z M 3.15625 -0.765625 C 3.425781 -0.765625 3.675781 -0.800781 3.90625 -0.875 C 4.144531 -0.945312 4.347656 -1.046875 4.515625 -1.171875 C 4.679688 -1.304688 4.8125 -1.460938 4.90625 -1.640625 C 5 -1.816406 5.046875 -2.007812 5.046875 -2.21875 L 5.046875 -3.109375 L 3.109375 -3.109375 C 2.710938 -3.109375 2.398438 -3.003906 2.171875 -2.796875 C 1.941406 -2.585938 1.828125 -2.300781 1.828125 -1.9375 C 1.828125 -1.570312 1.941406 -1.285156 2.171875 -1.078125 C 2.410156 -0.867188 2.738281 -0.765625 3.15625 -0.765625 Z M 3.15625 -0.765625" transform="translate(174.044699, 387.005005)"/></g></g></g><g fill="#000" fill-opacity="1"><g><g><path d="M 1.34375 -6.578125 L 2.359375 -6.578125 L 2.359375 -5.453125 L 2.453125 -5.453125 C 2.554688 -5.835938 2.769531 -6.140625 3.09375 -6.359375 C 3.425781 -6.585938 3.832031 -6.703125 4.3125 -6.703125 C 5 -6.703125 5.539062 -6.484375 5.9375 -6.046875 C 6.332031 -5.609375 6.53125 -5.015625 6.53125 -4.265625 L 6.53125 -3.890625 L 5.453125 -3.890625 L 5.453125 -4.125 C 5.453125 -4.644531 5.320312 -5.046875 5.0625 -5.328125 C 4.8125 -5.609375 4.445312 -5.75 3.96875 -5.75 C 3.488281 -5.75 3.109375 -5.601562 2.828125 -5.3125 C 2.554688 -5.03125 2.421875 -4.632812 2.421875 -4.125 L 2.421875 0 L 1.34375 0 Z M 1.34375 -6.578125" transform="translate(181.229753, 387.005005)"/></g></g></g><g fill="#000" fill-opacity="1"><g><g><path d="M 0.953125 -4.125 C 0.953125 -4.53125 1.003906 -4.890625 1.109375 -5.203125 C 1.222656 -5.523438 1.375 -5.796875 1.5625 -6.015625 C 1.757812 -6.234375 1.992188 -6.398438 2.265625 -6.515625 C 2.535156 -6.640625 2.835938 -6.703125 3.171875 -6.703125 C 3.660156 -6.703125 4.0625 -6.59375 4.375 -6.375 C 4.695312 -6.15625 4.910156 -5.847656 5.015625 -5.453125 L 5.109375 -5.453125 C 5.097656 -5.585938 5.09375 -5.722656 5.09375 -5.859375 C 5.070312 -5.972656 5.054688 -6.09375 5.046875 -6.21875 C 5.046875 -6.351562 5.046875 -6.472656 5.046875 -6.578125 L 5.046875 -8.734375 L 6.125 -8.734375 L 6.125 0 L 5.109375 0 L 5.109375 -1.140625 L 5.015625 -1.140625 C 4.910156 -0.734375 4.695312 -0.421875 4.375 -0.203125 C 4.0625 0.015625 3.660156 0.125 3.171875 0.125 C 2.835938 0.125 2.535156 0.0664062 2.265625 -0.046875 C 1.992188 -0.171875 1.757812 -0.34375 1.5625 -0.5625 C 1.375 -0.78125 1.222656 -1.050781 1.109375 -1.375 C 1.003906 -1.695312 0.953125 -2.054688 0.953125 -2.453125 Z M 3.578125 -0.8125 C 4.023438 -0.8125 4.378906 -0.957031 4.640625 -1.25 C 4.910156 -1.550781 5.046875 -1.953125 5.046875 -2.453125 L 5.046875 -4.125 C 5.046875 -4.632812 4.910156 -5.035156 4.640625 -5.328125 C 4.378906 -5.617188 4.023438 -5.765625 3.578125 -5.765625 C 3.085938 -5.765625 2.707031 -5.617188 2.4375 -5.328125 C 2.164062 -5.046875 2.03125 -4.644531 2.03125 -4.125 L 2.03125 -2.453125 C 2.03125 -1.953125 2.164062 -1.550781 2.4375 -1.25 C 2.71875 -0.957031 3.097656 -0.8125 3.578125 -0.8125 Z M 3.578125 -0.8125" transform="translate(188.414807, 387.005005)"/></g></g></g><g fill="#000" fill-opacity="1"><g><g><path d="M 3.40625 0.125 C 2.71875 0.125 2.144531 -0.03125 1.6875 -0.34375 C 1.238281 -0.664062 0.984375 -1.085938 0.921875 -1.609375 L 2.0625 -1.609375 C 2.101562 -1.378906 2.25 -1.191406 2.5 -1.046875 C 2.75 -0.910156 3.050781 -0.84375 3.40625 -0.84375 L 3.75 -0.84375 C 4.175781 -0.84375 4.507812 -0.929688 4.75 -1.109375 C 4.988281 -1.285156 5.109375 -1.523438 5.109375 -1.828125 C 5.109375 -2.347656 4.742188 -2.664062 4.015625 -2.78125 L 3.015625 -2.921875 C 2.367188 -3.015625 1.882812 -3.21875 1.5625 -3.53125 C 1.25 -3.84375 1.09375 -4.273438 1.09375 -4.828125 C 1.09375 -5.421875 1.300781 -5.878906 1.71875 -6.203125 C 2.132812 -6.535156 2.71875 -6.703125 3.46875 -6.703125 L 3.8125 -6.703125 C 4.125 -6.703125 4.414062 -6.660156 4.6875 -6.578125 C 4.957031 -6.503906 5.195312 -6.390625 5.40625 -6.234375 C 5.613281 -6.085938 5.78125 -5.910156 5.90625 -5.703125 C 6.039062 -5.503906 6.128906 -5.28125 6.171875 -5.03125 L 5.03125 -5.03125 C 4.988281 -5.238281 4.851562 -5.410156 4.625 -5.546875 C 4.40625 -5.679688 4.132812 -5.75 3.8125 -5.75 L 3.46875 -5.75 C 3.0625 -5.75 2.742188 -5.664062 2.515625 -5.5 C 2.285156 -5.34375 2.171875 -5.101562 2.171875 -4.78125 C 2.171875 -4.53125 2.25 -4.335938 2.40625 -4.203125 C 2.5625 -4.078125 2.816406 -3.988281 3.171875 -3.9375 L 4.171875 -3.796875 C 4.878906 -3.691406 5.394531 -3.484375 5.71875 -3.171875 C 6.039062 -2.859375 6.203125 -2.414062 6.203125 -1.84375 C 6.203125 -1.226562 5.988281 -0.742188 5.5625 -0.390625 C 5.132812 -0.046875 4.53125 0.125 3.75 0.125 Z M 3.40625 0.125" transform="translate(195.599862, 387.005005)"/></g></g></g><g fill="#000" fill-opacity="1"><g><g><path d="M 2.5625 -0.953125 C 2.5625 -1.253906 2.65625 -1.5 2.84375 -1.6875 C 3.03125 -1.875 3.28125 -1.96875 3.59375 -1.96875 C 3.90625 -1.96875 4.15625 -1.875 4.34375 -1.6875 C 4.53125 -1.5 4.625 -1.253906 4.625 -0.953125 C 4.625 -0.628906 4.53125 -0.367188 4.34375 -0.171875 C 4.15625 0.0234375 3.90625 0.125 3.59375 0.125 C 3.28125 0.125 3.03125 0.0234375 2.84375 -0.171875 C 2.65625 -0.367188 2.5625 -0.628906 2.5625 -0.953125 Z M 2.5625 -0.953125" transform="translate(202.784916, 387.005005)"/></g></g></g></svg>